<?xml version="1.0" encoding="UTF-8"?>
<svg id="_Слой_1" data-name="Слой 1" xmlns="http://www.w3.org/2000/svg" viewBox="0 0 217.68 328.08">
  <defs>
    <style>
      .cls-1 {
        fill: #f4c472;
      }

      .cls-2 {
        fill: #ece9e1;
      }

      .cls-3 {
        fill: #cca562;
      }

      .cls-4 {
        fill: #c4c5c4;
      }

      .cls-5 {
        fill: #d9dad7;
      }

      .cls-6 {
        fill: #e2b365;
      }

      .cls-7 {
        fill: #433228;
      }

      .cls-8 {
        fill: #291e18;
      }

      .cls-9 {
        fill: #264e75;
      }

      .cls-10 {
        fill: #717270;
      }

      .cls-11 {
        fill: #221f20;
        font-family: Helvetica, Helvetica;
        font-size: 27px;
      }
    </style>
  </defs>
  <g>
    <path class="cls-3" d="M109.39,0V.86c.49,0,.99,.12,1.72,.12v1.97c-.49,0-.99,.12-1.6,.12v2.34c.62,.12,1.23,.25,1.97,.49,.25,.37,.49,.99,.74,1.48-.37,.99-.25,2.09-1.36,2.71-.12,0-.37-.12-.62-.25-.25,.12-.49,.25-.86,.49,.12,.99-.25,2.09,.37,3.2,1.6-.25,3.33,.37,4.93-.49,0-.62-.74-.74-.49-1.36,.25-.49,.37-.86,.62-1.48-.37-.12-.74-.25-1.11-.25-.12-.25-.25-.37-.37-.62,.12-.12,.25-.25,.49-.49-.25-.62-.49-1.23-.86-2.09,.49-.12,.99-.12,1.48-.25,.74-1.36,.12-2.83,.49-4.56,.25,.49,.37,.74,.62,1.11h1.48v1.85c-.49,.12-1.11,.25-1.6,.49v1.11h1.72c.86,.62,.99,1.48,.86,2.71-.25,.25-.62,.49-1.23,.86h-1.36c.12,.99,.25,1.97,.25,3.08,1.48-.25,2.34-1.6,3.7-2.22,.25,1.11-.62,1.23-1.11,1.85v2.46c-1.23,1.36-2.83,2.34-4.43,3.2h-3.57c-.25,.25-.49,.37-.74,.62v3.33c1.11,1.6,1.11,1.85,.25,3.2v1.48c.25,.37,.49,.62,.86,.99v1.6c-.12,.25-.37,.49-.49,.74,0,2.83-.12,5.67,0,8.5,.12,1.85,0,3.57,.25,5.42,.37,2.22,0,4.56,.25,6.78,.25,1.85,0,3.82,.25,5.67,.25,2.09,.12,4.07,.25,6.16,.12,2.09,0,4.19,.37,6.28,.25,1.97,.12,4.07,.25,6.04,.12,2.09,0,4.31,.37,6.41,.25,1.72,.12,3.57,.25,5.3,.12,2.34,0,4.8,.37,7.14,.25,1.72,.12,3.33,.25,4.93,.37,.74,.49,1.36,.86,1.97,.74,1.36,1.6,2.59,2.34,3.82,.12,.25,.12,.49,.25,.74h-15.15c.12-.49,.25-.99,.37-1.48,.25-.12,.49-.12,.62-.25,.37-.62,.74-1.23,1.11-1.85,.25-.49,.37-.99,.62-1.36,.12-.49,.37-.99,.49-1.48h.12c0-.74-.12-1.6,0-2.34,.25-2.46,.12-4.8,.49-7.27,.25-1.48,0-3.08,.12-4.56,.12-2.09,0-4.19,.37-6.28,.25-1.48,.12-2.96,.25-4.43,.12-2.59,0-5.3,.37-7.88,.25-2.22,.12-4.43,.25-6.65,.12-2.34,0-4.68,.37-7.02,.25-1.85,.12-3.57,.25-5.42,.12-2.46,0-5.05,.37-7.51,.37-3.08,.12-6.16,.25-9.36-.25-.25-.37-.49-.62-.74q-.12-1.48,.86-2.71v-1.6c-.12-.37-.37-.86-.74-1.48,.25-.62,.62-1.11,.99-1.85v-3.45c-1.6-.12-3.2,0-4.93,.25-.12-.99-.25-1.97-.37-2.96-.37-.49-.74-.99-1.11-1.36,.12-1.23,.99-.74,1.6-.99,.49-.62,.49-1.23,.37-2.09-.49-.12-.86-.25-1.36-.37,.37-1.11,.62-2.09-.25-3.2,.74-.25,1.23-.37,1.85-.62,.37-1.11,.12-2.22,.25-3.33,.12,.12,.25,.37,.49,.49h1.72c.12,.37,.12,.74,.12,1.11h2.22V0h.62Zm-.86,9.86c-.37-.12-.74-.12-1.11-.25,.25-.62,.37-1.23,.62-1.85-.25-.49-.49-.99-.62-1.48h-2.96c0,.49,0,.99,.12,1.23,.49,.12,.86,.25,1.23,.37,.12,.62,.25,1.11,.37,1.6-.25,.99-.49,1.85-1.72,1.85v2.09c1.6,.25,3.08,.25,4.07-.12v-3.45Z"/>
    <path class="cls-2" d="M217.67,278.78v3.57h-.25v-2.34h-10.84c-.74,.62-.25,1.48-.49,2.22h-1.11c-1.11-.37-2.22-.37-3.33,0h-2.59c0-.74,0-1.48-.12-2.22h-15.52c0,.74-.12,1.48-.12,2.22h-2.34c-.37-.25-.62-.25-.99,0h-.49c-.37-.25-.62-.25-.99,0h-1.97c-.12-.74-.37-1.48-.49-2.22h-13.43c-.25-.12-.49-.25-.86-.49v-.49h14.04c.25,0,.37-.12,.62-.25,.37-.86,.37-2.46,0-3.33h-1.23c-.12-.12-.25-.25-.49-.25h-9.12c-.12,0-.25,.12-.49,.25h-.62c-.12-.12-.25-.25-.49-.25h-1.97c-.25-.12-.37-.12-.86-.25,.49-.12,.74-.25,.86-.37h12.69c.25,0,.62-.12,.86-.25,.12,0,.37,0,.62-.12v-2.22c.86-.74,1.97-.12,2.83-.49-.37-.74-.86-.49-1.48-.49h-15.65c-.49-.37-.99-.62-1.48-.86h-4.19c-1.6,0-3.33-.25-4.93,.25,0,0-.12-.12-.12-.25v-.74h9.49c.25,.12,.37,.12,.62,.25,.49,.12,.99,.25,1.48,.25h15.52c.37-.86,.99-1.11,1.97-1.23,.37,.49,.74,.99,1.23,1.6,0-.12,.12-.25,.12-.37h19.46c.37-.37,.74-.62,.99-.86h1.11c.37,.37,.62,.62,.86,.86,.62,.12,1.11,.25,1.72,.37h7.64c1.48,.12,2.83-.12,4.19-.62v1.23h-12.57c-.37,0-.86-.25-.99,.25-.12,.12-.25,.25-.49,.49,.99,.12,1.85,.12,2.59,.25v2.46c.25,0,.37,.12,.49,.12,.25,.12,.62,.25,.86,.25h10.1v.62h-9.12c-.25,0-.62,.12-.86,.25h-1.11c0-.12-.12-.12-.12-.25,0,.12-.12,.12-.12,.25v3.08c.49,.12,.86,.25,1.23,.37,.12-.12,.25-.25,.37-.25,3.2,.12,6.53,.12,9.86,0Zm-34-3.45c0-.12-.12-.12-.12-.25,0,.12-.12,.12-.12,.25,0,1.11-.12,2.34,.12,3.45,4.8,.25,14.66,.12,15.89-.12v-3.08c-.25,0-.49-.12-.62-.12-.12-.12-.25-.25-.49-.25h-13.3c-.12,0-.37,.12-.49,.25-.25,0-.62-.12-.86-.12Zm15.4-.86c.12-.25,.25-.49,.25-.74v-1.97h2.59c-.37-.74-.99-.62-1.48-.62h-18.97c-.25,.12-.49,.25-.74,.37q0,.12,.12,.25h2.59v2.59c.12,.12,.37,.37,.49,.37h14.66c.12,0,.25-.12,.49-.25Zm6.41,6.9c.25-2.34,.12-8.01-.12-8.99h-2.59c-.86,0-1.85-.12-2.71,.12v8.87h5.42Zm-28.21-8.99c-.25,2.59-.12,8.01,.12,8.99h2.59c.86,0,1.85,.12,2.71-.12v-8.99c-1.85,.12-3.57,.12-5.42,.12Z"/>
    <path class="cls-2" d="M0,266.95v-44.1H55.8c.49,.99,.49,1.97,0,2.96H.25v41.02c0,.12-.12,.25-.25,.12Z"/>
    <path class="cls-2" d="M217.67,222.97v2.96h-.25c-.37-.62-.86-.25-1.36-.25h-53.96c-.12-.25-.37-.37-.49-.49,0-.74,.12-1.48,.12-2.22h55.93Z"/>
    <path class="cls-3" d="M205.85,270.28c-.49-.12-.99-.25-1.72-.37-.25-.25-.49-.49-.86-.86h-1.11c-.25,.25-.62,.49-.99,.86h-19.46c0,.12-.12,.25-.12,.37-.37-.49-.86-1.11-1.23-1.6-.99,.12-1.6,.37-1.97,1.23h-15.52c-.49,0-.99-.25-1.48-.25v-.25c.12-.12,.25-.25,.49-.62h-9.98c-.25,0-.74,.25-.86-.37h10.1c.12-.37,.37-.62,.49-.86,.49-.12,.99-.25,1.48-.25h11.83c0,.12,.12,.12,.12,.25,0-.12,.12-.12,.12-.25h2.71c.74,.37,.99,.37,1.72,0h.62c.74,.37,1.11,.37,1.72,0h1.85c.25,.37,.37,.37,.62,0h16.01c.99,.25,1.36,.25,2.34,0h.62c.25,.37,.37,.37,.62,0h1.72c0,.12,.12,.12,.12,.25,0-.12,.12-.12,.12-.25h11.58v2.34c-1.36,.49-2.71,.74-4.19,.62l-.25-.25h-7.02c-.12,0-.12,.12-.25,.25Z"/>
    <path class="cls-2" d="M0,275.82v-1.48H.49c.12,.12,.25,.25,.49,.25h7.64c.12,0,.25-.12,.49-.25,.74,0,1.48,0,2.46-.12v-2.71h2.83c-.49-.37-.62-.49-.86-.62-.12-.12-.25-.25-.49-.25H.99c-.12,0-.25,.12-.49,.25h-.49v-.86H11.21c1.23,0,2.34,0,2.96-1.23h1.36c.25,.37,.62,.74,.99,1.11h19.83c.12-.25,.25-.49,.37-.86,.49-.12,1.11-.25,1.6-.37,.37,.49,.74,.86,.99,1.23h16.63v.37c-.37,.25-.62,.37-.86,.49h-15.77c-.25,.12-.49,.25-.74,.37q0,.12,.12,.25h2.46c.12,.62,.25,1.11,.37,1.72,.12,.37-.25,.86,.25,.99,.25,.49,.74,.25,.99,.25h11.95c.37,0,.86-.25,1.23,.25-.37,.49-.86,.25-1.23,.25h-11.21c-.25,0-.62,.12-.86,.25h-1.23c-.12,.12-.25,.25-.25,.37,.12,.99-.37,1.97,.25,2.83,.12,.49,.62,.25,.86,.25h12.69c.25,0,.62,0,.86,.12-.37,.74-.99,.49-1.48,.49h-12.93c-.12,.62-.25,1.23-.37,1.72v.37c-.12,.12-.12,.25-.25,.37-.62,0-1.23,0-1.85,.12-.37-.25-.62-.25-.99,0h-.49c-.49-.25-.99-.25-1.48,0h-1.36c-.12-.74-.37-1.48-.62-2.34-.25,0-.62-.12-.99-.12h-13.55c-.37,0-.86,.25-1.23,.25v-1.23c.49,.12,.99,.25,1.48,.25h13.43c.37,0,.62,0,.99-.12v-7.02c.37-.12,.62-.25,.99-.25h1.72c.12,0,.12-.12,.25-.12-.37-.25-.74-.49-1.11-.74-.25,.12-.49,.25-.74,.25-.62,0-1.11-.25-1.72-.25h-14.66c-.86,0-1.72,.12-2.71,.12-.12,.12-.37,.37-.74,.74h2.59c.12,.25,.37,.37,.49,.62-.12,.12-.25,.25-.37,.37h-.25c-.12-.12-.25-.12-.37-.25-.12-.12-.25-.37-.37-.37h-4.68c-.12,0-.25,.12-.25,.25-.49,.25-.25,.62-.25,.99v7.51c-.62-.25-.12-.74-.25-1.11-.12-.37,.25-.74-.25-.99v-3.2c0-.12-.12-.12-.12-.25,0,.12-.12,.12-.12,.25h-1.23c-.25-.12-.62-.25-.86-.25H.25c0,.25,0,.37-.12,.49,.12,.62,0,.62-.12,.62Zm40.78-3.45h-2.96c-.86,0-1.85-.12-2.71,.12v8.87h5.54c.25-2.96,0-5.91,.12-8.99Z"/>
    <path class="cls-6" d="M55.93,222.97H.12v-1.23H.86c.12-.25,.37-.37,.37-.62H56.05c.25,.74,.25,1.23-.12,1.85Z"/>
    <path class="cls-6" d="M217.67,222.97h-55.93c-.37-.62-.37-1.23,0-1.72h54.45v.12c.49,.12,.99,.25,1.48,.49v1.11Z"/>
    <path class="cls-7" d="M0,219.65c.25,0,.37,0,.62-.12,.49,0,.86,.12,1.36,.12H55.68c.12,.12,.25,.25,.37,.25v.62H.12c-.12-.25-.12-.49-.12-.86Z"/>
    <path class="cls-7" d="M217.06,219.65c.25,.12,.37,.25,.62,.37v.62h-55.8v-.62c.12-.12,.25-.25,.37-.25h53.83c.25,0,.62-.12,.99-.12Z"/>
    <path class="cls-3" d="M14.29,269.05c-.74,1.11-1.85,1.23-2.96,1.23H.12v-3.2h.25l.12,.12c.12,.49,.62,.25,.86,.25H10.96c.86,0,1.6,0,2.46,.12-.12,.74,.74,.37,.86,.74v.74Z"/>
    <path class="cls-3" d="M206.47,275.57h9.61c.49,0,.99,.25,1.48,.25v2.96c-3.33,0-6.53,0-9.86,.12-.12,0-.25,.12-.37,.25-.37-.12-.74-.25-1.23-.37v-3.08c.12-.12,.25-.12,.37-.12Z"/>
    <path class="cls-3" d="M10.1,275.57h1.23v3.2c-3.7-.12-7.51,.25-11.21-.25v-2.71h.25c.86-.12,1.85-.25,2.71-.25h7.02Z"/>
    <path class="cls-3" d="M161.75,220.63h55.8v1.23c-.49-.12-.99-.25-1.48-.49v-.12h-54.45c.12-.25,.12-.49,.12-.62Z"/>
    <path class="cls-3" d="M0,220.63H55.93v.49H1.11c-.12,.12-.25,.37-.37,.62H0v-1.11Z"/>
    <path class="cls-5" d="M217.68,267.32h-.25v-41.39h.25v41.39Z"/>
    <path class="cls-2" d="M0,282.35v-3.57c.49,.12,.99,.25,1.48,.25H10.84c.12,.25,.25,.62,.25,.86-3.7,0-7.27,0-10.96,.12v2.34c.12,0,0,0-.12,0Z"/>
    <path class="cls-4" d="M204,271.14c.25-.49,.74-.25,.99-.25h12.57v3.82h-10.1c-.25,0-.62-.12-.86-.25h10.59v-3.33h-13.18Z"/>
    <path class="cls-10" d="M66.52,292.45v-.37c.37,0,.74,.12,1.11,.12h13.67v.37c-4.93-.12-9.86-.12-14.78-.12Z"/>
    <path class="cls-6" d="M10.96,279.15H1.6c-.49,0-.99-.12-1.48-.25v-.25c3.7,.49,7.51,.25,11.21,.25-.12,0-.25,.12-.37,.25Z"/>
    <path class="cls-4" d="M217.68,275.82c-.49-.12-.99-.25-1.48-.25h-8.5c.25-.12,.62-.25,.86-.25h9.12v.49Z"/>
    <path class="cls-3" d="M217.43,282.35h.25v6.78h-.37c0-2.22,.12-4.43,.12-6.78Z"/>
    <path class="cls-4" d="M0,282.35H.25v6.78h-.25v-6.78Z"/>
    <path class="cls-1" d="M0,271.14H.25v3.2h-.25v-3.2Z"/>
    <path class="cls-10" d="M217.31,289.25h.37v.25c-.12-.12-.25-.25-.37-.25Z"/>
    <path class="cls-3" d="M81.3,292.45v-.37c.12,0,.25-.12,.25-.12v.49h-.25Z"/>
    <path class="cls-1" d="M159.65,198.7v12.2H58.02v-12.2h101.63Zm-10.59,1.85H68.74v8.13h80.32v-8.13Z"/>
    <path class="cls-4" d="M58.02,208.81v2.09h-5.17c.12,.49,.25,.86,.37,1.11,.12,.12,.25,.25,.25,.25,.37,.86,1.85,3.08,2.71,3.82v.86c-.12,0-.37,0-.62,.12v1.23c0,.37,.37,.74,0,.99v.25H1.85c-.49,0-.86,0-1.36-.12,.25-.49,.62-1.11,.86-1.6,2.09-2.96,4.07-5.79,6.16-8.75,.12-.25,.37-.37,.49-.49,16.88,.25,33.38,.25,50.01,.25Z"/>
    <path class="cls-2" d="M159.65,198.7H58.02c-.12-.25-.25-.62-.37-.86-.62-.74-1.23-1.48-1.97-2.22-.12-.12,0-.25,0-.37h106.44c-.12,.37-.37,.62-.49,.99-.74,.74-1.36,1.6-1.97,2.46Z"/>
    <path class="cls-3" d="M118.63,120.6c3.08,1.6,5.3,3.94,6.65,7.27,.37,.86,.25,1.72,.37,2.71-.99,0-1.97-.37-2.83,.25,0-.12-.12-.37-.12-.62-.62-.12-1.23-.12-1.72,.25h-5.91c-.12-.25-.37-.62-.49-.86h-.99v1.6c0,.12-.25,.25-.37,.37v-1.11h-8.5c-.12-.25-.25-.62-.49-.86h-1.11c-.12,.37-.37,.62-.49,.86h-6.16c-.74-.86-.99-.86-1.85,0h-2.34c-.12-1.23,.25-2.34,.74-3.45,1.36-2.83,3.2-4.93,6.16-6.28,.49-.25,.99-.62,1.48-.86,.37-.12,.86-.25,1.36-.37h12.69c.37,0,.86-.12,1.23-.25v-.12c.74,.37,1.6,.74,2.34,1.23,.12,.12,.25,.12,.37,.25Zm-5.91,4.8c-.12-.74-.25-1.36-.37-2.22-.74-.62-1.72-1.35-2.46-1.85h-1.72c-.74,.37-1.48,.86-2.22,1.36-.25,.86-.62,1.85-.86,2.46,.12,.86,.25,1.36,.49,2.22,.62,.49,1.48,1.11,2.22,1.6,2.96,0,3.94-.74,4.93-3.57Z"/>
    <path class="cls-4" d="M115.67,106.68v10.72c0,.37-.12,.62-.12,.99h-13.3c0-.49-.25-.86-.12-1.36,.49-2.09,.37-4.19,.12-6.28,0-.12,0-.37,.12-.49,0-.37,.25-.86,.12-1.11-.37-.86-.25-1.6-.25-2.46h13.43Z"/>
    <path class="cls-2" d="M133.66,144.87c-.12,.74-.25,1.36-.37,2.09h-.12v5.79c0,.86-.12,1.6-.62,2.22v-7.02h-47.3v7.02c-.12,0-.25,0-.62-.12,.12-2.46-.12-4.93,.12-7.64-.12-.49-.99-1.23-.74-2.34h49.65Z"/>
    <path class="cls-7" d="M162.12,195.26H55.68c-.12-.25-.37-.49-.62-.86,.74,0,1.23-.12,1.72-.12h.37c.74,0,1.48,0,2.34-.12h9.73c1.85,0,3.82,.12,5.67,.12h84.51c.86,0,1.72,.12,2.59,.12,.49,.25,.62,.62,.12,.86Z"/>
    <path class="cls-5" d="M64.18,194.15h-1.11v-2.59c-.49-.74-.99-.62-1.48-.37-.62,.86-.62,1.97-.62,2.96h-1.48v-.37c.25-.12,.49-.37,.49-.37,.12-1.72,.25-3.33,.37-4.93,.62-.99,.86-2.22,2.09-2.71v-1.23c-.25-.37-.62-.74-.99-1.11-.12,.74-.37,1.23-.49,1.72-.12,1.11-.86,2.22-.62,3.33-.74,.99-.62,2.09-.99,3.2h-.37c.12-.86,.12-1.72,.25-2.59,.25-.12,.37-.37,.49-.37,.12-.86,.25-1.48,.37-2.09-.37-.62-.74-1.11-1.11-1.72,.62-.86,.86-1.85,1.85-2.59,.25-.12,.49-.37,.74-.62,0-.99,.86-1.23,1.48-1.72v-3.2c.74-.86,1.72-.37,2.83-.62-.37,.37-.62,.49-.99,.74,.25,.25,.37,.49,.62,.74,0,.74-.12,1.48-.12,2.22,.62,.74,1.36,1.36,1.97,2.22s.99,1.72,1.36,2.71v.86c-.37,.74-.62,1.23-.86,1.85h-1.36c-.12,.25-.37,.49-.37,.62,.12,.99,.12,1.72,.25,2.59-.49,.25-.86,.37-1.36,.62-.49,.86-.86,1.72-.86,2.83Zm2.59-7.88v-1.6h-.74c-.25,.62,.12,1.11,.74,1.6Z"/>
    <path class="cls-2" d="M86.97,181.58v-25.99c-.62,0-1.11-.12-1.72-.12,0-.12,0-.37-.12-.49h3.57c.25,0,.37,.12,.62,.25v26.36h-2.34Z"/>
    <path class="cls-7" d="M133.66,144.87h-49.65c-.12,0-.25-.12-.49-.12v-.86c.49,0,1.11-.12,1.6-.12h47.55c.37,0,.86,0,1.36,.12,0,.25,0,.62,.12,.86-.12,0-.25,.12-.49,.12Z"/>
    <path class="cls-6" d="M83.4,194.27h-.62v-10.35c0-.49,.12-.99,.25-1.6,.49,0,1.11,.12,1.6,.12h38.19c.86,0,1.72-.12,2.59,.25,.37,.12,.74,.12,1.11,0,2.09-.49,4.19-.25,6.28-.12,.62,0,1.36,0,1.85-.49,0,.49,.12,1.11,.12,1.6v10.59h-.62v-10.35c-.62-.49-1.23-.49-1.85-.49h-9.73c-.12-.12-.25-.37-.37-.37-.99-.74-1.36,.99-2.09,.25-.25-.12-.37-.37-.86-.74-.12,.37-.37,.62-.37,.86h-34.49c-.49,.37-.86,.62-1.11,.86v9.73c.12,0,.12,.12,.12,.25Z"/>
    <path class="cls-4" d="M97.57,143.76h-4.19c0-.25-.12-.49-.12-.62,.25-1.97,0-3.82,.12-5.91h-1.48c.12-.62,.12-1.23,.25-1.72,.49-.25,.99-.49,1.6-.86,.12-.49,.12-1.23,.25-1.85,.12-.12,.25-.25,.49-.37v-.74c.12-.37,.49-.74,0-1.11,.74-.86,.99-.86,1.85,0,0,.37,0,.74,.12,1.11h1.36c-.25,.25-.62,.37-.86,.62,.25,.25,.37,.37,.62,.49v8.99c-.25,.12-.37,.25-.49,.37v1.11c.25,.12,.37,.37,.49,.49Z"/>
    <path class="cls-7" d="M134.64,182.07c-.49,.62-1.23,.62-1.85,.49-2.09-.25-4.19-.37-6.28,.12-.37,.12-.86,.12-1.11,0-.86-.37-1.72-.25-2.59-.25h-38.19c-.49,0-1.11-.12-1.6-.12,0-.12-.12-.37-.25-.62,1.48,0,2.83-.12,4.19-.12h47.8c0,.25-.12,.37-.12,.49Z"/>
    <path class="cls-4" d="M87.59,143.76h-2.34c-.12-2.09-.12-4.31-.25-6.41-.49-.37-.86-.49-1.23-.86v-.99c.25-.25,.74-.62,1.11-.99v-1.85c.37-.37,.74-.74,1.11-1.23v-1.48c.25-.25,.49-.37,.86-.62,.37,.37,.62,.62,.99,.86-.12,.37-.25,.74-.37,1.11,.49,.37,.99,.86,1.48,1.23v3.57c-.25,.25-.49,.49-.62,.49-.25,1.11-.62,2.09-.74,3.08-.25,.99-.62,2.09,0,3.08,.12,.37,0,.74,0,.99Z"/>
    <path class="cls-4" d="M64.18,194.15c0-1.11,.37-1.97,.74-2.83,.49-.25,.86-.37,1.36-.62-.12-.86-.12-1.6-.25-2.59,0-.12,.12-.37,.37-.62h1.36c.49,.25,.25,.62,.25,.99s-.25,.74-.37,1.11c.49,.62,.99,1.11,1.6,1.72v2.83h-5.05Z"/>
    <path class="cls-7" d="M115.68,106.68h-13.55c-.37,0-.62,0-1.23-.12,.12-.37,.12-.74,.25-1.11h15.4c.49,.25,.25,.62,.25,.99-.49,.25-.86,.25-1.11,.25Z"/>
    <path class="cls-7" d="M102.25,118.38h13.3c.12,.25,.25,.62,.37,.86-.37,.12-.86,.25-1.23,.25h-12.69c.12-.37,.12-.74,.25-1.11Z"/>
    <path class="cls-5" d="M92.02,137.23h1.48c-.12,1.97,.12,3.94-.12,5.91,0,.25,.12,.37,.12,.62h-1.48v-6.53Z"/>
    <path class="cls-5" d="M94.61,131.57v.74c-.12,.12-.37,.25-.49,.37-.12,.74-.25,1.36-.25,1.85-.62,.37-1.11,.62-1.6,.86-.12-.12-.25-.12-.25-.25,0-1.23,0-2.46,.12-3.7,.86,0,1.6,.12,2.46,.12Z"/>
    <path class="cls-4" d="M58.89,184.78c.37,.62,.74,1.11,1.11,1.72-.12,.62-.25,1.23-.37,2.09-.12,.12-.25,.25-.49,.37-.25,0-.49,0-.74-.12-.25-1.36-.25-2.71,.49-4.07Z"/>
    <path class="cls-4" d="M60.36,188.36c-.12,1.6-.25,3.2-.37,4.93-.12,.12-.25,.25-.49,.37-.74-.62-.62-1.36-.49-2.09h.37c.37-.99,.25-2.22,.99-3.2Z"/>
    <path class="cls-7" d="M94.61,131.57c-.86,0-1.72,0-2.59-.12,0-.37,.12-.74,.12-1.11h2.34c.74,.49,.37,.86,.12,1.23Z"/>
    <path class="cls-2" d="M104.09,100.52c-.25,.49-.37,.99-.62,1.36-.37,.62-.74,1.23-1.11,1.85-.12,.12-.37,.25-.62,.25v-.99c.37-.37,.74-.74,1.23-1.11v-.74c.37,0,.74-.37,1.11-.62Z"/>
    <path class="cls-3" d="M82.78,194.02v.25h-2.34c.74-.49,1.6-.25,2.34-.25Z"/>
    <path class="cls-2" d="M101.51,105.57h-.25v-1.36c.25,0,.37,0,.62-.12-.25,.49-.37,.99-.37,1.48Z"/>
    <path class="cls-4" d="M159.65,210.9v-1.85c1.85,0,3.7,.12,5.42,0,6.78-.62,13.55-.12,20.33-.25s13.55,0,20.2,0c1.36,0,2.71,.25,4.19,.37,.86,1.23,1.85,2.71,2.83,4.07,1.23,1.85,2.59,3.57,3.94,5.42,.25,.25,.25,.74,.49,.99-.37,0-.74,.12-1.11,.12h-53.83v-1.6c0-.12-.12-.25-.25-.37,.37-.49,.25-1.11,.25-1.72,.12-.86,.86-1.36,1.36-1.97,.37-.62,.99-1.11,1.11-1.85,.49-.37,.37-.74,.12-1.11-1.85-.25-3.45-.25-5.05-.25Z"/>
    <path class="cls-5" d="M159.04,194.15h-.86c0-1.11-.25-2.09-.74-3.08-.62,.12-1.23-.25-1.72,.74,.12,.62,.25,1.48,.37,2.34h-1.11c-.25-.99-.49-1.97-.74-2.83-.49-.25-.99-.49-1.48-.74v-2.83c-.49-.12-.99-.37-1.36-.49-.37-.49-.74-.99-1.23-1.48,.37-1.72,1.23-3.2,2.22-4.68,.25-.37,.86-.62,1.36-.99-.12-.49-.25-.99-.37-1.48-.12-.62,.37-.99,.62-1.36-.25-.25-.49-.37-.74-.62,.62-.49,1.36-.12,2.09-.25,.25,.25,.49,.49,.74,.86-.12,.99-.25,1.97-.37,3.08,.49,.25,.86,.37,1.36,.49,.12,.74,.49,1.36,1.23,1.72,.74,.37,.99,1.36,1.23,2.22v.99c-.25,.25-.37,.49-.62,.74,0,.99,.12,1.85,.62,2.71,.12,.86,.37,1.72,.49,2.59,0,.12-.12,.25-.25,.37-.12-.12-.25-.25-.25-.37-.25-.74-.49-1.48-.62-2.22-.25,.62-.37,1.23-.25,1.85,.49,.74,.49,1.72,.37,2.71Zm-.37-5.3c.37-1.11-.25-1.97-.49-2.83-.25-.86,0-1.97-1.11-2.83,.25,1.11-1.11,1.48-.37,2.59,1.48,.37,1.36,2.09,1.97,3.08Zm-6.16-4.56c-.12,.62-.49,1.36,.12,2.22,.37-.86,.37-1.6-.12-2.22Z"/>
    <path class="cls-2" d="M130.7,181.58h-2.34v-26.36c.25-.12,.37-.25,.62-.25h3.57c0,.12,0,.25-.12,.49-.49,0-.99,.12-1.72,.12v25.99Z"/>
    <path class="cls-4" d="M132.8,143.76h-2.34c-.12-2.09-.12-4.19-.25-6.28-.49-.37-.86-.74-1.23-.99v-.86c.37-.37,.74-.86,1.11-1.23,0-1.11-.25-2.34,1.11-2.96v-1.48c.25-.12,.62-.37,.99-.62,.37,.37,.62,.62,.86,.86-.12,.62-.25,.99-.37,1.48,.37,.12,.74,.25,.99,.37,.74,2.22,.62,3.7-.25,4.56-.37,1.36-.74,2.59-.86,3.82-.12,.74,0,1.6,0,2.46,.12,.25,.25,.62,.25,.86Z"/>
    <path class="cls-3" d="M151.4,187.25c.49,.12,.99,.37,1.36,.49v2.83c.49,.25,.86,.49,1.48,.74,.25,.86,.49,1.85,.74,2.83h-5.42c0-.49,.12-1.11,.12-1.6-.12-.99,.25-1.72,.99-2.34,.37-.25,.62-.62,.86-.99-.25-.62-.74-1.36-.12-1.97Z"/>
    <path class="cls-6" d="M125.65,143.76h-1.97l.62-.62v-5.67c.25-.12,.37-.25,.62-.49v-1.36c-.37-.37-.74-.74-1.23-1.11v-1.85c-.25-.12-.37-.37-.62-.49v-.62h2.34c.12,.25,.37,.49,.37,.74-.12,3.82-.12,7.64-.12,11.46Z"/>
    <path class="cls-4" d="M159.78,188.97c-.49-.86-.62-1.85-.62-2.71,.25-.25,.37-.49,.62-.74v-.99c1.11,.49,.99,1.6,1.11,2.59,.12,.49,0,.99,0,1.36-.25,.49-.74,.49-1.11,.49Z"/>
    <path class="cls-4" d="M159.04,194.15c0-.99,.12-1.97-.25-3.08-.12-.49,0-1.11,.25-1.85,.25,.74,.37,1.48,.62,2.22,0,.12,.25,.25,.25,.37-.12,.74-.12,1.48-.25,2.22-.12,.12-.37,.12-.62,.12Z"/>
    <path class="cls-7" d="M125.41,131.57h-2.34c-.49-.12-.25-.62-.25-.86,.86-.62,1.85-.25,2.83-.25-.12,.37-.25,.74-.25,1.11Z"/>
    <path class="cls-2" d="M118.26,120.36c-.74-.37-1.6-.74-2.34-1.23,0-.12,0-.25,.12-.49,.37,.25,.74,.49,1.11,.62,.37,.12,.74,.25,1.11,.37v.74Z"/>
    <path class="cls-3" d="M134.89,194.27v-.25c.74,.12,1.6-.25,2.34,.12-.74,0-1.6,.12-2.34,.12Z"/>
    <path class="cls-3" d="M120.11,10.72c-.12,.12-.12,0,0,0-.12,0-.25,0,0,0Z"/>
    <path class="cls-3" d="M120.11,10.72c.12-.25,0-.12,0,0,.12-.12,0-.12,0,0Z"/>
    <path class="cls-10" d="M118.02,292.08h-17.12c-.37,0-.86-.12-1.23-.12v-19.09c0-2.09,.37-3.94,1.11-5.91,1.23-3.57,6.04-6.53,9.86-5.42,1.23,.37,2.46,.74,3.33,1.6,2.71,2.22,3.94,5.17,3.94,8.5,.12,6.9,.12,13.67,.12,20.45Z"/>
    <path class="cls-7" d="M66.52,292.08c-2.59,0-5.05,0-7.64-.12h-2.96v-1.72c0-.37,.12-.74-.37-.99v-4.43c0-.25,.12-.49,.25-.74,.12,.25,.25,.62,.37,.86h11.21c0-.37,.12-.49,.12-.74,0-.12,.12-.25,.12-.37v-1.97c.12-.12,.37-.25,.37-.37v-7.76c0-.12-.25-.25-.37-.37v-.49c.25-.37,.62-.74,.99-1.23,0-.12-.99,0-.37-.62,.74,.49,1.6,.86,2.34,.62,.74-.25,1.48-.25,2.09-.25h7.64c0,.49,.12,.99,.12,1.48v9.98c0,.62-.12,1.36-.12,1.97,0,.12,.25,.25,.25,.37h10.35c.25,0,.62,0,.86,.12v6.9c-1.6,0-3.33,.25-4.93,.12-1.85-.12-3.57,0-5.42,.12v-1.97c-5.17-.25-13.8-.12-15.03,.12,.25,.25,.25,.86,.12,1.48Z"/>
    <path class="cls-7" d="M161.75,289.25v2.59c-1.85,.12-3.57,0-5.42,0h-5.3v-2.09h-14.78v2.09c-3.08,0-6.16,.12-9.24,.12-.49,0-.99-.12-1.48-.12v-7.02h11.21c.62-.25,.25-.74,.25-1.11v-13.3h12.81v.25c-.37,.62-.37,1.11,0,1.72,0,0,.12,0,.25,.12,0,.12-.12,.37-.12,.49-.12,.12-.37,.25-.37,.37v7.88c0,.12,.25,.25,.37,.37,0,.25,.12,.62,.12,.86v.25c-.12,0-.12,.12-.25,.12,.12,0,.12,.12,.25,.12v.62c-.37,.37-.37,.62,0,.86,.12,.49,.62,.25,.86,.25h10.35v3.33c0,.25,.25,.37,.25,.49,.25,.49,.25,.62,.25,.74Z"/>
    <path class="cls-8" d="M161.75,289.25v-4.43c-.37-.62-.25-1.36-.25-2.09,.12-.12,.12-.25,.25-.25h13.18c.49,0,1.11-.12,1.6-.12h6.78c.25,0,.62,.12,.86,.12h14.04c.25,0,.62-.12,.86-.12h7.02c.25,0,.62,.12,.86,.12h10.47v6.78c-.37,0-.74,.12-.99,.12h-53.71c-.37-.12-.62-.12-.99-.12Z"/>
    <path class="cls-7" d="M118.01,292.08v-20.33c0-3.33-1.23-6.28-3.94-8.5-.99-.74-2.22-1.23-3.33-1.6-3.82-1.11-8.62,1.85-9.86,5.42-.74,1.97-1.11,3.82-1.11,5.91v19.09l-.12-.12h-.12c-.25-.25-.62-.37-.86-.62-.12-.86-.37-1.72-.37-2.71,.12-.99,.49-1.85-.12-2.71,.25-.25,.49-.37,.62-.49v-12.2c0-.25-.12-.37-.25-.62,0-.74,0-1.6-.12-2.34v-.62c.12-.49,.25-.99,.25-1.36,.37-1.85,.99-3.57,2.22-5.17,2.09-2.83,4.8-4.31,8.38-4.19,2.34,0,4.19,.99,5.91,2.46,2.46,2.09,3.57,4.93,3.94,8.01-.12,0-.12,.12-.25,.12,.12,0,.12,.12,.25,.12v.62c-.12,.25-.25,.37-.25,.62v13.18c0,.37-.25,.86,.37,.86h.25c.25,1.11-.37,2.09-.12,3.2,.25,.99-.25,2.09-.37,3.2-.25,0-.37,.12-.62,.12,0,.12,0,.25-.12,.37,0,.25-.12,.25-.25,.25Z"/>
    <path class="cls-8" d="M98.55,272.62c.12,.25,.25,.37,.25,.62v12.2c-.25,.12-.37,.37-.62,.49,.62,.86,.25,1.85,.12,2.71-.12,.86,.25,1.85,.37,2.71,.25,.25,.62,.37,.86,.62-2.09,0-4.07,.12-6.16,.12-.37,0-.86-.12-1.23-.12v-7.02h6.53c-.12-4.19-.12-8.25-.12-12.32Z"/>
    <path class="cls-8" d="M118.26,292.08c0-.12,0-.25,.12-.37,.25,0,.49-.12,.62-.12,.12-1.11,.62-2.22,.37-3.2-.37-1.11,.25-2.09,.12-3.2,2.09,0,4.19,0,6.28,.12v6.9c-.37,0-.74,.12-1.11,.12-2.22-.25-4.31-.25-6.41-.25Z"/>
    <path class="cls-8" d="M136.37,291.96v-2.09h14.78v2.09c-.25,.12-.49,.12-.62,.12h-13.55c-.25,0-.49-.12-.62-.12Z"/>
    <path class="cls-3" d="M183.43,274.34v-2.59h-2.59q0-.12-.12-.25c.25-.12,.49-.25,.74-.37,.25-.12,.49,0,.74,0h18.23c.49,0,1.11-.25,1.48,.62h-2.59v1.97c0,.25-.12,.49-.25,.74h-2.46c-4.43-.12-8.87-.12-13.18-.12Z"/>
    <path class="cls-3" d="M198.7,275.57c.12,0,.25,0,.62,.12v3.08c-1.23,.25-10.96,.37-15.89,.12-.25-1.11-.12-2.34-.12-3.45h.25c.25,.12,.62,.12,.86,.25,4.8-.12,9.61-.12,14.29-.12Z"/>
    <path class="cls-9" d="M205.48,281.36h-5.42v-8.87c.86-.25,1.85-.12,2.71-.12h2.59c.25,1.11,.25,6.65,.12,8.99Z"/>
    <path class="cls-9" d="M177.27,272.37h5.42v8.99c-.86,.25-1.72,.12-2.71,.12h-2.59c-.37-1.11-.37-6.41-.12-9.12Z"/>
    <path class="cls-3" d="M162.12,271.14h15.65c.49,0,1.11-.25,1.48,.49-.86,.37-1.97-.25-2.83,.49v2.22c-.25,0-.37,.12-.62,.12h-13.55c-.12-.25-.25-.37-.37-.62v-2.22c-.12-.25,.12-.37,.25-.49Z"/>
    <path class="cls-3" d="M175.05,275.57h1.23v3.33h-10.35c-.25,0-.62,.12-.86,.25h-.62c-.86-.37-1.23-.37-2.09,0h-.62v-1.23l.25-.25c-.12,0-.12-.12-.25-.12v-1.72c0-.12,.25-.25,.25-.37h2.96c3.45,.12,6.78,.12,10.1,.12Z"/>
    <path class="cls-8" d="M149.92,270.52h-12.81c-.37,0-.74,.12-.99-.37,0-.25,.12-.49,.12-.74-1.48,0-2.96-.12-4.31-.12,.25-.12,.49-.25,.74-.25h3.94c-.12-.25-.12-.37-.25-.62,.49,0,.99-.12,1.48-.12h3.57c.74,.37,1.6,.37,2.34,0,.74,0,1.6,0,2.34-.12v.12c.25,0,.49,0,.62,.12,.74,0,1.6,.25,2.34-.12,.12,0,.37,0,.49,.12,.49,.12,.99,.12,1.48,.25,.12,.49,.49,.37,.86,.37h9.98c-.25,.37-.37,.49-.49,.62-.25,0-.37,0-.62,.12h-9.49c-.62,.12-.25,.49-.37,.74h-.25c-.12,.12-.25,.12-.37,.25q-.12,0-.25,.12c.12-.25,0-.25-.12-.37Z"/>
    <path class="cls-3" d="M204,271.14h13.3v3.33h-10.59c-.12,0-.25,0-.49-.12v-2.46c-.86-.12-1.6-.12-2.59-.25,.12-.25,.25-.37,.37-.49Z"/>
    <path class="cls-6" d="M162.12,275.57c-.12,.12-.25,.25-.25,.37v1.11h-11.58v-2.34c0-.25,0-.62,.12-.86h11.58c.12,.25,.25,.37,.37,.62v.25c-.25,.12-.37,.12-.86,.37,.49,.12,.74,.25,.86,.25q-.25,.12-.25,.25Z"/>
    <path class="cls-3" d="M199.08,282.23c-.25,0-.62,.12-.86,.12h-14.04c-.25,0-.62-.12-.86-.12,0-.74,.12-1.48,.12-2.22h15.52c.12,.86,.12,1.48,.12,2.22Z"/>
    <path class="cls-3" d="M176.65,282.23c-.49,0-1.11,.12-1.6,.12h-13.18c-.12-.25,.12-.74-.37-.99,.12-.49,.25-.99,.37-1.48h14.17c.25,.86,.37,1.6,.62,2.34Z"/>
    <path class="cls-6" d="M162.61,280.01h-.74c-.12,.49-.25,.99-.37,1.48h-11.21v-2.96h9.86c.25,0,.74,.25,.86-.25,.25-.12,.62-.25,.86-.25v1.72c.25,0,.49,.12,.74,.25Z"/>
    <path class="cls-6" d="M150.29,270.65q.12,0,.25-.12h.37v-.25h.49c0,.12,.12,.25,.12,.25,1.6-.37,3.33-.12,4.93-.25h4.19c.37,.25,.86,.49,1.48,.86-.12,.12-.25,.25-.25,.37v1.36h-.25c-.25-.12-.37-.25-.62-.25h-10.59c-.12-.62-.12-1.36-.12-1.97Z"/>
    <path class="cls-3" d="M217.43,282.35h-10.47c-.25,0-.62-.12-.86-.12,.25-.74-.25-1.6,.49-2.22h10.84v2.34Z"/>
    <path class="cls-5" d="M183.43,274.34h15.65c-.12,.12-.25,.25-.49,.25h-14.66c-.25,.12-.37-.12-.49-.25Z"/>
    <path class="cls-5" d="M198.71,275.57h-14.17c.12-.12,.37-.25,.49-.25h13.3c.12,0,.25,.12,.37,.25Z"/>
    <path class="cls-4" d="M162.12,274.71v-.25h13.55c-.25,.12-.62,.25-.86,.25h-12.69Z"/>
    <path class="cls-6" d="M165.07,279.02c.25-.12,.62-.25,.86-.25h10.35c-.25,.12-.37,.25-.62,.25-3.57,.12-7.14,.12-10.59,0Z"/>
    <path class="cls-4" d="M175.05,275.57h-10.1c.12-.12,.25-.25,.49-.25h9.12c.25,0,.37,.12,.49,.25Z"/>
    <path class="cls-1" d="M205.85,270.28l.25-.25h7.02c.12,0,.25,.12,.25,.25h-7.51Z"/>
    <path class="cls-3" d="M204.99,282.23h-3.33c1.11-.25,2.22-.25,3.33,0Z"/>
    <path class="cls-4" d="M176.28,278.9v-3.33c.37,.86,.37,2.34,0,3.33Z"/>
    <path class="cls-4" d="M162.12,275.57v-.25h1.97c.12,0,.25,.12,.49,.25h-2.46Z"/>
    <path class="cls-6" d="M162.36,279.15c.74-.37,1.23-.37,2.09,0-.74-.12-1.36,0-2.09,0Z"/>
    <path class="cls-5" d="M151.4,270.28h-.25c.12-.25-.25-.74,.37-.74-.12,.25-.12,.49-.12,.74Z"/>
    <path class="cls-3" d="M179.49,282.23h-.99c.37-.25,.74-.25,.99,0Z"/>
    <path class="cls-3" d="M180.97,282.23h-.99c.37-.25,.74-.25,.99,0Z"/>
    <path class="cls-5" d="M160.89,269.42c.25,0,.37,0,.62-.12v.25c-.25,.12-.37,0-.62-.12Z"/>
    <path class="cls-5" d="M183.68,275.33h-.25c0-.12,.12-.12,.12-.25q0,.12,.12,.25Z"/>
    <path class="cls-4" d="M206.47,275.57h-.25c0-.12,.12-.12,.12-.25q0,.12,.12,.25Z"/>
    <path class="cls-8" d="M55.93,284.2c-.12,.25-.25,.49-.25,.74v4.43c-.62,0-1.11,.12-1.72,.12-1.72,0-3.33-.12-5.05-.12H1.85c-.49,0-.99,0-1.48-.12v-6.78H7.27c1.48,0,2.96,0,4.43-.12h6.65c.25,0,.49,.12,.74,.12h14.78c.25,0,.62-.12,.86-.12h4.31c.62,0,1.23,0,1.85-.12h.25c.49,.12,.99,.25,1.48,.25h7.27c1.97,0,4.07,0,6.04,.12q.12,.12,.25,.25c-.12,.37-.25,.86-.25,1.36Z"/>
    <path class="cls-1" d="M149.68,268.31c-.12,0-.37,0-.49-.12v-.86c.25,.12,.37,.12,.49,.12v-2.34c.25-.12,.37-.37,.62-.49v-1.36c.25-.12,.37-.25,.62-.49v-1.36c.25-.12,.37-.37,.49-.49v-.74c-.25-.12-.37-.25-.49-.37v-5.67c.37-.12,.74-.12,1.11-.12v-2.09c-.37-.37-.74-.74-1.11-1.11v-3.08c-1.11-.86-1.36-2.34-2.59-3.08-.49-.25-.86-.37-1.48-.74h-3.2c-.49,.25-.99,.49-1.48,.86,.12,.74-.37,.99-.99,.99-.49,.99-.86,1.85-1.36,2.83v2.59c-.49,.49-.86,.86-1.23,1.36v8.87c.25,.12,.37,.37,.62,.49v2.46c-.25,.12-.37,.37-.62,.49v1.72c-.49,.49-.74,.86-1.11,1.23-.37,.12-.62,.12-.99,.25h-4.19c-.49-2.34-.86-4.43-1.48-6.65-.62-2.46-1.85-4.8-3.2-7.02-1.23-1.97-2.83-3.57-4.56-5.17-1.97-1.85-4.43-3.2-7.02-4.19-2.83-.99-5.67-1.36-8.62-1.23-2.71,.12-5.17,.74-7.51,1.97-3.82,1.97-6.9,4.68-9.36,8.25-2.34,3.57-3.82,7.39-4.43,11.58-.12,.86-.25,1.6-.37,2.46h-4.93c-.25,0-.62-.12-.86-.12v-2.22c.25-.12,.37-.37,.62-.49v-1.72c.25-.49,.37-.74,.62-.99,.12-.25,.37-.62,.62-.99v-2.96c-.25-.12-.37-.37-.49-.49v-1.36c.25-.12,.37-.37,.62-.49v-1.85c.37-.37,.74-.74,1.11-1.11v-1.23c-.37-.37-.74-.74-1.23-1.11v-.74c-.25-.12-.37-.37-.62-.49v-2.46c-.25-.12-.37-.37-.62-.49v-1.36c-1.23-.25-1.85-1.23-2.59-1.85h-4.68c-.37,.37-.74,.74-1.11,1.11-.25,0-.62,.12-.86,.12,.49,.99,0,1.36-.62,1.97v1.36c-.25,.25-.37,.37-.62,.49v2.34c-.37,.74-.74,1.36-1.23,1.97v2.22c.12,.12,.37,.25,.74,.49-.37,.74-.62,1.72-1.23,2.46v1.23c.12,.12,.37,.25,.62,.49v6.65c-.12,.12-.37,.25-.62,.49v.99h-11.7c-.12-.49-.25-.86-.37-1.23-.12-.62-.62-.25-.86-.37-.25-.12-.37-.12-.62-.25,.49-.25,.99-.37,1.36-.62,0-.25,.12-.37,.12-.37v-39.79c.49-.99,.49-1.97,0-2.96,.37-.62,.49-1.11,0-1.85v-1.11q.25-.49-.37-.62c.37-.37,0-.74,0-.99v-1.23c.25,0,.37,0,.62-.12,.25,.25,.37,.37,.62,.62v5.3h2.83c.25-.25,.49-.49,.62-.74v-4.56c0-.37,.12-.74,.12-1.11h4.19c.12,.37,.25,.74,.37,1.11v4.93c1.23,.62,2.34,.74,3.57-.12v-6.04h4.8v6.53h3.7c.12-.25,.25-.49,.25-.49,0-1.23,0-2.09-.12-2.96,0-.37,.37-.86-.25-1.23v-.62c.25-.37,.49-.74,.86-1.23,1.23,.12,2.59-.12,3.94,.12v5.05c0,.25,.12,.49,.25,.74,.12,.12,.25,.25,.25,.25,.12,.12,.25,.12,.25,.25h2.34c.12-.12,.25-.12,.25-.25,.86-1.23-.12-2.46,.25-3.7,.12-.37-.12-.86-.12-1.23h-.12v-1.11h4.68v6.53h4.07v-5.79c.25,.12,.37,.37,.62,.49,.12-.37,.25-.86,.37-1.23h3.33c.12,1.23,.25,2.46,.25,3.7v1.48c0,.12,.12,.25,.25,.49v.25c0,.12,0,.37,.12,.49h3.45v-5.17c.12-.25,.25-.37,.37-.62l.62-.62h3.08c.12,.37,.37,.62,.74,.62v5.91h3.45v-5.91c.12-.25,.25-.37,.25-.62h4.43c0,.49,0,.86,.12,1.11v4.31c0,.37,.12,.74,.25,1.11,.74,0,1.48,.12,2.09,0,.37-.12,.86-.37,1.23-.62v-2.96c.62-.25,.25-.74,.25-1.23,0-.62,0-1.23,.49-1.72h2.96c.37,.37,.74,.62,1.11,.99v5.54h4.07v-6.41h3.94c.12,.25,.25,.49,.37,.74-.37,.74-.25,1.48-.12,2.34,.25,.74-.12,1.72-.25,2.59,.25,.25,.49,.37,.62,.49,.12,.12,.25,.12,.25,.25h3.2v-6.41h4.31l.37,1.11v4.8c0,.12,0,.37,.12,.62h3.45v-3.45c0-.99,0-1.97,.12-2.83h4.68c0,.37,0,.74,.12,1.11v4.93c1.23,.62,2.34,.62,3.57,0v-4.93c.12-.37,.25-.74,.37-1.23,1.48,0,2.83-.12,4.31,.12v5.54c.12,.12,.12,.25,.25,.25,.12,.12,.25,.25,.25,.25,.12,.12,.25,.12,.25,.25h2.59c.12-1.85,.12-3.57,0-5.3h.86c.12,.12,.25,.25,.25,.37v1.36q-.62,.12-.37,.62v1.11c-.37,.62-.37,1.23,0,1.72,0,.74-.12,1.36-.12,2.22,.12,.12,.25,.25,.49,.49v.25c-.62,.37-.25,.99-.25,1.48v39.54c-.25,.25-.37,.49,0,.62-.12,.25-.25,.62-.49,.86h-10.1c-.37,0-.86,.37-1.36,.37Zm-36.09-35.23h-.99c0,.62-.86,.49-.74,1.11-.86,.25-1.36,1.11-2.22,1.48-.37,.12-.74,.25-.99,.37-.74-.49-1.23-.86-1.72-1.23-1.23-.99-2.96-1.48-3.82-2.96-.25,.12-.49,.12-.86,.25,.49,.37,.74,.62,.99,.74,0,2.09,.49,4.07,1.23,6.04-.37,0-.74,0-.99,.12-.62-.49-1.11-.99-1.6-1.36-.62-1.11,.74-2.09,.49-3.08-.49-.49-.99-.99-1.36-1.48-.99,.25-1.6,.86-1.85,1.97-.62-.99-1.23-1.72-1.72-2.59h-1.48c-1.11,.86-2.22,2.09-3.45,2.83-1.36,.74-2.22,2.22-3.82,2.71,.12,.25,.12,.62,.25,.62,.49,.12,.86,.25,1.36,.37,.62,.12,1.36-.12,2.09,.25-.37,.37-.62,.74-.99,1.11h-2.46l-.74,1.48c.25,.37,.37,.86,.62,1.11v1.72c-.37,.25-.74,.49-1.11,.62-.12,.86-.12,1.6,.62,2.22,.49-.25,1.11-.49,1.6-.74,.12-.37,.12-.74,.25-.99h1.72c.49-.25,.74-.49,.99-.62,.99-.37,1.97-.37,2.83-.99,.49-.37,1.11-.99,1.97-.74,.86,.12,1.72,.37,2.46,.49,.74-.62,1.11-1.36,1.11-2.22v-2.34c.86-.37,1.11,.49,1.97,.62-.25,.49-.49,.99-.74,1.6v1.11c.25,.25,.49,.49,.74,.74h1.72c.25-.49,.49-1.11,.74-1.72,.62,.25,1.23,.62,1.97,.86,.99-.62,1.85-.37,2.83,0,.62-.37,1.36-.62,2.09-.99,.12,.74,.12,1.48,.86,1.72h1.48c.25-.25,.49-.49,.74-.62v-1.48c-.25-.12-.37-.25-.49-.37v-.86c.37-.25,.74-.49,1.11-.74,.12,0,.37,0,.62,.12,0,.99-.12,1.85-.12,2.83,0,.25,.12,.74,.25,1.11h.49c0,.12,0,.37,.12,.62h4.68v.62h1.11c.49,.12,.99,.25,1.36,.37,.99,.37,1.97,.99,2.96,.86,.74,.62,1.36,1.23,1.85,1.72,.86-.49,.49-1.23,.62-1.85-.49-.49-.86-.99-1.23-1.36,.49-1.23,.86-2.46,.12-3.7-.37-.12-.99-.25-1.48-.25-1.11,.12-1.85-.37-2.46-1.36,1.36-.49,2.96,.37,4.31-.86-1.72-.25-2.59-1.72-3.82-2.59s-2.34-1.97-3.57-3.08c-.62,.25-1.23,.37-1.72,.49-.49,.86-.74,1.48-1.23,2.22l-1.85-1.85c-.62,.37-1.23,.86-1.85,1.23,.25,.74,.37,1.23,.62,1.85h.12v1.23c-.62,.49-1.11,.99-1.72,1.48-.25,0-.62-.12-.86-.12,.25-.99,.62-1.97,.86-2.83,.99-.86,.37-1.97,.62-3.08,.25-.25,.74-.37,.49-.99h-.99c-.12,.37-1.23,.25-.99,.99Zm-48.41-2.96c-.25,2.34,.12,4.68-.25,6.9,.12,.12,.25,.37,.37,.62h17.49c.12-.25,.37-.37,.37-.49v-6.16c0-.25-.25-.62-.37-.86h-17.62Zm87.34,0h-17.62c-.62,2.09-.25,4.19-.25,6.16,0,.49,.25,.99,.37,1.36h17.49l.37-.74c-.49-2.09-.12-4.43-.37-6.78Zm-22.17-11.7c-.86,.25-1.48,.49-1.97,1.23,0,.37,0,.74,.12,1.11,.74,.49,1.36,.74,2.22,.62,.12-.12,.37-.37,.62-.62v-1.11c-.37-.37-.74-.86-.99-1.23Zm-32.65,2.59c0-.74-.12-1.36-.12-1.97-.62-.25-1.11-.37-1.36-.49-.86,.25-1.36,.74-1.48,1.48,.25,.86,.74,1.36,1.6,1.48,.37-.12,.74-.25,1.36-.49Zm-8.38,0v-1.6c-.49-.37-1.11-.62-1.72-.99-.49,.62-.74,1.11-1.23,1.6,.37,.49,.74,.99,1.11,1.6,.62-.25,1.23-.37,1.85-.62Zm30.8-.12c.49,.25,.99,.49,1.23,.62,.86-.25,1.48-.74,1.6-1.6-.25-.74-.74-1.36-1.6-1.36-.37,.37-.86,.62-1.23,.99v1.36Zm-16.38-2.09c-.49,1.11-.49,1.85,0,2.34,.25,.25,.62,.37,.86,.37,.49,0,.86-.25,1.36-.37-.25-.86,.37-1.72-.62-2.22-.49-.12-.99-.12-1.6-.12Zm33.63,0c-.86,1.72-.49,2.46,1.48,2.59,.25-.25,.49-.49,.74-.74-.12-.74,.25-1.6-.62-1.97-.37,.12-.99,.12-1.6,.12Zm17.25,2.83c.62-.25,.99-.37,1.48-.49v-2.22h-1.85c-.74,.49-.37,1.23-.49,1.85,.37,.25,.62,.49,.86,.86Zm-91.16-2.71h-1.85v2.22c.25,.12,.62,.25,.86,.49,.25-.12,.49-.25,.62-.25,.25-.12,.49-.25,.74-.25q.12-1.48-.37-2.22Zm15.15-.12c-.74,.49-.49,1.11-.49,1.72,.25,.25,.49,.49,.62,.62h1.6c.12-.37,.25-.86,.37-1.23-.25-.37-.49-.74-.62-1.11h-1.48Zm-6.9,2.46c.74-.99,.62-1.6,0-2.34h-1.48c-.74,.62-.37,1.23-.49,1.85,.62,.74,1.36,.37,1.97,.49Zm76.13-2.34h-1.97c-.49,.86-.62,1.6,.12,2.34,.62-.12,1.36,.25,1.85-.37v-1.97Zm-33.63,.49c-.49-.74-1.11-.49-1.6-.49-.25,.25-.49,.49-.86,.74,.25,.62,.37,1.11,.49,1.6h1.48c.74-.62,.37-1.36,.49-1.85Z"/>
    <path class="cls-6" d="M55.93,225.93v39.79c0,.12,0,.25-.12,.37-.37,.25-.86,.37-1.36,.62h-9.12v-20.08h.86v-1.72H30.18c-.37,.37-.62,.62-.99,.86,.12,.25,.25,.49,.37,.86h.74c.12,.37,.12,.62,.25,.99-.12,.49-.12,.86-.12,1.36,0,.37,.12,.74,.12,1.11,0,.49-.25,.99-.25,1.36v12.69c0,.62,.12,1.36,.25,2.22,0,0-.12,.25-.25,.49h-7.64v-20.08c.37,0,.74,0,1.11-.12v-1.72H6.9c-.25,.25-.49,.62-.86,.99,.62,.25,1.11,.49,1.6,.74v20.08H2.83c-.25,0-.49,.12-.74,.25h-.62c0-.12-.12-.12-.12-.25,0,.12-.12,.12-.12,.25-.25,0-.37,0-.62,.12l-.12-.12v-41.02H55.93Zm-16.26,2.96v-.99c-.37-.86-1.11-.86-1.85-1.11-.74,.37-1.85,.37-1.97,1.23,.12,.62,.25,.99,.25,1.36-.62,.12-1.23,.25-1.72,.37-.25,3.94-.12,10.35,.12,11.46h3.33c1.11,0,2.34,.12,3.45-.12v-10.1c0-.49-.25-.99-.37-1.48-.49,0-.99-.12-1.36-.12,.12-.25,.12-.37,.12-.49Zm-23.04,.37c.12-.49,.25-.86,.37-1.11-.49-.99-1.36-.99-1.97-1.23-.86,.37-2.09,.37-1.85,1.72v.86h-1.36c-.12,.49-.37,.99-.37,1.48v8.75c0,.62,0,1.11,.49,1.48h6.53c.25-.49,.49-.99,.49-1.11-.12-3.45-.37-6.65,.12-9.86-.12,.12-.37,.37-.49,.49-.12-.37-.25-.86-.25-1.23-.74-.12-1.36,.25-1.72-.25Z"/>
    <path class="cls-5" d="M162.12,225.93v-.25h53.96c.49,0,.99-.37,1.36,.25h-55.31Z"/>
    <path class="cls-8" d="M161.75,267.57c-.49-.25-.37-.37,0-.62h14.41c1.85,0,3.82,0,5.67,.12,.12,0,.25-.12,.37-.25h1.11c.37,0,.86,.12,1.23,.12h2.46c3.45,0,7.02,0,10.47,.12,.49,0,.99,0,1.48-.12h17.86c.25,0,.37,.12,.62,.12v.25h-54.2c-.49,0-.99,.12-1.48,.25Z"/>
    <path class="cls-10" d="M200.55,267.32h2.34c-.99,.37-1.48,.37-2.34,0Z"/>
    <path class="cls-10" d="M178.01,267.32h1.72c-.62,.37-.99,.37-1.72,0Z"/>
    <path class="cls-10" d="M180.35,267.32h1.72c-.62,.37-.99,.37-1.72,0Z"/>
    <path class="cls-10" d="M183.92,267.32h.62c-.25,.37-.37,.37-.62,0Z"/>
    <path class="cls-10" d="M203.51,267.32h.62c-.25,.37-.49,.37-.62,0Z"/>
    <path class="cls-10" d="M175.05,267.32h.25c0,.12-.12,.12-.12,.25q0-.12-.12-.25Z"/>
    <path class="cls-10" d="M205.85,267.32h.25c0,.12-.12,.12-.12,.25,0-.12-.12-.12-.12-.25Z"/>
    <path class="cls-3" d="M18.35,272.62c.12-.12,.25-.12,.37-.37-.25-.25-.37-.37-.49-.62h-2.59c.37-.37,.62-.62,.74-.74,1.11,0,1.85-.12,2.71-.12h14.66c.62,0,1.11,.12,1.72,.25,.25,0,.49-.12,.74-.25,.25,.25,.62,.49,1.11,.74-.12,0-.12,.12-.25,.12h-1.72c-.25,0-.49,.12-.99,.25v2.34h-15.89c-.12-.37-.12-.99-.12-1.6Z"/>
    <path class="cls-3" d="M34.37,275.57v3.45c-.37,0-.74,.12-.99,.12h-13.43c-.49,0-.99-.12-1.48-.25v-2.96c.37-.12,.86-.25,1.23-.25,4.8-.12,9.73-.12,14.66-.12Z"/>
    <path class="cls-9" d="M40.78,272.37c0,3.08,.12,6.04-.12,8.99h-5.54v-8.87c.86-.25,1.85-.12,2.71-.12h2.96Z"/>
    <path class="cls-9" d="M12.2,280.87v-7.51c0-.37-.25-.74,.25-.99h5.3c0,.12,.12,.25,.12,.25v7.27c-.12,.62-.12,1.11-.25,1.72h-4.56c-.37-.12-.74-.12-.86-.74Z"/>
    <path class="cls-3" d="M41.76,274.47c-.49-.25-.25-.62-.25-.99-.12-.49-.25-1.11-.37-1.72h-2.46q0-.12-.12-.25c.25-.12,.49-.37,.74-.37,.25-.12,.49,0,.74,0h15.89v1.72c.12,.25,.25,.37,.25,.62v.25c-.12,.25-.25,.37-.25,.62-4.68,.12-9.49,.12-14.17,.12Z"/>
    <path class="cls-3" d="M41.39,275.57h14.54v1.48c-.12,.25-.25,.37-.25,.62,.12,.12,.25,.37,.37,.49,0,.25-.12,.37-.12,.62h-14.29c-.25-.99-.25-2.09-.25-3.2Z"/>
    <path class="cls-6" d="M55.07,278.9h.74c0-.25,.12-.49,.12-.62h.86c.12,.49,.62,.25,.86,.25h9.86v.62c0,.86-.12,1.6-.12,2.46h-11.46c0-.37,0-.74-.12-1.11h-13.8c0,.37-.12,.74-.12,1.11h-.74c.12-.49,.25-1.11,.37-1.72h12.93c.49,0,1.11,.25,1.48-.49-.25,0-.62,0-.86-.12v-.37Z"/>
    <path class="cls-3" d="M34.74,282.23c-.25,0-.62,.12-.86,.12h-14.78c-.25,0-.49,0-.74-.12v-2.22c.37-.12,.86-.25,1.23-.25h13.55c.37,0,.74,.12,.99,.12,.25,.86,.37,1.6,.62,2.34Z"/>
    <path class="cls-3" d="M.37,274.34v-3.2H13.68c.25,.12,.37,.25,.86,.62h-2.83v2.71c-.86,0-1.6,0-2.46,.12H.62q-.12-.12-.25-.25Z"/>
    <path class="cls-3" d="M41.15,281.49h.74c0-.37,.12-.74,.12-1.11h13.8c0,.37,0,.74,.12,1.11,0,.25,0,.62-.12,.86-1.97,0-4.07,0-6.04-.12h-7.27c-.49,0-.99-.12-1.48-.25v-.37c.12,.12,.12,0,.12-.12Z"/>
    <path class="cls-6" d="M55.93,272.99v-1.72h-.86c.25-.12,.49-.25,.86-.49v-.37h10.35v-.86c.12,.12,.25,.25,.37,.37v.99c.12,.62,.62,.25,.86,.25,.12,.12,.12,.25,.25,.37v.62c-.12,.25-.12,.37-.25,.62h-10.22c-.12,0-.25,.12-.49,.25-.25-.12-.62,0-.86,0Z"/>
    <path class="cls-5" d="M34.37,275.57h-14.66c-.37,0-.86,.25-1.23,.25v-1.48h15.89v1.23Zm-1.11-.74v.12h.49v-.12h-.49Z"/>
    <path class="cls-6" d="M14.29,269.05v-.99c-.25-.37-.99,0-.86-.74h1.48c.49,.12,1.11,.25,1.85,.37-.49,.12-.86,.25-1.23,.37,.62,.62,1.11,1.11,1.6,1.6h17.37c.74,0,1.48-.25,2.22-.25-.12,.25-.25,.62-.37,.86H16.51c-.37-.37-.62-.74-.99-1.11-.37-.12-.86-.12-1.23-.12Z"/>
    <path class="cls-6" d="M55.93,270.28h-16.63c-.37-.37-.62-.74-.99-1.23-.49,.12-1.11,.25-1.6,.37v-.62c.25-.12,.37-.25,.62-.37-.12-.37-.25-.62-.25-.86h.86v.99c.37,0,.74,.12,.99,.12,.37,.37,.74,.74,1.11,1.11h11.95c.25-.25,.37-.37,.62-.62,.25,.25,.37,.49,.49,.62h1.97c.12-.25,.25-.37,.49-.62,.37,.12,.62,.25,.86,.37h.62c-.25,.12-.62,.25-.86,.37-.25,.12-.25,.25-.25,.37Z"/>
    <path class="cls-4" d="M55.93,275.57h-13.3c.25-.12,.62-.25,.86-.25h11.21c.37,0,.86,.25,1.23-.25-.37-.49-.86-.25-1.23-.25h-11.95c-.37,0-.86,.25-.99-.25h14.17c.37,.25,.37,.62,0,.99Z"/>
    <path class="cls-5" d="M18.36,280.87v1.36h-2.83c-.86-.37-1.6-.37-2.46,0h-1.36c-.12-.74-.25-1.6-.37-2.34-.12-.25-.25-.62-.25-.86,.12-.12,.25-.25,.25-.25h.25c.49,.12,.25,.62,.25,.99,.12,.37-.25,.86,.25,1.11,.12,.62,.62,.49,.99,.49h4.56c.12-.62,.12-1.11,.25-1.72,.12,.25,.12,.37,.25,.62,.12,.25,.12,.49,.25,.62Z"/>
    <path class="cls-4" d="M55.06,278.9v.25h-12.69c-.25,0-.74,.25-.86-.25h13.55Z"/>
    <path class="cls-1" d="M13.67,271.14H.62c.12-.12,.25-.25,.49-.25H13.18c.12,0,.37,.12,.49,.25Z"/>
    <path class="cls-4" d="M10.1,275.57H3.08c-.86,0-1.85,.12-2.71,.25,0-.12,0-.25,.12-.49H9.36c.12,0,.49,.12,.74,.25Z"/>
    <path class="cls-4" d="M.62,274.47H9.24c-.12,.12-.25,.25-.49,.25H1.11c-.12,0-.37-.25-.49-.25Z"/>
    <path class="cls-6" d="M11.58,278.78h-.25v-3.2h.25v3.2Z"/>
    <path class="cls-4" d="M41.39,275.57v3.33c-.62-.86-.12-1.85-.25-2.83,0-.25,.25-.37,.25-.49Z"/>
    <path class="cls-3" d="M37.57,282.23h-1.48c.49-.25,.99-.25,1.48,0Z"/>
    <path class="cls-3" d="M39.05,282.23h-.99c.37-.25,.74-.25,.99,0Z"/>
    <path class="cls-6" d="M41.14,281.86v.37h-.25c.12-.12,.12-.25,.25-.37Z"/>
    <path class="cls-5" d="M18.11,272.62h-.25c0-.12-.12-.25-.12-.25,.12,.12,.25,.12,.37,.25Z"/>
    <path class="cls-4" d="M11.58,275.57h-.25c0-.12,.12-.12,.12-.25,0,.12,0,.25,.12,.25Z"/>
    <path class="cls-3" d="M55.68,219.4q.62,.12,.37,.62c-.12-.12-.25-.25-.37-.25v-.37Z"/>
    <path class="cls-3" d="M161.75,220.02q-.37-.49,.37-.62v.25l-.37,.37Z"/>
    <path class="cls-8" d="M37.94,267.44h-.86c-.25,0-.62-.12-.86-.12H15.65c-.25,0-.49,0-.74,.12h-1.48c-.86,0-1.6-.12-2.46-.12H1.36c-.25,0-.74,.25-.86-.25,.25,0,.37,0,.62-.12H18.97c.49,0,.99,.12,1.48,.12h21.43c.25,0,.37,0,.62,.12h7.51c1.6,0,3.33,0,4.93-.12,.25,.12,.86-.25,.86,.37h-17.37c-.12-.12-.37,0-.49,0Z"/>
    <path class="cls-6" d="M162.61,266.95h-.86v-39.54c0-.49-.37-1.11,.25-1.48h55.31v41.15c-.25,0-.37-.12-.62-.12,0-.12-.12-.12-.12-.25,0,.12-.12,.12-.12,.25h-1.23c-.74-.37-.99-.37-1.72,0h-.62c-.12-.12-.37-.25-.49-.25h-2.22v-20.08h.86v-1.6h-17v1.72h1.11v20.08h-7.64c-.12-.25-.25-.37-.25-.62,.12-.49,.25-.99,.25-1.48v-16.01c0-.62-.12-1.23-.12-1.97h-11.33c-.25,0-.74,.25-.86-.25h12.93v-1.36h-16.63c.12,.49,.25,.99,.37,1.36h1.23c-.25,.12-.37,.37-.62,.49v19.83h-8.87c-.37-.12-.62,0-.99,.12Zm41.39-37.45c.25-.49,.86-.99,.37-1.97-.37-.25-.99-.49-1.6-.74-.86,.25-1.6,.37-2.09,1.23,.12,.37,.25,.86,.37,1.36-.74,0-1.48,.12-2.09,.74,.12,.62,.25,1.23,.25,1.85,0,1.97,.12,3.94,0,5.91,0,.99-.25,1.97,.12,2.96,.12,.49,.62,.25,.86,.25h5.54c.49-.62,.62-1.48,.62-2.22v-5.05c0-1.48,.12-2.96-.37-4.43-.62,.12-1.23,.12-1.97,.12Zm-22.42-.37c.12-.37,.25-.62,.25-.99-.12-.37-.37-.62-.49-.99-.49-.12-.99-.37-1.48-.49-.62,.37-1.6,.25-1.85,1.23v.86c0,.12,0,.25-.12,.62-.74-.25-1.36,.12-1.72,.74v10.96h6.9c.49-.86,.37-.86,.25-1.97,0-.37,0-.74,.12-.99q.49-.86-.12-1.48v-5.42c.25-.12,.37-.25,.62-.49-.37-.62-.74-.99-.86-1.23-.62-.25-1.23,.25-1.48-.37Z"/>
    <path class="cls-3" d="M11.33,280.01c.12,.74,.25,1.6,.37,2.34-1.48,0-2.96,.12-4.43,.12H.37v-2.34c3.7-.12,7.27-.12,10.96-.12Z"/>
    <path class="cls-8" d="M66.64,291.96v-1.72c1.23-.25,9.86-.37,15.03-.12v1.85c-.12,0-.25,.12-.25,.12h-13.67c-.37,0-.74,0-1.11-.12Z"/>
    <path class="cls-5" d="M149.06,200.55v8.13H68.74v-8.13h80.32Z"/>
    <path class="cls-7" d="M159.65,210.9h4.8c.25,.49,.37,.86-.12,1.11H52.85c-.12-.37-.25-.62-.37-1.11h107.18Z"/>
    <path class="cls-2" d="M68.99,212.01h79.95c.12,.12,.25,.25,.37,.25h10.1c.12,0,.25-.12,.37-.25h1.23c.49,.37,.99,.37,1.48,0h.62c.25,.49,.62,.49,.86,0h.62c-.12,.74-.62,1.23-1.11,1.85-.49,.62-1.23,1.11-1.36,1.97-1.23,.12-2.46,.49-3.57,.25-1.72-.37-3.33-.12-4.93-.25h-.62c-.37,.25-.74,.37-1.11,.62-2.34-.62-4.8-.62-7.14-.49-.37,.25-.74,.37-1.11,.62-.62-.49-1.23-.37-1.72,0-.37-.25-.74-.37-1.23-.62-1.85,.12-3.7,0-5.67,.25-1.85,.25-3.7-.12-5.54-.25-.86,0-1.6,0-2.46,.25-1.11,.25-2.46,0-3.57-.25-.25,0-.37-.37-.62-.62-.25,.25-.37,.49-.49,.62h-3.08c-.12,.25-.25,.37-.37,.49-.37-.12-.74-.25-1.11-.25h-5.54c-.12,0-.25,.12-.49,.25h-.62c-.12-.12-.25-.25-.37-.25h-6.9c-.12,0-.25,.12-.37,.25-.25,.25-.37,.37-.62,.62v-.37c-1.23-.49-2.46-.62-3.57-.12-.49-.25-.86-.37-1.11-.49h-1.36c-1.36,0-2.59,0-3.82,.49-.25,.12-.49,.12-.74,0-.86-.49-1.72-.25-2.59-.25-.49,0-.99-.12-1.6-.25-.62,.12-1.11,.25-1.72,.25-.25,0-.49,.12-.74,.25h-2.34c-.49-.25-.86-.37-1.23-.62h-4.8c-.12,.25-.25,.37-.37,.49-.86,.25-1.72-.74-2.46,0-.49-.25-.86-.37-.99-.49h-4.56v.49c-.62,0-1.11-.37-1.72-.12-.74,.25-1.48,0-2.22-.25-1.36-.49-2.71-.37-4.07-.12-1.23,.25-2.46,.25-3.7,.12-.25,0-.37,.12-.62,.12-.74-.74-2.34-3.08-2.71-3.82,.37-.12,.86,.25,1.23-.25h.86c.37,.37,.74,.37,1.23,0h1.23c.12,.12,.25,.25,.37,.25h10.1c-.25-.12-.12-.25,.12-.37Z"/>
    <path class="cls-5" d="M56.17,216.2c.25,0,.37-.12,.62-.12,1.23,.12,2.46,.12,3.7-.12,1.36-.25,2.71-.37,4.07,.12,.74,.25,1.6,.37,2.22,.25,.74-.25,1.23,.25,1.72,.12v1.23h-3.57c-.12-.37-.25-.74-.37-1.11h-4.19c0,.37-.12,.74-.12,1.11h-3.57c-.25-.25-.37-.37-.62-.62,.12-.37,.12-.62,.12-.86Z"/>
    <path class="cls-4" d="M106.43,143.76h-3.2c.25-.49,.49-.99,.12-1.48-.25-.49-.49-1.11-.62-1.72h-.62c-.62-.99-.12-2.09-.37-3.2-.37-.12-.74-.12-1.11-.25v-1.48c.12-.12,.37-.25,.62-.49v-1.36c.25-.12,.49-.25,.49-.37,.12-.49,0-.99,.62-1.23,.12,0,0-.49,.12-.74,.62-.25,.25-.74,.25-1.11,.12-.25,.37-.62,.49-.86h1.11c.12,.25,.25,.62,.49,.86-.49,.37-.25,.74-.12,1.23h1.36v.74c.25,.12,.37,.25,.62,.37v4.31c.25,.12,.37,.37,.62,.49v.62c-.12,.37-.12,.74-.25,.99-.49,.99-.37,1.97-.62,3.08-.37,.37,0,.99,0,1.6Z"/>
    <path class="cls-4" d="M122.82,130.7c.12,.25-.25,.74,.25,.86v.62c.25,.12,.37,.37,.62,.49v1.85c.37,.37,.74,.74,1.23,1.11v1.36c-.25,.12-.37,.25-.62,.49v5.67l-.62,.62h-2.46v-1.6c-.25-.12-.37-.37-.62-.49v-2.46c-.25-.12-.37-.37-.62-.49v-2.46c.25-.25,.37-.37,.62-.49v-3.08c.12-.12,.37-.25,.62-.49-.12-.25-.25-.37-.37-.62,0-.37,0-.74,.12-1.23,.49-.37,1.11-.37,1.72-.25,0,.25,0,.49,.12,.62Z"/>
    <path class="cls-4" d="M115.06,143.76h-2.59v-6.41c-.49-.12-.74-.12-1.11-.25v-1.48c.37-.37,.74-.74,1.11-1.11v-2.96h.86c.12-.12,.37-.25,.37-.37v-1.6h.99c.25,.37,.37,.62,.49,.86-.12,.37-.12,.62-.25,.99,.12,0,.37,.12,.49,.12v.74c.25,.12,.37,.25,.62,.37v3.7c-.12,.12-.37,.25-.62,.49v1.36c-.25,.25-.37,.37-.62,.49v3.33c0,.62,.12,1.11,.25,1.72Z"/>
    <path class="cls-7" d="M112.72,125.41c-.99,2.96-1.97,3.7-5.05,3.45-.62-.49-1.48-1.11-2.22-1.6-.12-.74-.25-1.36-.49-2.22,.25-.74,.49-1.6,.86-2.46,.86-.49,1.6-.86,2.22-1.36h1.72c.74,.62,1.72,1.23,2.46,1.85,.12,.99,.25,1.6,.49,2.34Zm-3.94-3.33c-1.72,0-3.08,1.23-3.08,3.08,0,1.72,1.23,2.96,3.08,3.08,1.48,.12,3.08-1.36,3.08-3.08,0-1.85-1.23-3.08-3.08-3.08Z"/>
    <path class="cls-7" d="M113.21,131.57h-8.75c-.12-.49-.37-.86,.12-1.23h8.5c.12,.49,.12,.86,.12,1.23Z"/>
    <path class="cls-7" d="M102.62,130.46c-.12,.37,.37,.86-.25,1.11h-5.79c0-.37,0-.74-.12-1.11h6.16Z"/>
    <path class="cls-7" d="M115.3,131.57c-.12,0-.37-.12-.49-.12,.12-.37,.12-.74,.25-.99h5.91c0,.37,0,.74-.12,1.23-1.72-.12-3.57-.12-5.54-.12Z"/>
    <path class="cls-1" d="M132.55,154.97h-3.57c-.25,0-.37,.12-.62,.25h-3.57c-.25,0-.49,0-.74-.12-.62-.37-1.11-.25-1.6,0h-3.57c-.12,0-.37,0-.49-.12-.86-.25-.99-.25-1.85,.12-1.23,0-2.46,.12-3.57-.25h-2.34c-1.23,.37-2.34,.37-3.57,0h-1.97c-.12,0-.25,.12-.49,.25-1.23,0-2.46,.12-3.57-.25h-1.97c-.12,0-.25,.12-.49,.25h-3.57c-.12-.12-.25-.25-.49-.25h-1.97c-1.11,.37-2.34,.25-3.57,.25-.25-.12-.37-.25-.62-.25h-3.57v-7.02h47.3c.49,2.46,.49,4.8,.49,7.14Z"/>
    <path class="cls-3" d="M134.28,194.02v.25h-50.75v-.25h50.75Z"/>
    <path class="cls-4" d="M156.08,194.15c-.12-.86-.25-1.72-.37-2.34,.49-.99,1.11-.74,1.72-.74,.49,.99,.74,1.97,.74,3.08h-2.09Z"/>
    <path class="cls-4" d="M60.98,194.15c0-.99,0-1.97,.62-2.96,.49-.25,.99-.25,1.48,.37v2.59h-2.09Z"/>
    <path class="cls-4" d="M60.36,188.36c-.25-1.23,.62-2.22,.62-3.33,0-.49,.25-1.11,.49-1.72,.37,.49,.62,.86,.99,1.11v1.23c-1.23,.49-1.48,1.72-2.09,2.71Z"/>
    <path class="cls-4" d="M66.77,186.26c-.62-.49-.99-.99-.74-1.6h.74v1.6Z"/>
    <path class="cls-6" d="M89.31,155.22c1.23,0,2.46,.12,3.57-.25v26.61h-3.57v-26.36Z"/>
    <path class="cls-1" d="M115.3,131.57h5.54c.12,.25,.25,.37,.37,.62-.25,.25-.49,.37-.62,.49v3.08c-.12,.12-.37,.37-.62,.49v2.46c.12,.12,.37,.25,.62,.49v2.46c.25,.12,.37,.25,.62,.49v1.6h-4.07c0-1.48-.99-2.46-1.97-3.45-.12-.12-.25,0-.37,0v-1.48c.12-.12,.37-.25,.62-.49v-1.36c.25-.25,.37-.37,.62-.49v-3.7c-.12-.12-.37-.25-.62-.37-.12-.37-.12-.62-.12-.86Z"/>
    <path class="cls-1" d="M97.93,131.57h4.43c0,.25,0,.62-.12,.74-.62,.25-.49,.74-.62,1.23,0,.12-.25,.25-.49,.37v1.36c-.25,.25-.49,.37-.62,.49v1.48c.37,.12,.74,.12,1.11,.25,.25,1.11-.25,2.22,.37,3.2-.25,.37-.49,.74-.62,1.11-.37,.74-.99,1.36-.86,2.22h-2.96c-.12-.12-.37-.37-.49-.49v-1.11c.12-.12,.37-.25,.49-.37v-8.99c-.25-.12-.37-.37-.62-.49,.37-.62,.62-.74,.99-.99Z"/>
    <path class="cls-3" d="M112.35,138.46v5.3h-5.91c-.12-.49-.37-1.11-.25-1.6,.25-.99,.12-2.09,.62-3.08,.12-.25,.12-.62,.25-.99,1.23-.25,2.46-.49,3.82,0,.49,.12,.99,.25,1.48,.37Z"/>
    <path class="cls-3" d="M100.52,143.76c-.12-.86,.49-1.48,.86-2.22,.25-.37,.37-.74,.62-1.11h.62c.25,.62,.37,1.23,.62,1.72,.25,.62,.12,.99-.12,1.48-.74,.12-1.6,.12-2.59,.12Z"/>
    <path class="cls-3" d="M114.81,140.19h.37c.86,.99,1.97,1.97,1.97,3.45h-2.09c-.12-.49-.25-1.11-.25-1.72-.12-.49,0-1.11,0-1.72Z"/>
    <path class="cls-1" d="M134.28,194.02h-50.88v-9.73c.25-.25,.62-.49,1.11-.86h34.49c.12-.25,.25-.49,.37-.86,.37,.37,.62,.49,.86,.74,.86,.62,1.11-.99,2.09-.25,0,0,.12,.25,.37,.37h9.73c.62,0,1.23,0,1.85,.49v10.1Z"/>
    <path class="cls-6" d="M107.05,154.97c1.23,.37,2.34,.37,3.57,0v26.61h-3.57v-26.61Z"/>
    <path class="cls-6" d="M112.96,154.97c1.11,.37,2.34,.25,3.57,.25v26.36h-3.57v-26.61Z"/>
    <path class="cls-6" d="M101.14,154.97c1.11,.37,2.34,.25,3.57,.25v26.36h-3.57v-26.61Z"/>
    <path class="cls-6" d="M95.23,155.22h3.57v26.36h-3.57v-26.36Z"/>
    <path class="cls-6" d="M124.79,155.22h3.57v26.36h-3.57v-26.36Z"/>
    <path class="cls-6" d="M118.88,155.22h3.57v26.36h-3.57v-24.27c0-.49-.25-1.11,.25-1.6,0,0-.12-.25-.25-.49Z"/>
    <path class="cls-2" d="M104.71,181.58v-26.36c.12-.12,.25-.25,.49-.25h1.97v26.61h-2.46Z"/>
    <path class="cls-2" d="M98.8,181.58v-26.36c.12-.12,.25-.25,.49-.25h1.97v26.61h-2.46Z"/>
    <path class="cls-2" d="M95.23,155.22v26.36h-2.34v-26.61h1.97c.12,0,.25,.25,.37,.25Z"/>
    <path class="cls-2" d="M112.97,154.97v26.61h-2.34v-26.61h2.34Z"/>
    <path class="cls-2" d="M118.88,155.22c.12,.12,.25,.49,.25,.49-.37,.49-.25,1.11-.25,1.6v24.27h-2.34v-26.36c.74-.37,.99-.37,1.85-.12,.12,.12,.37,.12,.49,.12Z"/>
    <path class="cls-2" d="M122.45,181.58v-26.36c.49-.25,.99-.49,1.6,0,.12,.12,.49,0,.74,.12v26.36c-.74-.12-1.6-.12-2.34-.12Z"/>
    <path class="cls-5" d="M111.49,216.44c.12-.12,.25-.25,.49-.25h5.54c.37,0,.74,.12,1.11,.25,.12-.12,.25-.37,.37-.49h3.08c.12-.25,.25-.37,.49-.62,.25,.25,.37,.49,.62,.62,1.23,.25,2.46,.62,3.57,.25,.86-.25,1.6-.25,2.46-.25,1.85,0,3.7,.49,5.54,.25s3.82-.12,5.67-.25c.37,.25,.86,.37,1.23,.62,.62-.37,1.11-.49,1.72,0,.37-.12,.74-.37,1.11-.62,2.34-.12,4.8,0,7.14,.49,.37-.12,.74-.37,1.11-.62h.62c1.6,.12,3.33-.12,4.93,.25,1.11,.25,2.34-.12,3.57-.25,0,.62,.12,1.23-.25,1.72h-.86c-1.11,.12-2.22-.12-3.2,.12-.37,.74,.25,1.48-.37,1.97v-3.2c-1.48-.25-2.83-.12-4.31-.12-.12,.37-.25,.74-.37,1.23h-3.57c0-.37,0-.74-.12-1.11h-4.68c0,.99,0,1.85-.12,2.83-.62-.49,.12-1.23-.49-1.72h-2.96l-.37-1.11h-4.31v6.41h-1.48c.37-.25,.74-.49,1.11-.62v-4.56h-3.2v4.93c-.25-.12-.37-.25-.62-.49,.12-.86,.49-1.72,.25-2.59-.25-.86-.25-1.6,.12-2.34-.12-.25-.25-.49-.37-.74h-3.94v6.41h-.62v-2.71c0-.86,.12-1.72-.12-2.59-.99,0-1.97-.12-2.83,.12v4.8c.37,.12,.62,.37,.86,.49h-1.36v-5.54c-.37-.37-.74-.62-1.11-.99h-2.96c-.49,.49-.49,1.11-.49,1.72,0,.37,.37,.86-.25,1.23,0-.62,0-1.11-.12-1.72h-3.45c0-.37,0-.74-.12-1.11-1.11-.12-2.46-.12-3.7-.12Z"/>
    <path class="cls-4" d="M158.67,188.85c-.74-1.11-.49-2.71-2.09-3.08-.74-1.11,.62-1.6,.37-2.59,1.11,.86,.86,1.97,1.11,2.83,.37,.86,1.11,1.85,.62,2.83Z"/>
    <path class="cls-4" d="M152.51,184.29c.37,.62,.49,1.36,.12,2.22-.49-.86-.25-1.6-.12-2.22Z"/>
    <path class="cls-8" d="M56.79,269.42h-.62v-.62h9.24c.37,0,.74-.12,1.11-.25h5.54c.12,0,.25,.12,.25,.12h.25c.37,0,.74-.12,1.23-.12h5.91c.25,0,.62,.12,.86,.12,0,.12,.12,.25,.12,.37h4.68c.25-.25,.49-.37,.86-.74,.12,.25,.12,.49,.12,.62-.62,.37-1.23,.37-1.97,.37h-3.08v1.11c-.25,.62-.74,.49-1.23,.62h-7.64c-.74,0-1.36,0-2.09,.25-.86,.37-1.72-.12-2.34-.62-.62,.62,.37,.49,.37,.62-.37,.49-.74,.86-.99,1.23v-1.23c-.12-.12-.12-.25-.25-.37-.25-.12-.62-.12-.86-.25v-.99c0-.12-.25-.25-.37-.37-2.83,.12-5.91,.12-9.12,.12Z"/>
    <path class="cls-6" d="M80.57,277.42v-3.57h11.46c.49,1.11,.49,2.22,0,3.2h-10.35c-.25,0-.62,.12-.86,.25-.12,0-.25,.12-.25,.12Z"/>
    <path class="cls-6" d="M80.57,281.61v-3.33h.49c.12,.49,.62,.25,.86,.25h8.87c.37,0,.74,0,1.11,.12v2.83h-10.96s-.25,0-.37,.12Z"/>
    <path class="cls-6" d="M55.93,284.2c0-.49,.12-.99,.12-1.48h11.33c.12,.25,.12,.37,.25,.62v.49c0,.12-.12,.25-.12,.37,0,.25,0,.49-.12,.74h-11.21c0-.25-.12-.49-.25-.74Z"/>
    <path class="cls-6" d="M90.79,285.06h-10.1v-2.34h11.21v2.46c-.25,0-.62,0-.86-.12,0-.12-.12-.12-.12-.25,0,0,0,.12-.12,.25Z"/>
    <path class="cls-6" d="M80.44,271.14c.49-.12,.99,0,1.23-.62,.37-.12,.74-.25,1.11-.25,2.22,.12,4.43,.12,6.78,.25h.12c.86,.49,1.72,.25,2.71,0-.12,.74-.25,1.36-.25,2.09h-11.46c-.12-.49-.25-.99-.25-1.48Z"/>
    <path class="cls-2" d="M67.39,282.72h-11.33q-.12-.12-.25-.25c0-.25,0-.62,.12-.86h11.46q.12,0,.25,.12c0,.12,.12,.12,.12,.25v.74c-.12-.12-.25-.12-.37,0Z"/>
    <path class="cls-5" d="M80.57,277.92h11.09c0-.25,0-.37,.12-.62h.25c.12,.12,.25,.25,.25,.37-.37,.74-.99,.62-1.48,.62h-10.22v-.37Z"/>
    <path class="cls-5" d="M80.57,273.48h11.46v.25h-11.46v-.25Z"/>
    <path class="cls-8" d="M67.51,273.73c0-.12,.12-.37,.12-.49,.12,.12,.37,.25,.37,.37v7.76c0,.12-.25,.25-.37,.37q0-.12-.12-.25c.12-.86,.37-1.72-.12-2.46v-.86c0-.12,.12-.25,.12-.25,0-.37,.12-.62,.12-.99v-2.59c0-.12,0-.37-.12-.62Z"/>
    <path class="cls-3" d="M80.57,282.6h.25v2.34c-.12-.12-.25-.25-.25-.37-.12-.62,0-1.23,0-1.97Z"/>
    <path class="cls-10" d="M67.38,282.72q.12,0,.25-.12v.74c0-.25-.12-.49-.25-.62Z"/>
    <path class="cls-10" d="M67.51,284.2c0-.12,.12-.25,.12-.37,0,.12,0,.25-.12,.37Z"/>
    <path class="cls-3" d="M90.79,285.06c0-.12,.12-.12,.12-.25,0,.12,.12,.12,.12,.25h-.25Z"/>
    <path class="cls-3" d="M125.65,285.06c-2.09,0-4.19,0-6.28-.12h-.25c0-.25-.12-.49-.12-.74v-13.06c0-.25,0-.49,.12-.74,.25,0,.62,.12,.86,0,1.6-.49,3.2-.12,4.8-.25,.12,0,.25,.12,.37,.25,.12,.74,.25,1.36,.25,2.09v.25c-.37,.25-.37,.37,0,.62v.25c-.12,.12-.37,.25-.49,.49,.12,.12,.37,.25,.49,.37v2.71c-.49,.37-.49,.62,0,.86h11.46v.37h-11.58v6.41l.37,.25Zm-2.59-11.21c-.12-.62,.74-.62,.74-1.11-.12-.12-.25-.12-.25-.25-.25,.12-.49,.25-.86,.49v-1.48h-.74c0,.37-.12,.74-.12,1.11-.37,0-.74,.12-1.11,.12,.37,.37,.62,.62,.74,.86-.12,.25-.37,.62-.49,.86-.25,.12-.62,.25-.86,.37v1.6c.37,.37,.74,.62,1.11,.99,.12,.25,.25,.37,.25,.62-.74,0-1.11,.62-1.36,1.11-.25,.37-.25,.99-.49,1.48,.74,.49,1.23,.86,1.85,1.23v2.34h.86c.12-.62,.25-1.23,.49-1.72,.12,.12,.25,.12,.49,.25,.25-.49-.12-.49-.49-.49,.25-.25,.37-.37,.62-.62,.12-.12,.25-.25,.25-.25,.25-.25,.62-.49,.86-.74v-1.36c-.37-.25-.74-.62-1.11-.99-.12-.12-.25-.49-.37-.74,.37-.25,.74-.37,.99-.62,.12-.49,.25-.86,.37-1.23-.37-.86-.49-1.72-1.36-1.85Z"/>
    <path class="cls-6" d="M125.65,277.05v-2.46c-.12-.12-.37-.25-.49-.37,.12-.12,.37-.37,.49-.49h11.46v3.57c-.37-.12-.86-.25-1.23-.25h-10.22Z"/>
    <path class="cls-6" d="M125.65,281.49v-2.96h11.58v2.96h-11.58Z"/>
    <path class="cls-6" d="M125.65,284.94v-2.34h11.21c.12,.12,.12,.25,.25,.25v.86c-.49,.25-.12,.74-.25,1.11-3.7,.12-7.39,.12-11.21,.12Z"/>
    <path class="cls-6" d="M161.5,282.72c0,.74-.12,1.36,.25,2.09l-.25,.25h-10.35c-.25-.12-.62-.12-.86-.25v-2.09h11.21Z"/>
    <path class="cls-6" d="M125.65,272.62c-.12-.74-.25-1.36-.25-2.09,1.23-.25,2.46,.37,3.82,.12,1.97-.37,4.07-.25,6.04-.37h.86c.25,.49,.62,.37,.99,.37v2.09h-.49c-3.57-.12-7.27-.12-10.96-.12Z"/>
    <path class="cls-2" d="M161.5,282.72h-11.33c0-.25-.12-.62-.12-.86,0-.12,.12-.25,.12-.25h11.21c.49,.12,.25,.62,.37,.99,0-.12-.12,0-.25,.12Z"/>
    <path class="cls-2" d="M125.65,277.05h10.22c.37,0,.86,.12,1.23,.25v.86h-11.46v-1.11Z"/>
    <path class="cls-8" d="M150.04,273.23c.12,.25,.12,.37,.25,.62,0,.25,0,.62-.12,.86-.37,.74-.37,1.11,0,1.85v2.59c-.37,.74-.37,1.48,0,2.09v.25c0,.12-.12,.25-.12,.25-.12-.12-.37-.25-.37-.37v-7.88s.25-.12,.37-.25Z"/>
    <path class="cls-10" d="M161.75,285.06v3.82c-.12-.12-.25-.37-.25-.49v-3.33h.25Z"/>
    <path class="cls-10" d="M150.29,272.62h-.12q-.12,0-.25-.12v-1.97h.37v2.09Z"/>
    <path class="cls-8" d="M149.92,270.89v1.72c-.37-.62-.37-1.11,0-1.72Z"/>
    <path class="cls-3" d="M136.99,285.06c.12-.37-.25-.86,.25-1.11-.12,.25,.37,.74-.25,1.11Z"/>
    <path class="cls-10" d="M150.17,283.83v.86c-.37-.25-.37-.49,0-.86Z"/>
    <path class="cls-3" d="M150.29,284.69c.25,.12,.62,.12,.86,.25-.37,0-.74,.37-.86-.25Z"/>
    <path class="cls-3" d="M136.99,282.72h.25v.37c-.12-.25-.25-.37-.25-.37Z"/>
    <path class="cls-10" d="M150.17,282.97v.37c-.12,0-.12-.12-.25-.12,.12-.12,.25-.25,.25-.25Z"/>
    <path class="cls-3" d="M161.75,285.06h-.25l.25-.25v.25Z"/>
    <path class="cls-3" d="M119.25,269.42c-.49-3.08-1.6-5.91-3.94-8.01-1.72-1.48-3.57-2.34-5.91-2.46-3.57-.12-6.28,1.36-8.38,4.19-1.11,1.6-1.85,3.2-2.22,5.17-.12,.49-.25,.99-.25,1.36-1.48-.49-2.96-.37-4.43-.12-.62,0-1.36,.49-1.72-.37,0-.99,0-1.97,.25-2.96,.86-3.7,2.46-7.14,5.3-9.86,.62-.49,1.23-.86,1.72-1.48,.62-.74,1.6-1.11,2.34-1.6,.86-.37,1.72-1.11,2.83-.99,.12,0,.37-.12,.49-.25h7.02c1.85,.25,3.45,1.11,4.8,2.09,2.59,1.85,4.93,3.82,5.91,7.02,0,.12,.12,.12,.12,.25,.86,1.11,1.11,2.34,1.48,3.7,.37,1.36,.62,2.83,.86,4.19-.25,.12-.49,.37-.62,.37-1.72,.12-3.33-.49-4.93,.12-.12-.25-.49-.37-.74-.37Zm-22.05-.62c.12-.25,.37-.49,.37-.74,0-.86,.37-1.6,.62-2.34,.49-1.6,1.48-3.08,2.59-4.19,1.6-1.6,3.57-2.96,5.91-3.45,1.23-.25,2.46-.37,3.57-.12,1.72,.37,3.33,.99,4.8,2.09,2.59,1.97,4.19,4.56,4.93,7.76,.12,.37,.25,.74,.37,.99h3.7c0-.37,.12-.74,0-1.11-.49-1.72-.74-3.45-1.48-5.05-.86-1.97-2.09-3.82-3.7-5.42-1.23-1.23-2.71-2.09-4.19-2.96-1.6-.86-3.33-1.36-5.17-1.23h-1.97c-1.72,0-3.45,.25-4.93,1.23-.86,.49-1.72,.99-2.59,1.6-1.11,.86-2.22,1.85-3.08,3.08-.99,1.36-1.85,2.71-2.46,4.31-.49,1.48-.86,3.08-1.36,4.68-.12,.25,0,.49,0,.86h4.07Z"/>
    <path class="cls-3" d="M92.02,273.85v-1.11c.12-.74,.25-1.36,.25-2.09h2.22c.25,0,.49-.12,.74-.25h.62c.86,.37,1.48,.37,2.34,0h.25c0,.74,0,1.6,.12,2.34v12.32h-6.53v-2.34c.37-.37,.37-.74,0-1.11v-2.83c-.37,0-.74-.12-1.11-.12h-8.87c-.25,0-.74,.25-.86-.25h9.73c.49,0,1.11,.25,1.48-.62,0-.12-.12-.25-.25-.37v-.25c.37-1.23,.25-2.34-.12-3.33Zm5.05-1.23h-1.23c-.12-.37,.25-.86-.37-1.23-.25,.49-.49,.99-.62,1.48-.25-.12-.49-.37-.86-.49-.12,.74,.86,.86,.74,1.48-.74,0-.62,.86-1.11,.99q0,1.85,1.11,2.46v.62c-.49,.37-.99,.86-1.48,1.23,0,.49,0,.86,.12,1.36,.25,0,.37,0,.49,.12,.12,.25,.25,.37,.25,.62,.25,.25,.37,.62,.62,.86-.25,.49-.99,.37-.74,1.11,.37-.12,.74-.12,1.11-.25,0,.37,.12,.74,.12,1.11h.62c.12-.37,.12-.74,.25-1.11,.37,0,.74,.12,1.36,.25-.62-.49-.86-.74-1.11-.99,.62-.62,1.23-1.11,1.72-1.6,.12-1.48-.86-2.09-1.85-2.83,.62-.37,1.11-.86,1.6-1.11v-1.72c-.37-.37-.74-.62-1.23-.99,.12-.25,.25-.37,.37-.62-.12-.37,0-.49,.12-.74,0-.12,.12-.12,.12-.25q-.12,.12-.12,.25Z"/>
    <path class="cls-2" d="M119.25,269.42c.37,.12,.62,.12,.99,.25,1.48-.62,3.2,0,4.93-.12,.12-.12,.37-.25,.62-.37h5.3c.37,.12,.62,.12,.99,.25,1.48,0,2.83,.12,4.31,.12,0,.37-.12,.49-.12,.74h-.86c-1.97,.12-4.07,0-6.04,.37-1.36,.25-2.59-.25-3.82-.12-.12-.12-.25-.25-.37-.25-1.6,.12-3.2-.25-4.8,.25-.25,.12-.62,0-.86,0,0-.12-.12-.12-.12-.25v-.62q-.12-.12-.12-.25Z"/>
    <path class="cls-2" d="M98.43,270.28h-4.93c-.25,0-.49,.12-.74,.25h-.62c-.86,.12-1.72,.49-2.71,0h-.12c-2.22-.12-4.43-.25-6.78-.25-.37,0-.74,.12-1.11,.25v-1.11h3.08c.74,0,1.36-.12,1.97-.37h.25c1.85,0,3.57,0,5.42,.12,.37,.86,1.23,.49,1.72,.37,1.48-.12,2.96-.25,4.43,.12,.12,.25,.12,.37,.12,.62Z"/>
    <path class="cls-8" d="M119.25,270.28c0,.12,.12,.12,.12,.25,0,.25-.12,.49-.12,.74v13.06c0,.25,0,.49,.12,.74-.62-.12-.37-.62-.37-.86v-13.18c-.12-.37,.12-.62,.25-.74Z"/>
    <path class="cls-3" d="M119.25,269.42v.25c-.12,0-.12-.12-.25-.12,0,0,.12-.12,.25-.12Z"/>
    <path class="cls-5" d="M151.4,273.73c.25-.12,.62-.25,.86-.25h8.99c0-.25,0-.37,.12-.62h.25v.86h-10.22Z"/>
    <path class="cls-2" d="M150.17,278.28v-1.23h11.58v.86c-.25,.12-.62,.25-.86,.25-3.57,.12-7.14,.12-10.72,.12Z"/>
    <path class="cls-6" d="M161.75,277.92v-.25c.12,0,.12,.12,.25,.12-.12,0-.12,.12-.25,.12Z"/>
    <path class="cls-4" d="M137.23,268.18c.37-.37,.62-.74,1.11-1.23v-1.72c.25-.25,.37-.37,.62-.49v-2.46c-.12-.12-.37-.37-.62-.49v-8.87c.37-.49,.74-.86,1.23-1.36v-2.59c.49-1.11,.86-1.97,1.36-2.83,.62,0,1.11-.25,.99-.99,.49-.25,.99-.49,1.48-.86h3.2c.62,.37,1.11,.49,1.48,.74,1.23,.62,1.48,2.09,2.59,3.08v3.08c.37,.37,.74,.74,1.11,1.11v2.09c-.37,0-.74,.12-1.11,.12v5.67c.12,.12,.25,.25,.49,.37v.74c-.12,.12-.37,.25-.49,.49v1.36c-.25,.12-.37,.25-.62,.49v1.36c-.25,.12-.37,.25-.62,.49v2.34c-.25-.12-.37-.12-.49-.12v.86c-.74,.37-1.6,.12-2.34,.12-.25,0-.49,0-.62-.12v-1.97c.25-.12,.37-.25,.49-.37,.25-.99,.37-1.97,.62-2.96,.25-1.11,.99-2.09,.37-3.33v-.49c.12-.74-.37-1.36-.86-1.72v-1.85c.12-.12,.37-.25,.62-.49v-1.23c.37-.25,.86-.62,1.23-.86-.12-1.6-.25-2.96-.49-4.43-.12-.12-.37-.25-.62-.37-.74,.74-.62,1.48-.37,2.22,.25,.62,.37,1.23,.49,1.85-.49,.49-.86,.74-1.23,1.11-.25-.25-.37-.37-.49-.49,.12-.74,.12-1.48,.25-1.97-.49-.74-.86-1.11-1.6-.86-.99,.86-.37,1.85-.25,2.83-1.72-.25-3.2-.49-3.94-2.34v-1.6h-.12v3.94c.49,.49,.99,.99,1.48,1.48,0,.25,0,.62-.12,.86-.12,.86-.49,1.72-.49,2.71-.12,1.48,0,3.08,0,4.56,0,.25,.25,.37,.25,.62v1.48c-.25,.25-.49,.37-.62,.49,.25,.25,.49,.37,.62,.62v2.46h-3.57c0-.25-.12-.25-.37-.25Z"/>
    <path class="cls-5" d="M141.42,263.13c-.12-.25-.25-.37-.25-.62,0-1.48-.12-3.08,0-4.56,0-.86,.37-1.72,.49-2.71,0-.25,.12-.62,.12-.86-.49-.49-.99-.99-1.48-1.48v-3.94h.12v1.6c.74,1.85,2.22,2.09,3.94,2.34-.12-.99-.74-1.97,.25-2.83,.62-.25,1.11,.12,1.6,.86,0,.49-.12,1.23-.25,1.97,.12,.12,.25,.25,.49,.49,.37-.37,.74-.74,1.23-1.11-.12-.62-.25-1.23-.49-1.85-.25-.74-.37-1.48,.37-2.22,.25,.12,.37,.25,.62,.37,.12,1.48,.25,2.83,.49,4.43-.37,.25-.86,.62-1.23,.86v1.23c-.25,.25-.37,.37-.62,.49v1.85c.49,.37,.99,.99,.86,1.72v.49c.62,1.23-.12,2.22-.37,3.33-.25,.99-.49,1.97-.62,2.96-.12,.12-.25,.25-.49,.37v1.85c-.74,0-1.6,0-2.34,.12v-1.72c-.74-.86-1.23-1.48-1.72-2.09,0-.37,0-.86-.12-1.36-.37,.12-.49,.12-.62,0Z"/>
    <path class="cls-7" d="M86.85,269.05h-.25c0-.12-.12-.37-.12-.62-.37,.25-.62,.49-.86,.74h-4.68c0-.12-.12-.25-.12-.37h4.93c.12-.86,.37-1.72,.37-2.46,.49-4.19,2.09-8.01,4.43-11.58,2.34-3.57,5.54-6.41,9.36-8.25,2.34-1.23,4.93-1.85,7.51-1.97,2.96-.12,5.79,.25,8.62,1.23,2.59,.99,4.93,2.34,7.02,4.19,1.73,1.6,3.33,3.2,4.56,5.17,1.36,2.22,2.59,4.43,3.2,7.02,.49,2.09,.99,4.31,1.48,6.65h4.19c.12,.12,.12,.37,.25,.62h-3.94c-.25,0-.49,.12-.74,.25-.37-.12-.62-.12-.99-.25-.12-1.23-.37-2.46-.49-3.7-.62-4.07-2.22-7.76-4.68-11.09-2.09-2.83-4.68-5.17-7.88-6.78-1.48-.74-3.08-1.23-4.56-1.72-.12-.25-.12-.37-.25-.62h-8.75c0,.25-.12,.37-.12,.62-.49,.12-1.11,.37-1.6,.49-4.07,1.23-7.39,3.7-9.98,6.9-3.7,4.19-5.79,9.49-5.91,15.52Z"/>
    <path class="cls-10" d="M143.76,268.31c-.74,.37-1.6,.37-2.34,0v-.12c.74,0,1.48,0,2.34,.12Z"/>
    <path class="cls-10" d="M137.23,268.18c.25,0,.37,.12,.62,.12-.49,0-.99,.12-1.48,.12,.25-.12,.62-.12,.86-.25Z"/>
    <path class="cls-10" d="M149.68,268.31c.49,0,1.11-.37,1.48,.25-.49-.12-.99-.25-1.48-.25Z"/>
    <path class="cls-10" d="M146.1,268.31c.25,0,.49,0,.62,.12-.25-.12-.37-.12-.62-.12Z"/>
    <path class="cls-10" d="M150.91,270.28v.25h-.37c.12,0,.25-.12,.37-.25Z"/>
    <path class="cls-10" d="M150.17,276.56c-.25-.74-.25-1.11,0-1.85v1.85Z"/>
    <path class="cls-3" d="M150.17,278.28h10.72c-.12,.49-.62,.25-.86,.25h-9.86v-.25Z"/>
    <path class="cls-10" d="M150.17,281.24c-.37-.74-.37-1.48,0-2.09v2.09Z"/>
    <path class="cls-5" d="M161.5,272.86h-9.12c-.25,0-.62-.12-.86-.25h9.49c.12,0,.25,.25,.49,.25Z"/>
    <path class="cls-10" d="M150.78,270.52c.12,0,.12,.12,.25,.12,0,0-.12,0-.25-.12Z"/>
    <path class="cls-3" d="M13.06,282.35c.86-.37,1.6-.37,2.46,0h-2.46Z"/>
    <path class="cls-2" d="M115.92,238.86c-.37,.25-.74,.49-1.11,.74v.86c.12,.12,.37,.25,.49,.37v1.48c-.25,.12-.49,.37-.74,.62h-1.48c-.74-.37-.86-.99-.86-1.72-.74,.37-1.36,.62-2.09,.99-.86-.37-1.85-.62-2.83,0-.62-.37-1.36-.62-1.97-.86-.25,.62-.49,1.11-.74,1.72h-1.72c-.25-.25-.49-.49-.74-.74v-1.11c.25-.62,.49-1.11,.74-1.6-.74,0-.99-.99-1.97-.62v2.34c0,.99-.25,1.72-1.11,2.22-.86-.12-1.72-.37-2.46-.49-.86-.12-1.48,.37-1.97,.74-.86,.62-1.85,.74-2.83,.99-.25,.12-.49,.25-.99,.62h-1.72c-.12,.37-.12,.74-.25,.99-.62,.25-1.11,.49-1.6,.74-.74-.62-.62-1.36-.62-2.22,.37-.25,.74-.37,1.11-.62v-1.72c-.12-.37-.37-.74-.62-1.11,.25-.49,.49-.86,.74-1.48h2.46c.37-.37,.62-.62,.99-1.11-.74-.37-1.48-.12-2.09-.25-.49-.12-.99-.25-1.36-.37-.12,0-.12-.37-.25-.62,1.6-.49,2.46-1.85,3.82-2.71,1.36-.74,2.46-1.97,3.45-2.83h1.48c.49,.74,1.11,1.6,1.72,2.59,.25-1.11,.74-1.72,1.85-1.97,.37,.37,.86,.86,1.36,1.48,.25,1.11-1.11,1.97-.49,3.08,.49,.49,.99,.86,1.6,1.36,.25,0,.62,0,.99-.12-.74-1.97-1.23-3.94-1.23-6.04-.25-.25-.62-.49-.99-.74,.37-.12,.62-.12,.86-.25,.86,1.6,2.46,2.09,3.82,2.96,.49,.37,.99,.74,1.72,1.23,.25-.12,.62-.25,.99-.37,.86-.37,1.36-1.23,2.22-1.48h.99c.25-.37,.49-.74,.74-1.11,.12,0,.37,0,.62,.12v2.83c-.25,.86-.49,1.85-.86,2.83,.25,0,.62,.12,.86,.12,.62-.49,1.11-.99,1.72-1.48v-1.23h-.12c-.25-.62-.37-1.11-.62-1.85,.62-.49,1.23-.86,1.85-1.23l1.85,1.85c.37-.74,.74-1.36,1.23-2.22,.49-.12,1.11-.37,1.72-.49,1.23,1.11,2.22,2.34,3.57,3.08,1.23,.74,1.97,2.22,3.82,2.59-1.36,1.23-2.96,.37-4.31,.86,.62,.99,1.36,1.48,2.46,1.36,.49,0,.99,.12,1.48,.25,.86,1.23,.37,2.46-.12,3.7,.37,.37,.74,.86,1.23,1.36-.12,.49,.37,1.23-.62,1.85-.62-.49-1.23-1.11-1.85-1.72-.99,.25-1.97-.49-2.96-.86-.49-.12-.86-.25-1.36-.37,0-.12,0-.37-.12-.62h-1.11c0-.62-.62-.74-.86-1.23-.62,.25-1.23,.49-1.97,.74h-1.85c0-.49,.12-.99,0-1.48-.25-.99-.25-1.97,0-2.96,0,0-.12-.12-.12-.25h-.99c.12,.37,.12,.49,.12,.62Z"/>
    <path class="cls-4" d="M72.19,268.55h-4.19v-.99c.25-.12,.37-.37,.62-.49v-6.65c-.25-.12-.37-.25-.62-.49v-1.23c.62-.74,.86-1.6,1.23-2.46-.37-.25-.49-.37-.74-.49v-2.22c.37-.74,.74-1.36,1.23-1.97v-2.34c.12-.12,.37-.25,.62-.49v-1.36c.62-.49,1.23-.99,.62-1.97,.37,0,.62-.12,.86-.12,.37-.37,.74-.74,1.11-1.11h4.68c.86,.62,1.36,1.72,2.59,1.85v1.36c.25,.25,.37,.37,.62,.49v2.46c.25,.12,.37,.25,.62,.49v.74c.37,.37,.74,.74,1.23,1.11v1.23c-.37,.37-.74,.74-1.11,1.11v1.85c-.25,.12-.37,.37-.62,.49v1.36c.12,.12,.37,.25,.49,.49v2.96c-.25,.37-.37,.74-.62,.99-.12,.25-.25,.49-.62,.99v1.72c-.25,.12-.37,.25-.62,.49v2.22h-3.57v-1.97c.49-.74,.74-1.36,.99-1.72,.12-.74,.37-1.36,.37-1.97,.12-1.23,.25-2.34,.37-3.57-.37-.25-.49-.37-.74-.49,.12-1.6-.25-3.2,.49-4.93,.25-.12,.62-.49,1.11-.86-.25-.86-.37-1.72-.62-2.71,.49-.74,.12-1.36-.25-1.97-.25,0-.37,0-.49,.12-.37,1.36,.12,2.59,.49,3.82-.37,.37-.86,.74-1.23,1.23-.25-.25-.49-.49-.62-.62,.12-.74,.62-1.36,.12-2.22-.37-.12-.86-.37-1.23-.49-1.11,.74-.25,1.85-.74,2.59-1.6,.49-2.59-.62-3.45-1.72v-2.34c-.86,1.48-.49,2.83-.12,4.31,.37,.49,.86,1.11,1.48,1.72-.74,2.46-.99,5.05-.99,7.64,.25,.49,.49,.99,.62,1.36,.12,.49,.86,.62,.86,1.23h-1.11v2.59c.49,.37,.74,.62,.86,.99Z"/>
    <path class="cls-2" d="M65.17,230.12h17.49c.12,.25,.37,.49,.37,.86v6.16c0,.12-.12,.37-.37,.49h-17.49c-.12-.25-.25-.49-.37-.62,.49-2.22,.12-4.56,.37-6.9Zm12.93,5.3v.74c2.22,.74,2.59,.62,4.07-1.23v-1.97c-.49-.49-.86-.99-1.23-1.36h-2.59c-.37,.62-.86,1.11-1.23,1.6v1.97c.37,0,.74,.12,.99,.25Zm-8.87-3.94c-.99,0-1.97-.25-2.83,.62-.37,.74-.99,1.48-.74,2.46,.25,.74,.74,1.23,1.36,1.6,1.6,.86,2.96,0,3.57-1.23,.86-1.23,.37-2.46-1.36-3.45Zm5.67,.12h-1.97c-.49,.49-.99,.86-1.36,1.23v1.85c.74,1.48,1.48,1.97,2.59,1.85,1.23-.25,2.22-1.11,2.46-2.22,.25-1.23-.25-1.97-1.72-2.71Z"/>
    <path class="cls-2" d="M152.51,230.12c.25,2.34-.25,4.68,.25,6.9-.12,.25-.25,.49-.37,.74h-17.49c-.12-.37-.37-.86-.37-1.36,.12-2.09-.37-4.19,.25-6.16,6.04-.12,11.83-.12,17.74-.12Zm-13.3,6.04c1.11-.86,1.6-1.72,1.23-2.96-.25-.37-.49-.74-.74-1.23-.74-.74-1.72-.49-2.59-.49-1.48,.74-2.22,1.97-1.72,3.2,.25,.74,.74,1.23,1.36,1.6,.74,.62,1.6,.12,2.46-.12Zm9.24-4.68c-1.85,.74-1.85,1.97-1.72,3.33,.37,1.23,1.23,1.72,2.46,1.85,1.23,0,1.97-.74,2.59-1.72v-1.85c-.25-.37-.49-.74-.86-1.23-.86-.12-1.85-.25-2.46-.37Zm-3.94,5.05c1.11-.86,2.09-1.85,1.48-3.45-.62-1.72-2.09-1.6-3.57-1.48-.37,.37-.74,.86-1.23,1.36-.12,.25-.25,.62-.37,1.11,.99,2.34,1.23,2.59,3.7,2.46Z"/>
    <path class="cls-3" d="M66.64,268.55c-.37,.12-.74,.25-1.11,.25h-9.24v.62c-.25-.12-.62-.25-.86-.37-.25,.25-.37,.37-.49,.62h-1.97c-.12-.12-.25-.37-.49-.62-.25,.25-.37,.37-.62,.62h-11.95c-.37-.37-.74-.74-1.11-1.11-.25,0-.49,0-.99-.12v-.99c.25,0,.49-.12,.74-.12h17.37c.12,.37,.25,.74,.37,1.23h10.35Z"/>
    <path class="cls-5" d="M85.49,216.44c.25-.12,.49-.25,.74-.25,.62-.12,1.11-.12,1.72-.25,.49,.12,.99,.25,1.6,.25,.86,.12,1.72-.12,2.59,.25,.12,.12,.49,0,.74,0,1.23-.49,2.59-.62,3.82-.49h1.36c.25,.12,.62,.37,1.11,.49,1.23-.49,2.34-.37,3.57,.12v.37c-.12,.25-.25,.37-.37,.62h-3.57v4.43c-.12-.12-.25-.25-.25-.49v-1.48c-.12-1.23-.12-2.34-.25-3.7h-3.33c-.12,.37-.25,.74-.37,1.23-.25-.12-.37-.37-.62-.49v5.17c-.12-.25-.25-.37-.25-.62v-3.57c0-.12-.25-.37-.25-.49h-2.96c-.12,.12-.25,.12-.25,.25v3.94c0,.12,.12,.12,.25,.25v.86h-.49v-6.53c-1.6,.12-3.08,.12-4.56,.12Z"/>
    <path class="cls-5" d="M68.62,216.44v-.49h4.56c.25,.12,.62,.25,.99,.49,.74-.86,1.6,.12,2.46,0,.12-.12,.25-.37,.37-.49h4.8c.37,.12,.74,.37,1.23,.62h2.09v1.11h-2.96c-.12,.25-.25,.49-.25,.74v4.07c-.12-.25-.25-.49-.25-.74v-5.05c-1.36-.25-2.71,0-3.94-.12-.25,.49-.62,.86-.86,1.23-1.11,.12-2.22-.12-3.2,.12-.25,.62,.25,1.23-.37,1.72v-2.96c-1.6-.25-3.08-.25-4.68-.25Z"/>
    <path class="cls-2" d="M130.33,218.41c.37,.37,.62,.74,.99,1.23v1.11c-.25,.25-.49,.49-.62,.62-.99,.25-1.6,0-2.22-.62,0-.37,0-.86-.12-1.11,.49-.74,1.11-.99,1.97-1.23Z"/>
    <path class="cls-2" d="M97.69,221c-.62,.25-.99,.37-1.36,.49-.86-.12-1.36-.62-1.6-1.48,.12-.74,.62-1.23,1.48-1.48,.37,.12,.74,.25,1.36,.49,0,.62,0,1.23,.12,1.97Z"/>
    <path class="cls-2" d="M89.31,221c-.62,.25-1.23,.37-1.85,.62-.37-.62-.74-1.11-1.11-1.6,.37-.62,.74-.99,1.23-1.6,.62,.37,1.23,.74,1.72,.99v1.6Z"/>
    <path class="cls-2" d="M120.11,220.88v-1.48c.37-.25,.86-.62,1.23-.99,.86,.12,1.36,.62,1.6,1.36-.12,.86-.74,1.23-1.6,1.6-.25,0-.74-.25-1.23-.49Z"/>
    <path class="cls-5" d="M110.01,217.68h-2.34c0-.37-.12-.62-.62-.62-.49,.12-.62-.25-.74-.62h-3.08c.12-.12,.25-.25,.37-.25h6.9c.12,0,.25,.25,.37,.25-.12,.25-.25,.37-.25,.62-.49,0-.62,.12-.62,.62Z"/>
    <path class="cls-2" d="M103.72,218.78h1.72c.99,.49,.37,1.36,.62,2.22-.49,.12-.86,.37-1.36,.37-.25,0-.62-.12-.86-.37-.74-.25-.74-.99-.12-2.22Z"/>
    <path class="cls-2" d="M137.36,218.78h1.6c.86,.37,.49,1.23,.62,1.97-.25,.25-.49,.49-.74,.74-1.85-.12-2.22-.86-1.48-2.71Z"/>
    <path class="cls-2" d="M154.6,221.62c-.37-.25-.62-.49-.86-.86,.12-.62-.25-1.36,.49-1.85h1.85v2.22c-.37,0-.86,.25-1.48,.49Z"/>
    <path class="cls-2" d="M63.44,218.91q.49,.74,.25,1.97c-.25,.12-.49,.25-.74,.25-.25,.12-.49,.12-.62,.25-.25-.12-.49-.25-.86-.49v-2.22c.74,.25,1.36,.25,1.97,.25Z"/>
    <path class="cls-2" d="M78.59,218.78h1.48c.25,.37,.49,.74,.62,1.11-.12,.37-.25,.86-.37,1.23h-1.6c-.25-.25-.49-.37-.62-.62,0-.62-.25-1.11,.49-1.72Z"/>
    <path class="cls-2" d="M71.7,221.25c-.62-.12-1.36,.25-1.85-.49,.12-.49-.37-1.23,.49-1.85h1.48c.49,.74,.62,1.23-.12,2.34Z"/>
    <path class="cls-2" d="M147.83,218.91v1.97c-.49,.62-1.23,.25-1.85,.37-.74-.74-.62-1.48-.12-2.34h1.97Z"/>
    <path class="cls-2" d="M114.2,219.4c-.12,.62,.25,1.23-.49,1.72h-1.48c-.12-.49-.37-.99-.49-1.6,.37-.25,.62-.49,.86-.74,.49,0,1.11-.25,1.6,.62Z"/>
    <path class="cls-2" d="M98.8,222.36h2.96v-4.68h.62v5.17h-3.45c-.12-.12-.12-.25-.12-.49Z"/>
    <path class="cls-2" d="M115.92,217.68v4.68h2.96c-.37,.25-.74,.49-1.23,.62-.62,.12-1.23,0-2.09,0-.12-.37-.25-.74-.25-1.11v-4.31c.25,.12,.49,.12,.62,.12Z"/>
    <path class="cls-5" d="M73.42,220.02c.12,.25,.25,.37,.25,.62v1.6c1.11,.25,2.09,.12,3.33,.12v-4.19c.62,.25,.25,.74,.25,1.23,.12,.86,.12,1.85,.12,2.96l-.25,.49h-3.7v-2.83Z"/>
    <path class="cls-5" d="M117.15,243.05h1.85c.74-.25,1.36-.49,1.97-.74,.25,.62,.86,.62,.86,1.23h-4.68v-.49Z"/>
    <path class="cls-3" d="M55.07,266.95c-1.6,0-3.33,.12-4.93,.12h-6.53c.49-.49,1.23-.12,1.72-.25h9.12c.25,0,.37,0,.62,.12Z"/>
    <path class="cls-5" d="M114.2,235.91v-2.83c-.25,0-.37,0-.62-.12-.25-.62,.86-.49,.62-1.23h.99c.37,.62-.25,.74-.49,.99-.12,1.23,.49,2.46-.49,3.2Z"/>
    <path class="cls-5" d="M115.92,238.86v-.49h.99c.12,.12,.25,.25,.12,.25-.25,.99-.25,1.97,0,2.96,.12,.49,0,.99,0,1.48h-.49c-.12-.49-.25-.86-.25-1.11,.12-1.11,.12-1.97,.12-2.83-.12-.12-.25-.12-.49-.25Z"/>
    <path class="cls-2" d="M107.05,222.11c1.23,.49,2.34,.49,3.57,0v.86h-3.45c0-.37-.12-.62-.12-.86Z"/>
    <path class="cls-2" d="M92.64,222.97l.86-.86v-4.43c.12,.12,.25,.37,.25,.49v3.57c0,.25,.12,.37,.25,.62v.62h-1.36Z"/>
    <path class="cls-5" d="M113.58,233.07c-.25,.37-.49,.74-.74,1.11h-.99c-.12-.62,.74-.62,.74-1.11h.99Z"/>
    <path class="cls-5" d="M143.76,222.97c.12-.74,.25-1.36,.37-2.09,0-.25,.12-.37,.25-.62v2.59c-.37,0-.49,0-.62,.12Z"/>
    <path class="cls-2" d="M90.54,222.36h1.11c0,.25,.12,.37,.12,.62h-1.23v-.62Z"/>
    <path class="cls-5" d="M121.83,243.67h1.11c0,.25,0,.37,.12,.62h-1.11c0-.25-.12-.49-.12-.62Z"/>
    <path class="cls-2" d="M107.05,217.06c.49,0,.62,.12,.62,.62-.25,.12-.37,.25-.62,.25v-.86Z"/>
    <path class="cls-5" d="M140.81,222.36c.37,.25,.74,.37,1.23,.62h-1.11c-.12-.25-.12-.37-.12-.62Z"/>
    <path class="cls-2" d="M110.01,217.68c0-.49,.12-.62,.62-.62v.62h-.62Z"/>
    <path class="cls-5" d="M125.65,222.97c.25-.49,.62-.49,.86,0h-.86Z"/>
    <path class="cls-5" d="M157.93,222.73c.12,.12,.25,.12,.25,.25,0-.12-.12-.25-.25-.25Z"/>
    <path class="cls-5" d="M132.55,222.6c.12,.12,.25,.12,.25,.25-.12,0-.25-.12-.25-.25Z"/>
    <path class="cls-2" d="M84.88,222.97c.12-.12,.25-.12,.25-.25,0,0-.12,.12-.25,.25Z"/>
    <path class="cls-5" d="M82.29,222.73c.12,.12,.25,.12,.25,.25-.12-.12-.25-.25-.25-.25Z"/>
    <path class="cls-5" d="M157.68,222.36l.25,.25c-.12,0-.25-.12-.25-.25Z"/>
    <path class="cls-5" d="M82.29,222.36v.25c-.12-.12-.25-.25-.25-.25h.25Z"/>
    <path class="cls-5" d="M157.31,222.11c.12,.12,.12,.25,.25,.25,0-.12-.12-.25-.25-.25Z"/>
    <path class="cls-1" d="M11.58,266.95h-2.34c-.25-.37-.62-.37-.86,0h-.62c-.12-.12-.25-.12-.25-.25v-20.08h15.03v20.08h-3.57c-.37-.86-.62-1.85-.62-2.83v-13.8h-2.34c.25-.37,.37-.62,.62-.86-.12-.49-.37-.86-.49-1.36-.49-.12-.86-.37-1.36-.49-.37,.37-.74,.74-1.23,1.23,.25,.49,.37,.99,.62,1.36-.74,.49-1.85-.37-2.59,.62v16.38Z"/>
    <path class="cls-1" d="M45.33,266.7c-.62,.12-1.23-.25-1.72,.25h-.62c0-.12-.12-.12-.12-.25,0,.12-.12,.12-.12,.25-.25,0-.37,0-.62-.12-.12-.25-.37-.49-.62-.86v-15.77c-.74,0-1.48-.12-2.34-.12v-2.09c-.37-.37-.62-.62-.86-.86h-.86c-.37,.62-.86,1.36-1.23,1.97,.25,.37,.37,.62,.62,.99h-2.46v15.77c-.25,.49-.37,.74-.49,.86h-.62c-.25-.12-.37-.25-.62-.25h-2.34c.12-.25,.25-.37,.25-.49-.12-.86-.25-1.48-.25-2.22v-12.69c0-.49,.12-.99,.25-1.36,0-.37-.12-.74-.12-1.11,0-.49,0-.86,.12-1.36-.12-.37-.12-.62-.25-.99h15.03v20.45Z"/>
    <path class="cls-5" d="M16.63,229.26c.37,.49,.99,.12,1.6,.37,.12,.37,.12,.74,.25,1.23,.12-.12,.37-.37,.49-.49-.49,3.2-.25,6.41-.12,9.86,0,.12-.25,.49-.49,1.11h-6.53c-.37-.37-.49-.86-.49-1.48v-8.75c0-.49,.25-.99,.37-1.48h1.36v-.86c.37,.37,.74,.86,.99,1.23,.99-.37,1.72-.62,2.59-.74Zm1.11,1.11h-5.54v9.98h5.54v-9.98Z"/>
    <path class="cls-5" d="M39.67,228.89c0,.12,0,.25,.12,.49,.37,0,.86,.12,1.36,.12,.12,.49,.37,.99,.37,1.48v10.1c-1.11,.25-2.34,.12-3.45,.12h-3.33c-.25-1.11-.37-7.51-.12-11.46,.49-.12,1.11-.25,1.72-.37,.99,.25,2.34,.62,3.33-.49Zm.86,11.46v-10.1h-5.3c-.37,1.23-.37,8.99,0,10.1h5.3Z"/>
    <path class="cls-3" d="M22.54,246.63H7.52c-.49-.25-.99-.49-1.6-.74,.37-.37,.62-.74,.86-.99H23.65v1.72h-1.11Zm0-.86v-.37H8.62c-.25,0-.74-.12-.74,.62h14.41s.12-.12,.25-.25Z"/>
    <path class="cls-3" d="M45.33,246.63h-15.77c-.12-.37-.37-.62-.37-.86,.37-.25,.62-.49,.99-.86h16.01v1.72h-.86Zm-15.03-.86v.12c.12,0,.25,.12,.37,.12,4.93,0,9.86,0,14.78-.12,0,0,.12,0,.12-.12v-.25c-.12-.12-.12-.25-.25-.25h-14.91c-.12,.25-.12,.37-.12,.49Z"/>
    <path class="cls-10" d="M16.63,229.26c-.74,.12-1.6,.37-2.46,.62-.37-.37-.62-.74-.99-1.23-.12-1.36,.99-1.36,1.85-1.72,.62,.25,1.48,.25,1.97,1.23-.12,.25-.25,.62-.37,1.11Z"/>
    <path class="cls-10" d="M39.67,228.89c-.99,1.11-2.22,.74-3.45,.49-.12-.37-.12-.74-.25-1.36,.12-.86,1.23-.86,1.97-1.23,.62,.25,1.36,.25,1.85,1.11-.12,.37-.12,.62-.12,.99Z"/>
    <path class="cls-3" d="M30.18,266.7h2.34c.25,0,.37,.12,.62,.25h-12.81c-.49,0-.99,0-1.48-.12v-.25h3.57c2.71,.12,5.17,.12,7.76,.12Z"/>
    <path class="cls-3" d="M7.39,266.7c.12,.12,.25,.12,.25,.25H1.73c.25-.12,.49-.25,.74-.25H7.39Z"/>
    <path class="cls-3" d="M1.23,266.95h-.25c0-.12,.12-.12,.12-.25,0,.12,.12,.12,.12,.25Z"/>
    <path class="cls-1" d="M175.05,246.38c.12,.49,.62,.25,.86,.25h11.33c.12,.74,.12,1.36,.12,1.97v16.01c0,.49-.12,.99-.25,1.48,.12,.12,.25,.37,.25,.62-.25,.12-.37,.12-.62,.25h-1.23c-.37-.37-.74-.37-1.23,0-.37,0-.86-.12-1.23-.12v-16.38c0-.12-.12-.12-.25-.25h-1.72c-.12,0-.25-.25-.49-.25v-1.97c-.86-.74-1.6-.37-2.34,0v2.22c-.86,0-1.6,.12-2.34,.12v16.75h-1.11c-.86-.49-1.72-.12-2.71-.25v-19.83c.25-.12,.37-.37,.62-.49,.99-.12,1.72-.12,2.34-.12Z"/>
    <path class="cls-1" d="M195.13,266.7v-20.08h15.03v20.08c-.74,.12-1.48-.25-2.09,.25h-1.72v-16.01c-.25-.25-.49-.49-.74-.74h-2.09c.12-.62,.37-1.23,.49-1.85l-.74-.74h-1.36c-.25,.25-.49,.49-.74,.74,0,.62,.12,1.23,.12,1.85h-2.22v16.01c-.25,.25-.37,.37-.62,.49h-3.33Z"/>
    <path class="cls-2" d="M198.71,266.7c.12-.12,.37-.25,.62-.49v-16.01h2.22c-.12-.74-.12-1.36-.12-1.85,.25-.25,.49-.49,.74-.74h1.36c.12,.12,.37,.37,.74,.74-.12,.62-.37,1.23-.49,1.85h2.09c.25,.25,.49,.49,.74,.74v15.77h-6.04c-.25,0-.49,.12-.86,.25h-.74c-.12-.12-.25-.12-.25-.25Zm1.23-15.65v14.78h5.54v-14.78h-5.54Z"/>
    <path class="cls-5" d="M176.28,266.7v-16.51c.74,0,1.48-.12,2.34-.12v-.86c.25,.25,.62,.37,.86,.62h1.48c.12,.12,.25,.25,.49,.25h1.72l.25,.25v16.38h-1.11c-2.09,.12-4.07,0-6.04,0Zm.86-15.65v14.78h5.42c.25-2.46,.12-13.67-.12-14.78h-5.3Z"/>
    <path class="cls-3" d="M172.47,266.7c.86,.12,1.85-.25,2.71,.25h-12.44c.25-.12,.62-.25,.86-.25h8.87Z"/>
    <path class="cls-3" d="M198.7,266.7v.25c-.49,0-.99,.12-1.48,.12-3.45,0-7.02,0-10.47-.12,.25-.12,.37-.12,.62-.25h11.33Z"/>
    <path class="cls-3" d="M199.57,266.95c.25-.12,.49-.12,.86-.25h6.04v.25h-6.9Z"/>
    <path class="cls-3" d="M176.28,266.7c1.97,0,3.94,.12,6.04,.12-.12,.12-.25,.25-.37,.25-1.85,0-3.82,0-5.67-.12v-.25Z"/>
    <path class="cls-3" d="M208.19,266.95c.62-.49,1.36-.12,2.09-.25h2.22c.12,0,.37,.12,.49,.25h-4.8Z"/>
    <path class="cls-3" d="M213.49,266.95c.74-.37,.99-.37,1.72,0h-1.72Z"/>
    <path class="cls-3" d="M184.54,266.95c.37-.37,.74-.37,1.23,0h-1.23Z"/>
    <path class="cls-3" d="M216.44,266.95c0-.12,.12-.12,.12-.25,0,.12,.12,.12,.12,.25h-.25Z"/>
    <path class="cls-5" d="M17.86,275.57c.37,1.23,.37,2.34,0,3.57v-3.57Z"/>
    <path class="cls-5" d="M17.86,273.23c.37,.37,.37,.74,0,1.23v-1.23Z"/>
    <path class="cls-6" d="M67.75,276.44v.49h-11.7v-1.48c.37-.37,.37-.74,0-1.11,.12-.25,.25-.37,.25-.62h10.96c.12,0,.25,0,.37-.12h.12c0,.25,.12,.49,.12,.62-.62,.86-.49,1.6-.12,2.22Z"/>
    <path class="cls-5" d="M66.28,273.73h-10.1v-.25h9.12c.37,0,.74,.25,.99,.25Z"/>
    <path class="cls-2" d="M55.93,277.05h11.46c0,.25,.12,.62,.12,.86,0,.12-.12,.25-.12,.25h-11.58c-.12-.12-.25-.37-.37-.49,.25-.12,.37-.37,.49-.62Z"/>
    <path class="cls-3" d="M56.79,278.28h10.72v.25h-9.86c-.25,0-.74,.25-.86-.25Z"/>
    <path class="cls-10" d="M67.51,279.15c.49,.86,.25,1.6,.12,2.46q-.12,0-.25-.12c.12-.74,.12-1.6,.12-2.34Z"/>
    <path class="cls-2" d="M56.79,269.42h9.49v.86h-10.35v-.37c.37-.25,.62-.37,.86-.49Z"/>
    <path class="cls-5" d="M66.28,272.62c-.25,.12-.37,.25-.62,.25h-8.87c.12-.12,.25-.25,.49-.25h8.99Z"/>
    <path class="cls-10" d="M66.64,270.77c.25,.12,.62,.12,.86,.25-.37,0-.74,.37-.86-.25Z"/>
    <path class="cls-5" d="M67.51,272.74c-.25,.37-.37,.25-.62,0h.62Z"/>
    <path class="cls-10" d="M67.63,272.74h-.12c.12-.25,.12-.37,.25-.62-.12,.12-.12,.37-.12,.62Z"/>
    <path class="cls-2" d="M33.26,274.84h.49v.12h-.49v-.12Z"/>
    <path class="cls-3" d="M14.91,267.44c.25,0,.49-.12,.74-.12h20.57c.25,0,.62,0,.86,.12,.12,.25,.12,.49,.25,.86-.12,.12-.37,.25-.62,.37v.62c-.74,.12-1.48,.25-2.22,.25H17.12c-.62-.49-1.11-.99-1.6-1.6,.37-.12,.74-.25,1.23-.37-.86,0-1.36,0-1.85-.12Z"/>
    <path class="cls-2" d="M33.75,266.95c.12-.25,.25-.49,.49-.86v-15.77h2.46c-.25-.37-.49-.62-.62-.99,.37-.62,.86-1.36,1.23-1.97h.86c.25,.25,.49,.49,.86,.86v2.09c.74,0,1.48,.12,2.34,.12v15.77c.25,.37,.49,.62,.62,.86h-.74c-.12-.12-.25-.25-.37-.25h-5.91c-.12,0-.25,.12-.37,.25-.25-.12-.49-.12-.86-.12Zm6.78-16.01h-5.54v7.51c0,2.46,.12,4.8-.12,7.27,.99,.37,4.31,.37,5.67,0v-14.78Z"/>
    <path class="cls-2" d="M18.97,266.7v.25h-.74c-.25-.12-.49-.12-.86-.25h-5.79v-16.01c.74-.99,1.85-.12,2.59-.62-.25-.49-.37-.99-.62-1.36,.49-.49,.74-.86,1.23-1.23,.49,.25,.86,.37,1.36,.49,.12,.49,.37,.99,.49,1.36-.12,.25-.37,.49-.62,.86h2.34v13.8c0,.86,.25,1.85,.62,2.71Zm-6.78-15.65v14.78h5.54v-14.78h-5.54Z"/>
    <path class="cls-3" d="M11.58,266.7h5.79c.25,0,.49,.12,.86,.25h-6.53q-.12-.12-.12-.25Z"/>
    <path class="cls-3" d="M34.62,266.95c.12-.12,.25-.25,.37-.25h5.91c.12,0,.25,.12,.37,.25h-6.65Z"/>
    <path class="cls-3" d="M8.38,266.95c.25-.37,.62-.37,.86,0h-.86Z"/>
    <path class="cls-3" d="M42.62,266.95c0-.12,.12-.12,.12-.25,0,.12,.12,.12,.12,.25h-.25Z"/>
    <path class="cls-5" d="M181.58,229.13c.37,.62,.86,.12,1.6,.49,.25,.25,.49,.74,.86,1.23-.25,.12-.37,.25-.62,.49v5.42q.62,.74,.12,1.48c-.12,.25-.25,.62-.12,.99,.12,.99,.25,.99-.25,1.97h-6.9v-10.96c.37-.74,.99-.99,1.72-.74,0-.37,0-.49,.12-.62,.25,.25,.49,.37,.86,.62,.74,0,1.72,.25,2.59-.37Zm-4.43,11.33h2.71c.86,0,1.85,.12,2.71,0v-9.98h-5.54c.12,3.33,.12,6.53,.12,9.98Z"/>
    <path class="cls-3" d="M210.28,246.63h-16.14v-1.72h17v1.6c-.37,.12-.62,.12-.86,.12Zm-.37-.62v-.37l-.25-.25h-14.29s-.12,.12-.12,.25c.12,.12,.25,.25,.25,.25,4.8,.12,9.61,.12,14.41,.12Z"/>
    <path class="cls-2" d="M199.32,240.96c-.37-.99-.12-1.97-.12-2.96,.12-1.97,0-3.94,0-5.91,0-.62-.12-1.36-.25-1.85,.62-.74,1.36-.74,2.09-.74,.99,.62,1.97,.25,2.96,0,.62,0,1.36,.12,1.97,.12,.49,1.36,.37,2.96,.37,4.43v5.05c0,.74-.12,1.6-.62,2.22-.12-.12-.25-.25-.25-.25h-4.68c-.12,0-.25,.12-.25,.25h-.25c-.37-.12-.62-.25-.99-.37Zm2.34-.25h3.45c.12,0,.25-.25,.37-.25v-.25c.12-.12,.25-.25,.25-.49v-8.62c0-.12-.12-.25-.25-.49-.25-.12-.37-.25-.62-.25h-5.05c-.12,0-.12,.12-.25,.12,.12,0,.12,.12,.25,.12v.62c-.12,.12-.25,.25-.25,.49v7.39c0,.12,.12,.25,.25,.49v.86c.37,.62,.86,.25,1.23,.25h.62Z"/>
    <path class="cls-3" d="M175.05,246.38h-3.33c-.12-.49-.25-.86-.37-1.36h16.63v1.36h-12.93Zm12.44-.62v-.25h-14.66c-.25,0-.37,.12-.62,.25,0,.12,0,.25,.12,.25h15.03c-.12,0,0-.12,.12-.25Z"/>
    <path class="cls-10" d="M204,229.5c-.99,.25-1.97,.62-2.96,0-.12-.49-.25-.99-.37-1.36,.37-.99,1.23-.99,2.09-1.23,.49,.25,1.11,.62,1.6,.74,.62,.86,0,1.23-.37,1.85Z"/>
    <path class="cls-10" d="M181.58,229.13c-.86,.49-1.85,.25-2.71,.25-.25-.25-.62-.37-.86-.62v-.86c.25-.99,1.23-.86,1.85-1.23,.49,.12,.99,.37,1.48,.49,.12,.37,.37,.62,.49,.99-.12,.37-.12,.74-.25,.99Z"/>
    <path class="cls-5" d="M200.55,241.2c.12-.12,.25-.25,.25-.25h4.68c.12,0,.25,.12,.25,.25h-5.17Z"/>
    <path class="cls-5" d="M199.32,240.96c.25,.12,.62,.12,.86,.25-.25,0-.74,.37-.86-.25Z"/>
    <path class="cls-1" d="M112.35,138.46c-.49-.12-.99-.12-1.48-.37-1.23-.49-2.46-.12-3.82,0v-.62c-.25-.12-.37-.37-.62-.49v-4.31c-.25-.12-.37-.25-.62-.37v-.74h6.53v2.96c-.37,.37-.74,.74-1.11,1.11v1.48c.37,0,.62,.12,1.11,.25v1.11Z"/>
    <path class="cls-2" d="M108.78,122.08c1.85,0,2.96,1.23,3.08,3.08,.12,1.72-1.6,3.2-3.08,3.08-1.85-.12-3.08-1.23-3.08-3.08,.12-1.85,1.36-3.08,3.08-3.08Z"/>
    <path class="cls-5" d="M72.81,264.98c0-.62-.62-.74-.86-1.23-.12-.49-.37-.86-.62-1.36-.12-2.46,.25-5.05,.99-7.64-.49-.62-.99-1.23-1.48-1.72-.37-1.48-.74-2.83,.12-4.31v2.34c.99,1.11,1.85,2.09,3.45,1.72,.49-.74-.37-1.85,.74-2.59,.37,.12,.86,.37,1.23,.49,.49,.86,0,1.48-.12,2.22,.12,.12,.37,.37,.62,.62,.37-.37,.86-.86,1.23-1.23-.37-1.23-.99-2.46-.49-3.82,.12,0,.37,0,.49-.12,.49,.62,.86,1.23,.25,1.97,.25,.86,.37,1.72,.62,2.71-.49,.37-.86,.74-1.11,.86-.74,1.72-.37,3.33-.49,4.93,.25,.12,.37,.25,.74,.49-.12,1.11-.25,2.34-.37,3.57-.12,.62-.25,1.23-.37,1.97-.25,.49-.62,.99-.99,1.72v1.97h-2.34c.25-.25,.37-.37,.62-.62v-1.11c-.49-.37-1.11-.74-1.72-1.11-.12-.25-.12-.49-.12-.74Z"/>
    <path class="cls-1" d="M72.8,264.98v.74c.62,.49,1.23,.86,1.72,1.11v1.11c-.25,.25-.37,.37-.62,.62-.37,0-.74,.12-1.23,.12h-.25c-.12,0-.25-.12-.25-.12-.12-.25-.37-.62-.62-.99v-2.59h1.23Z"/>
    <path class="cls-1" d="M92.02,277.05v.25h-11.21c.25-.12,.62-.25,.86-.25h10.35Z"/>
    <path class="cls-5" d="M92.02,281.49c.37,.37,.37,.74,0,1.11h-.37v-.86h-9.73c-.25,0-.62-.12-.86-.25h10.96Z"/>
    <path class="cls-5" d="M81.06,282.6c.12-.12,.25-.25,.49-.25h8.01c.12,0,.25,.12,.49,.25h-8.99Z"/>
    <path class="cls-5" d="M92.02,272.62v.25h-9.98c-.25,0-.62-.12-.86-.25h10.84Z"/>
    <path class="cls-5" d="M67.51,273.73c-.12,0-.25,0-.37,.12,0-.12,.12-.12,.12-.25q.12,0,.25,.12Z"/>
    <path class="cls-10" d="M67.75,276.44c-.37-.74-.37-1.36,0-2.09v2.09Z"/>
    <path class="cls-10" d="M67.63,278.04c0-.25-.12-.62-.12-.86h.25c-.12,.12-.12,.49-.12,.86Z"/>
    <path class="cls-2" d="M122.82,282.35c-.12,.62-.25,1.11-.49,1.72h-.86v-2.34c.12-.25,.25-.37,.25-.62v-2.59c-.12-.25-.25-.37-.25-.62-.12-.25-.25-.37-.25-.62v-.37h.49v-2.59h-.74c.12-.25,.37-.49,.49-.86-.25-.25-.49-.49-.74-.86,.37,0,.74-.12,1.11-.12,0-.37,.12-.74,.12-1.11h.74v1.48c.37-.25,.62-.37,.86-.49,.12,.12,.25,.25,.25,.25-.12,.49-.99,.49-.74,1.11-.25,.12-.37,.37-.62,.62v2.34c0,.12,.25,.25,.25,.37h.25v.37c.12,.25,.12,.62,.37,.74,.37,.37,.74,.74,1.11,.99v1.36c-.25,.25-.62,.49-.86,.74,.12-.49,.25-1.11,.37-1.6-.49-.37-.86-.74-1.48-1.23v3.2h.74c-.25,.25-.37,.37-.62,.62,.25,0,.25,.12,.25,.12Z"/>
    <path class="cls-5" d="M136.62,281.49c-.25,.12-.62,.25-.86,.25h-9.61c0,.25,0,.62-.12,.86h-.37v-1.11h10.96Z"/>
    <path class="cls-5" d="M123.07,277.42v-.37c.25-.25,.37-.49,.62-.74v-1.36c-.25-.12-.49-.37-.86-.62v2.83c-.12-.12-.25-.25-.25-.37v-2.34l.62-.62c.86,.25,.99,1.11,1.48,1.72-.12,.37-.25,.74-.37,1.23-.49,.12-.86,.37-1.23,.62Z"/>
    <path class="cls-5" d="M125.65,273.48h10.1c.25,0,.62,.12,.86,.25h-10.96v-.25Z"/>
    <path class="cls-5" d="M136.62,272.62c-.25,.12-.62,.25-.86,.25h-10.1v-.25h10.96Z"/>
    <path class="cls-5" d="M121.59,277.92c.12,.25,.25,.37,.25,.62-.99,0-1.11,.86-1.6,1.6,.62,.37,.74,1.11,1.6,.99-.12,.25-.25,.37-.25,.62-.62-.37-1.11-.74-1.85-1.23,.12-.62,.12-1.11,.49-1.48,.25-.49,.62-1.11,1.36-1.11Z"/>
    <path class="cls-5" d="M121.34,277.05v.37c-.37-.37-.74-.62-1.11-.99v-1.6c.25-.12,.49-.25,.86-.37-.37,.86-.49,1.6,.25,2.34,0,0-.12,.12,0,.25Z"/>
    <path class="cls-6" d="M125.65,277.42v.86c-.49-.37-.37-.62,0-.86Z"/>
    <path class="cls-6" d="M122.82,282.35v-.37c.37,0,.74,0,.49,.49-.25,0-.37,0-.49-.12Z"/>
    <path class="cls-2" d="M123.68,281.24c-.12,.12-.25,.25-.25,.25,0-.12,.12-.25,.25-.25Z"/>
    <path class="cls-5" d="M127.75,282.6c.12-.12,.25-.25,.49-.25h8.01c.12,0,.25,.12,.49,.25h-8.99Z"/>
    <path class="cls-2" d="M97.2,268.8h-3.57c0-.25-.12-.62,0-.86,.37-1.6,.74-3.2,1.36-4.68,.49-1.6,1.48-2.96,2.46-4.31,.86-1.23,1.97-2.09,3.08-3.08,.74-.62,1.72-1.11,2.59-1.6,1.48-.99,3.2-1.23,4.93-1.23h1.97c1.85,0,3.57,.37,5.17,1.23,1.48,.86,2.96,1.72,4.19,2.96,1.6,1.6,2.83,3.45,3.7,5.42,.74,1.6,.98,3.33,1.48,5.05,.12,.37,0,.62,0,1.11h-3.7c-.12-.25-.37-.62-.37-.99-.74-3.2-2.34-5.67-4.93-7.76-1.48-1.11-3.08-1.72-4.8-2.09-1.11-.25-2.34-.12-3.57,.12-2.34,.49-4.31,1.85-5.91,3.45-1.11,1.11-2.09,2.59-2.59,4.19-.25,.74-.74,1.48-.62,2.34-.49,.25-.74,.49-.86,.74Z"/>
    <path class="cls-6" d="M113.34,245.64c1.6,.49,3.08,.99,4.56,1.72,3.2,1.72,5.79,3.94,7.88,6.78,2.46,3.33,4.07,7.02,4.68,11.09,.25,1.23,.37,2.46,.49,3.7h-5.3c-.25-1.36-.49-2.83-.86-4.19-.37-1.23-.62-2.59-1.48-3.7,0-.12-.12-.12-.12-.25-.99-3.08-3.45-5.17-5.91-7.02-1.36-.99-2.96-1.85-4.8-2.09,0-.62,0-1.23,.12-1.85,.25-1.11,.49-2.09,.49-3.2-.12-.25,.12-.62,.25-.99Z"/>
    <path class="cls-6" d="M86.85,269.05c.12-6.04,2.22-11.33,5.91-15.89,2.59-3.2,5.91-5.67,9.98-6.9,.49-.12,1.11-.37,1.6-.49,.12,.37,.25,.86,.37,1.23s0,.86,.12,1.36c.25,1.23,.49,2.46,.49,3.7-.12,.12-.37,.25-.49,.25-1.11-.12-1.97,.62-2.83,.99-.86,.37-1.72,.74-2.34,1.6-.49,.62-1.23,.99-1.72,1.48-2.83,2.71-4.43,6.04-5.3,9.86-.25,.99-.25,1.97-.25,2.96-1.85-.12-3.7-.12-5.54-.12Z"/>
    <path class="cls-2" d="M105.33,245.15c.37,.12,.74,.37,1.23,.49,.12,1.48,.25,2.96,.37,4.43,0,.62,.25,1.23,.25,1.85h-1.72c0-1.23-.25-2.46-.49-3.7-.12-.37,0-.86-.12-1.36-.12-.37-.25-.86-.37-1.23,0-.12,.12-.37,.12-.62,.25,.12,.49,.12,.74,.12Z"/>
    <path class="cls-2" d="M110.87,251.92v-3.2c.12-.99,.25-2.09,.37-2.96,.37-.25,.74-.37,1.11-.62h.74c.12,.25,.12,.37,.25,.62-.12,.37-.37,.74-.37,1.11,0,1.11-.25,2.22-.49,3.2-.12,.62-.12,1.23-.12,1.85h-1.48Z"/>
    <path class="cls-2" d="M96.46,273.85c.37,.37,.86,.74,1.23,.99v1.72c-.37,.25-.99,.74-1.6,1.11,.99,.86,1.97,1.48,1.85,2.83-.49,.49-1.11,1.11-1.72,1.6,.25,.25,.62,.49,1.11,.99-.62-.12-.99-.12-1.36-.25-.12,.37-.12,.74-.25,1.11h-.62c0-.37-.12-.74-.12-1.11,.12-.49,.12-.99,.25-1.48v-1.48c-.12-.49,.25-1.11-.25-1.48-.12-.25-.12-.37-.25-.62v-.99h.62v-2.71c-.25-.12-.37-.37-.62-.49,.12-.62-.86-.74-.74-1.48,.25,.12,.62,.37,.86,.49,.25-.49,.37-.86,.62-1.48,.62,.37,.37,.86,.37,1.23v1.11c.25,.25,.37,.37,.62,.37Zm-.49,7.39c.74-.37,1.23-.74,1.48-1.6-.37-.49-.74-.99-1.48-1.23v2.83Zm0-7.14v2.96c.37-.25,.74-.49,1.11-.62v-1.23c-.37-.37-.62-.62-1.11-1.11Z"/>
    <path class="cls-5" d="M94.61,273.85c.25,.12,.37,.37,.62,.49v.74c-.12-.12-.25-.37-.49-.49-.25,.12-.49,.25-.74,.37v1.36c.25,.25,.37,.49,.62,.74v.37q-1.23-.74-1.11-2.46c.49-.25,.37-1.23,1.11-1.11Z"/>
    <path class="cls-5" d="M94.73,277.92c.12,.25,.12,.37,.25,.62-.37,.37-.74,.62-1.11,.99v1.11c-.12,0-.25,0-.49-.12,0-.37,0-.86-.12-1.36,.37-.37,.99-.74,1.48-1.23Z"/>
    <path class="cls-5" d="M95.23,281.49c-.12,.49-.12,.99-.25,1.48-.37,.12-.74,.12-1.11,.25-.25-.74,.62-.74,.74-1.11-.25-.25-.37-.62-.62-.86,.49,0,.86,.12,1.23,.25Z"/>
    <path class="cls-5" d="M96.46,273.85c-.12,0-.25,0-.49-.12v-1.11h1.23c-.12,.25-.12,.37-.25,.62-.25,.12-.37,.37-.49,.62Z"/>
    <path class="cls-6" d="M95.84,270.28h2.34c-.86,.37-1.36,.37-2.34,0Z"/>
    <path class="cls-6" d="M92.89,270.52c.25-.12,.49-.25,.74-.25h1.72c-.25,.12-.49,.25-.74,.25h-1.72Z"/>
    <path class="cls-5" d="M94.12,281.24c-.12-.25-.25-.37-.25-.62,0,.12,.12,.37,.25,.62Z"/>
    <path class="cls-5" d="M97.07,272.62c0-.12,.12-.12,.12-.25q-.12,.12-.12,.25Z"/>
    <path class="cls-1" d="M143.76,268.18h-2.34v-2.34l-.62-.62c.25-.12,.37-.37,.62-.49v-1.48h.49c0,.49,0,.99,.12,1.36,.49,.62,1.11,1.23,1.72,2.09v1.48Z"/>
    <path class="cls-4" d="M69.23,231.47c1.72,.99,2.22,2.22,1.48,3.57-.74,1.23-2.09,1.97-3.57,1.23-.62-.37-1.11-.99-1.36-1.6-.37-.99,.37-1.72,.74-2.46,.74-.86,1.72-.62,2.71-.74Zm-2.71,2.96c.37,.62,.74,.99,.99,1.23h1.97c.25-.25,.49-.49,.62-.62v-1.85c-.37-.37-.74-.74-.86-.99h-1.97c-.74,.62-.74,1.48-.74,2.22Z"/>
    <path class="cls-4" d="M74.9,231.6c1.48,.74,1.97,1.6,1.72,2.83-.12,.99-1.23,1.97-2.46,2.22-1.11,.12-1.85-.37-2.59-1.85v-1.85c.37-.37,.86-.86,1.36-1.23,.62-.12,1.23-.12,1.97-.12Zm-1.6,.49c-.37,.37-.74,.74-1.23,1.11,.12,.74,.25,1.48,.37,2.09,.74,.37,1.23,.62,1.6,.74,2.34-1.11,2.46-2.34,.86-3.82-.49-.12-.99-.12-1.6-.12Z"/>
    <path class="cls-4" d="M78.1,235.41c-.25-.12-.62-.25-.86-.37v-1.97c.37-.49,.74-.99,1.23-1.6h2.59c.37,.37,.74,.86,1.23,1.36v1.97c-1.48,1.97-1.85,2.09-4.07,1.23-.12-.12-.12-.37-.12-.62,.49,.25,1.11,.37,1.85,.62,.49-.37,1.23-.86,1.72-1.23v-1.6c-.37-.37-.74-.74-.99-.99h-1.72c-1.36,.74-1.36,1.97-.86,3.2Z"/>
    <path class="cls-4" d="M139.21,236.15c-.86,.12-1.6,.62-2.46,.12-.62-.37-1.11-.86-1.36-1.6-.49-1.11,.25-2.46,1.72-3.2,.86,0,1.85-.25,2.59,.49,.25,.37,.49,.74,.74,1.23,.25,1.23-.25,2.22-1.23,2.96Zm.37-1.11v-2.22c-.37-.25-.74-.49-.99-.74h-1.48c-.37,.37-.74,.62-.99,.86-.12,.99-.12,1.85,.62,2.46,.49,.12,.86,.25,1.23,.37,.49-.12,1.11-.49,1.6-.74Z"/>
    <path class="cls-4" d="M148.44,231.47c.62,.12,1.6,.12,2.46,.25,.37,.49,.62,.86,.86,1.23v1.85c-.62,.99-1.36,1.72-2.59,1.72-1.11,0-2.09-.49-2.46-1.85-.12-1.23-.12-2.46,1.72-3.2Zm-.12,4.19h1.6c1.36-.49,1.36-1.48,1.11-2.59-.37-.37-.74-.74-.99-.99h-1.6c-.49,.37-.86,.74-1.11,.86v1.6c.37,.49,.62,.74,.99,1.11Z"/>
    <path class="cls-4" d="M144.5,236.52c-2.46,.12-2.71-.12-3.7-2.46,.12-.37,.25-.86,.37-1.11,.49-.49,.86-.99,1.23-1.36,1.48-.12,2.96-.25,3.57,1.48,.62,1.6-.37,2.59-1.48,3.45Zm.99-2.46c-.12-1.48-.99-1.97-2.09-2.22-.25,.12-.62,.37-.86,.49-.37,.25-.62,.49-.74,.62v1.72q.86,.99,1.97,1.36c.99-.37,1.48-1.11,1.72-1.97Z"/>
    <path class="cls-2" d="M90.55,217.68v4.43c-.12-.12-.25-.12-.25-.25v-3.94c0-.12,.12-.25,.25-.25Z"/>
    <path class="cls-2" d="M82.29,222.36h-.25v-4.07c0-.25,.25-.49,.25-.74v4.8Z"/>
    <path class="cls-9" d="M17.74,230.36v9.98h-5.54v-9.98h5.54Z"/>
    <path class="cls-9" d="M40.53,240.34h-5.3c-.25-1.11-.25-8.75,0-10.1h5.3v10.1Z"/>
    <path class="cls-4" d="M22.54,245.76c-.12,.12-.25,.25-.37,.25H7.76c0-.74,.49-.62,.74-.62h13.92c0,.12,.12,.25,.12,.37Z"/>
    <path class="cls-4" d="M30.3,245.76c0-.12,.12-.25,.12-.25h14.91c.12,0,.25,.12,.25,.25v.25l-.12,.12c-4.93,0-9.86,0-14.78,.12-.12,0-.25-.12-.37-.12v-.37Z"/>
    <path class="cls-2" d="M180.97,249.83h-1.48c-.25-.12-.62-.37-.86-.62v-1.36c.74-.37,1.48-.86,2.34,0v1.97Z"/>
    <path class="cls-9" d="M199.94,251.06h5.54v14.78h-5.54v-14.78Z"/>
    <path class="cls-9" d="M177.15,251.06h5.3c.25,.99,.37,12.32,.12,14.78h-5.42v-14.78Z"/>
    <path class="cls-9" d="M40.53,250.94v14.78c-1.36,.37-4.68,.37-5.67,0,.25-2.46,.12-4.8,.12-7.27v-7.51c1.85,0,3.57,.12,5.54,0Z"/>
    <path class="cls-9" d="M12.2,251.06h5.54v14.78h-5.54v-14.78Z"/>
    <path class="cls-9" d="M177.15,240.47v-10.1h5.54v9.98c-.86,.12-1.85,0-2.71,0-.86,.12-1.72,.12-2.83,.12Z"/>
    <path class="cls-4" d="M209.91,246.01h-14.41c-.12,0-.25-.12-.25-.25,.12-.12,.12-.25,.12-.25h14.29c.12,0,.25,.12,.25,.25v.25Z"/>
    <path class="cls-9" d="M199.94,230.36h5.05c.25,0,.37,.25,.62,.25v9.73h-2.83c-.37,0-.74,.12-1.11,.25h-.49c-.37-.12-.86-.12-1.23-.25v-9.98Z"/>
    <path class="cls-4" d="M205.6,240.1v-9.49c.12,.12,.25,.25,.25,.49v8.62c0,.12-.25,.25-.25,.37Z"/>
    <path class="cls-4" d="M199.81,231.23v8.25c-.12-.12-.25-.25-.25-.49v-7.39s.25-.25,.25-.37Z"/>
    <path class="cls-4" d="M201.66,240.71c.37-.12,.74-.25,1.11-.25h2.83c-.12,.12-.25,.25-.37,.25h-3.57Z"/>
    <path class="cls-4" d="M199.94,240.34c.37,.12,.86,.12,1.23,.25-.49,0-.99,.37-1.23-.25Z"/>
    <path class="cls-4" d="M199.94,230.36c0,.12,0,.25-.12,.25s-.12-.12-.25-.12c.25,0,.25-.12,.37-.12Z"/>
    <path class="cls-4" d="M187.49,245.76c-.12,.12-.25,.25-.25,.25h-15.03c0-.12,0-.25-.12-.25,.25-.12,.37-.25,.62-.25h14.66q.12,.12,.12,.25Z"/>
    <path class="cls-3" d="M123.68,281.24c-.12,.12-.25,.25-.25,.25h-.74v-3.2c.62,.49,.99,.86,1.48,1.23-.25,.62-.37,1.11-.49,1.72Z"/>
    <path class="cls-3" d="M121.83,281.24c-.86,.12-.99-.74-1.6-.99,.49-.62,.49-1.6,1.6-1.6v2.59Z"/>
    <path class="cls-3" d="M121.34,277.05v-.25c-.74-.74-.62-1.48-.25-2.34h.74v2.59h-.49Z"/>
    <path class="cls-3" d="M122.82,277.05v-2.83c.37,.25,.62,.49,.86,.62v1.36c-.12,.25-.37,.49-.62,.74-.12,.12-.25,.12-.25,.12Z"/>
    <path class="cls-3" d="M94.12,281.24c-.12-.25-.25-.37-.25-.62v-1.11c.37-.37,.74-.62,1.11-.99,.49,.37,.12,.99,.25,1.48-.49,.25-.49,.62,0,.99v.49c-.37-.12-.74-.25-1.11-.25Z"/>
    <path class="cls-3" d="M95.97,281.24v-2.83c.74,.25,1.11,.74,1.48,1.23-.37,.86-.74,1.36-1.48,1.6Z"/>
    <path class="cls-3" d="M94.61,277.05c-.25-.25-.37-.49-.62-.74v-1.36c.25-.12,.49-.25,.74-.37,.12,.25,.25,.37,.49,.49v1.97h-.62Z"/>
    <path class="cls-3" d="M95.97,274.1c.49,.49,.86,.74,1.11,.99v1.23c-.37,.25-.62,.37-1.11,.62v-2.83Z"/>
    <path class="cls-5" d="M95.23,280.99c-.49-.37-.49-.62,0-.99v.99Z"/>
    <path class="cls-2" d="M66.52,234.43c0-.74,0-1.6,.74-2.22h1.97c.25,.25,.62,.62,.86,.99v1.85c-.12,.12-.49,.49-.62,.62h-1.97c-.25-.25-.49-.74-.99-1.23Z"/>
    <path class="cls-2" d="M73.3,232.09h1.6c1.72,1.6,1.48,2.71-.86,3.82-.49-.25-.99-.49-1.6-.74-.12-.62-.25-1.23-.37-2.09,.37-.25,.74-.62,1.23-.99Z"/>
    <path class="cls-2" d="M78.1,235.41c-.49-1.23-.49-2.34,.74-3.2h1.72c.25,.25,.62,.62,.99,.99v1.6c-.49,.37-1.11,.86-1.72,1.23-.62-.25-1.23-.49-1.72-.62Z"/>
    <path class="cls-2" d="M139.57,235.05c-.49,.25-.99,.62-1.6,.86-.37-.12-.86-.25-1.23-.37-.62-.62-.74-1.48-.62-2.46,.25-.25,.62-.49,.99-.86h1.48c.25,.25,.62,.49,.99,.74v2.09Z"/>
    <path class="cls-2" d="M148.32,235.66l-.99-.99v-1.6c.25-.25,.62-.49,1.11-.86h1.6c.25,.25,.62,.62,.99,.99,.12,1.11,.25,2.22-1.11,2.59-.49-.12-.99-.12-1.6-.12Z"/>
    <path class="cls-2" d="M145.49,234.06c-.25,.86-.62,1.6-1.85,1.85q-.99-.37-1.97-1.36v-1.72c.12-.12,.49-.37,.74-.62,.25-.25,.62-.37,.86-.49,1.23,.37,2.09,.86,2.22,2.34Z"/>
  </g>
  <text class="cls-11" transform="translate(9.47 320.48)"><tspan x="0" y="0">Адмиралтейсво</tspan></text>
</svg>