<?xml version="1.0" encoding="UTF-8"?>
<svg id="_Слой_1" data-name="Слой 1" xmlns="http://www.w3.org/2000/svg" viewBox="0 0 308.86 169.04">
  <defs>
    <style>
      .cls-1 {
        fill: #ecbe4a;
      }

      .cls-2 {
        fill: #e7d284;
      }

      .cls-3 {
        fill: #e8be6d;
      }

      .cls-4 {
        fill: #fff;
      }

      .cls-5 {
        fill: #fcfafb;
      }

      .cls-6, .cls-7 {
        fill: #d9d9d8;
      }

      .cls-8 {
        fill: #190f0f;
      }

      .cls-9 {
        fill: #1e5a85;
      }

      .cls-10 {
        fill: #221f20;
      }

      .cls-11 {
        fill: #10121b;
      }

      .cls-12 {
        fill: #1d1313;
      }

      .cls-13 {
        fill: #3d3030;
      }

      .cls-14 {
        fill: #7ab8bb;
      }

      .cls-15 {
        fill: #7ab7bb;
      }

      .cls-7, .cls-16 {
        fill-rule: evenodd;
      }

      .cls-16 {
        fill: #edd280;
      }
    </style>
  </defs>
  <g>
    <g>
      <g>
        <path class="cls-14" d="M308.86,8.44H.11V103.38H308.86V8.44Z"/>
        <path class="cls-5" d="M128.11,91.78c0-5.63-4.57-10.2-10.2-10.2s-10.2,4.57-10.2,10.2v10.55c0,5.63,4.57,10.2,10.2,10.2s10.2-4.57,10.2-10.2v-10.55Z"/>
        <path class="cls-5" d="M201.25,91.78c0-5.63-4.57-10.2-10.2-10.2s-10.2,4.57-10.2,10.2v10.55c0,5.63,4.57,10.2,10.2,10.2s10.2-4.57,10.2-10.2v-10.55Z"/>
        <path class="cls-13" d="M126.71,92.48c0-4.85-3.94-8.79-8.79-8.79s-8.79,3.94-8.79,8.79v11.25c0,4.85,3.94,8.79,8.79,8.79s8.79-3.94,8.79-8.79v-11.25Z"/>
        <path class="cls-13" d="M199.85,91.78c0-4.85-3.94-8.79-8.79-8.79s-8.79,3.94-8.79,8.79v11.25c0,4.85,3.94,8.79,8.79,8.79s8.79-3.94,8.79-8.79v-11.25Z"/>
        <path class="cls-4" d="M156.24,82.28h-4.92c-5.45,0-9.85,4.4-9.85,9.85v11.25c0,5.45,4.4,9.85,9.85,9.85h4.92c5.45,0,9.85-4.4,9.85-9.85v-11.25c0-5.45-4.4-9.85-9.85-9.85Z"/>
        <path class="cls-13" d="M155.54,83.69h-3.52c-5.06,0-9.14,4.08-9.14,9.14v10.55c0,5.06,4.08,9.14,9.14,9.14h3.52c5.06,0,9.14-4.08,9.14-9.14v-10.55c0-5.06-4.08-9.14-9.14-9.14Z"/>
        <path class="cls-6" d="M308.86,75.25H.11v1.41H308.86v-1.41Z"/>
        <path class="cls-6" d="M102.09,79.47H.11v2.11H102.09v-2.11Z"/>
        <path class="cls-6" d="M308.86,78.77h-104.09v2.11h104.09v-2.11Z"/>
        <path class="cls-6" d="M308.86,14.07H.11v4.92H308.86v-4.92Z"/>
        <path class="cls-6" d="M7.85,72.44H2.22v7.74H7.85v-7.74Z"/>
        <path class="cls-1" d="M7.15,81.58H2.93v2.11H7.15v-2.11Z"/>
        <path class="cls-1" d="M28.95,81.58h-4.22v2.11h4.22v-2.11Z"/>
        <path class="cls-1" d="M50.75,81.58h-4.22v2.11h4.22v-2.11Z"/>
        <path class="cls-1" d="M263.14,80.88h-4.22v2.11h4.22v-2.11Z"/>
        <path class="cls-1" d="M284.95,80.88h-4.22v2.11h4.22v-2.11Z"/>
        <path class="cls-12" d="M154.13,7.03c1.16,0,2.11-.77,2.11-1.76s-.95-1.76-2.11-1.76-2.11,.77-2.11,1.76,.95,1.76,2.11,1.76Z"/>
        <path class="cls-6" d="M29.65,72.44h-5.63v7.74h5.63v-7.74Z"/>
        <path class="cls-6" d="M51.45,72.44h-5.63v7.74h5.63v-7.74Z"/>
        <path class="cls-6" d="M307.45,72.44h-5.63v7.74h5.63v-7.74Z"/>
        <path class="cls-6" d="M263.85,72.44h-5.63v7.74h5.63v-7.74Z"/>
        <path class="cls-6" d="M285.65,72.44h-5.63v7.74h5.63v-7.74Z"/>
        <path class="cls-1" d="M7.85,68.92H2.22v3.52H7.85v-3.52Z"/>
        <path class="cls-1" d="M29.65,68.92h-5.63v3.52h5.63v-3.52Z"/>
        <path class="cls-1" d="M51.45,68.92h-5.63v3.52h5.63v-3.52Z"/>
        <path class="cls-1" d="M263.85,68.92h-5.63v3.52h5.63v-3.52Z"/>
        <path class="cls-1" d="M285.65,68.92h-5.63v3.52h5.63v-3.52Z"/>
        <path class="cls-1" d="M307.45,68.92h-5.63v3.52h5.63v-3.52Z"/>
        <path class="cls-7" d="M106.1,68.92h-4.47v4.43l-1.65,2.6h7.74l-1.62-2.6v-4.43Z"/>
        <path class="cls-2" d="M106.94,68.92h-6.19v2.81h6.19v-2.81Z"/>
        <path class="cls-7" d="M101.6,82.99h4.47v-4.43l1.62-2.6h-7.74l1.62,2.6v4.43h.04Z"/>
        <path class="cls-2" d="M100.75,82.99h6.19v-2.81h-6.19v2.81Z"/>
        <path class="cls-7" d="M129.73,82.28h3.45v-4.43l1.27-2.6h-5.98l1.27,2.6v4.43Z"/>
        <path class="cls-2" d="M129.06,82.28h4.78v-2.81h-4.78v2.81Z"/>
        <path class="cls-7" d="M113.13,68.92h-4.47v4.43l-1.65,2.6h7.74l-1.62-2.6v-4.43Z"/>
        <path class="cls-2" d="M113.98,68.92h-6.19v2.81h6.19v-2.81Z"/>
        <path class="cls-7" d="M136.06,82.28h3.45v-4.43l1.27-2.6h-5.98l1.27,2.6v4.43Z"/>
        <path class="cls-2" d="M135.39,82.28h4.78v-2.81h-4.78v2.81Z"/>
        <path class="cls-7" d="M168.41,82.28h3.45v-4.43l1.27-2.6h-5.98l1.27,2.6v4.43Z"/>
        <path class="cls-2" d="M167.74,82.28h4.78v-2.81h-4.78v2.81Z"/>
        <path class="cls-6" d="M134.09,8.09l21.1-6.33,20.4,6.33,4.57,5.98h-51.34l5.27-5.98Z"/>
        <path class="cls-7" d="M174.74,82.28h3.45v-4.43l1.27-2.6h-5.98l1.27,2.6v4.43Z"/>
        <path class="cls-2" d="M174.07,82.28h4.78v-2.81h-4.78v2.81Z"/>
        <path class="cls-7" d="M203.22,82.99h3.45v-4.43l1.27-2.6h-5.98l1.27,2.6v4.43h0Z"/>
        <path class="cls-2" d="M202.56,82.99h4.78v-2.81h-4.78v2.81Z"/>
        <path class="cls-7" d="M133.67,68.92h-4.04v4.43l-1.51,2.6h7.03l-1.48-2.6v-4.43Z"/>
        <path class="cls-2" d="M134.44,68.92h-5.63v2.81h5.63v-2.81Z"/>
        <path class="cls-7" d="M156.17,68.92h-4.04v4.43l-1.51,2.6h7.03l-1.48-2.6v-4.43Z"/>
        <path class="cls-2" d="M156.95,68.92h-5.63v2.81h5.63v-2.81Z"/>
        <path class="cls-7" d="M178.68,68.92h-4.04v4.43l-1.51,2.6h7.03l-1.48-2.6v-4.43Z"/>
        <path class="cls-2" d="M179.45,68.92h-5.63v2.81h5.63v-2.81Z"/>
        <path class="cls-7" d="M199.6,68.92h-4.47v4.43l-1.62,2.6h7.74l-1.65-2.6v-4.43Z"/>
        <path class="cls-2" d="M200.48,68.92h-6.19v2.81h6.19v-2.81Z"/>
        <path class="cls-7" d="M207.34,68.92h-4.47v4.43l-1.62,2.6h7.74l-1.65-2.6v-4.43Z"/>
        <path class="cls-2" d="M208.22,68.92h-6.19v2.81h6.19v-2.81Z"/>
        <path class="cls-7" d="M105.22,29.54h-2.81v25.07l-1.02,14.7h4.89l-1.02-14.7V29.54h-.04Z"/>
        <path class="cls-7" d="M133.04,29.54h-2.81v25.07l-1.02,14.7h4.89l-1.02-14.7V29.54h-.04Z"/>
        <path class="cls-7" d="M155.54,29.54h-2.81v25.07l-1.02,14.7h4.89l-1.02-14.7V29.54h-.04Z"/>
        <path class="cls-7" d="M198.76,29.54h-2.81v25.07l-1.02,14.7h4.89l-1.02-14.7V29.54h-.04Z"/>
        <path class="cls-7" d="M178.05,29.54h-2.81v25.07l-1.02,14.7h4.89l-1.02-14.7V29.54h-.04Z"/>
        <path class="cls-7" d="M206.49,29.54h-2.81v25.07l-1.02,14.7h4.89l-1.02-14.7V29.54h-.04Z"/>
        <path class="cls-7" d="M262.44,29.54h-2.81v25.07l-1.02,14.7h4.89l-1.02-14.7V29.54h-.04Z"/>
        <path class="cls-7" d="M284.24,29.54h-2.81v25.07l-1.02,14.7h4.89l-1.02-14.7V29.54h-.04Z"/>
        <path class="cls-15" d="M154.84,0l21.31,8.44h-42.62L154.84,0Z"/>
        <path class="cls-7" d="M306.05,29.54h-2.81v25.07l-1.02,14.7h4.89l-1.02-14.7V29.54h-.04Z"/>
        <path class="cls-7" d="M112.25,29.54h-2.81v25.07l-1.02,14.7h4.89l-1.02-14.7V29.54h-.04Z"/>
        <path class="cls-7" d="M50.05,29.54h-2.81v25.07l-1.02,14.7h4.89l-1.02-14.7V29.54h-.04Z"/>
        <path class="cls-7" d="M28.25,29.54h-2.81v25.07l-1.02,14.7h4.89l-1.05-14.7V29.54Z"/>
        <path class="cls-7" d="M6.44,29.54H3.63v25.07l-1.02,14.7H7.5l-1.05-14.7V29.54Z"/>
        <path class="cls-6" d="M7.85,18.29H2.22v3.52H7.85v-3.52Z"/>
        <path class="cls-16" d="M6.65,24.65v4.89H3.42v-4.89l-1.2-2.85H7.85l-1.2,2.85Z"/>
        <path class="cls-6" d="M29.65,18.29h-5.63v3.52h5.63v-3.52Z"/>
        <path class="cls-16" d="M28.46,24.65v4.89h-3.24v-4.89l-1.2-2.85h5.63l-1.2,2.85Z"/>
        <path class="cls-6" d="M51.45,18.29h-5.63v3.52h5.63v-3.52Z"/>
        <path class="cls-16" d="M50.26,24.65v4.89h-3.24v-4.89l-1.2-2.85h5.63l-1.2,2.85Z"/>
        <path class="cls-6" d="M107.01,18.29h-6.33v3.52h6.33v-3.52Z"/>
        <path class="cls-16" d="M105.68,24.65v4.89h-3.66v-4.89l-1.34-2.85h6.33l-1.34,2.85Z"/>
        <path class="cls-6" d="M114.05,18.29h-6.33v3.52h6.33v-3.52Z"/>
        <path class="cls-16" d="M112.71,24.65v4.89h-3.66v-4.89l-1.34-2.85h6.33l-1.34,2.85Z"/>
        <path class="cls-6" d="M134.44,18.29h-5.63v3.52h5.63v-3.52Z"/>
        <path class="cls-16" d="M133.25,24.65v4.89h-3.24v-4.89l-1.2-2.85h5.63l-1.2,2.85Z"/>
        <path class="cls-6" d="M156.95,18.29h-5.63v3.52h5.63v-3.52Z"/>
        <path class="cls-16" d="M155.75,24.65v4.89h-3.24v-4.89l-1.2-2.85h5.63l-1.2,2.85Z"/>
        <path class="cls-15" d="M159.76,10.55h-10.55v3.52h10.55v-3.52Z"/>
        <path class="cls-15" d="M173.12,10.55h-10.55v3.52h10.55v-3.52Z"/>
        <path class="cls-6" d="M179.45,18.29h-5.63v3.52h5.63v-3.52Z"/>
        <path class="cls-16" d="M178.26,24.65v4.89h-3.24v-4.89l-1.2-2.85h5.63l-1.2,2.85Z"/>
        <path class="cls-15" d="M145.7,10.55h-10.55v3.52h10.55v-3.52Z"/>
        <path class="cls-6" d="M200.55,18.29h-6.33v3.52h6.33v-3.52Z"/>
        <path class="cls-16" d="M199.22,24.65v4.89h-3.66v-4.89l-1.34-2.85h6.33l-1.34,2.85Z"/>
        <path class="cls-6" d="M208.29,18.29h-6.33v3.52h6.33v-3.52Z"/>
        <path class="cls-16" d="M206.95,24.65v4.89h-3.66v-4.89l-1.34-2.85h6.33l-1.34,2.85Z"/>
        <path class="cls-6" d="M263.85,18.29h-5.63v3.52h5.63v-3.52Z"/>
        <path class="cls-16" d="M262.65,24.65v4.89h-3.24v-4.89l-1.2-2.85h5.63l-1.2,2.85Z"/>
        <path class="cls-6" d="M285.65,18.29h-5.63v3.52h5.63v-3.52Z"/>
        <path class="cls-16" d="M284.45,24.65v4.89h-3.24v-4.89l-1.2-2.85h5.63l-1.2,2.85Z"/>
        <path class="cls-6" d="M307.45,18.29h-5.63v3.52h5.63v-3.52Z"/>
        <path class="cls-16" d="M306.26,24.65v4.89h-3.24v-4.89l-1.2-2.85h5.63l-1.2,2.85Z"/>
        <path class="cls-7" d="M6.44,83.69H3.63v12.69l-1.02,7.45H7.5l-1.05-7.45v-12.69Z"/>
        <path class="cls-7" d="M28.25,83.69h-2.81v12.69l-1.02,7.45h4.89l-1.05-7.45v-12.69Z"/>
        <path class="cls-7" d="M50.05,83.69h-2.81v12.69l-1.02,7.45h4.89l-1.02-7.45v-12.69h-.04Z"/>
        <path class="cls-7" d="M262.44,82.28h-2.81v13.4l-1.02,7.84h4.89l-1.02-7.84v-13.4h-.04Z"/>
        <path class="cls-7" d="M284.24,82.28h-2.81v13.4l-1.02,7.84h4.89l-1.02-7.84v-13.4h-.04Z"/>
        <path class="cls-7" d="M306.05,82.28h-2.81v13.4l-1.02,7.84h4.89l-1.02-7.84v-13.4h-.04Z"/>
        <path class="cls-7" d="M133.04,82.28h-2.81v13.4l-1.02,7.84h4.89l-1.02-7.84v-13.4h-.04Z"/>
        <path class="cls-7" d="M139.37,82.28h-2.81v13.4l-1.02,7.84h4.89l-1.02-7.84v-13.4h-.04Z"/>
        <path class="cls-7" d="M171.72,82.28h-2.81v13.4l-1.02,7.84h4.89l-1.02-7.84v-13.4h-.04Z"/>
        <path class="cls-7" d="M178.05,82.28h-2.81v13.4l-1.02,7.84h4.89l-1.02-7.84v-13.4h-.04Z"/>
        <path class="cls-7" d="M105.78,82.28h-3.87v13.4l-1.41,7.84h6.72l-1.41-7.84v-13.4h-.04Z"/>
        <path class="cls-7" d="M207.06,82.28h-3.87v13.4l-1.41,7.84h6.72l-1.41-7.84v-13.4h-.04Z"/>
        <path class="cls-6" d="M14.71,57.14c3.02,0,5.45-2.57,5.45-5.73s-2.43-5.73-5.45-5.73-5.45,2.57-5.45,5.73,2.43,5.73,5.45,5.73Z"/>
        <path class="cls-6" d="M14.88,71.74c2.32,0,4.22-.95,4.22-2.07s-1.9-2.07-4.22-2.07-4.22,.95-4.22,2.07,1.9,2.07,4.22,2.07Z"/>
        <g>
          <path class="cls-6" d="M20.86,50.88H8.55v13.57h12.31v-13.57Z"/>
          <path class="cls-9" d="M19.81,55.98c0-2.81-2.29-5.1-5.1-5.1s-5.1,2.29-5.1,5.1v15.86c0,2.81,2.29,5.1,5.1,5.1s5.1-2.29,5.1-5.1v-15.86Z"/>
          <path class="cls-11" d="M19.45,57.7c0-2.64-2.11-4.75-4.75-4.75s-4.75,2.11-4.75,4.75v14.49c0,2.64,2.11,4.75,4.75,4.75s4.75-2.11,4.75-4.75v-14.49Z"/>
          <path class="cls-6" d="M20.16,67.55H9.26v2.07h10.9v-2.07Z"/>
          <path class="cls-3" d="M14.88,70.68c1.93,0,3.52-.46,3.52-1.05s-1.58-1.05-3.52-1.05-3.52,.46-3.52,1.05,1.58,1.05,3.52,1.05Z"/>
          <path class="cls-1" d="M14.88,48.81c1.16,0,2.11-.46,2.11-1.05,0-.56-.95-1.05-2.11-1.05s-2.11,.46-2.11,1.05c0,.56,.95,1.05,2.11,1.05Z"/>
          <path class="cls-1" d="M12.77,50.64c1.37-.46,2.43-1.3,2.36-1.86s-1.27-.63-2.67-.18-2.43,1.3-2.36,1.86c.11,.56,1.3,.67,2.67,.18Z"/>
          <path class="cls-1" d="M16.68,50.64c1.37,.46,2.57,.39,2.67-.18,.07-.56-.95-1.41-2.36-1.86s-2.57-.39-2.67,.18c-.07,.56,.98,1.41,2.36,1.86Z"/>
          <path class="cls-6" d="M14.53,52.96h.35v14.59h-.35v-14.59Z"/>
          <path class="cls-6" d="M19.45,57.67H9.96v1.05h9.49v-1.05Z"/>
        </g>
        <path class="cls-6" d="M37.21,57.14c3.02,0,5.45-2.57,5.45-5.73s-2.43-5.73-5.45-5.73-5.45,2.57-5.45,5.73,2.43,5.73,5.45,5.73Z"/>
        <path class="cls-6" d="M37.39,71.74c2.32,0,4.22-.95,4.22-2.07s-1.9-2.07-4.22-2.07-4.22,.95-4.22,2.07,1.9,2.07,4.22,2.07Z"/>
        <g>
          <path class="cls-6" d="M43.37,50.88h-12.31v13.57h12.31v-13.57Z"/>
          <path class="cls-9" d="M42.31,55.98c0-2.81-2.29-5.1-5.1-5.1s-5.1,2.29-5.1,5.1v15.86c0,2.81,2.29,5.1,5.1,5.1s5.1-2.29,5.1-5.1v-15.86Z"/>
          <path class="cls-11" d="M41.96,57.7c0-2.64-2.11-4.75-4.75-4.75s-4.75,2.11-4.75,4.75v14.49c0,2.64,2.11,4.75,4.75,4.75s4.75-2.11,4.75-4.75v-14.49Z"/>
          <path class="cls-6" d="M42.66,67.55h-10.9v2.07h10.9v-2.07Z"/>
          <path class="cls-3" d="M37.39,70.68c1.93,0,3.52-.46,3.52-1.05s-1.58-1.05-3.52-1.05-3.52,.46-3.52,1.05,1.58,1.05,3.52,1.05Z"/>
          <path class="cls-1" d="M37.39,48.81c1.16,0,2.11-.46,2.11-1.05,0-.56-.95-1.05-2.11-1.05s-2.11,.46-2.11,1.05c0,.56,.95,1.05,2.11,1.05Z"/>
          <path class="cls-1" d="M35.28,50.64c1.37-.46,2.43-1.3,2.36-1.86-.07-.56-1.27-.63-2.67-.18s-2.43,1.3-2.36,1.86c.11,.56,1.3,.67,2.67,.18Z"/>
          <path class="cls-1" d="M39.18,50.64c1.37,.46,2.57,.39,2.67-.18,.07-.56-.95-1.41-2.36-1.86s-2.57-.39-2.67,.18c-.07,.56,.98,1.41,2.36,1.86Z"/>
          <path class="cls-6" d="M37.04,52.96h.35v14.59h-.35v-14.59Z"/>
          <path class="cls-6" d="M41.96,57.67h-9.49v1.05h9.49v-1.05Z"/>
        </g>
        <path class="cls-6" d="M59.72,57.14c3.02,0,5.45-2.57,5.45-5.73s-2.43-5.73-5.45-5.73-5.45,2.57-5.45,5.73,2.43,5.73,5.45,5.73Z"/>
        <path class="cls-6" d="M59.89,71.74c2.32,0,4.22-.95,4.22-2.07s-1.9-2.07-4.22-2.07-4.22,.95-4.22,2.07,1.9,2.07,4.22,2.07Z"/>
        <g>
          <path class="cls-6" d="M65.87,50.88h-12.31v13.57h12.31v-13.57Z"/>
          <path class="cls-9" d="M64.82,55.98c0-2.81-2.29-5.1-5.1-5.1s-5.1,2.29-5.1,5.1v15.86c0,2.81,2.29,5.1,5.1,5.1s5.1-2.29,5.1-5.1v-15.86Z"/>
          <path class="cls-11" d="M64.47,57.7c0-2.64-2.11-4.75-4.75-4.75s-4.75,2.11-4.75,4.75v14.49c0,2.64,2.11,4.75,4.75,4.75s4.75-2.11,4.75-4.75v-14.49Z"/>
          <path class="cls-6" d="M65.17,67.55h-10.9v2.07h10.9v-2.07Z"/>
          <path class="cls-3" d="M59.89,70.68c1.93,0,3.52-.46,3.52-1.05s-1.58-1.05-3.52-1.05-3.52,.46-3.52,1.05,1.58,1.05,3.52,1.05Z"/>
          <path class="cls-1" d="M59.89,48.81c1.16,0,2.11-.46,2.11-1.05,0-.56-.95-1.05-2.11-1.05s-2.11,.46-2.11,1.05c0,.56,.95,1.05,2.11,1.05Z"/>
          <path class="cls-1" d="M57.78,50.64c1.37-.46,2.43-1.3,2.36-1.86s-1.27-.63-2.67-.18c-1.37,.46-2.43,1.3-2.36,1.86,.11,.56,1.3,.67,2.67,.18Z"/>
          <path class="cls-1" d="M61.69,50.64c1.37,.46,2.57,.39,2.67-.18,.07-.56-.95-1.41-2.36-1.86s-2.57-.39-2.67,.18c-.07,.56,.98,1.41,2.36,1.86Z"/>
          <path class="cls-6" d="M59.54,52.96h.35v14.59h-.35v-14.59Z"/>
          <path class="cls-6" d="M64.47,57.67h-9.49v1.05h9.49v-1.05Z"/>
        </g>
        <path class="cls-6" d="M75.89,57.14c3.02,0,5.45-2.57,5.45-5.73s-2.43-5.73-5.45-5.73-5.45,2.57-5.45,5.73,2.43,5.73,5.45,5.73Z"/>
        <path class="cls-6" d="M76.07,71.74c2.32,0,4.22-.95,4.22-2.07s-1.9-2.07-4.22-2.07-4.22,.95-4.22,2.07,1.9,2.07,4.22,2.07Z"/>
        <g>
          <path class="cls-6" d="M82.05,50.88h-12.31v13.57h12.31v-13.57Z"/>
          <path class="cls-9" d="M80.99,55.98c0-2.81-2.29-5.1-5.1-5.1s-5.1,2.29-5.1,5.1v15.86c0,2.81,2.29,5.1,5.1,5.1s5.1-2.29,5.1-5.1v-15.86Z"/>
          <path class="cls-11" d="M80.64,57.7c0-2.64-2.11-4.75-4.75-4.75s-4.75,2.11-4.75,4.75v14.49c0,2.64,2.11,4.75,4.75,4.75s4.75-2.11,4.75-4.75v-14.49Z"/>
          <path class="cls-6" d="M81.34,67.55h-10.9v2.07h10.9v-2.07Z"/>
          <path class="cls-3" d="M76.07,70.68c1.93,0,3.52-.46,3.52-1.05s-1.58-1.05-3.52-1.05-3.52,.46-3.52,1.05,1.58,1.05,3.52,1.05Z"/>
          <path class="cls-1" d="M76.07,48.81c1.16,0,2.11-.46,2.11-1.05,0-.56-.95-1.05-2.11-1.05s-2.11,.46-2.11,1.05c0,.56,.95,1.05,2.11,1.05Z"/>
          <path class="cls-1" d="M73.96,50.64c1.37-.46,2.43-1.3,2.36-1.86s-1.27-.63-2.67-.18c-1.37,.46-2.43,1.3-2.36,1.86,.11,.56,1.3,.67,2.67,.18Z"/>
          <path class="cls-1" d="M77.86,50.64c1.37,.46,2.57,.39,2.67-.18,.07-.56-.95-1.41-2.36-1.86s-2.57-.39-2.67,.18c-.07,.56,.98,1.41,2.36,1.86Z"/>
          <path class="cls-6" d="M75.72,52.96h.35v14.59h-.35v-14.59Z"/>
          <path class="cls-6" d="M80.64,57.67h-9.49v1.05h9.49v-1.05Z"/>
        </g>
        <path class="cls-6" d="M92.77,57.14c3.02,0,5.45-2.57,5.45-5.73s-2.43-5.73-5.45-5.73-5.45,2.57-5.45,5.73,2.43,5.73,5.45,5.73Z"/>
        <path class="cls-6" d="M92.95,71.74c2.32,0,4.22-.95,4.22-2.07s-1.9-2.07-4.22-2.07-4.22,.95-4.22,2.07,1.9,2.07,4.22,2.07Z"/>
        <g>
          <path class="cls-6" d="M98.93,50.88h-12.31v13.57h12.31v-13.57Z"/>
          <path class="cls-9" d="M97.87,55.98c0-2.81-2.29-5.1-5.1-5.1s-5.1,2.29-5.1,5.1v15.86c0,2.81,2.29,5.1,5.1,5.1s5.1-2.29,5.1-5.1v-15.86Z"/>
          <path class="cls-11" d="M97.52,57.7c0-2.64-2.11-4.75-4.75-4.75s-4.75,2.11-4.75,4.75v14.49c0,2.64,2.11,4.75,4.75,4.75s4.75-2.11,4.75-4.75v-14.49Z"/>
          <path class="cls-6" d="M98.22,67.55h-10.9v2.07h10.9v-2.07Z"/>
          <path class="cls-3" d="M92.95,70.68c1.93,0,3.52-.46,3.52-1.05s-1.58-1.05-3.52-1.05-3.52,.46-3.52,1.05,1.58,1.05,3.52,1.05Z"/>
          <path class="cls-1" d="M92.95,48.81c1.16,0,2.11-.46,2.11-1.05,0-.56-.95-1.05-2.11-1.05s-2.11,.46-2.11,1.05c0,.56,.95,1.05,2.11,1.05Z"/>
          <path class="cls-1" d="M90.84,50.64c1.37-.46,2.43-1.3,2.36-1.86-.07-.56-1.27-.63-2.67-.18-1.37,.46-2.43,1.3-2.36,1.86,.11,.56,1.3,.67,2.67,.18Z"/>
          <path class="cls-1" d="M94.74,50.64c1.37,.46,2.57,.39,2.67-.18,.07-.56-.95-1.41-2.36-1.86s-2.57-.39-2.67,.18c-.07,.56,.98,1.41,2.36,1.86Z"/>
          <path class="cls-6" d="M92.6,52.96h.35v14.59h-.35v-14.59Z"/>
          <path class="cls-6" d="M97.52,57.67h-9.49v1.05h9.49v-1.05Z"/>
        </g>
        <path class="cls-6" d="M121.61,57.14c3.02,0,5.45-2.57,5.45-5.73s-2.43-5.73-5.45-5.73-5.45,2.57-5.45,5.73,2.43,5.73,5.45,5.73Z"/>
        <path class="cls-6" d="M121.78,71.74c2.32,0,4.22-.95,4.22-2.07s-1.9-2.07-4.22-2.07-4.22,.95-4.22,2.07,1.9,2.07,4.22,2.07Z"/>
        <g>
          <path class="cls-6" d="M127.76,50.88h-12.31v13.57h12.31v-13.57Z"/>
          <path class="cls-9" d="M126.71,55.98c0-2.81-2.29-5.1-5.1-5.1s-5.1,2.29-5.1,5.1v15.86c0,2.81,2.29,5.1,5.1,5.1s5.1-2.29,5.1-5.1v-15.86Z"/>
          <path class="cls-11" d="M126.35,57.7c0-2.64-2.11-4.75-4.75-4.75s-4.75,2.11-4.75,4.75v14.49c0,2.64,2.11,4.75,4.75,4.75s4.75-2.11,4.75-4.75v-14.49Z"/>
          <path class="cls-6" d="M127.06,67.55h-10.9v2.07h10.9v-2.07Z"/>
          <path class="cls-3" d="M121.78,70.68c1.93,0,3.52-.46,3.52-1.05s-1.58-1.05-3.52-1.05-3.52,.46-3.52,1.05,1.58,1.05,3.52,1.05Z"/>
          <path class="cls-1" d="M121.78,48.81c1.16,0,2.11-.46,2.11-1.05,0-.56-.95-1.05-2.11-1.05s-2.11,.46-2.11,1.05c0,.56,.95,1.05,2.11,1.05Z"/>
          <path class="cls-1" d="M119.67,50.64c1.37-.46,2.43-1.3,2.36-1.86-.07-.56-1.27-.63-2.67-.18-1.37,.46-2.43,1.3-2.36,1.86,.11,.56,1.3,.67,2.67,.18Z"/>
          <path class="cls-1" d="M123.58,50.64c1.37,.46,2.57,.39,2.67-.18,.07-.56-.95-1.41-2.36-1.86s-2.57-.39-2.67,.18c-.07,.56,.98,1.41,2.36,1.86Z"/>
          <path class="cls-6" d="M121.43,52.96h.35v14.59h-.35v-14.59Z"/>
          <path class="cls-6" d="M126.35,57.67h-9.49v1.05h9.49v-1.05Z"/>
        </g>
        <path class="cls-6" d="M142,57.14c3.02,0,5.45-2.57,5.45-5.73s-2.43-5.73-5.45-5.73-5.45,2.57-5.45,5.73,2.43,5.73,5.45,5.73Z"/>
        <path class="cls-6" d="M142.18,71.74c2.32,0,4.22-.95,4.22-2.07s-1.9-2.07-4.22-2.07-4.22,.95-4.22,2.07,1.9,2.07,4.22,2.07Z"/>
        <g>
          <path class="cls-6" d="M148.16,50.88h-12.31v13.57h12.31v-13.57Z"/>
          <path class="cls-9" d="M147.1,55.98c0-2.81-2.29-5.1-5.1-5.1s-5.1,2.29-5.1,5.1v15.86c0,2.81,2.29,5.1,5.1,5.1s5.1-2.29,5.1-5.1v-15.86Z"/>
          <path class="cls-11" d="M146.75,57.7c0-2.64-2.11-4.75-4.75-4.75s-4.75,2.11-4.75,4.75v14.49c0,2.64,2.11,4.75,4.75,4.75s4.75-2.11,4.75-4.75v-14.49Z"/>
          <path class="cls-6" d="M147.45,67.55h-10.9v2.07h10.9v-2.07Z"/>
          <path class="cls-3" d="M142.18,70.68c1.93,0,3.52-.46,3.52-1.05s-1.58-1.05-3.52-1.05-3.52,.46-3.52,1.05,1.58,1.05,3.52,1.05Z"/>
          <path class="cls-1" d="M142.18,48.81c1.16,0,2.11-.46,2.11-1.05,0-.56-.95-1.05-2.11-1.05s-2.11,.46-2.11,1.05c0,.56,.95,1.05,2.11,1.05Z"/>
          <path class="cls-1" d="M140.07,50.64c1.37-.46,2.43-1.3,2.36-1.86-.07-.56-1.27-.63-2.67-.18s-2.43,1.3-2.36,1.86c.11,.56,1.3,.67,2.67,.18Z"/>
          <path class="cls-1" d="M143.97,50.64c1.37,.46,2.57,.39,2.67-.18,.07-.56-.95-1.41-2.36-1.86s-2.57-.39-2.67,.18c-.07,.56,.98,1.41,2.36,1.86Z"/>
          <path class="cls-6" d="M141.83,52.96h.35v14.59h-.35v-14.59Z"/>
          <path class="cls-6" d="M146.75,57.67h-9.49v1.05h9.49v-1.05Z"/>
        </g>
        <path class="cls-6" d="M165.91,57.85c3.02,0,5.45-2.57,5.45-5.73s-2.43-5.73-5.45-5.73-5.45,2.57-5.45,5.73,2.43,5.73,5.45,5.73Z"/>
        <path class="cls-6" d="M166.09,72.44c2.32,0,4.22-.95,4.22-2.07s-1.9-2.07-4.22-2.07-4.22,.95-4.22,2.07,1.9,2.07,4.22,2.07Z"/>
        <g>
          <path class="cls-6" d="M172.07,51.59h-12.31v13.57h12.31v-13.57Z"/>
          <path class="cls-9" d="M171.01,56.69c0-2.81-2.29-5.1-5.1-5.1s-5.1,2.29-5.1,5.1v15.86c0,2.81,2.29,5.1,5.1,5.1s5.1-2.29,5.1-5.1v-15.86Z"/>
          <path class="cls-11" d="M170.66,58.41c0-2.64-2.11-4.75-4.75-4.75s-4.75,2.11-4.75,4.75v14.49c0,2.64,2.11,4.75,4.75,4.75s4.75-2.11,4.75-4.75v-14.49Z"/>
          <path class="cls-6" d="M171.37,68.25h-10.9v2.07h10.9v-2.07Z"/>
          <path class="cls-3" d="M166.09,71.38c1.93,0,3.52-.46,3.52-1.05s-1.58-1.05-3.52-1.05-3.52,.46-3.52,1.05,1.58,1.05,3.52,1.05Z"/>
          <path class="cls-1" d="M166.09,49.51c1.16,0,2.11-.46,2.11-1.05,0-.56-.95-1.05-2.11-1.05s-2.11,.46-2.11,1.05c0,.56,.95,1.05,2.11,1.05Z"/>
          <path class="cls-1" d="M163.98,51.34c1.37-.46,2.43-1.3,2.36-1.86-.07-.56-1.27-.63-2.67-.18s-2.43,1.3-2.36,1.86c.11,.56,1.3,.67,2.67,.18Z"/>
          <path class="cls-1" d="M167.88,51.34c1.37,.46,2.57,.39,2.67-.18,.07-.56-.95-1.41-2.36-1.86s-2.57-.39-2.67,.18c-.07,.56,.98,1.41,2.36,1.86Z"/>
          <path class="cls-6" d="M165.74,53.66h.35v14.59h-.35v-14.59Z"/>
          <path class="cls-6" d="M170.66,58.37h-9.49v1.05h9.49v-1.05Z"/>
        </g>
        <path class="cls-6" d="M187.01,57.85c3.02,0,5.45-2.57,5.45-5.73s-2.43-5.73-5.45-5.73-5.45,2.57-5.45,5.73,2.43,5.73,5.45,5.73Z"/>
        <path class="cls-6" d="M187.19,72.44c2.32,0,4.22-.95,4.22-2.07s-1.9-2.07-4.22-2.07-4.22,.95-4.22,2.07,1.9,2.07,4.22,2.07Z"/>
        <g>
          <path class="cls-6" d="M193.17,51.59h-12.31v13.57h12.31v-13.57Z"/>
          <path class="cls-9" d="M192.11,56.69c0-2.81-2.29-5.1-5.1-5.1s-5.1,2.29-5.1,5.1v15.86c0,2.81,2.29,5.1,5.1,5.1s5.1-2.29,5.1-5.1v-15.86Z"/>
          <path class="cls-11" d="M191.76,58.41c0-2.64-2.11-4.75-4.75-4.75s-4.75,2.11-4.75,4.75v14.49c0,2.64,2.11,4.75,4.75,4.75s4.75-2.11,4.75-4.75v-14.49Z"/>
          <path class="cls-6" d="M192.46,68.25h-10.9v2.07h10.9v-2.07Z"/>
          <path class="cls-3" d="M187.19,71.38c1.93,0,3.52-.46,3.52-1.05s-1.58-1.05-3.52-1.05-3.52,.46-3.52,1.05,1.58,1.05,3.52,1.05Z"/>
          <path class="cls-1" d="M187.19,49.51c1.16,0,2.11-.46,2.11-1.05,0-.56-.95-1.05-2.11-1.05s-2.11,.46-2.11,1.05c0,.56,.95,1.05,2.11,1.05Z"/>
          <path class="cls-1" d="M185.08,51.34c1.37-.46,2.43-1.3,2.36-1.86s-1.27-.63-2.67-.18-2.43,1.3-2.36,1.86c.11,.56,1.3,.67,2.67,.18Z"/>
          <path class="cls-1" d="M188.98,51.34c1.37,.46,2.57,.39,2.67-.18,.07-.56-.95-1.41-2.36-1.86s-2.57-.39-2.67,.18c-.07,.56,.98,1.41,2.36,1.86Z"/>
          <path class="cls-6" d="M186.84,53.66h.35v14.59h-.35v-14.59Z"/>
          <path class="cls-6" d="M191.76,58.37h-9.49v1.05h9.49v-1.05Z"/>
        </g>
        <path class="cls-6" d="M215.14,57.14c3.02,0,5.45-2.57,5.45-5.73s-2.43-5.73-5.45-5.73-5.45,2.57-5.45,5.73,2.43,5.73,5.45,5.73Z"/>
        <path class="cls-6" d="M215.32,71.74c2.32,0,4.22-.95,4.22-2.07s-1.9-2.07-4.22-2.07-4.22,.95-4.22,2.07,1.9,2.07,4.22,2.07Z"/>
        <g>
          <path class="cls-6" d="M221.3,50.88h-12.31v13.57h12.31v-13.57Z"/>
          <path class="cls-9" d="M220.24,55.98c0-2.81-2.29-5.1-5.1-5.1s-5.1,2.29-5.1,5.1v15.86c0,2.81,2.29,5.1,5.1,5.1s5.1-2.29,5.1-5.1v-15.86Z"/>
          <path class="cls-11" d="M219.89,57.7c0-2.64-2.11-4.75-4.75-4.75s-4.75,2.11-4.75,4.75v14.49c0,2.64,2.11,4.75,4.75,4.75s4.75-2.11,4.75-4.75v-14.49Z"/>
          <path class="cls-6" d="M220.6,67.55h-10.9v2.07h10.9v-2.07Z"/>
          <path class="cls-3" d="M215.32,70.68c1.93,0,3.52-.46,3.52-1.05s-1.58-1.05-3.52-1.05-3.52,.46-3.52,1.05,1.58,1.05,3.52,1.05Z"/>
          <path class="cls-1" d="M215.32,48.81c1.16,0,2.11-.46,2.11-1.05,0-.56-.95-1.05-2.11-1.05s-2.11,.46-2.11,1.05c0,.56,.95,1.05,2.11,1.05Z"/>
          <path class="cls-1" d="M213.21,50.64c1.37-.46,2.43-1.3,2.36-1.86s-1.27-.63-2.67-.18-2.43,1.3-2.36,1.86c.11,.56,1.3,.67,2.67,.18Z"/>
          <path class="cls-1" d="M217.11,50.64c1.37,.46,2.57,.39,2.67-.18,.07-.56-.95-1.41-2.36-1.86s-2.57-.39-2.67,.18c-.07,.56,.98,1.41,2.36,1.86Z"/>
          <path class="cls-6" d="M214.97,52.96h.35v14.59h-.35v-14.59Z"/>
          <path class="cls-6" d="M219.89,57.67h-9.49v1.05h9.49v-1.05Z"/>
        </g>
        <path class="cls-6" d="M232.73,57.85c3.02,0,5.45-2.57,5.45-5.73s-2.43-5.73-5.45-5.73-5.45,2.57-5.45,5.73,2.43,5.73,5.45,5.73Z"/>
        <path class="cls-6" d="M232.9,72.44c2.32,0,4.22-.95,4.22-2.07s-1.9-2.07-4.22-2.07-4.22,.95-4.22,2.07,1.9,2.07,4.22,2.07Z"/>
        <g>
          <path class="cls-6" d="M238.88,51.59h-12.31v13.57h12.31v-13.57Z"/>
          <path class="cls-9" d="M237.83,56.69c0-2.81-2.29-5.1-5.1-5.1s-5.1,2.29-5.1,5.1v15.86c0,2.81,2.29,5.1,5.1,5.1s5.1-2.29,5.1-5.1v-15.86Z"/>
          <path class="cls-11" d="M237.47,58.41c0-2.64-2.11-4.75-4.75-4.75s-4.75,2.11-4.75,4.75v14.49c0,2.64,2.11,4.75,4.75,4.75s4.75-2.11,4.75-4.75v-14.49Z"/>
          <path class="cls-6" d="M238.18,68.25h-10.9v2.07h10.9v-2.07Z"/>
          <path class="cls-3" d="M232.9,71.38c1.93,0,3.52-.46,3.52-1.05s-1.58-1.05-3.52-1.05-3.52,.46-3.52,1.05,1.58,1.05,3.52,1.05Z"/>
          <path class="cls-1" d="M232.9,49.51c1.16,0,2.11-.46,2.11-1.05,0-.56-.95-1.05-2.11-1.05s-2.11,.46-2.11,1.05c0,.56,.95,1.05,2.11,1.05Z"/>
          <path class="cls-1" d="M230.79,51.34c1.37-.46,2.43-1.3,2.36-1.86s-1.27-.63-2.67-.18-2.43,1.3-2.36,1.86c.11,.56,1.3,.67,2.67,.18Z"/>
          <path class="cls-1" d="M234.7,51.34c1.37,.46,2.57,.39,2.67-.18,.07-.56-.95-1.41-2.36-1.86s-2.57-.39-2.67,.18c-.07,.56,.98,1.41,2.36,1.86Z"/>
          <path class="cls-6" d="M232.55,53.66h.35v14.59h-.35v-14.59Z"/>
          <path class="cls-6" d="M237.47,58.37h-9.49v1.05h9.49v-1.05Z"/>
        </g>
        <path class="cls-6" d="M248.9,57.85c3.02,0,5.45-2.57,5.45-5.73s-2.43-5.73-5.45-5.73-5.45,2.57-5.45,5.73,2.43,5.73,5.45,5.73Z"/>
        <path class="cls-6" d="M249.08,72.44c2.32,0,4.22-.95,4.22-2.07s-1.9-2.07-4.22-2.07-4.22,.95-4.22,2.07,1.9,2.07,4.22,2.07Z"/>
        <g>
          <path class="cls-6" d="M255.06,51.59h-12.31v13.57h12.31v-13.57Z"/>
          <path class="cls-9" d="M254,56.69c0-2.81-2.29-5.1-5.1-5.1s-5.1,2.29-5.1,5.1v15.86c0,2.81,2.29,5.1,5.1,5.1s5.1-2.29,5.1-5.1v-15.86Z"/>
          <path class="cls-11" d="M253.65,58.41c0-2.64-2.11-4.75-4.75-4.75s-4.75,2.11-4.75,4.75v14.49c0,2.64,2.11,4.75,4.75,4.75s4.75-2.11,4.75-4.75v-14.49Z"/>
          <path class="cls-6" d="M254.35,68.25h-10.9v2.07h10.9v-2.07Z"/>
          <path class="cls-3" d="M249.08,71.38c1.93,0,3.52-.46,3.52-1.05s-1.58-1.05-3.52-1.05-3.52,.46-3.52,1.05,1.58,1.05,3.52,1.05Z"/>
          <path class="cls-1" d="M249.08,49.51c1.16,0,2.11-.46,2.11-1.05,0-.56-.95-1.05-2.11-1.05s-2.11,.46-2.11,1.05c0,.56,.95,1.05,2.11,1.05Z"/>
          <path class="cls-1" d="M246.97,51.34c1.37-.46,2.43-1.3,2.36-1.86s-1.27-.63-2.67-.18-2.43,1.3-2.36,1.86c.11,.56,1.3,.67,2.67,.18Z"/>
          <path class="cls-1" d="M250.87,51.34c1.37,.46,2.57,.39,2.67-.18,.07-.56-.95-1.41-2.36-1.86s-2.57-.39-2.67,.18c-.07,.56,.98,1.41,2.36,1.86Z"/>
          <path class="cls-6" d="M248.73,53.66h.35v14.59h-.35v-14.59Z"/>
          <path class="cls-6" d="M253.65,58.37h-9.49v1.05h9.49v-1.05Z"/>
        </g>
        <path class="cls-6" d="M271.41,57.85c3.02,0,5.45-2.57,5.45-5.73s-2.43-5.73-5.45-5.73-5.45,2.57-5.45,5.73,2.43,5.73,5.45,5.73Z"/>
        <path class="cls-6" d="M271.58,72.44c2.32,0,4.22-.95,4.22-2.07s-1.9-2.07-4.22-2.07-4.22,.95-4.22,2.07,1.9,2.07,4.22,2.07Z"/>
        <g>
          <path class="cls-6" d="M277.56,51.59h-12.31v13.57h12.31v-13.57Z"/>
          <path class="cls-9" d="M276.51,56.69c0-2.81-2.29-5.1-5.1-5.1s-5.1,2.29-5.1,5.1v15.86c0,2.81,2.29,5.1,5.1,5.1s5.1-2.29,5.1-5.1v-15.86Z"/>
          <path class="cls-11" d="M276.16,58.41c0-2.64-2.11-4.75-4.75-4.75s-4.75,2.11-4.75,4.75v14.49c0,2.64,2.11,4.75,4.75,4.75s4.75-2.11,4.75-4.75v-14.49Z"/>
          <path class="cls-6" d="M276.86,68.25h-10.9v2.07h10.9v-2.07Z"/>
          <path class="cls-3" d="M271.58,71.38c1.93,0,3.52-.46,3.52-1.05s-1.58-1.05-3.52-1.05-3.52,.46-3.52,1.05,1.58,1.05,3.52,1.05Z"/>
          <path class="cls-1" d="M271.58,49.51c1.16,0,2.11-.46,2.11-1.05,0-.56-.95-1.05-2.11-1.05s-2.11,.46-2.11,1.05c0,.56,.95,1.05,2.11,1.05Z"/>
          <path class="cls-1" d="M269.47,51.34c1.37-.46,2.43-1.3,2.36-1.86s-1.27-.63-2.67-.18-2.43,1.3-2.36,1.86c.11,.56,1.3,.67,2.67,.18Z"/>
          <path class="cls-1" d="M273.38,51.34c1.37,.46,2.57,.39,2.67-.18,.07-.56-.95-1.41-2.36-1.86s-2.57-.39-2.67,.18c-.07,.56,.98,1.41,2.36,1.86Z"/>
          <path class="cls-6" d="M271.23,53.66h.35v14.59h-.35v-14.59Z"/>
          <path class="cls-6" d="M276.16,58.37h-9.49v1.05h9.49v-1.05Z"/>
        </g>
        <path class="cls-6" d="M293.91,57.14c3.02,0,5.45-2.57,5.45-5.73s-2.43-5.73-5.45-5.73-5.45,2.57-5.45,5.73,2.43,5.73,5.45,5.73Z"/>
        <path class="cls-6" d="M294.09,71.74c2.32,0,4.22-.95,4.22-2.07s-1.9-2.07-4.22-2.07-4.22,.95-4.22,2.07,1.9,2.07,4.22,2.07Z"/>
        <g>
          <path class="cls-6" d="M300.07,50.88h-12.31v13.57h12.31v-13.57Z"/>
          <path class="cls-9" d="M299.01,55.98c0-2.81-2.29-5.1-5.1-5.1s-5.1,2.29-5.1,5.1v15.86c0,2.81,2.29,5.1,5.1,5.1s5.1-2.29,5.1-5.1v-15.86Z"/>
          <path class="cls-11" d="M298.66,57.7c0-2.64-2.11-4.75-4.75-4.75s-4.75,2.11-4.75,4.75v14.49c0,2.64,2.11,4.75,4.75,4.75s4.75-2.11,4.75-4.75v-14.49Z"/>
          <path class="cls-6" d="M299.36,67.55h-10.9v2.07h10.9v-2.07Z"/>
          <path class="cls-3" d="M294.09,70.68c1.93,0,3.52-.46,3.52-1.05s-1.58-1.05-3.52-1.05-3.52,.46-3.52,1.05,1.58,1.05,3.52,1.05Z"/>
          <path class="cls-1" d="M294.09,48.81c1.16,0,2.11-.46,2.11-1.05,0-.56-.95-1.05-2.11-1.05s-2.11,.46-2.11,1.05c0,.56,.95,1.05,2.11,1.05Z"/>
          <path class="cls-1" d="M291.98,50.64c1.37-.46,2.43-1.3,2.36-1.86s-1.27-.63-2.67-.18-2.43,1.3-2.36,1.86c.11,.56,1.3,.67,2.67,.18Z"/>
          <path class="cls-1" d="M295.88,50.64c1.37,.46,2.57,.39,2.67-.18,.07-.56-.95-1.41-2.36-1.86s-2.57-.39-2.67,.18c-.07,.56,.98,1.41,2.36,1.86Z"/>
          <path class="cls-6" d="M293.74,52.96h.35v14.59h-.35v-14.59Z"/>
          <path class="cls-6" d="M298.66,57.67h-9.49v1.05h9.49v-1.05Z"/>
        </g>
        <path class="cls-6" d="M15.41,93.71c3.02,0,5.45-2.57,5.45-5.73s-2.43-5.73-5.45-5.73-5.45,2.57-5.45,5.73,2.43,5.73,5.45,5.73Z"/>
        <g>
          <path class="cls-6" d="M21.56,87.45H9.26v13.57h12.31v-13.57Z"/>
          <path class="cls-9" d="M20.51,92.55c0-2.81-2.29-5.1-5.1-5.1s-5.1,2.29-5.1,5.1v15.86c0,2.81,2.29,5.1,5.1,5.1s5.1-2.29,5.1-5.1v-15.86Z"/>
          <path class="cls-11" d="M20.16,94.28c0-2.64-2.11-4.75-4.75-4.75s-4.75,2.11-4.75,4.75v14.49c0,2.64,2.11,4.75,4.75,4.75s4.75-2.11,4.75-4.75v-14.49Z"/>
          <path class="cls-1" d="M15.59,85.38c1.16,0,2.11-.46,2.11-1.05,0-.56-.95-1.05-2.11-1.05s-2.11,.46-2.11,1.05c0,.56,.95,1.05,2.11,1.05Z"/>
          <path class="cls-1" d="M13.48,87.21c1.37-.46,2.43-1.3,2.36-1.86s-1.27-.63-2.67-.18-2.43,1.3-2.36,1.86c.11,.56,1.3,.67,2.67,.18Z"/>
          <path class="cls-1" d="M17.38,87.21c1.37,.46,2.57,.39,2.67-.18,.07-.56-.95-1.41-2.36-1.86s-2.57-.39-2.67,.18c-.07,.56,.98,1.41,2.36,1.86Z"/>
          <path class="cls-6" d="M15.23,89.53h.35v14.59h-.35v-14.59Z"/>
          <path class="cls-6" d="M20.16,94.24H10.66v1.05h9.49v-1.05Z"/>
        </g>
        <path class="cls-6" d="M37.21,95.12c3.02,0,5.45-2.57,5.45-5.73s-2.43-5.73-5.45-5.73-5.45,2.57-5.45,5.73,2.43,5.73,5.45,5.73Z"/>
        <g>
          <path class="cls-6" d="M43.37,88.86h-12.31v13.57h12.31v-13.57Z"/>
          <path class="cls-9" d="M42.31,93.96c0-2.81-2.29-5.1-5.1-5.1s-5.1,2.29-5.1,5.1v15.86c0,2.81,2.29,5.1,5.1,5.1s5.1-2.29,5.1-5.1v-15.86Z"/>
          <path class="cls-11" d="M41.96,95.68c0-2.64-2.11-4.75-4.75-4.75s-4.75,2.11-4.75,4.75v14.49c0,2.64,2.11,4.75,4.75,4.75s4.75-2.11,4.75-4.75v-14.49Z"/>
          <path class="cls-1" d="M37.39,86.79c1.16,0,2.11-.46,2.11-1.05,0-.56-.95-1.05-2.11-1.05s-2.11,.46-2.11,1.05c0,.56,.95,1.05,2.11,1.05Z"/>
          <path class="cls-1" d="M35.28,88.61c1.37-.46,2.43-1.3,2.36-1.86-.07-.56-1.27-.63-2.67-.18s-2.43,1.3-2.36,1.86c.11,.56,1.3,.67,2.67,.18Z"/>
          <path class="cls-1" d="M39.18,88.61c1.37,.46,2.57,.39,2.67-.18,.07-.56-.95-1.41-2.36-1.86s-2.57-.39-2.67,.18c-.07,.56,.98,1.41,2.36,1.86Z"/>
          <path class="cls-6" d="M37.04,90.94h.35v14.59h-.35v-14.59Z"/>
          <path class="cls-6" d="M41.96,95.65h-9.49v1.05h9.49v-1.05Z"/>
        </g>
        <path class="cls-6" d="M59.72,95.12c3.02,0,5.45-2.57,5.45-5.73s-2.43-5.73-5.45-5.73-5.45,2.57-5.45,5.73,2.43,5.73,5.45,5.73Z"/>
        <g>
          <path class="cls-6" d="M65.87,88.86h-12.31v13.57h12.31v-13.57Z"/>
          <path class="cls-9" d="M64.82,93.96c0-2.81-2.29-5.1-5.1-5.1s-5.1,2.29-5.1,5.1v15.86c0,2.81,2.29,5.1,5.1,5.1s5.1-2.29,5.1-5.1v-15.86Z"/>
          <path class="cls-11" d="M64.47,95.68c0-2.64-2.11-4.75-4.75-4.75s-4.75,2.11-4.75,4.75v14.49c0,2.64,2.11,4.75,4.75,4.75s4.75-2.11,4.75-4.75v-14.49Z"/>
          <path class="cls-1" d="M59.89,86.79c1.16,0,2.11-.46,2.11-1.05,0-.56-.95-1.05-2.11-1.05s-2.11,.46-2.11,1.05c0,.56,.95,1.05,2.11,1.05Z"/>
          <path class="cls-1" d="M57.78,88.61c1.37-.46,2.43-1.3,2.36-1.86s-1.27-.63-2.67-.18c-1.37,.46-2.43,1.3-2.36,1.86,.11,.56,1.3,.67,2.67,.18Z"/>
          <path class="cls-1" d="M61.69,88.61c1.37,.46,2.57,.39,2.67-.18,.07-.56-.95-1.41-2.36-1.86s-2.57-.39-2.67,.18c-.07,.56,.98,1.41,2.36,1.86Z"/>
          <path class="cls-6" d="M59.54,90.94h.35v14.59h-.35v-14.59Z"/>
          <path class="cls-6" d="M64.47,95.65h-9.49v1.05h9.49v-1.05Z"/>
        </g>
        <path class="cls-6" d="M75.89,95.12c3.02,0,5.45-2.57,5.45-5.73s-2.43-5.73-5.45-5.73-5.45,2.57-5.45,5.73,2.43,5.73,5.45,5.73Z"/>
        <g>
          <path class="cls-6" d="M82.05,88.86h-12.31v13.57h12.31v-13.57Z"/>
          <path class="cls-9" d="M80.99,93.96c0-2.81-2.29-5.1-5.1-5.1s-5.1,2.29-5.1,5.1v15.86c0,2.81,2.29,5.1,5.1,5.1s5.1-2.29,5.1-5.1v-15.86Z"/>
          <path class="cls-11" d="M80.64,95.68c0-2.64-2.11-4.75-4.75-4.75s-4.75,2.11-4.75,4.75v14.49c0,2.64,2.11,4.75,4.75,4.75s4.75-2.11,4.75-4.75v-14.49Z"/>
          <path class="cls-1" d="M76.07,86.79c1.16,0,2.11-.46,2.11-1.05,0-.56-.95-1.05-2.11-1.05s-2.11,.46-2.11,1.05c0,.56,.95,1.05,2.11,1.05Z"/>
          <path class="cls-1" d="M73.96,88.61c1.37-.46,2.43-1.3,2.36-1.86s-1.27-.63-2.67-.18c-1.37,.46-2.43,1.3-2.36,1.86,.11,.56,1.3,.67,2.67,.18Z"/>
          <path class="cls-1" d="M77.86,88.61c1.37,.46,2.57,.39,2.67-.18,.07-.56-.95-1.41-2.36-1.86s-2.57-.39-2.67,.18c-.07,.56,.98,1.41,2.36,1.86Z"/>
          <path class="cls-6" d="M75.72,90.94h.35v14.59h-.35v-14.59Z"/>
          <path class="cls-6" d="M80.64,95.65h-9.49v1.05h9.49v-1.05Z"/>
        </g>
        <path class="cls-6" d="M92.77,95.12c3.02,0,5.45-2.57,5.45-5.73s-2.43-5.73-5.45-5.73-5.45,2.57-5.45,5.73,2.43,5.73,5.45,5.73Z"/>
        <g>
          <path class="cls-6" d="M98.93,88.86h-12.31v13.57h12.31v-13.57Z"/>
          <path class="cls-9" d="M97.87,93.96c0-2.81-2.29-5.1-5.1-5.1s-5.1,2.29-5.1,5.1v15.86c0,2.81,2.29,5.1,5.1,5.1s5.1-2.29,5.1-5.1v-15.86Z"/>
          <path class="cls-11" d="M97.52,95.68c0-2.64-2.11-4.75-4.75-4.75s-4.75,2.11-4.75,4.75v14.49c0,2.64,2.11,4.75,4.75,4.75s4.75-2.11,4.75-4.75v-14.49Z"/>
          <path class="cls-1" d="M92.95,86.79c1.16,0,2.11-.46,2.11-1.05,0-.56-.95-1.05-2.11-1.05s-2.11,.46-2.11,1.05c0,.56,.95,1.05,2.11,1.05Z"/>
          <path class="cls-1" d="M90.84,88.61c1.37-.46,2.43-1.3,2.36-1.86-.07-.56-1.27-.63-2.67-.18-1.37,.46-2.43,1.3-2.36,1.86,.11,.56,1.3,.67,2.67,.18Z"/>
          <path class="cls-1" d="M94.74,88.61c1.37,.46,2.57,.39,2.67-.18,.07-.56-.95-1.41-2.36-1.86s-2.57-.39-2.67,.18c-.07,.56,.98,1.41,2.36,1.86Z"/>
          <path class="cls-6" d="M92.6,90.94h.35v14.59h-.35v-14.59Z"/>
          <path class="cls-6" d="M97.52,95.65h-9.49v1.05h9.49v-1.05Z"/>
        </g>
        <path class="cls-6" d="M216.55,93.71c3.02,0,5.45-2.57,5.45-5.73s-2.43-5.73-5.45-5.73-5.45,2.57-5.45,5.73,2.43,5.73,5.45,5.73Z"/>
        <g>
          <path class="cls-6" d="M222.71,87.45h-12.31v13.57h12.31v-13.57Z"/>
          <path class="cls-9" d="M221.65,92.55c0-2.81-2.29-5.1-5.1-5.1s-5.1,2.29-5.1,5.1v15.86c0,2.81,2.29,5.1,5.1,5.1s5.1-2.29,5.1-5.1v-15.86Z"/>
          <path class="cls-11" d="M221.3,94.28c0-2.64-2.11-4.75-4.75-4.75s-4.75,2.11-4.75,4.75v14.49c0,2.64,2.11,4.75,4.75,4.75s4.75-2.11,4.75-4.75v-14.49Z"/>
          <path class="cls-1" d="M216.73,85.38c1.16,0,2.11-.46,2.11-1.05,0-.56-.95-1.05-2.11-1.05s-2.11,.46-2.11,1.05c0,.56,.95,1.05,2.11,1.05Z"/>
          <path class="cls-1" d="M214.62,87.21c1.37-.46,2.43-1.3,2.36-1.86s-1.27-.63-2.67-.18-2.43,1.3-2.36,1.86c.11,.56,1.3,.67,2.67,.18Z"/>
          <path class="cls-1" d="M218.52,87.21c1.37,.46,2.57,.39,2.67-.18,.07-.56-.95-1.41-2.36-1.86s-2.57-.39-2.67,.18c-.07,.56,.98,1.41,2.36,1.86Z"/>
          <path class="cls-6" d="M216.38,89.53h.35v14.59h-.35v-14.59Z"/>
          <path class="cls-6" d="M221.3,94.24h-9.49v1.05h9.49v-1.05Z"/>
        </g>
        <path class="cls-6" d="M232.02,93.71c3.02,0,5.45-2.57,5.45-5.73s-2.43-5.73-5.45-5.73-5.45,2.57-5.45,5.73,2.43,5.73,5.45,5.73Z"/>
        <g>
          <path class="cls-6" d="M238.18,87.45h-12.31v13.57h12.31v-13.57Z"/>
          <path class="cls-9" d="M237.12,92.55c0-2.81-2.29-5.1-5.1-5.1s-5.1,2.29-5.1,5.1v15.86c0,2.81,2.29,5.1,5.1,5.1s5.1-2.29,5.1-5.1v-15.86Z"/>
          <path class="cls-11" d="M236.77,94.28c0-2.64-2.11-4.75-4.75-4.75s-4.75,2.11-4.75,4.75v14.49c0,2.64,2.11,4.75,4.75,4.75s4.75-2.11,4.75-4.75v-14.49Z"/>
          <path class="cls-1" d="M232.2,85.38c1.16,0,2.11-.46,2.11-1.05,0-.56-.95-1.05-2.11-1.05s-2.11,.46-2.11,1.05c0,.56,.95,1.05,2.11,1.05Z"/>
          <path class="cls-1" d="M230.09,87.21c1.37-.46,2.43-1.3,2.36-1.86s-1.27-.63-2.67-.18-2.43,1.3-2.36,1.86c.11,.56,1.3,.67,2.67,.18Z"/>
          <path class="cls-1" d="M233.99,87.21c1.37,.46,2.57,.39,2.67-.18,.07-.56-.95-1.41-2.36-1.86s-2.57-.39-2.67,.18c-.07,.56,.98,1.41,2.36,1.86Z"/>
          <path class="cls-6" d="M231.85,89.53h.35v14.59h-.35v-14.59Z"/>
          <path class="cls-6" d="M236.77,94.24h-9.49v1.05h9.49v-1.05Z"/>
        </g>
        <path class="cls-6" d="M249.61,93.71c3.02,0,5.45-2.57,5.45-5.73s-2.43-5.73-5.45-5.73-5.45,2.57-5.45,5.73,2.43,5.73,5.45,5.73Z"/>
        <g>
          <path class="cls-6" d="M255.76,87.45h-12.31v13.57h12.31v-13.57Z"/>
          <path class="cls-9" d="M254.7,92.55c0-2.81-2.29-5.1-5.1-5.1s-5.1,2.29-5.1,5.1v15.86c0,2.81,2.29,5.1,5.1,5.1s5.1-2.29,5.1-5.1v-15.86Z"/>
          <path class="cls-11" d="M254.35,94.28c0-2.64-2.11-4.75-4.75-4.75s-4.75,2.11-4.75,4.75v14.49c0,2.64,2.11,4.75,4.75,4.75s4.75-2.11,4.75-4.75v-14.49Z"/>
          <path class="cls-1" d="M249.78,85.38c1.16,0,2.11-.46,2.11-1.05,0-.56-.95-1.05-2.11-1.05s-2.11,.46-2.11,1.05c0,.56,.95,1.05,2.11,1.05Z"/>
          <path class="cls-1" d="M247.67,87.21c1.37-.46,2.43-1.3,2.36-1.86s-1.27-.63-2.67-.18-2.43,1.3-2.36,1.86c.11,.56,1.3,.67,2.67,.18Z"/>
          <path class="cls-1" d="M251.58,87.21c1.37,.46,2.57,.39,2.67-.18,.07-.56-.95-1.41-2.36-1.86s-2.57-.39-2.67,.18c-.07,.56,.98,1.41,2.36,1.86Z"/>
          <path class="cls-6" d="M249.43,89.53h.35v14.59h-.35v-14.59Z"/>
          <path class="cls-6" d="M254.35,94.24h-9.49v1.05h9.49v-1.05Z"/>
        </g>
        <path class="cls-6" d="M271.41,93.71c3.02,0,5.45-2.57,5.45-5.73s-2.43-5.73-5.45-5.73-5.45,2.57-5.45,5.73,2.43,5.73,5.45,5.73Z"/>
        <g>
          <path class="cls-6" d="M277.56,87.45h-12.31v13.57h12.31v-13.57Z"/>
          <path class="cls-9" d="M276.51,92.55c0-2.81-2.29-5.1-5.1-5.1s-5.1,2.29-5.1,5.1v15.86c0,2.81,2.29,5.1,5.1,5.1s5.1-2.29,5.1-5.1v-15.86Z"/>
          <path class="cls-11" d="M276.16,94.28c0-2.64-2.11-4.75-4.75-4.75s-4.75,2.11-4.75,4.75v14.49c0,2.64,2.11,4.75,4.75,4.75s4.75-2.11,4.75-4.75v-14.49Z"/>
          <path class="cls-1" d="M271.58,85.38c1.16,0,2.11-.46,2.11-1.05,0-.56-.95-1.05-2.11-1.05s-2.11,.46-2.11,1.05c0,.56,.95,1.05,2.11,1.05Z"/>
          <path class="cls-1" d="M269.47,87.21c1.37-.46,2.43-1.3,2.36-1.86s-1.27-.63-2.67-.18-2.43,1.3-2.36,1.86c.11,.56,1.3,.67,2.67,.18Z"/>
          <path class="cls-1" d="M273.38,87.21c1.37,.46,2.57,.39,2.67-.18,.07-.56-.95-1.41-2.36-1.86s-2.57-.39-2.67,.18c-.07,.56,.98,1.41,2.36,1.86Z"/>
          <path class="cls-6" d="M271.23,89.53h.35v14.59h-.35v-14.59Z"/>
          <path class="cls-6" d="M276.16,94.24h-9.49v1.05h9.49v-1.05Z"/>
        </g>
        <path class="cls-6" d="M293.91,93.71c3.02,0,5.45-2.57,5.45-5.73s-2.43-5.73-5.45-5.73-5.45,2.57-5.45,5.73,2.43,5.73,5.45,5.73Z"/>
        <g>
          <path class="cls-6" d="M300.07,87.45h-12.31v13.57h12.31v-13.57Z"/>
          <path class="cls-9" d="M299.01,92.55c0-2.81-2.29-5.1-5.1-5.1s-5.1,2.29-5.1,5.1v15.86c0,2.81,2.29,5.1,5.1,5.1s5.1-2.29,5.1-5.1v-15.86Z"/>
          <path class="cls-11" d="M298.66,94.28c0-2.64-2.11-4.75-4.75-4.75s-4.75,2.11-4.75,4.75v14.49c0,2.64,2.11,4.75,4.75,4.75s4.75-2.11,4.75-4.75v-14.49Z"/>
          <path class="cls-1" d="M294.09,85.38c1.16,0,2.11-.46,2.11-1.05,0-.56-.95-1.05-2.11-1.05s-2.11,.46-2.11,1.05c0,.56,.95,1.05,2.11,1.05Z"/>
          <path class="cls-1" d="M291.98,87.21c1.37-.46,2.43-1.3,2.36-1.86s-1.27-.63-2.67-.18-2.43,1.3-2.36,1.86c.11,.56,1.3,.67,2.67,.18Z"/>
          <path class="cls-1" d="M295.88,87.21c1.37,.46,2.57,.39,2.67-.18,.07-.56-.95-1.41-2.36-1.86s-2.57-.39-2.67,.18c-.07,.56,.98,1.41,2.36,1.86Z"/>
          <path class="cls-6" d="M293.74,89.53h.35v14.59h-.35v-14.59Z"/>
          <path class="cls-6" d="M298.66,94.24h-9.49v1.05h9.49v-1.05Z"/>
        </g>
        <path class="cls-6" d="M14.71,30.24c3.02,0,5.45-1.72,5.45-3.87s-2.43-3.87-5.45-3.87-5.45,1.72-5.45,3.87,2.43,3.87,5.45,3.87Z"/>
        <path class="cls-6" d="M14.88,40.09c2.32,0,4.22-.63,4.22-1.41s-1.9-1.41-4.22-1.41-4.22,.63-4.22,1.41,1.9,1.41,4.22,1.41Z"/>
        <g>
          <path class="cls-6" d="M20.86,26.02H8.55v9.14h12.31v-9.14Z"/>
          <path class="cls-9" d="M19.81,31.12c0-2.81-2.29-5.1-5.1-5.1s-5.1,2.29-5.1,5.1v7.38c0,2.81,2.29,5.1,5.1,5.1s5.1-2.29,5.1-5.1v-7.38Z"/>
          <path class="cls-11" d="M19.45,32.18c0-2.64-2.11-4.75-4.75-4.75s-4.75,2.11-4.75,4.75v6.68c0,2.64,2.11,4.75,4.75,4.75s4.75-2.11,4.75-4.75v-6.68Z"/>
          <path class="cls-6" d="M20.16,37.27H9.26v1.41h10.9v-1.41Z"/>
          <path class="cls-3" d="M14.88,39.38c1.93,0,3.52-.32,3.52-.7s-1.58-.7-3.52-.7-3.52,.32-3.52,.7,1.58,.7,3.52,.7Z"/>
          <path class="cls-1" d="M14.88,24.62c1.16,0,2.11-.32,2.11-.7s-.95-.7-2.11-.7-2.11,.32-2.11,.7,.95,.7,2.11,.7Z"/>
          <path class="cls-1" d="M12.77,25.85c1.37-.32,2.43-.88,2.36-1.27s-1.27-.42-2.67-.11c-1.37,.32-2.43,.88-2.36,1.27,.11,.39,1.3,.42,2.67,.11Z"/>
          <path class="cls-1" d="M16.68,25.85c1.37,.32,2.57,.28,2.67-.11,.07-.39-.95-.95-2.36-1.27-1.37-.32-2.57-.28-2.67,.11-.07,.39,.98,.95,2.36,1.27Z"/>
          <path class="cls-6" d="M14.53,27.43h.35v9.85h-.35v-9.85Z"/>
          <path class="cls-6" d="M19.45,32.35H9.96v.7h9.49v-.7Z"/>
        </g>
        <path class="cls-6" d="M36.51,30.24c3.02,0,5.45-1.72,5.45-3.87s-2.43-3.87-5.45-3.87-5.45,1.72-5.45,3.87,2.43,3.87,5.45,3.87Z"/>
        <path class="cls-6" d="M36.69,40.09c2.32,0,4.22-.63,4.22-1.41s-1.9-1.41-4.22-1.41-4.22,.63-4.22,1.41,1.9,1.41,4.22,1.41Z"/>
        <g>
          <path class="cls-6" d="M42.66,26.02h-12.31v9.14h12.31v-9.14Z"/>
          <path class="cls-9" d="M41.61,31.12c0-2.81-2.29-5.1-5.1-5.1s-5.1,2.29-5.1,5.1v7.38c0,2.81,2.29,5.1,5.1,5.1s5.1-2.29,5.1-5.1v-7.38Z"/>
          <path class="cls-11" d="M41.26,32.18c0-2.64-2.11-4.75-4.75-4.75s-4.75,2.11-4.75,4.75v6.68c0,2.64,2.11,4.75,4.75,4.75s4.75-2.11,4.75-4.75v-6.68Z"/>
          <path class="cls-6" d="M41.96,37.27h-10.9v1.41h10.9v-1.41Z"/>
          <path class="cls-3" d="M36.69,39.38c1.93,0,3.52-.32,3.52-.7s-1.58-.7-3.52-.7-3.52,.32-3.52,.7,1.58,.7,3.52,.7Z"/>
          <path class="cls-1" d="M36.69,24.62c1.16,0,2.11-.32,2.11-.7s-.95-.7-2.11-.7-2.11,.32-2.11,.7,.95,.7,2.11,.7Z"/>
          <path class="cls-1" d="M34.58,25.85c1.37-.32,2.43-.88,2.36-1.27-.07-.39-1.27-.42-2.67-.11-1.37,.32-2.43,.88-2.36,1.27,.11,.39,1.3,.42,2.67,.11Z"/>
          <path class="cls-1" d="M38.48,25.85c1.37,.32,2.57,.28,2.67-.11,.07-.39-.95-.95-2.36-1.27-1.37-.32-2.57-.28-2.67,.11-.07,.39,.98,.95,2.36,1.27Z"/>
          <path class="cls-6" d="M36.33,27.43h.35v9.85h-.35v-9.85Z"/>
          <path class="cls-6" d="M41.26,32.35h-9.49v.7h9.49v-.7Z"/>
        </g>
        <path class="cls-6" d="M59.72,30.24c3.02,0,5.45-1.72,5.45-3.87s-2.43-3.87-5.45-3.87-5.45,1.72-5.45,3.87,2.43,3.87,5.45,3.87Z"/>
        <path class="cls-6" d="M59.89,40.09c2.32,0,4.22-.63,4.22-1.41s-1.9-1.41-4.22-1.41-4.22,.63-4.22,1.41,1.9,1.41,4.22,1.41Z"/>
        <g>
          <path class="cls-6" d="M65.87,26.02h-12.31v9.14h12.31v-9.14Z"/>
          <path class="cls-9" d="M64.82,31.12c0-2.81-2.29-5.1-5.1-5.1s-5.1,2.29-5.1,5.1v7.38c0,2.81,2.29,5.1,5.1,5.1s5.1-2.29,5.1-5.1v-7.38Z"/>
          <path class="cls-11" d="M64.47,32.18c0-2.64-2.11-4.75-4.75-4.75s-4.75,2.11-4.75,4.75v6.68c0,2.64,2.11,4.75,4.75,4.75s4.75-2.11,4.75-4.75v-6.68Z"/>
          <path class="cls-6" d="M65.17,37.27h-10.9v1.41h10.9v-1.41Z"/>
          <path class="cls-3" d="M59.89,39.38c1.93,0,3.52-.32,3.52-.7s-1.58-.7-3.52-.7-3.52,.32-3.52,.7,1.58,.7,3.52,.7Z"/>
          <path class="cls-1" d="M59.89,24.62c1.16,0,2.11-.32,2.11-.7s-.95-.7-2.11-.7-2.11,.32-2.11,.7,.95,.7,2.11,.7Z"/>
          <path class="cls-1" d="M57.78,25.85c1.37-.32,2.43-.88,2.36-1.27s-1.27-.42-2.67-.11c-1.37,.32-2.43,.88-2.36,1.27,.11,.39,1.3,.42,2.67,.11Z"/>
          <path class="cls-1" d="M61.69,25.85c1.37,.32,2.57,.28,2.67-.11,.07-.39-.95-.95-2.36-1.27-1.37-.32-2.57-.28-2.67,.11-.07,.39,.98,.95,2.36,1.27Z"/>
          <path class="cls-6" d="M59.54,27.43h.35v9.85h-.35v-9.85Z"/>
          <path class="cls-6" d="M64.47,32.35h-9.49v.7h9.49v-.7Z"/>
        </g>
        <path class="cls-6" d="M75.89,30.24c3.02,0,5.45-1.72,5.45-3.87s-2.43-3.87-5.45-3.87-5.45,1.72-5.45,3.87,2.43,3.87,5.45,3.87Z"/>
        <path class="cls-6" d="M76.07,40.09c2.32,0,4.22-.63,4.22-1.41s-1.9-1.41-4.22-1.41-4.22,.63-4.22,1.41,1.9,1.41,4.22,1.41Z"/>
        <g>
          <path class="cls-6" d="M82.05,26.02h-12.31v9.14h12.31v-9.14Z"/>
          <path class="cls-9" d="M80.99,31.12c0-2.81-2.29-5.1-5.1-5.1s-5.1,2.29-5.1,5.1v7.38c0,2.81,2.29,5.1,5.1,5.1s5.1-2.29,5.1-5.1v-7.38Z"/>
          <path class="cls-11" d="M80.64,32.18c0-2.64-2.11-4.75-4.75-4.75s-4.75,2.11-4.75,4.75v6.68c0,2.64,2.11,4.75,4.75,4.75s4.75-2.11,4.75-4.75v-6.68Z"/>
          <path class="cls-6" d="M81.34,37.27h-10.9v1.41h10.9v-1.41Z"/>
          <path class="cls-3" d="M76.07,39.38c1.93,0,3.52-.32,3.52-.7s-1.58-.7-3.52-.7-3.52,.32-3.52,.7,1.58,.7,3.52,.7Z"/>
          <path class="cls-1" d="M76.07,24.62c1.16,0,2.11-.32,2.11-.7s-.95-.7-2.11-.7-2.11,.32-2.11,.7,.95,.7,2.11,.7Z"/>
          <path class="cls-1" d="M73.96,25.85c1.37-.32,2.43-.88,2.36-1.27s-1.27-.42-2.67-.11c-1.37,.32-2.43,.88-2.36,1.27,.11,.39,1.3,.42,2.67,.11Z"/>
          <path class="cls-1" d="M77.86,25.85c1.37,.32,2.57,.28,2.67-.11,.07-.39-.95-.95-2.36-1.27-1.37-.32-2.57-.28-2.67,.11-.07,.39,.98,.95,2.36,1.27Z"/>
          <path class="cls-6" d="M75.72,27.43h.35v9.85h-.35v-9.85Z"/>
          <path class="cls-6" d="M80.64,32.35h-9.49v.7h9.49v-.7Z"/>
        </g>
        <path class="cls-6" d="M92.77,30.24c3.02,0,5.45-1.72,5.45-3.87s-2.43-3.87-5.45-3.87-5.45,1.72-5.45,3.87,2.43,3.87,5.45,3.87Z"/>
        <path class="cls-6" d="M92.95,40.09c2.32,0,4.22-.63,4.22-1.41s-1.9-1.41-4.22-1.41-4.22,.63-4.22,1.41,1.9,1.41,4.22,1.41Z"/>
        <g>
          <path class="cls-6" d="M98.93,26.02h-12.31v9.14h12.31v-9.14Z"/>
          <path class="cls-9" d="M97.87,31.12c0-2.81-2.29-5.1-5.1-5.1s-5.1,2.29-5.1,5.1v7.38c0,2.81,2.29,5.1,5.1,5.1s5.1-2.29,5.1-5.1v-7.38Z"/>
          <path class="cls-11" d="M97.52,32.18c0-2.64-2.11-4.75-4.75-4.75s-4.75,2.11-4.75,4.75v6.68c0,2.64,2.11,4.75,4.75,4.75s4.75-2.11,4.75-4.75v-6.68Z"/>
          <path class="cls-6" d="M98.22,37.27h-10.9v1.41h10.9v-1.41Z"/>
          <path class="cls-3" d="M92.95,39.38c1.93,0,3.52-.32,3.52-.7s-1.58-.7-3.52-.7-3.52,.32-3.52,.7,1.58,.7,3.52,.7Z"/>
          <path class="cls-1" d="M92.95,24.62c1.16,0,2.11-.32,2.11-.7s-.95-.7-2.11-.7-2.11,.32-2.11,.7,.95,.7,2.11,.7Z"/>
          <path class="cls-1" d="M90.84,25.85c1.37-.32,2.43-.88,2.36-1.27-.07-.39-1.27-.42-2.67-.11-1.37,.32-2.43,.88-2.36,1.27,.11,.39,1.3,.42,2.67,.11Z"/>
          <path class="cls-1" d="M94.74,25.85c1.37,.32,2.57,.28,2.67-.11,.07-.39-.95-.95-2.36-1.27-1.37-.32-2.57-.28-2.67,.11-.07,.39,.98,.95,2.36,1.27Z"/>
          <path class="cls-6" d="M92.6,27.43h.35v9.85h-.35v-9.85Z"/>
          <path class="cls-6" d="M97.52,32.35h-9.49v.7h9.49v-.7Z"/>
        </g>
        <path class="cls-6" d="M120.9,30.24c3.02,0,5.45-1.72,5.45-3.87s-2.43-3.87-5.45-3.87-5.45,1.72-5.45,3.87,2.43,3.87,5.45,3.87Z"/>
        <path class="cls-6" d="M121.08,40.09c2.32,0,4.22-.63,4.22-1.41s-1.9-1.41-4.22-1.41-4.22,.63-4.22,1.41,1.9,1.41,4.22,1.41Z"/>
        <g>
          <path class="cls-6" d="M127.06,26.02h-12.31v9.14h12.31v-9.14Z"/>
          <path class="cls-9" d="M126,31.12c0-2.81-2.29-5.1-5.1-5.1s-5.1,2.29-5.1,5.1v7.38c0,2.81,2.29,5.1,5.1,5.1s5.1-2.29,5.1-5.1v-7.38Z"/>
          <path class="cls-11" d="M125.65,32.18c0-2.64-2.11-4.75-4.75-4.75s-4.75,2.11-4.75,4.75v6.68c0,2.64,2.11,4.75,4.75,4.75s4.75-2.11,4.75-4.75v-6.68Z"/>
          <path class="cls-6" d="M126.35,37.27h-10.9v1.41h10.9v-1.41Z"/>
          <path class="cls-3" d="M121.08,39.38c1.93,0,3.52-.32,3.52-.7s-1.58-.7-3.52-.7-3.52,.32-3.52,.7,1.58,.7,3.52,.7Z"/>
          <path class="cls-1" d="M121.08,24.62c1.16,0,2.11-.32,2.11-.7s-.95-.7-2.11-.7-2.11,.32-2.11,.7,.95,.7,2.11,.7Z"/>
          <path class="cls-1" d="M118.97,25.85c1.37-.32,2.43-.88,2.36-1.27-.07-.39-1.27-.42-2.67-.11-1.37,.32-2.43,.88-2.36,1.27,.11,.39,1.3,.42,2.67,.11Z"/>
          <path class="cls-1" d="M122.87,25.85c1.37,.32,2.57,.28,2.67-.11,.07-.39-.95-.95-2.36-1.27-1.37-.32-2.57-.28-2.67,.11-.07,.39,.98,.95,2.36,1.27Z"/>
          <path class="cls-6" d="M120.73,27.43h.35v9.85h-.35v-9.85Z"/>
          <path class="cls-6" d="M125.65,32.35h-9.49v.7h9.49v-.7Z"/>
        </g>
        <path class="cls-6" d="M142.71,29.54c3.02,0,5.45-1.72,5.45-3.87s-2.43-3.87-5.45-3.87-5.45,1.72-5.45,3.87,2.43,3.87,5.45,3.87Z"/>
        <path class="cls-6" d="M142.88,39.38c2.32,0,4.22-.63,4.22-1.41s-1.9-1.41-4.22-1.41-4.22,.63-4.22,1.41,1.9,1.41,4.22,1.41Z"/>
        <g>
          <path class="cls-6" d="M148.86,25.32h-12.31v9.14h12.31v-9.14Z"/>
          <path class="cls-9" d="M147.8,30.42c0-2.81-2.29-5.1-5.1-5.1s-5.1,2.29-5.1,5.1v7.38c0,2.81,2.29,5.1,5.1,5.1s5.1-2.29,5.1-5.1v-7.38Z"/>
          <path class="cls-11" d="M147.45,31.47c0-2.64-2.11-4.75-4.75-4.75s-4.75,2.11-4.75,4.75v6.68c0,2.64,2.11,4.75,4.75,4.75s4.75-2.11,4.75-4.75v-6.68Z"/>
          <path class="cls-6" d="M148.16,36.57h-10.9v1.41h10.9v-1.41Z"/>
          <path class="cls-3" d="M142.88,38.68c1.93,0,3.52-.32,3.52-.7s-1.58-.7-3.52-.7-3.52,.32-3.52,.7,1.58,.7,3.52,.7Z"/>
          <path class="cls-1" d="M142.88,23.91c1.16,0,2.11-.32,2.11-.7s-.95-.7-2.11-.7-2.11,.32-2.11,.7,.95,.7,2.11,.7Z"/>
          <path class="cls-1" d="M140.77,25.14c1.37-.32,2.43-.88,2.36-1.27-.07-.39-1.27-.42-2.67-.11-1.37,.32-2.43,.88-2.36,1.27,.11,.39,1.3,.42,2.67,.11Z"/>
          <path class="cls-1" d="M144.68,25.14c1.37,.32,2.57,.28,2.67-.11,.07-.39-.95-.95-2.36-1.27-1.37-.32-2.57-.28-2.67,.11-.07,.39,.98,.95,2.36,1.27Z"/>
          <path class="cls-6" d="M142.53,26.73h.35v9.85h-.35v-9.85Z"/>
          <path class="cls-6" d="M147.45,31.65h-9.49v.7h9.49v-.7Z"/>
        </g>
        <path class="cls-6" d="M165.91,29.54c3.02,0,5.45-1.72,5.45-3.87s-2.43-3.87-5.45-3.87-5.45,1.72-5.45,3.87,2.43,3.87,5.45,3.87Z"/>
        <path class="cls-6" d="M166.09,39.38c2.32,0,4.22-.63,4.22-1.41s-1.9-1.41-4.22-1.41-4.22,.63-4.22,1.41,1.9,1.41,4.22,1.41Z"/>
        <g>
          <path class="cls-6" d="M172.07,25.32h-12.31v9.14h12.31v-9.14Z"/>
          <path class="cls-9" d="M171.01,30.42c0-2.81-2.29-5.1-5.1-5.1s-5.1,2.29-5.1,5.1v7.38c0,2.81,2.29,5.1,5.1,5.1s5.1-2.29,5.1-5.1v-7.38Z"/>
          <path class="cls-11" d="M170.66,31.47c0-2.64-2.11-4.75-4.75-4.75s-4.75,2.11-4.75,4.75v6.68c0,2.64,2.11,4.75,4.75,4.75s4.75-2.11,4.75-4.75v-6.68Z"/>
          <path class="cls-6" d="M171.37,36.57h-10.9v1.41h10.9v-1.41Z"/>
          <path class="cls-3" d="M166.09,38.68c1.93,0,3.52-.32,3.52-.7s-1.58-.7-3.52-.7-3.52,.32-3.52,.7,1.58,.7,3.52,.7Z"/>
          <path class="cls-1" d="M166.09,23.91c1.16,0,2.11-.32,2.11-.7s-.95-.7-2.11-.7-2.11,.32-2.11,.7,.95,.7,2.11,.7Z"/>
          <path class="cls-1" d="M163.98,25.14c1.37-.32,2.43-.88,2.36-1.27-.07-.39-1.27-.42-2.67-.11-1.37,.32-2.43,.88-2.36,1.27,.11,.39,1.3,.42,2.67,.11Z"/>
          <path class="cls-1" d="M167.88,25.14c1.37,.32,2.57,.28,2.67-.11,.07-.39-.95-.95-2.36-1.27-1.37-.32-2.57-.28-2.67,.11-.07,.39,.98,.95,2.36,1.27Z"/>
          <path class="cls-6" d="M165.74,26.73h.35v9.85h-.35v-9.85Z"/>
          <path class="cls-6" d="M170.66,31.65h-9.49v.7h9.49v-.7Z"/>
        </g>
        <path class="cls-6" d="M187.36,29.54c3.02,0,5.45-1.72,5.45-3.87s-2.43-3.87-5.45-3.87-5.45,1.72-5.45,3.87,2.43,3.87,5.45,3.87Z"/>
        <path class="cls-6" d="M187.54,39.38c2.32,0,4.22-.63,4.22-1.41s-1.9-1.41-4.22-1.41-4.22,.63-4.22,1.41,1.9,1.41,4.22,1.41Z"/>
        <g>
          <path class="cls-6" d="M193.52,25.32h-12.31v9.14h12.31v-9.14Z"/>
          <path class="cls-9" d="M192.46,30.42c0-2.81-2.29-5.1-5.1-5.1s-5.1,2.29-5.1,5.1v7.38c0,2.81,2.29,5.1,5.1,5.1s5.1-2.29,5.1-5.1v-7.38Z"/>
          <path class="cls-11" d="M192.11,31.47c0-2.64-2.11-4.75-4.75-4.75s-4.75,2.11-4.75,4.75v6.68c0,2.64,2.11,4.75,4.75,4.75s4.75-2.11,4.75-4.75v-6.68Z"/>
          <path class="cls-6" d="M192.82,36.57h-10.9v1.41h10.9v-1.41Z"/>
          <path class="cls-3" d="M187.54,38.68c1.93,0,3.52-.32,3.52-.7s-1.58-.7-3.52-.7-3.52,.32-3.52,.7,1.58,.7,3.52,.7Z"/>
          <path class="cls-1" d="M187.54,23.91c1.16,0,2.11-.32,2.11-.7s-.95-.7-2.11-.7-2.11,.32-2.11,.7,.95,.7,2.11,.7Z"/>
          <path class="cls-1" d="M185.43,25.14c1.37-.32,2.43-.88,2.36-1.27s-1.27-.42-2.67-.11c-1.37,.32-2.43,.88-2.36,1.27,.11,.39,1.3,.42,2.67,.11Z"/>
          <path class="cls-1" d="M189.33,25.14c1.37,.32,2.57,.28,2.67-.11,.07-.39-.95-.95-2.36-1.27-1.37-.32-2.57-.28-2.67,.11-.07,.39,.98,.95,2.36,1.27Z"/>
          <path class="cls-6" d="M187.19,26.73h.35v9.85h-.35v-9.85Z"/>
          <path class="cls-6" d="M192.11,31.65h-9.49v.7h9.49v-.7Z"/>
        </g>
        <path class="cls-6" d="M216.55,29.54c3.02,0,5.45-1.72,5.45-3.87s-2.43-3.87-5.45-3.87-5.45,1.72-5.45,3.87,2.43,3.87,5.45,3.87Z"/>
        <path class="cls-6" d="M216.73,39.38c2.32,0,4.22-.63,4.22-1.41s-1.9-1.41-4.22-1.41-4.22,.63-4.22,1.41,1.9,1.41,4.22,1.41Z"/>
        <g>
          <path class="cls-6" d="M222.71,25.32h-12.31v9.14h12.31v-9.14Z"/>
          <path class="cls-9" d="M221.65,30.42c0-2.81-2.29-5.1-5.1-5.1s-5.1,2.29-5.1,5.1v7.38c0,2.81,2.29,5.1,5.1,5.1s5.1-2.29,5.1-5.1v-7.38Z"/>
          <path class="cls-11" d="M221.3,31.47c0-2.64-2.11-4.75-4.75-4.75s-4.75,2.11-4.75,4.75v6.68c0,2.64,2.11,4.75,4.75,4.75s4.75-2.11,4.75-4.75v-6.68Z"/>
          <path class="cls-6" d="M222,36.57h-10.9v1.41h10.9v-1.41Z"/>
          <path class="cls-3" d="M216.73,38.68c1.93,0,3.52-.32,3.52-.7s-1.58-.7-3.52-.7-3.52,.32-3.52,.7,1.58,.7,3.52,.7Z"/>
          <path class="cls-1" d="M216.73,23.91c1.16,0,2.11-.32,2.11-.7s-.95-.7-2.11-.7-2.11,.32-2.11,.7,.95,.7,2.11,.7Z"/>
          <path class="cls-1" d="M214.62,25.14c1.37-.32,2.43-.88,2.36-1.27s-1.27-.42-2.67-.11c-1.37,.32-2.43,.88-2.36,1.27,.11,.39,1.3,.42,2.67,.11Z"/>
          <path class="cls-1" d="M218.52,25.14c1.37,.32,2.57,.28,2.67-.11,.07-.39-.95-.95-2.36-1.27-1.37-.32-2.57-.28-2.67,.11-.07,.39,.98,.95,2.36,1.27Z"/>
          <path class="cls-6" d="M216.38,26.73h.35v9.85h-.35v-9.85Z"/>
          <path class="cls-6" d="M221.3,31.65h-9.49v.7h9.49v-.7Z"/>
        </g>
        <path class="cls-6" d="M232.73,29.54c3.02,0,5.45-1.72,5.45-3.87s-2.43-3.87-5.45-3.87-5.45,1.72-5.45,3.87,2.43,3.87,5.45,3.87Z"/>
        <path class="cls-6" d="M232.9,39.38c2.32,0,4.22-.63,4.22-1.41s-1.9-1.41-4.22-1.41-4.22,.63-4.22,1.41,1.9,1.41,4.22,1.41Z"/>
        <g>
          <path class="cls-6" d="M238.88,25.32h-12.31v9.14h12.31v-9.14Z"/>
          <path class="cls-9" d="M237.83,30.42c0-2.81-2.29-5.1-5.1-5.1s-5.1,2.29-5.1,5.1v7.38c0,2.81,2.29,5.1,5.1,5.1s5.1-2.29,5.1-5.1v-7.38Z"/>
          <path class="cls-11" d="M237.47,31.47c0-2.64-2.11-4.75-4.75-4.75s-4.75,2.11-4.75,4.75v6.68c0,2.64,2.11,4.75,4.75,4.75s4.75-2.11,4.75-4.75v-6.68Z"/>
          <path class="cls-6" d="M238.18,36.57h-10.9v1.41h10.9v-1.41Z"/>
          <path class="cls-3" d="M232.9,38.68c1.93,0,3.52-.32,3.52-.7s-1.58-.7-3.52-.7-3.52,.32-3.52,.7,1.58,.7,3.52,.7Z"/>
          <path class="cls-1" d="M232.9,23.91c1.16,0,2.11-.32,2.11-.7s-.95-.7-2.11-.7-2.11,.32-2.11,.7,.95,.7,2.11,.7Z"/>
          <path class="cls-1" d="M230.79,25.14c1.37-.32,2.43-.88,2.36-1.27s-1.27-.42-2.67-.11c-1.37,.32-2.43,.88-2.36,1.27,.11,.39,1.3,.42,2.67,.11Z"/>
          <path class="cls-1" d="M234.7,25.14c1.37,.32,2.57,.28,2.67-.11,.07-.39-.95-.95-2.36-1.27-1.37-.32-2.57-.28-2.67,.11-.07,.39,.98,.95,2.36,1.27Z"/>
          <path class="cls-6" d="M232.55,26.73h.35v9.85h-.35v-9.85Z"/>
          <path class="cls-6" d="M237.47,31.65h-9.49v.7h9.49v-.7Z"/>
        </g>
        <path class="cls-6" d="M248.9,30.24c3.02,0,5.45-1.72,5.45-3.87s-2.43-3.87-5.45-3.87-5.45,1.72-5.45,3.87,2.43,3.87,5.45,3.87Z"/>
        <path class="cls-6" d="M249.08,40.09c2.32,0,4.22-.63,4.22-1.41s-1.9-1.41-4.22-1.41-4.22,.63-4.22,1.41,1.9,1.41,4.22,1.41Z"/>
        <g>
          <path class="cls-6" d="M255.06,26.02h-12.31v9.14h12.31v-9.14Z"/>
          <path class="cls-9" d="M254,31.12c0-2.81-2.29-5.1-5.1-5.1s-5.1,2.29-5.1,5.1v7.38c0,2.81,2.29,5.1,5.1,5.1s5.1-2.29,5.1-5.1v-7.38Z"/>
          <path class="cls-11" d="M253.65,32.18c0-2.64-2.11-4.75-4.75-4.75s-4.75,2.11-4.75,4.75v6.68c0,2.64,2.11,4.75,4.75,4.75s4.75-2.11,4.75-4.75v-6.68Z"/>
          <path class="cls-6" d="M254.35,37.27h-10.9v1.41h10.9v-1.41Z"/>
          <path class="cls-3" d="M249.08,39.38c1.93,0,3.52-.32,3.52-.7s-1.58-.7-3.52-.7-3.52,.32-3.52,.7,1.58,.7,3.52,.7Z"/>
          <path class="cls-1" d="M249.08,24.62c1.16,0,2.11-.32,2.11-.7s-.95-.7-2.11-.7-2.11,.32-2.11,.7,.95,.7,2.11,.7Z"/>
          <path class="cls-1" d="M246.97,25.85c1.37-.32,2.43-.88,2.36-1.27s-1.27-.42-2.67-.11c-1.37,.32-2.43,.88-2.36,1.27,.11,.39,1.3,.42,2.67,.11Z"/>
          <path class="cls-1" d="M250.87,25.85c1.37,.32,2.57,.28,2.67-.11,.07-.39-.95-.95-2.36-1.27-1.37-.32-2.57-.28-2.67,.11-.07,.39,.98,.95,2.36,1.27Z"/>
          <path class="cls-6" d="M248.73,27.43h.35v9.85h-.35v-9.85Z"/>
          <path class="cls-6" d="M253.65,32.35h-9.49v.7h9.49v-.7Z"/>
        </g>
        <path class="cls-6" d="M271.41,30.24c3.02,0,5.45-1.72,5.45-3.87s-2.43-3.87-5.45-3.87-5.45,1.72-5.45,3.87,2.43,3.87,5.45,3.87Z"/>
        <path class="cls-6" d="M271.58,40.09c2.32,0,4.22-.63,4.22-1.41s-1.9-1.41-4.22-1.41-4.22,.63-4.22,1.41,1.9,1.41,4.22,1.41Z"/>
        <g>
          <path class="cls-6" d="M277.56,26.02h-12.31v9.14h12.31v-9.14Z"/>
          <path class="cls-9" d="M276.51,31.12c0-2.81-2.29-5.1-5.1-5.1s-5.1,2.29-5.1,5.1v7.38c0,2.81,2.29,5.1,5.1,5.1s5.1-2.29,5.1-5.1v-7.38Z"/>
          <path class="cls-11" d="M276.16,32.18c0-2.64-2.11-4.75-4.75-4.75s-4.75,2.11-4.75,4.75v6.68c0,2.64,2.11,4.75,4.75,4.75s4.75-2.11,4.75-4.75v-6.68Z"/>
          <path class="cls-6" d="M276.86,37.27h-10.9v1.41h10.9v-1.41Z"/>
          <path class="cls-3" d="M271.58,39.38c1.93,0,3.52-.32,3.52-.7s-1.58-.7-3.52-.7-3.52,.32-3.52,.7,1.58,.7,3.52,.7Z"/>
          <path class="cls-1" d="M271.58,24.62c1.16,0,2.11-.32,2.11-.7s-.95-.7-2.11-.7-2.11,.32-2.11,.7,.95,.7,2.11,.7Z"/>
          <path class="cls-1" d="M269.47,25.85c1.37-.32,2.43-.88,2.36-1.27s-1.27-.42-2.67-.11c-1.37,.32-2.43,.88-2.36,1.27,.11,.39,1.3,.42,2.67,.11Z"/>
          <path class="cls-1" d="M273.38,25.85c1.37,.32,2.57,.28,2.67-.11,.07-.39-.95-.95-2.36-1.27-1.37-.32-2.57-.28-2.67,.11-.07,.39,.98,.95,2.36,1.27Z"/>
          <path class="cls-6" d="M271.23,27.43h.35v9.85h-.35v-9.85Z"/>
          <path class="cls-6" d="M276.16,32.35h-9.49v.7h9.49v-.7Z"/>
        </g>
        <path class="cls-6" d="M293.91,30.24c3.02,0,5.45-1.72,5.45-3.87s-2.43-3.87-5.45-3.87-5.45,1.72-5.45,3.87,2.43,3.87,5.45,3.87Z"/>
        <path class="cls-6" d="M294.09,40.09c2.32,0,4.22-.63,4.22-1.41s-1.9-1.41-4.22-1.41-4.22,.63-4.22,1.41,1.9,1.41,4.22,1.41Z"/>
        <g>
          <path class="cls-6" d="M300.07,26.02h-12.31v9.14h12.31v-9.14Z"/>
          <path class="cls-9" d="M299.01,31.12c0-2.81-2.29-5.1-5.1-5.1s-5.1,2.29-5.1,5.1v7.38c0,2.81,2.29,5.1,5.1,5.1s5.1-2.29,5.1-5.1v-7.38Z"/>
          <path class="cls-11" d="M298.66,32.18c0-2.64-2.11-4.75-4.75-4.75s-4.75,2.11-4.75,4.75v6.68c0,2.64,2.11,4.75,4.75,4.75s4.75-2.11,4.75-4.75v-6.68Z"/>
          <path class="cls-6" d="M299.36,37.27h-10.9v1.41h10.9v-1.41Z"/>
          <path class="cls-3" d="M294.09,39.38c1.93,0,3.52-.32,3.52-.7s-1.58-.7-3.52-.7-3.52,.32-3.52,.7,1.58,.7,3.52,.7Z"/>
          <path class="cls-1" d="M294.09,24.62c1.16,0,2.11-.32,2.11-.7s-.95-.7-2.11-.7-2.11,.32-2.11,.7,.95,.7,2.11,.7Z"/>
          <path class="cls-1" d="M291.98,25.85c1.37-.32,2.43-.88,2.36-1.27s-1.27-.42-2.67-.11c-1.37,.32-2.43,.88-2.36,1.27,.11,.39,1.3,.42,2.67,.11Z"/>
          <path class="cls-1" d="M295.88,25.85c1.37,.32,2.57,.28,2.67-.11,.07-.39-.95-.95-2.36-1.27-1.37-.32-2.57-.28-2.67,.11-.07,.39,.98,.95,2.36,1.27Z"/>
          <path class="cls-6" d="M293.74,27.43h.35v9.85h-.35v-9.85Z"/>
          <path class="cls-6" d="M298.66,32.35h-9.49v.7h9.49v-.7Z"/>
        </g>
        <path class="cls-6" d="M154.84,.7l16.46,7.91h-32.88L154.84,.7Z"/>
        <path class="cls-8" d="M154.49,7.03c1.37,0,2.46-.95,2.46-2.11s-1.09-2.11-2.46-2.11-2.46,.95-2.46,2.11,1.09,2.11,2.46,2.11Z"/>
        <path class="cls-6" d="M8.2,8.44H1.87v5.63h6.33v-5.63Z"/>
        <path class="cls-6" d="M30.36,8.44h-6.33v5.63h6.33v-5.63Z"/>
        <path class="cls-6" d="M51.45,8.44h-6.33v5.63h6.33v-5.63Z"/>
        <path class="cls-6" d="M264.2,8.44h-6.33v5.63h6.33v-5.63Z"/>
        <path class="cls-6" d="M285.65,8.44h-6.33v5.63h6.33v-5.63Z"/>
        <path class="cls-6" d="M307.45,8.44h-6.33v5.63h6.33v-5.63Z"/>
        <path class="cls-6" d="M113.34,8.44h-11.96v5.63h11.96v-5.63Z"/>
        <path class="cls-6" d="M206.88,8.44h-11.96v5.63h11.96v-5.63Z"/>
      </g>
      <path class="cls-1" d="M306.75,80.88h-4.22v2.11h4.22v-2.11Z"/>
    </g>
    <rect class="cls-4" y="103.48" width="308.66" height="13.29"/>
  </g>
  <g>
    <path class="cls-10" d="M44.07,111.16h11.39v2.27h-8.81v17.11h-2.58v-19.38Z"/>
    <path class="cls-10" d="M70.15,123.46c0,1.16-.15,2.2-.45,3.13-.3,.93-.73,1.72-1.29,2.37s-1.25,1.15-2.06,1.5c-.81,.35-1.73,.52-2.76,.52s-1.95-.17-2.76-.52c-.81-.35-1.49-.85-2.06-1.5s-.99-1.44-1.29-2.37c-.3-.93-.45-1.97-.45-3.13s.15-2.17,.45-3.1,.73-1.71,1.29-2.36,1.25-1.15,2.06-1.5c.81-.35,1.73-.52,2.76-.52s1.95,.17,2.76,.52c.81,.35,1.5,.85,2.06,1.5s.99,1.44,1.29,2.36,.45,1.96,.45,3.1Zm-2.43,0c0-.78-.09-1.5-.26-2.16-.18-.65-.44-1.22-.79-1.69s-.78-.85-1.3-1.11c-.51-.27-1.11-.4-1.79-.4s-1.27,.13-1.78,.4c-.51,.27-.94,.64-1.29,1.11s-.62,1.04-.79,1.69c-.18,.66-.26,1.37-.26,2.16s.09,1.52,.26,2.18c.18,.66,.44,1.23,.79,1.71s.78,.85,1.29,1.11c.51,.27,1.1,.4,1.78,.4s1.27-.13,1.79-.4c.51-.27,.95-.64,1.3-1.11s.62-1.04,.79-1.71c.18-.66,.26-1.39,.26-2.18Z"/>
    <path class="cls-10" d="M83.98,125.57c-.04,.34-.1,.72-.2,1.12s-.25,.81-.44,1.21c-.19,.4-.44,.78-.75,1.15-.3,.37-.67,.7-1.11,.98-.43,.29-.95,.51-1.54,.69-.59,.17-1.26,.26-2.02,.26-.41,0-.85-.05-1.31-.15-.46-.1-.9-.27-1.34-.51-.43-.24-.85-.54-1.24-.92-.39-.37-.73-.84-1.03-1.39s-.53-1.2-.71-1.93c-.18-.73-.26-1.58-.26-2.52,0-1.17,.17-2.22,.5-3.16,.33-.94,.78-1.73,1.34-2.38s1.21-1.15,1.95-1.5,1.52-.53,2.34-.53c.74,0,1.39,.08,1.96,.24,.57,.16,1.06,.37,1.48,.63s.78,.57,1.07,.92c.29,.35,.52,.71,.71,1.09,.18,.38,.32,.77,.41,1.17,.09,.4,.15,.77,.18,1.13h-2.27c-.12-.96-.45-1.71-1-2.25-.54-.54-1.3-.82-2.27-.82-.67,0-1.25,.14-1.75,.41-.5,.27-.91,.65-1.24,1.14-.33,.49-.58,1.08-.74,1.77-.16,.69-.24,1.45-.24,2.27,0,.93,.09,1.73,.26,2.41,.18,.67,.43,1.23,.75,1.66,.33,.43,.72,.76,1.19,.96,.47,.21,1,.31,1.6,.31,.42,0,.82-.08,1.2-.23,.38-.15,.72-.38,1.02-.67,.3-.29,.55-.66,.76-1.09s.36-.92,.45-1.46h2.27Z"/>
    <path class="cls-10" d="M84.9,116.42h2.66l3.76,11.5h.05l3.76-11.5h2.66l-5.39,14.69c-.27,.74-.52,1.38-.75,1.93-.23,.54-.45,1.01-.67,1.39-.22,.38-.44,.69-.67,.93-.22,.24-.47,.42-.74,.56-.27,.14-.57,.23-.9,.28-.33,.05-.71,.07-1.14,.07-.35,0-.63-.02-.82-.05-.2-.03-.37-.07-.52-.11v-2.19c.16,.05,.36,.11,.62,.16s.52,.08,.8,.08c.45,0,.81-.11,1.09-.32,.28-.21,.49-.52,.64-.92l.79-1.99-5.23-14.5Z"/>
    <path class="cls-10" d="M111.65,130.54h-10.92v3.45h-2.27v-5.56h1.86c.39-.95,.69-1.92,.92-2.91,.23-.99,.4-1.99,.53-2.99,.12-1.01,.2-2.02,.24-3.04s.05-2.04,.05-3.07h9.86v12.01h1.99v5.56h-2.27v-3.45Zm-2.15-2.11v-9.9h-5.12c-.06,.8-.13,1.62-.19,2.46-.07,.84-.15,1.69-.26,2.54-.11,.85-.26,1.69-.44,2.51-.18,.83-.42,1.62-.71,2.39h6.71Z"/>
    <path class="cls-10" d="M116.21,120.65c.03-.86,.19-1.59,.49-2.18,.3-.59,.7-1.08,1.21-1.44s1.11-.63,1.81-.8c.7-.16,1.46-.24,2.29-.24,.69,0,1.35,.07,2,.21,.65,.14,1.22,.37,1.72,.68,.5,.31,.9,.72,1.21,1.21,.3,.5,.45,1.1,.45,1.81v8.21c0,.23,.06,.42,.18,.59,.12,.16,.32,.24,.59,.24,.12,0,.25-.01,.38-.03,.13-.02,.27-.05,.41-.07v1.67c-.2,.05-.4,.1-.6,.15-.2,.04-.43,.07-.71,.07-.42,0-.78-.04-1.09-.11-.3-.07-.56-.19-.76-.35-.21-.16-.37-.37-.48-.63-.11-.26-.19-.58-.22-.96-.3,.33-.62,.63-.95,.9-.33,.28-.71,.52-1.12,.73-.41,.21-.87,.37-1.38,.49-.51,.12-1.09,.18-1.73,.18-.54,0-1.07-.09-1.59-.26-.51-.18-.98-.44-1.38-.78-.41-.34-.74-.77-.98-1.27-.25-.5-.37-1.09-.37-1.76,0-.73,.12-1.36,.37-1.89,.25-.53,.57-.98,.96-1.33,.4-.36,.85-.63,1.36-.82s1.03-.32,1.56-.38l3.97-.49c.38-.04,.67-.19,.89-.44,.21-.25,.32-.65,.32-1.21,0-.85-.28-1.47-.84-1.84-.56-.37-1.36-.56-2.41-.56s-1.87,.23-2.4,.68c-.53,.45-.83,1.13-.9,2.04h-2.27Zm8.75,2.7c-.19,.14-.43,.26-.72,.35-.29,.09-.6,.17-.94,.23-.34,.06-.71,.12-1.09,.17-.39,.05-.77,.1-1.16,.15-.44,.06-.84,.15-1.21,.26-.37,.12-.69,.26-.96,.45-.27,.18-.48,.41-.63,.67-.15,.26-.22,.57-.22,.92,0,.4,.06,.76,.19,1.07,.13,.31,.3,.57,.53,.78,.22,.21,.49,.37,.81,.47s.66,.16,1.04,.16c.24,0,.51-.03,.82-.09,.31-.06,.62-.14,.95-.26,.33-.11,.64-.26,.96-.44,.31-.18,.59-.4,.84-.65s.44-.54,.59-.87,.22-.69,.22-1.09v-2.27Z"/>
    <path class="cls-10" d="M131.13,116.42h2.43v1.94h.05c.16-.33,.36-.63,.6-.92,.24-.29,.53-.54,.87-.76,.34-.22,.73-.38,1.17-.51s.95-.18,1.52-.18c.76,0,1.48,.14,2.18,.44,.69,.29,1.31,.72,1.85,1.3s.96,1.31,1.28,2.18c.32,.88,.47,1.89,.47,3.05,0,1.45-.15,2.68-.44,3.7-.29,1.02-.71,1.84-1.25,2.49-.54,.64-1.19,1.11-1.96,1.4s-1.62,.44-2.56,.44c-.47,0-.9-.06-1.31-.19s-.77-.28-1.09-.48c-.32-.2-.6-.42-.82-.66-.23-.24-.4-.48-.51-.71h-.05v7.16h-2.43v-19.68Zm2.37,7.13c0,.76,.07,1.47,.22,2.12,.15,.65,.38,1.21,.69,1.68,.31,.47,.7,.85,1.17,1.11,.47,.27,1.03,.4,1.67,.4s1.25-.13,1.73-.4c.49-.27,.89-.64,1.21-1.11s.55-1.04,.7-1.68c.15-.65,.22-1.35,.22-2.12s-.07-1.53-.22-2.2c-.15-.67-.38-1.24-.7-1.73s-.72-.86-1.21-1.13c-.49-.27-1.07-.4-1.73-.4s-1.2,.13-1.67,.4c-.47,.27-.86,.64-1.17,1.13-.31,.48-.54,1.06-.69,1.73-.15,.67-.22,1.4-.22,2.2Z"/>
    <path class="cls-10" d="M157.37,125.57c-.04,.34-.1,.72-.2,1.12s-.25,.81-.44,1.21c-.19,.4-.44,.78-.75,1.15-.3,.37-.67,.7-1.11,.98-.43,.29-.95,.51-1.54,.69-.59,.17-1.26,.26-2.02,.26-.41,0-.85-.05-1.31-.15-.46-.1-.9-.27-1.34-.51-.43-.24-.85-.54-1.24-.92-.39-.37-.73-.84-1.03-1.39s-.53-1.2-.71-1.93c-.18-.73-.26-1.58-.26-2.52,0-1.17,.17-2.22,.5-3.16,.33-.94,.78-1.73,1.34-2.38s1.21-1.15,1.95-1.5,1.52-.53,2.34-.53c.74,0,1.39,.08,1.96,.24,.57,.16,1.06,.37,1.48,.63s.78,.57,1.07,.92c.29,.35,.52,.71,.71,1.09,.18,.38,.32,.77,.41,1.17,.09,.4,.15,.77,.18,1.13h-2.27c-.12-.96-.45-1.71-1-2.25-.54-.54-1.3-.82-2.27-.82-.67,0-1.25,.14-1.75,.41-.5,.27-.91,.65-1.24,1.14-.33,.49-.58,1.08-.74,1.77-.16,.69-.24,1.45-.24,2.27,0,.93,.09,1.73,.26,2.41,.18,.67,.43,1.23,.75,1.66,.33,.43,.72,.76,1.19,.96,.47,.21,1,.31,1.6,.31,.42,0,.82-.08,1.2-.23,.38-.15,.72-.38,1.02-.67,.3-.29,.55-.66,.76-1.09s.36-.92,.45-1.46h2.27Z"/>
    <path class="cls-10" d="M163.53,118.53h-4.86v-2.11h12.16v2.11h-4.86v12.01h-2.43v-12.01Z"/>
    <path class="cls-10" d="M173.27,116.42h6.01c1.72,0,3.01,.32,3.87,.96,.86,.64,1.29,1.57,1.29,2.79,0,.65-.16,1.2-.47,1.65-.32,.45-.73,.84-1.25,1.19,.75,.28,1.34,.69,1.78,1.21s.66,1.21,.66,2.04c0,.66-.11,1.25-.33,1.78s-.55,.98-1,1.35-1.02,.65-1.71,.85c-.69,.2-1.5,.3-2.45,.3h-6.39v-14.12Zm2.43,5.97h3.67c.82,0,1.46-.16,1.94-.49s.71-.83,.71-1.52c0-.39-.07-.71-.2-.97-.13-.26-.31-.47-.53-.63s-.47-.27-.74-.34c-.28-.07-.56-.1-.85-.1h-3.99v4.03Zm0,6.21h3.69c.64,0,1.18-.05,1.6-.15,.43-.1,.77-.25,1.02-.44s.44-.43,.54-.7c.11-.27,.16-.58,.16-.92s-.05-.65-.16-.93c-.11-.28-.29-.51-.54-.7-.25-.19-.6-.33-1.02-.43-.43-.1-.96-.15-1.6-.15h-3.69v4.43Z"/>
    <path class="cls-10" d="M200.09,126.03c-.1,.62-.31,1.22-.63,1.81-.33,.59-.75,1.12-1.28,1.58-.53,.47-1.15,.84-1.87,1.13-.72,.29-1.51,.43-2.38,.43-.95,0-1.83-.16-2.63-.47-.8-.31-1.5-.78-2.08-1.41-.58-.63-1.04-1.42-1.38-2.37s-.5-2.06-.5-3.35c0-.86,.09-1.64,.28-2.34,.19-.7,.44-1.32,.76-1.87,.32-.55,.69-1.02,1.11-1.42,.42-.4,.87-.73,1.34-.99,.47-.26,.95-.45,1.44-.58,.49-.13,.97-.19,1.42-.19,.97,0,1.85,.14,2.65,.44,.8,.29,1.49,.73,2.06,1.32,.58,.59,1.02,1.34,1.34,2.23,.32,.89,.48,1.94,.48,3.14v1.21h-10.32c0,.69,.11,1.31,.29,1.87,.18,.56,.45,1.04,.79,1.43,.34,.4,.76,.7,1.25,.92,.49,.21,1.04,.32,1.65,.32s1.15-.09,1.58-.26,.79-.4,1.08-.67,.52-.58,.71-.91,.33-.66,.46-.99h2.36Zm-2.28-3.64c-.02-.69-.12-1.3-.31-1.83-.19-.54-.45-.99-.79-1.35-.34-.37-.75-.64-1.22-.83-.47-.19-1-.28-1.58-.28s-1.06,.11-1.53,.32c-.47,.21-.87,.51-1.23,.9-.35,.38-.63,.83-.84,1.36-.21,.52-.34,1.1-.38,1.72h7.88Z"/>
    <path class="cls-10" d="M203.08,116.42h2.43v5.7h6.59v-5.7h2.44v14.12h-2.44v-6.31h-6.59v6.31h-2.43v-14.12Z"/>
    <path class="cls-10" d="M218.1,116.42h2.43v5.7h6.59v-5.7h2.44v14.12h-2.44v-6.31h-6.59v6.31h-2.43v-14.12Z"/>
    <path class="cls-10" d="M233.11,116.42h2.43v5.31h4.25c.76,0,1.45,.1,2.06,.31,.61,.21,1.13,.5,1.55,.88,.42,.38,.74,.84,.97,1.38,.22,.54,.34,1.15,.34,1.83s-.11,1.3-.34,1.84c-.22,.54-.55,1-.97,1.38-.42,.38-.94,.67-1.55,.88s-1.3,.3-2.06,.3h-6.67v-14.12Zm2.43,12.18h3.76c.42,0,.81-.04,1.18-.13,.36-.09,.68-.23,.94-.43,.26-.2,.47-.45,.62-.76,.15-.31,.22-.69,.22-1.14s-.08-.81-.23-1.12-.37-.56-.65-.76c-.28-.2-.61-.34-1-.43-.39-.09-.82-.14-1.3-.14h-3.55v4.92Zm11.07-12.18h2.43v14.12h-2.43v-14.12Z"/>
    <path class="cls-10" d="M252.61,116.42h2.43v10.82h.05l6.93-10.82h2.78v14.12h-2.44v-10.82h-.05l-6.92,10.82h-2.78v-14.12Zm3.81-5.48c.11,.56,.35,1.01,.71,1.34,.36,.33,.89,.49,1.6,.49s1.25-.16,1.61-.48c.36-.32,.59-.77,.7-1.35h2.25c0,.53-.12,1-.34,1.43-.22,.43-.53,.79-.93,1.09-.4,.3-.88,.53-1.44,.69-.56,.16-1.18,.24-1.85,.24s-1.29-.08-1.85-.24-1.03-.39-1.42-.69-.71-.66-.93-1.09c-.22-.43-.34-.91-.35-1.44h2.24Z"/>
    <path class="cls-10" d="M103.64,151.81h7.46c0-.82-.11-1.62-.34-2.39-.24-.78-.61-1.47-1.11-2.08-.51-.61-1.15-1.09-1.94-1.46-.79-.37-1.73-.55-2.81-.55-.66,0-1.29,.07-1.9,.22s-1.15,.39-1.63,.71-.88,.74-1.19,1.24-.52,1.1-.61,1.79h-2.53c0-.47,.07-.96,.22-1.45,.15-.49,.36-.97,.66-1.43,.29-.46,.66-.9,1.11-1.3,.44-.41,.96-.76,1.55-1.07,.59-.3,1.25-.54,1.98-.72s1.54-.26,2.42-.26c.77,0,1.53,.08,2.27,.23,.74,.15,1.44,.4,2.1,.74,.66,.34,1.27,.77,1.82,1.3s1.03,1.16,1.42,1.9c.4,.74,.71,1.6,.93,2.58,.22,.97,.34,2.07,.34,3.29,0,1.35-.14,2.55-.42,3.59-.28,1.04-.66,1.94-1.13,2.7-.47,.76-1.01,1.4-1.63,1.91-.62,.51-1.26,.93-1.93,1.24-.67,.31-1.35,.53-2.04,.67-.69,.13-1.34,.2-1.94,.2-1.25,0-2.37-.21-3.35-.62-.99-.41-1.83-.96-2.51-1.65s-1.22-1.47-1.59-2.37c-.37-.89-.56-1.82-.57-2.79h2.52c0,.69,.14,1.35,.42,1.98,.28,.62,.67,1.17,1.17,1.64,.5,.47,1.1,.84,1.79,1.12,.69,.28,1.45,.42,2.27,.42,.43,0,.88-.05,1.36-.15s.94-.26,1.4-.48c.46-.22,.89-.52,1.31-.88,.42-.36,.78-.8,1.1-1.32,.32-.52,.57-1.14,.75-1.84,.18-.7,.28-1.51,.29-2.41h-7.46v-2.27Z"/>
    <path class="cls-10" d="M116.56,148.82h2.43v1.94h.05c.16-.33,.36-.63,.6-.92,.24-.29,.53-.54,.87-.76,.34-.22,.73-.38,1.17-.51s.95-.18,1.52-.18c.76,0,1.48,.14,2.18,.44,.69,.29,1.31,.72,1.85,1.3s.96,1.31,1.28,2.18c.32,.88,.47,1.89,.47,3.05,0,1.45-.15,2.68-.44,3.7-.29,1.02-.71,1.84-1.25,2.49-.54,.64-1.19,1.11-1.96,1.4s-1.62,.44-2.56,.44c-.47,0-.9-.06-1.31-.19s-.77-.28-1.09-.48c-.32-.2-.6-.42-.82-.66-.23-.24-.4-.48-.51-.71h-.05v7.16h-2.43v-19.68Zm2.37,7.13c0,.76,.07,1.47,.22,2.12,.15,.65,.38,1.21,.69,1.68,.31,.47,.7,.85,1.17,1.11,.47,.27,1.03,.4,1.67,.4s1.25-.13,1.73-.4c.49-.27,.89-.64,1.21-1.11s.55-1.04,.7-1.68c.15-.65,.22-1.35,.22-2.12s-.07-1.53-.22-2.2c-.15-.67-.38-1.24-.7-1.73s-.72-.86-1.21-1.13c-.49-.27-1.07-.4-1.73-.4s-1.2,.13-1.67,.4c-.47,.27-.86,.64-1.17,1.13-.31,.48-.54,1.06-.69,1.73-.15,.67-.22,1.4-.22,2.2Z"/>
    <path class="cls-10" d="M131.71,148.82h3.53l3.73,11.57h.05l3.78-11.57h3.32v14.12h-2.27v-11.36h-.05l-3.73,11.36h-2.32l-3.73-11.36h-.05v11.36h-2.27v-14.12Z"/>
    <path class="cls-10" d="M149.69,148.82h2.43v10.82h.05l6.93-10.82h2.78v14.12h-2.44v-10.82h-.05l-6.92,10.82h-2.78v-14.12Z"/>
    <path class="cls-10" d="M169.21,150.93h-4.86v-2.11h12.16v2.11h-4.86v12.01h-2.43v-12.01Z"/>
    <path class="cls-10" d="M178.92,153.05c.03-.86,.19-1.59,.49-2.18,.3-.59,.7-1.08,1.21-1.44s1.11-.63,1.81-.8c.7-.16,1.46-.24,2.29-.24,.69,0,1.35,.07,2,.21,.65,.14,1.22,.37,1.72,.68,.5,.31,.9,.72,1.21,1.21,.3,.5,.45,1.1,.45,1.81v8.21c0,.23,.06,.42,.18,.59,.12,.16,.32,.24,.59,.24,.12,0,.25-.01,.38-.03,.13-.02,.27-.05,.41-.07v1.67c-.2,.05-.4,.1-.6,.15-.2,.04-.43,.07-.71,.07-.42,0-.78-.04-1.09-.11-.3-.07-.56-.19-.76-.35-.21-.16-.37-.37-.48-.63-.11-.26-.19-.58-.22-.96-.3,.33-.62,.63-.95,.9-.33,.28-.71,.52-1.12,.73-.41,.21-.87,.37-1.38,.49-.51,.12-1.09,.18-1.73,.18-.54,0-1.07-.09-1.59-.26-.51-.18-.98-.44-1.38-.78-.41-.34-.74-.77-.98-1.27-.25-.5-.37-1.09-.37-1.76,0-.73,.12-1.36,.37-1.89,.25-.53,.57-.98,.96-1.33,.4-.36,.85-.63,1.36-.82s1.03-.32,1.56-.38l3.97-.49c.38-.04,.67-.19,.89-.44,.21-.25,.32-.65,.32-1.21,0-.85-.28-1.47-.84-1.84-.56-.37-1.36-.56-2.41-.56s-1.87,.23-2.4,.68c-.53,.45-.83,1.13-.9,2.04h-2.27Zm8.75,2.7c-.19,.14-.43,.26-.72,.35-.29,.09-.6,.17-.94,.23-.34,.06-.71,.12-1.09,.17-.39,.05-.77,.1-1.16,.15-.44,.06-.84,.15-1.21,.26-.37,.12-.69,.26-.96,.45-.27,.18-.48,.41-.63,.67-.15,.26-.22,.57-.22,.92,0,.4,.06,.76,.19,1.07,.13,.31,.3,.57,.53,.78,.22,.21,.49,.37,.81,.47s.66,.16,1.04,.16c.24,0,.51-.03,.82-.09,.31-.06,.62-.14,.95-.26,.33-.11,.64-.26,.96-.44,.31-.18,.59-.4,.84-.65s.44-.54,.59-.87,.22-.69,.22-1.09v-2.27Z"/>
    <path class="cls-10" d="M203.96,154.59h1.23l4.63-5.77h2.93l-5.55,6.7,5.76,7.42h-2.99l-4.77-6.42h-1.23v6.42h-2.43v-6.42h-1.24l-4.81,6.42h-2.99l5.81-7.42-5.52-6.7h2.94l4.57,5.77h1.24v-5.77h2.43v5.77Z"/>
  </g>
</svg>