<?xml version="1.0" encoding="UTF-8"?>
<svg id="_Слой_1" data-name="Слой 1" xmlns="http://www.w3.org/2000/svg" viewBox="0 0 311.43 226.87">
  <defs>
    <style>
      .cls-1 {
        fill: #e8f0f0;
      }

      .cls-2 {
        fill: #7ca9a1;
      }

      .cls-3 {
        fill: #9eacad;
      }

      .cls-4 {
        fill: #b8c1c3;
      }

      .cls-5 {
        fill: #c0ccd0;
      }

      .cls-6 {
        fill: #d3d3d3;
      }

      .cls-7, .cls-8 {
        fill: #d9d9d8;
      }

      .cls-9 {
        fill: #d4e2e4;
      }

      .cls-10 {
        fill: #c6cfce;
      }

      .cls-11 {
        fill: #22274f;
      }

      .cls-12 {
        fill: #6ea7a6;
      }

      .cls-13 {
        fill: #588c8b;
      }

      .cls-14 {
        fill: #589288;
      }

      .cls-15 {
        fill: #588d8b;
      }

      .cls-16 {
        fill: #3a6767;
      }

      .cls-17 {
        fill: #3b6a65;
      }

      .cls-18 {
        fill: #83918f;
      }

      .cls-19 {
        fill: #5f9897;
      }

      .cls-20 {
        fill: #4c7a78;
      }

      .cls-21 {
        fill: rgba(217, 217, 216, .6);
      }

      .cls-22 {
        fill: rgba(77, 131, 120, .6);
      }

      .cls-23 {
        fill: rgba(44, 165, 143, .6);
      }

      .cls-24 {
        fill: rgba(97, 163, 151, .6);
      }

      .cls-25 {
        fill: rgba(83, 135, 125, .6);
      }

      .cls-8 {
        isolation: isolate;
        opacity: .3;
      }

      .cls-26 {
        fill: #221f20;
        font-family: Helvetica, Helvetica;
        font-size: 27px;
      }
    </style>
  </defs>
  <g>
    <path class="cls-23" d="M311.43,125.28H.59v67.37H311.43V125.28Z"/>
    <path class="cls-4" d="M25.41,108.74h61.46l22.46,16.55H.3l25.12-16.55Z"/>
    <path class="cls-4" d="M225.15,108.74h60.28l25.41,16.55h-108.15l22.46-16.55Z"/>
    <path class="cls-5" d="M119.96,117.01h73.87l9.16,8.27H109.03l10.93-8.27Z"/>
    <path class="cls-3" d="M92.07,112.58h27.89v4.43l-10.64,8.27-17.26-12.71Z"/>
    <path class="cls-3" d="M193.83,112.87h25.41l-16.55,12.41-8.86-8.27v-4.14Z"/>
    <path class="cls-24" d="M149.51,95.74h-29.55v21.27h29.55v-21.27Z"/>
    <path class="cls-22" d="M193.83,96.33h-15.96v20.68h15.96v-20.68Z"/>
    <path class="cls-21" d="M167.83,91.6l21.57,.3,4.14,4.43h-15.51v20.68h-5.67v-21.27h-8.66l4.14-4.14Z"/>
    <path class="cls-25" d="M171.38,98.1h-21.87v16.55h21.87v-16.55Z"/>
    <path class="cls-7" d="M149.51,95.74h23.05v21.27h-23.05v-2.36h21.57v-16.25l-12.11-.3h-9.46v-2.36Z"/>
    <path class="cls-6" d="M123.51,91.6h22.46l3.25,4.14h-29.25l3.55-4.14Z"/>
    <path class="cls-20" d="M161.92,68.55h-11.23v27.18h11.23v-27.18Z"/>
    <path class="cls-19" d="M160.74,4.73h-8.86V15.96h8.86V4.73Z"/>
    <path class="cls-1" d="M151.88,4.14h8.86v.59h-2.07V14.18h-.89V4.73h-3.25V14.18h-.89V4.73h-1.77v-.59Z"/>
    <path class="cls-18" d="M172.56,33.09c0,8.66-7.42,12.41-16.55,12.41s-15.96-3.75-15.96-12.41c-1.18-8.57,7.39-20.39,15.96-19.8,7.68-.59,17.73,10.93,16.55,19.8Z"/>
    <path class="cls-12" d="M145.97,68.55h-9.46v23.05h9.46v-23.05Z"/>
    <path class="cls-16" d="M175.51,68.55h-7.68v23.05h7.68v-23.05Z"/>
    <path class="cls-1" d="M145.97,68.55h4.73v27.18h-1.48l-3.25-4.17v-23.02Z"/>
    <path class="cls-1" d="M161.92,68.55h5.91v23.05l-3.84,4.14h-2.07v-27.18Z"/>
    <path class="cls-8" d="M136.51,68.55h-1.77v23.05h1.77v-23.05Z"/>
    <path class="cls-7" d="M177.29,68.55h-1.77v23.05h1.77v-23.05Z"/>
    <path class="cls-13" d="M148.33,39h-6.5v24.82h6.5v-24.82Z"/>
    <path class="cls-14" d="M160.74,39h-8.86v24.82h8.86v-24.82Z"/>
    <path class="cls-17" d="M170.79,39h-7.09v24.82h7.09v-24.82Z"/>
    <path class="cls-1" d="M140.06,33.09h32.5v30.73h-1.77v-24.82h-6.8v24.82h-3.25v-24.82h-8.86v24.82h-3.55v-24.82h-6.5v24.82h-1.77v-30.73Z"/>
    <path class="cls-15" d="M147.74,34.87h-5.32v2.95h5.32v-2.95Z"/>
    <path class="cls-14" d="M160.15,34.87h-7.68v2.95h7.68v-2.95Z"/>
    <path class="cls-17" d="M170.2,34.87h-5.32v2.95h5.32v-2.95Z"/>
    <path class="cls-9" d="M0,125.28H311.43v9.46h-6.21v-2.66h-45.56v2.66h-5.61v-2.66h-13.59v58.5h-5.32v-58.5h-12.41v58.5h-5.61v-58.5h-11.52v2.66h-6.5v-2.66h-11.23v2.66h-8.86v-2.66h-10.64v2.66h-5.02v-2.66h-13.3v2.66h-4.43v-2.66h-11.82v2.66h-7.98v-2.66h-11.52v2.66h-6.8v-2.66h-11.52v58.5h-5.02v-58.5h-13v58.5h-5.61v-58.5h-13.59v3.25h-5.02v-3.25h-14.48v58.5h-7.68v-58.5h-1.18v58.5h-8.57v-58.5H7.98v2.07H2.36v59.39H0V125.28Z"/>
    <path class="cls-7" d="M156.31,0l4.43,4.14h-8.86l4.43-4.14Z"/>
    <g>
      <path class="cls-1" d="M126.64,113.64c.35,6.09-.95,7.03-2.25,7.03s-3.07-1.09-2.54-7.03c-.21-6.56,.21-14.36,2.54-14.36s2.72,9.99,2.25,14.36Z"/>
      <path class="cls-11" d="M126.41,110.98c0,5.58-.92,10.13-2.07,10.13s-2.07-4.55-2.07-10.13,.41-10.13,2.07-10.13c1.65,0,2.07,4.52,2.07,10.13Z"/>
      <path class="cls-1" d="M124.49,100.52h-.27v21.22h.27v-21.22Z"/>
      <path class="cls-1" d="M126.52,112.37h-4.37v.62h4.37v-.62Z"/>
      <path class="cls-1" d="M126.41,103.95h-3.96v.62h3.96v-.62Z"/>
      <path class="cls-1" d="M126.52,106.76h-4.25v.62h4.25v-.62Z"/>
      <path class="cls-1" d="M126.41,109.56h-4.25v.62h4.25v-.62Z"/>
    </g>
    <g>
      <path class="cls-1" d="M133.14,113.64c.35,6.09-.95,7.03-2.25,7.03s-3.07-1.09-2.54-7.03c-.21-6.56,.21-14.36,2.54-14.36s2.72,9.99,2.25,14.36Z"/>
      <path class="cls-11" d="M132.91,110.98c0,5.58-.92,10.13-2.07,10.13s-2.07-4.55-2.07-10.13,.41-10.13,2.07-10.13c1.65,0,2.07,4.52,2.07,10.13Z"/>
      <path class="cls-1" d="M130.99,100.52h-.27v21.22h.27v-21.22Z"/>
      <path class="cls-1" d="M133.02,112.37h-4.37v.62h4.37v-.62Z"/>
      <path class="cls-1" d="M132.91,103.95h-3.96v.62h3.96v-.62Z"/>
      <path class="cls-1" d="M133.02,106.76h-4.25v.62h4.25v-.62Z"/>
      <path class="cls-1" d="M132.91,109.56h-4.25v.62h4.25v-.62Z"/>
    </g>
    <g>
      <path class="cls-1" d="M147.33,113.64c.35,6.09-.95,7.03-2.25,7.03s-3.07-1.09-2.54-7.03c-.21-6.56,.21-14.36,2.54-14.36s2.72,9.99,2.25,14.36Z"/>
      <path class="cls-11" d="M147.09,110.98c0,5.58-.92,10.13-2.07,10.13s-2.07-4.55-2.07-10.13,.41-10.13,2.07-10.13c1.65,0,2.07,4.52,2.07,10.13Z"/>
      <path class="cls-1" d="M145.17,100.52h-.27v21.22h.27v-21.22Z"/>
      <path class="cls-1" d="M147.21,112.37h-4.37v.62h4.37v-.62Z"/>
      <path class="cls-1" d="M147.09,103.95h-3.96v.62h3.96v-.62Z"/>
      <path class="cls-1" d="M147.21,106.76h-4.25v.62h4.25v-.62Z"/>
      <path class="cls-1" d="M147.09,109.56h-4.25v.62h4.25v-.62Z"/>
    </g>
    <g>
      <path class="cls-1" d="M188.1,114.82c.35,6.09-.95,7.03-2.25,7.03s-3.07-1.09-2.54-7.03c-.21-6.56,.21-14.36,2.54-14.36s2.72,9.99,2.25,14.36Z"/>
      <path class="cls-11" d="M187.87,112.16c0,5.58-.92,10.13-2.07,10.13s-2.07-4.55-2.07-10.13,.41-10.13,2.07-10.13c1.65,0,2.07,4.52,2.07,10.13Z"/>
      <path class="cls-1" d="M185.94,101.7h-.27v21.22h.27v-21.22Z"/>
      <path class="cls-1" d="M187.98,113.55h-4.37v.62h4.37v-.62Z"/>
      <path class="cls-1" d="M187.87,105.13h-3.96v.62h3.96v-.62Z"/>
      <path class="cls-1" d="M187.98,107.94h-4.25v.62h4.25v-.62Z"/>
      <path class="cls-1" d="M187.87,110.75h-4.25v.62h4.25v-.62Z"/>
    </g>
    <g>
      <path class="cls-1" d="M159.47,113.05c.47,6.09-1.33,7.03-3.19,7.03s-4.37-1.09-3.58-7.03c-.3-6.56,.3-14.36,3.58-14.36s3.87,9.99,3.19,14.36Z"/>
      <path class="cls-11" d="M159.12,110.39c0,5.58-1.3,10.13-2.9,10.13s-2.9-4.55-2.9-10.13,.59-10.13,2.9-10.13c2.3,0,2.9,4.52,2.9,10.13Z"/>
      <path class="cls-1" d="M156.4,99.93h-.38v21.22h.38v-21.22Z"/>
      <path class="cls-1" d="M159.32,111.78h-6.21v.62h6.21v-.62Z"/>
      <path class="cls-1" d="M159.12,103.36h-5.61v.62h5.61v-.62Z"/>
      <path class="cls-1" d="M159.32,106.17h-6v.62h6v-.62Z"/>
      <path class="cls-1" d="M159.12,108.97h-6v.62h6v-.62Z"/>
    </g>
    <g>
      <path class="cls-1" d="M169.52,113.05c.47,6.09-1.33,7.03-3.19,7.03s-4.37-1.09-3.58-7.03c-.3-6.56,.3-14.36,3.58-14.36s3.87,9.99,3.19,14.36Z"/>
      <path class="cls-11" d="M169.16,110.39c0,5.58-1.3,10.13-2.9,10.13s-2.9-4.55-2.9-10.13,.59-10.13,2.9-10.13c2.3,0,2.9,4.52,2.9,10.13Z"/>
      <path class="cls-1" d="M166.44,99.93h-.38v21.22h.38v-21.22Z"/>
      <path class="cls-1" d="M169.37,111.78h-6.21v.62h6.21v-.62Z"/>
      <path class="cls-1" d="M169.16,103.36h-5.61v.62h5.61v-.62Z"/>
      <path class="cls-1" d="M169.37,106.17h-6v.62h6v-.62Z"/>
      <path class="cls-1" d="M169.16,108.97h-6v.62h6v-.62Z"/>
    </g>
    <g>
      <path class="cls-1" d="M140.23,113.64c.35,6.09-.95,7.03-2.25,7.03s-3.07-1.09-2.54-7.03c-.21-6.56,.21-14.36,2.54-14.36s2.72,9.99,2.25,14.36Z"/>
      <path class="cls-11" d="M140,110.98c0,5.58-.92,10.13-2.07,10.13s-2.07-4.55-2.07-10.13,.41-10.13,2.07-10.13c1.65,0,2.07,4.52,2.07,10.13Z"/>
      <path class="cls-1" d="M138.08,100.52h-.27v21.22h.27v-21.22Z"/>
      <path class="cls-1" d="M140.12,112.37h-4.37v.62h4.37v-.62Z"/>
      <path class="cls-1" d="M140,103.95h-3.96v.62h3.96v-.62Z"/>
      <path class="cls-1" d="M140.12,106.76h-4.25v.62h4.25v-.62Z"/>
      <path class="cls-1" d="M140,109.56h-4.25v.62h4.25v-.62Z"/>
    </g>
    <g>
      <path class="cls-1" d="M124.01,186.33c.56,7.83-1.63,6.81-3.85,6.81s-5.07,.81-4.16-6.81c-.35-8.45,.35-18.5,4.23-18.5s4.58,12.88,3.78,18.5Z"/>
      <path class="cls-11" d="M123.63,182.9c0,7.21-1.57,9.95-3.47,9.95s-3.39-2.74-3.39-9.95,.68-13.06,3.43-13.06,3.43,5.85,3.43,13.06Z"/>
      <path class="cls-1" d="M120.41,169.43h-.44v23.74h.47v-23.74h-.03Z"/>
      <path class="cls-1" d="M123.84,184.73h-7.33v.8h7.33v-.8Z"/>
      <path class="cls-1" d="M123.63,173.86h-6.65v.8h6.65v-.8Z"/>
      <path class="cls-1" d="M123.84,177.49h-7.09v.8h7.09v-.8Z"/>
      <path class="cls-1" d="M123.63,181.1h-7.09v.8h7.09v-.8Z"/>
    </g>
    <g>
      <path class="cls-1" d="M160.77,183.83c.56,7.83-1.57,9.04-3.78,9.04s-5.14-1.42-4.23-9.04c-.35-8.45,.35-18.5,4.23-18.5s4.58,12.88,3.78,18.5Z"/>
      <path class="cls-11" d="M160.32,180.61c0,7.21,.16,13.04-3.43,13.06s-3.43-5.85-3.43-13.06,.68-13.06,3.43-13.06,3.43,5.85,3.43,13.06Z"/>
      <path class="cls-1" d="M157.05,166.12h-.44v27.36h.47v-27.36h-.03Z"/>
      <path class="cls-1" d="M160.47,184.73h-7.33v.8h7.33v-.8Z"/>
      <path class="cls-1" d="M160.27,173.86h-6.65v.8h6.65v-.8Z"/>
      <path class="cls-1" d="M160.47,177.49h-7.09v.8h7.09v-.8Z"/>
      <path class="cls-1" d="M160.27,181.1h-7.09v.8h7.09v-.8Z"/>
    </g>
    <g>
      <path class="cls-1" d="M197.43,184.04c.56,7.83-1.57,9.04-3.78,9.04s-5.14-1.42-4.23-9.04c-.35-8.45,.35-18.5,4.23-18.5s4.58,12.88,3.78,18.5Z"/>
      <path class="cls-11" d="M196.97,179.98c0,7.21-.15,13.02-3.43,13.06-2.9,.03-3.43-5.85-3.43-13.06s.68-13.06,3.43-13.06,3.43,5.85,3.43,13.06Z"/>
      <path class="cls-1" d="M193.69,166.92h-.44v23.18h.47v-23.18h-.03Z"/>
      <path class="cls-1" d="M197.11,184.73h-7.33v.8h7.33v-.8Z"/>
      <path class="cls-1" d="M196.91,173.86h-6.65v.8h6.65v-.8Z"/>
      <path class="cls-1" d="M197.11,177.49h-7.09v.8h7.09v-.8Z"/>
      <path class="cls-1" d="M196.91,181.1h-7.09v.8h7.09v-.8Z"/>
    </g>
    <g>
      <path class="cls-1" d="M159.88,93.4c.53,9.28-1.42,10.7-3.43,10.7s-4.67-1.65-3.84-10.7c-.33-9.99,.33-21.89,3.84-21.89s4.14,15.25,3.43,21.89Z"/>
      <path class="cls-11" d="M159.53,89.35c0,8.54-1.39,15.48-3.1,15.48s-3.1-6.91-3.1-15.48,.62-15.48,3.1-15.48,3.1,6.94,3.1,15.48Z"/>
      <path class="cls-1" d="M156.6,73.4h-.41v32.38h.41v-32.38Z"/>
      <path class="cls-1" d="M159.74,91.51h-6.65v.95h6.65v-.95Z"/>
      <path class="cls-1" d="M159.53,78.66h-6.03v.95h6.03v-.95Z"/>
      <path class="cls-1" d="M159.74,82.94h-6.44v.95h6.44v-.95Z"/>
      <path class="cls-1" d="M159.53,87.23h-6.44v.95h6.44v-.95Z"/>
    </g>
    <g>
      <path class="cls-1" d="M174.16,89.35c.35,8.33-.98,9.6-2.36,9.6s-3.22-1.51-2.66-9.6c-.21-8.95,.21-19.62,2.66-19.62s2.87,13.65,2.36,19.62Z"/>
      <path class="cls-11" d="M173.89,85.75c0,7.65-.98,13.86-2.16,13.86s-2.16-6.21-2.16-13.86,.44-13.86,2.16-13.86c1.74-.03,2.16,6.18,2.16,13.86Z"/>
      <path class="cls-1" d="M171.88,71.45h-.3v29.02h.3v-29.02Z"/>
      <path class="cls-1" d="M174.04,87.67h-4.58v.86h4.58v-.86Z"/>
      <path class="cls-1" d="M173.89,76.14h-4.17v.86h4.17v-.86Z"/>
      <path class="cls-1" d="M174.04,79.99h-4.46v.86h4.46v-.86Z"/>
      <path class="cls-1" d="M173.89,83.83h-4.46v.86h4.46v-.86Z"/>
    </g>
    <g>
      <path class="cls-1" d="M143.43,89.35c.35,8.33-.98,9.6-2.36,9.6s-3.22-1.51-2.66-9.6c-.21-8.95,.21-19.62,2.66-19.62s2.87,13.65,2.36,19.62Z"/>
      <path class="cls-11" d="M143.16,85.75c0,7.65-.98,13.86-2.16,13.86s-2.16-6.21-2.16-13.86,.44-13.86,2.16-13.86c1.74-.03,2.16,6.18,2.16,13.86Z"/>
      <path class="cls-1" d="M141.15,71.45h-.3v29.02h.3v-29.02Z"/>
      <path class="cls-1" d="M143.31,87.67h-4.58v.86h4.58v-.86Z"/>
      <path class="cls-1" d="M143.16,76.14h-4.17v.86h4.17v-.86Z"/>
      <path class="cls-1" d="M143.31,79.99h-4.46v.86h4.46v-.86Z"/>
      <path class="cls-1" d="M143.16,83.83h-4.46v.86h4.46v-.86Z"/>
    </g>
    <g>
      <path class="cls-1" d="M158.79,60.99c.35,8.33-.98,9.6-2.36,9.6s-3.22-1.51-2.66-9.6c-.21-8.95,.21-19.62,2.66-19.62s2.87,13.65,2.36,19.62Z"/>
      <path class="cls-11" d="M158.52,57.38c0,7.65-.98,13.86-2.16,13.86s-2.16-6.21-2.16-13.86,.44-13.86,2.16-13.86c1.74-.03,2.16,6.18,2.16,13.86Z"/>
      <path class="cls-1" d="M156.52,43.08h-.3v29.02h.3v-29.02Z"/>
      <path class="cls-1" d="M158.67,59.3h-4.58v.86h4.58v-.86Z"/>
      <path class="cls-1" d="M158.52,47.78h-4.17v.86h4.17v-.86Z"/>
      <path class="cls-1" d="M158.67,51.62h-4.46v.86h4.46v-.86Z"/>
      <path class="cls-1" d="M158.52,55.46h-4.46v.86h4.46v-.86Z"/>
    </g>
    <g>
      <path class="cls-1" d="M170.02,60.99c.35,8.33-.98,9.6-2.36,9.6s-3.22-1.51-2.66-9.6c-.21-8.95,.21-19.62,2.66-19.62s2.87,13.65,2.36,19.62Z"/>
      <path class="cls-11" d="M169.75,57.38c0,7.65-.98,13.86-2.16,13.86s-2.16-6.21-2.16-13.86,.44-13.86,2.16-13.86c1.74-.03,2.16,6.18,2.16,13.86Z"/>
      <path class="cls-1" d="M167.74,43.08h-.3v29.02h.3v-29.02Z"/>
      <path class="cls-1" d="M169.9,59.3h-4.58v.86h4.58v-.86Z"/>
      <path class="cls-1" d="M169.75,47.78h-4.17v.86h4.17v-.86Z"/>
      <path class="cls-1" d="M169.9,51.62h-4.46v.86h4.46v-.86Z"/>
      <path class="cls-1" d="M169.75,55.46h-4.46v.86h4.46v-.86Z"/>
    </g>
    <g>
      <path class="cls-1" d="M147.56,60.99c.35,8.33-.98,9.6-2.36,9.6s-3.22-1.51-2.66-9.6c-.21-8.95,.21-19.62,2.66-19.62s2.87,13.65,2.36,19.62Z"/>
      <path class="cls-11" d="M147.3,57.38c0,7.65-.98,13.86-2.16,13.86s-2.16-6.21-2.16-13.86,.44-13.86,2.16-13.86c1.74-.03,2.16,6.18,2.16,13.86Z"/>
      <path class="cls-1" d="M145.29,43.08h-.3v29.02h.3v-29.02Z"/>
      <path class="cls-1" d="M147.44,59.3h-4.58v.86h4.58v-.86Z"/>
      <path class="cls-1" d="M147.3,47.78h-4.17v.86h4.17v-.86Z"/>
      <path class="cls-1" d="M147.44,51.62h-4.46v.86h4.46v-.86Z"/>
      <path class="cls-1" d="M147.3,55.46h-4.46v.86h4.46v-.86Z"/>
    </g>
    <path class="cls-10" d="M177.29,63.82h-42.55v4.73h42.55v-4.73Z"/>
    <path class="cls-10" d="M177.29,57.32h-42.55v1.18h42.55v-1.18Z"/>
    <path class="cls-10" d="M135.92,57.32h-1.18v8.27h1.18v-8.27Z"/>
    <path class="cls-10" d="M138.88,57.32h-1.18v8.27h1.18v-8.27Z"/>
    <path class="cls-10" d="M144.78,57.91h-1.18v8.27h1.18v-8.27Z"/>
    <path class="cls-10" d="M147.74,58.5h-1.18v8.27h1.18v-8.27Z"/>
    <path class="cls-10" d="M159.56,58.5h-1.18v8.27h1.18v-8.27Z"/>
    <path class="cls-10" d="M150.69,57.91h-1.18v8.27h1.18v-8.27Z"/>
    <path class="cls-10" d="M171.38,57.91h-1.18v8.27h1.18v-8.27Z"/>
    <path class="cls-10" d="M156.6,58.5h-1.18v8.27h1.18v-8.27Z"/>
    <path class="cls-10" d="M162.51,58.5h-1.18v8.27h1.18v-8.27Z"/>
    <path class="cls-10" d="M168.42,57.91h-1.18v8.27h1.18v-8.27Z"/>
    <path class="cls-10" d="M153.65,58.5h-1.18v8.27h1.18v-8.27Z"/>
    <path class="cls-10" d="M141.83,57.32h-1.18v8.27h1.18v-8.27Z"/>
    <path class="cls-10" d="M165.47,57.91h-1.18v8.27h1.18v-8.27Z"/>
    <path class="cls-10" d="M177.29,57.91h-1.18v8.27h1.18v-8.27Z"/>
    <path class="cls-10" d="M174.33,57.32h-1.18v8.27h1.18v-8.27Z"/>
    <path class="cls-1" d="M18.91,133.73H10.64v8.69h8.27v-8.69Z"/>
    <path class="cls-11" d="M18.08,134.86h-6.62v6.8h6.62s0-6.8,0-6.8Z"/>
    <path class="cls-1" d="M18.91,137.87H10.64v.77h8.27v-.77Z"/>
    <path class="cls-1" d="M14.36,134.47v7.56h.83v-7.56h-.83Z"/>
    <path class="cls-1" d="M16.84,132.97h-4.14v1.51h4.14v-1.51Z"/>
    <path class="cls-1" d="M18.91,149.51H10.64v14.18h8.27v-14.18Z"/>
    <path class="cls-11" d="M18.32,151.29h-7.09v11.23h7.09v-11.23Z"/>
    <path class="cls-1" d="M18.91,154.24H10.64v1.18h8.27v-1.18Z"/>
    <path class="cls-1" d="M18.91,158.38H10.64v1.18h8.27v-1.18Z"/>
    <path class="cls-1" d="M14.18,150.1v13.59h1.18v-13.59h-1.18Z"/>
    <path class="cls-1" d="M17.14,148.33h-4.73v2.95h4.73v-2.95Z"/>
    <path class="cls-1" d="M18.32,172.44H10.05v16.67h8.27v-16.67Z"/>
    <path class="cls-11" d="M17.73,174.07h-7.09v12.88h7.09v-12.88Z"/>
    <path class="cls-1" d="M18.32,176.76H10.05v1.06h8.27v-1.06Z"/>
    <path class="cls-1" d="M18.32,179.98H10.05v1.06h8.27v-1.06Z"/>
    <path class="cls-1" d="M18.32,183.73H10.05v1.06h8.27v-1.06Z"/>
    <path class="cls-1" d="M13.59,173v11.82h1.18v-11.82h-1.18Z"/>
    <path class="cls-1" d="M16.55,171.38h-4.73v2.69h4.73v-2.69Z"/>
    <path class="cls-1" d="M18.32,172.44H10.05v16.67h8.27v-16.67Z"/>
    <path class="cls-11" d="M17.73,174.07h-7.09v12.88h7.09v-12.88Z"/>
    <path class="cls-1" d="M18.32,176.76H10.05v1.06h8.27v-1.06Z"/>
    <path class="cls-1" d="M18.32,179.98H10.05v1.06h8.27v-1.06Z"/>
    <path class="cls-1" d="M18.32,183.73H10.05v1.06h8.27v-1.06Z"/>
    <path class="cls-1" d="M13.59,173v11.82h1.18v-11.82h-1.18Z"/>
    <path class="cls-1" d="M16.55,171.38h-4.73v2.69h4.73v-2.69Z"/>
    <path class="cls-1" d="M51.41,172.44h-8.27v16.67h8.27v-16.67Z"/>
    <path class="cls-11" d="M50.82,174.07h-7.09v12.88h7.09v-12.88Z"/>
    <path class="cls-1" d="M51.41,176.76h-8.27v1.06h8.27v-1.06Z"/>
    <path class="cls-1" d="M51.41,179.98h-8.27v1.06h8.27v-1.06Z"/>
    <path class="cls-1" d="M51.41,183.73h-8.27v1.06h8.27v-1.06Z"/>
    <path class="cls-1" d="M46.69,173v11.82h1.18v-11.82h-1.18Z"/>
    <path class="cls-1" d="M49.64,171.38h-4.73v2.69h4.73v-2.69Z"/>
    <path class="cls-1" d="M69.73,172.44h-8.27v16.67h8.27v-16.67Z"/>
    <path class="cls-11" d="M69.14,174.07h-7.09v12.88h7.09v-12.88Z"/>
    <path class="cls-1" d="M69.73,176.76h-8.27v1.06h8.27v-1.06Z"/>
    <path class="cls-1" d="M69.73,179.98h-8.27v1.06h8.27v-1.06Z"/>
    <path class="cls-1" d="M69.73,183.73h-8.27v1.06h8.27v-1.06Z"/>
    <path class="cls-1" d="M65.01,173v11.82h1.18v-11.82h-1.18Z"/>
    <path class="cls-1" d="M67.96,171.38h-4.73v2.69h4.73v-2.69Z"/>
    <path class="cls-1" d="M88.64,172.44h-8.27v16.67h8.27v-16.67Z"/>
    <path class="cls-11" d="M88.05,174.07h-7.09v12.88h7.09v-12.88Z"/>
    <path class="cls-1" d="M88.64,176.76h-8.27v1.06h8.27v-1.06Z"/>
    <path class="cls-1" d="M88.64,179.98h-8.27v1.06h8.27v-1.06Z"/>
    <path class="cls-1" d="M88.64,183.73h-8.27v1.06h8.27v-1.06Z"/>
    <path class="cls-1" d="M83.92,173v11.82h1.18v-11.82h-1.18Z"/>
    <path class="cls-1" d="M86.87,171.38h-4.73v2.69h4.73v-2.69Z"/>
    <path class="cls-1" d="M105.78,172.44h-8.27v16.67h8.27v-16.67Z"/>
    <path class="cls-11" d="M105.19,174.07h-7.09v12.88h7.09v-12.88Z"/>
    <path class="cls-1" d="M105.78,176.76h-8.27v1.06h8.27v-1.06Z"/>
    <path class="cls-1" d="M105.78,179.98h-8.27v1.06h8.27v-1.06Z"/>
    <path class="cls-1" d="M105.78,183.73h-8.27v1.06h8.27v-1.06Z"/>
    <path class="cls-1" d="M101.05,173v11.82h1.18v-11.82h-1.18Z"/>
    <path class="cls-1" d="M104.01,171.38h-4.73v2.69h4.73v-2.69Z"/>
    <path class="cls-1" d="M215.7,173.03h-8.27v16.67h8.27v-16.67Z"/>
    <path class="cls-11" d="M215.11,174.66h-7.09v12.88h7.09v-12.88Z"/>
    <path class="cls-1" d="M215.7,177.35h-8.27v1.06h8.27v-1.06Z"/>
    <path class="cls-1" d="M215.7,180.57h-8.27v1.06h8.27v-1.06Z"/>
    <path class="cls-1" d="M215.7,184.32h-8.27v1.06h8.27v-1.06Z"/>
    <path class="cls-1" d="M210.97,173.59v11.82h1.18v-11.82h-1.18Z"/>
    <path class="cls-1" d="M213.93,171.97h-4.73v2.69h4.73v-2.69Z"/>
    <path class="cls-1" d="M232.84,173.03h-8.27v16.67h8.27v-16.67Z"/>
    <path class="cls-11" d="M232.25,174.66h-7.09v12.88h7.09v-12.88Z"/>
    <path class="cls-1" d="M232.84,177.35h-8.27v1.06h8.27v-1.06Z"/>
    <path class="cls-1" d="M232.84,180.57h-8.27v1.06h8.27v-1.06Z"/>
    <path class="cls-1" d="M232.84,184.32h-8.27v1.06h8.27v-1.06Z"/>
    <path class="cls-1" d="M228.11,173.59v11.82h1.18v-11.82h-1.18Z"/>
    <path class="cls-1" d="M231.06,171.97h-4.73v2.69h4.73v-2.69Z"/>
    <path class="cls-1" d="M251.75,173.03h-8.27v16.67h8.27v-16.67Z"/>
    <path class="cls-11" d="M251.16,174.66h-7.09v12.88h7.09v-12.88Z"/>
    <path class="cls-1" d="M251.75,177.35h-8.27v1.06h8.27v-1.06Z"/>
    <path class="cls-1" d="M251.75,180.57h-8.27v1.06h8.27v-1.06Z"/>
    <path class="cls-1" d="M251.75,184.32h-8.27v1.06h8.27v-1.06Z"/>
    <path class="cls-1" d="M247.02,173.59v11.82h1.18v-11.82h-1.18Z"/>
    <path class="cls-1" d="M249.98,171.97h-4.73v2.69h4.73v-2.69Z"/>
    <path class="cls-1" d="M270.07,173.03h-8.27v16.67h8.27v-16.67Z"/>
    <path class="cls-11" d="M269.48,174.66h-7.09v12.88h7.09v-12.88Z"/>
    <path class="cls-1" d="M270.07,177.35h-8.27v1.06h8.27v-1.06Z"/>
    <path class="cls-1" d="M270.07,180.57h-8.27v1.06h8.27v-1.06Z"/>
    <path class="cls-1" d="M270.07,184.32h-8.27v1.06h8.27v-1.06Z"/>
    <path class="cls-1" d="M265.34,173.59v11.82h1.18v-11.82h-1.18Z"/>
    <path class="cls-1" d="M268.29,171.97h-4.73v2.69h4.73v-2.69Z"/>
    <path class="cls-1" d="M302.57,173.03h-8.27v16.67h8.27v-16.67Z"/>
    <path class="cls-11" d="M301.98,174.66h-7.09v12.88h7.09v-12.88Z"/>
    <path class="cls-1" d="M302.57,177.35h-8.27v1.06h8.27v-1.06Z"/>
    <path class="cls-1" d="M302.57,180.57h-8.27v1.06h8.27v-1.06Z"/>
    <path class="cls-1" d="M302.57,184.32h-8.27v1.06h8.27v-1.06Z"/>
    <path class="cls-1" d="M297.84,173.59v11.82h1.18v-11.82h-1.18Z"/>
    <path class="cls-1" d="M300.8,171.97h-4.73v2.69h4.73v-2.69Z"/>
    <path class="cls-1" d="M124.1,133.79h-8.27v12.76h8.27v-12.76Z"/>
    <path class="cls-11" d="M123.51,135.03h-7.09v9.9h7.09v-9.9Z"/>
    <path class="cls-1" d="M124.1,137.07h-8.27v.83h8.27v-.83Z"/>
    <path class="cls-1" d="M124.1,139.55h-8.27v.83h8.27v-.83Z"/>
    <path class="cls-1" d="M124.1,142.45h-8.27v.83h8.27v-.83Z"/>
    <path class="cls-1" d="M119.37,134.21v9.07h1.18v-9.07h-1.18Z"/>
    <path class="cls-1" d="M122.33,132.97h-4.73v2.07h4.73v-2.07Z"/>
    <path class="cls-1" d="M160.74,132.61h-8.27v12.76h8.27v-12.76Z"/>
    <path class="cls-11" d="M160.15,133.85h-7.09v9.9h7.09v-9.9Z"/>
    <path class="cls-1" d="M160.74,135.89h-8.27v.83h8.27v-.83Z"/>
    <path class="cls-1" d="M160.74,138.37h-8.27v.83h8.27v-.83Z"/>
    <path class="cls-1" d="M160.74,141.27h-8.27v.83h8.27v-.83Z"/>
    <path class="cls-1" d="M156.01,133.02v9.07h1.18v-9.07h-1.18Z"/>
    <path class="cls-1" d="M158.97,131.78h-4.73v2.07h4.73v-2.07Z"/>
    <path class="cls-1" d="M197.38,133.79h-8.27v12.76h8.27v-12.76Z"/>
    <path class="cls-11" d="M196.79,135.03h-7.09v9.9h7.09v-9.9Z"/>
    <path class="cls-1" d="M197.38,137.07h-8.27v.83h8.27v-.83Z"/>
    <path class="cls-1" d="M197.38,139.55h-8.27v.83h8.27v-.83Z"/>
    <path class="cls-1" d="M197.38,142.45h-8.27v.83h8.27v-.83Z"/>
    <path class="cls-1" d="M192.65,134.21v9.07h1.18v-9.07h-1.18Z"/>
    <path class="cls-1" d="M195.61,132.97h-4.73v2.07h4.73v-2.07Z"/>
    <path class="cls-1" d="M51.41,149.51h-8.27v14.18h8.27v-14.18Z"/>
    <path class="cls-11" d="M50.82,151.29h-7.09v11.23h7.09v-11.23Z"/>
    <path class="cls-1" d="M51.41,154.24h-8.27v1.18h8.27v-1.18Z"/>
    <path class="cls-1" d="M51.41,158.38h-8.27v1.18h8.27v-1.18Z"/>
    <path class="cls-1" d="M46.69,150.1v13.59h1.18v-13.59h-1.18Z"/>
    <path class="cls-1" d="M49.64,148.33h-4.73v2.95h4.73v-2.95Z"/>
    <path class="cls-1" d="M69.73,149.51h-8.27v14.18h8.27v-14.18Z"/>
    <path class="cls-11" d="M69.14,151.29h-7.09v11.23h7.09v-11.23Z"/>
    <path class="cls-1" d="M69.73,154.24h-8.27v1.18h8.27v-1.18Z"/>
    <path class="cls-1" d="M69.73,158.38h-8.27v1.18h8.27v-1.18Z"/>
    <path class="cls-1" d="M65.01,150.1v13.59h1.18v-13.59h-1.18Z"/>
    <path class="cls-1" d="M67.96,148.33h-4.73v2.95h4.73v-2.95Z"/>
    <path class="cls-1" d="M88.64,149.51h-8.27v14.18h8.27v-14.18Z"/>
    <path class="cls-11" d="M88.05,151.29h-7.09v11.23h7.09v-11.23Z"/>
    <path class="cls-1" d="M88.64,154.24h-8.27v1.18h8.27v-1.18Z"/>
    <path class="cls-1" d="M88.64,158.38h-8.27v1.18h8.27v-1.18Z"/>
    <path class="cls-1" d="M83.92,150.1v13.59h1.18v-13.59h-1.18Z"/>
    <path class="cls-1" d="M86.87,148.33h-4.73v2.95h4.73v-2.95Z"/>
    <path class="cls-1" d="M105.78,149.51h-8.27v14.18h8.27v-14.18Z"/>
    <path class="cls-11" d="M105.19,151.29h-7.09v11.23h7.09v-11.23Z"/>
    <path class="cls-1" d="M105.78,154.24h-8.27v1.18h8.27v-1.18Z"/>
    <path class="cls-1" d="M105.78,158.38h-8.27v1.18h8.27v-1.18Z"/>
    <path class="cls-1" d="M101.05,150.1v13.59h1.18v-13.59h-1.18Z"/>
    <path class="cls-1" d="M104.01,148.33h-4.73v2.95h4.73v-2.95Z"/>
    <path class="cls-1" d="M124.1,150.1h-8.27v14.18h8.27v-14.18Z"/>
    <path class="cls-11" d="M123.51,151.88h-7.09v11.23h7.09v-11.23Z"/>
    <path class="cls-1" d="M124.1,154.83h-8.27v1.18h8.27v-1.18Z"/>
    <path class="cls-1" d="M124.1,158.97h-8.27v1.18h8.27v-1.18Z"/>
    <path class="cls-1" d="M119.37,150.69v13.59h1.18v-13.59h-1.18Z"/>
    <path class="cls-1" d="M122.33,148.92h-4.73v2.95h4.73v-2.95Z"/>
    <path class="cls-1" d="M160.74,150.1h-8.27v14.18h8.27v-14.18Z"/>
    <path class="cls-11" d="M160.15,151.88h-7.09v11.23h7.09v-11.23Z"/>
    <path class="cls-1" d="M160.74,154.83h-8.27v1.18h8.27v-1.18Z"/>
    <path class="cls-1" d="M160.74,158.97h-8.27v1.18h8.27v-1.18Z"/>
    <path class="cls-1" d="M156.01,150.69v13.59h1.18v-13.59h-1.18Z"/>
    <path class="cls-1" d="M158.97,148.92h-4.73v2.95h4.73v-2.95Z"/>
    <path class="cls-1" d="M197.38,149.51h-8.27v14.18h8.27v-14.18Z"/>
    <path class="cls-11" d="M196.79,151.29h-7.09v11.23h7.09v-11.23Z"/>
    <path class="cls-1" d="M197.38,154.24h-8.27v1.18h8.27v-1.18Z"/>
    <path class="cls-1" d="M197.38,158.38h-8.27v1.18h8.27v-1.18Z"/>
    <path class="cls-1" d="M192.65,150.1v13.59h1.18v-13.59h-1.18Z"/>
    <path class="cls-1" d="M195.61,148.33h-4.73v2.95h4.73v-2.95Z"/>
    <path class="cls-1" d="M215.11,149.51h-8.27v14.18h8.27v-14.18Z"/>
    <path class="cls-11" d="M214.52,151.29h-7.09v11.23h7.09v-11.23Z"/>
    <path class="cls-1" d="M215.11,154.24h-8.27v1.18h8.27v-1.18Z"/>
    <path class="cls-1" d="M215.11,158.38h-8.27v1.18h8.27v-1.18Z"/>
    <path class="cls-1" d="M210.38,150.1v13.59h1.18v-13.59h-1.18Z"/>
    <path class="cls-1" d="M213.34,148.33h-4.73v2.95h4.73v-2.95Z"/>
    <path class="cls-1" d="M233.43,149.51h-8.27v14.18h8.27v-14.18Z"/>
    <path class="cls-11" d="M232.84,151.29h-7.09v11.23h7.09v-11.23Z"/>
    <path class="cls-1" d="M233.43,154.24h-8.27v1.18h8.27v-1.18Z"/>
    <path class="cls-1" d="M233.43,158.38h-8.27v1.18h8.27v-1.18Z"/>
    <path class="cls-1" d="M228.7,150.1v13.59h1.18v-13.59h-1.18Z"/>
    <path class="cls-1" d="M231.66,148.33h-4.73v2.95h4.73v-2.95Z"/>
    <path class="cls-1" d="M251.75,149.51h-8.27v14.18h8.27v-14.18Z"/>
    <path class="cls-11" d="M251.16,151.29h-7.09v11.23h7.09v-11.23Z"/>
    <path class="cls-1" d="M251.75,154.24h-8.27v1.18h8.27v-1.18Z"/>
    <path class="cls-1" d="M251.75,158.38h-8.27v1.18h8.27v-1.18Z"/>
    <path class="cls-1" d="M247.02,150.1v13.59h1.18v-13.59h-1.18Z"/>
    <path class="cls-1" d="M249.98,148.33h-4.73v2.95h4.73v-2.95Z"/>
    <path class="cls-1" d="M281.89,130.6h-8.27v59.1h8.27v-59.1Z"/>
    <path class="cls-1" d="M291.93,130.6h-8.27v59.1h8.27v-59.1Z"/>
    <path class="cls-1" d="M280.7,151.05h-5.91v11.46h5.91v-11.46Z"/>
    <path class="cls-11" d="M280.29,152.5h-5.05v9.07h5.05v-9.07Z"/>
    <path class="cls-1" d="M280.7,154.89h-5.91v.95h5.91v-.95Z"/>
    <path class="cls-1" d="M280.7,158.23h-5.91v.95h5.91v-.95Z"/>
    <path class="cls-1" d="M277.34,151.52v10.99h.86v-10.99h-.86Z"/>
    <path class="cls-1" d="M279.43,150.1h-3.37v2.39h3.37v-2.39Z"/>
    <path class="cls-1" d="M290.75,151.05h-5.91v11.46h5.91v-11.46Z"/>
    <path class="cls-11" d="M290.34,152.5h-5.05v9.07h5.05v-9.07Z"/>
    <path class="cls-1" d="M290.75,154.89h-5.91v.95h5.91v-.95Z"/>
    <path class="cls-1" d="M290.75,158.23h-5.91v.95h5.91v-.95Z"/>
    <path class="cls-1" d="M287.38,151.52v10.99h.86v-10.99h-.86Z"/>
    <path class="cls-1" d="M289.48,150.1h-3.37v2.39h3.37v-2.39Z"/>
    <path class="cls-1" d="M290.75,174.1h-5.91v11.46h5.91v-11.46Z"/>
    <path class="cls-11" d="M290.34,175.54h-5.05v9.07h5.05v-9.07Z"/>
    <path class="cls-1" d="M290.75,177.94h-5.91v.95h5.91v-.95Z"/>
    <path class="cls-1" d="M290.75,181.28h-5.91v.95h5.91v-.95Z"/>
    <path class="cls-1" d="M287.38,174.57v10.99h.86v-10.99h-.86Z"/>
    <path class="cls-1" d="M289.48,173.15h-3.37v2.39h3.37v-2.39Z"/>
    <path class="cls-1" d="M280.7,174.1h-5.91v11.46h5.91v-11.46Z"/>
    <path class="cls-11" d="M280.29,175.54h-5.05v9.07h5.05v-9.07Z"/>
    <path class="cls-1" d="M280.7,177.94h-5.91v.95h5.91v-.95Z"/>
    <path class="cls-1" d="M280.7,181.28h-5.91v.95h5.91v-.95Z"/>
    <path class="cls-1" d="M277.34,174.57v10.99h.86v-10.99h-.86Z"/>
    <path class="cls-1" d="M279.43,173.15h-3.37v2.39h3.37v-2.39Z"/>
    <path class="cls-1" d="M270.66,149.51h-8.27v14.18h8.27v-14.18Z"/>
    <path class="cls-11" d="M270.07,151.29h-7.09v11.23h7.09v-11.23Z"/>
    <path class="cls-1" d="M270.66,154.24h-8.27v1.18h8.27v-1.18Z"/>
    <path class="cls-1" d="M270.66,158.38h-8.27v1.18h8.27v-1.18Z"/>
    <path class="cls-1" d="M265.93,150.1v13.59h1.18v-13.59h-1.18Z"/>
    <path class="cls-1" d="M268.89,148.33h-4.73v2.95h4.73v-2.95Z"/>
    <path class="cls-1" d="M302.57,149.51h-8.27v14.18h8.27v-14.18Z"/>
    <path class="cls-11" d="M301.98,151.29h-7.09v11.23h7.09v-11.23Z"/>
    <path class="cls-1" d="M302.57,154.24h-8.27v1.18h8.27v-1.18Z"/>
    <path class="cls-1" d="M302.57,158.38h-8.27v1.18h8.27v-1.18Z"/>
    <path class="cls-1" d="M297.84,150.1v13.59h1.18v-13.59h-1.18Z"/>
    <path class="cls-1" d="M300.8,148.33h-4.73v2.95h4.73v-2.95Z"/>
    <path class="cls-1" d="M50.82,133.73h-8.27v8.69h8.27v-8.69Z"/>
    <path class="cls-11" d="M50,134.86h-6.62v6.8h6.62v-6.8Z"/>
    <path class="cls-1" d="M50.82,137.87h-8.27v.77h8.27v-.77Z"/>
    <path class="cls-1" d="M46.27,134.47v7.56h.83v-7.56h-.83Z"/>
    <path class="cls-1" d="M48.75,132.97h-4.14v1.51h4.14v-1.51Z"/>
    <path class="cls-1" d="M70.32,133.73h-8.27v8.69h8.27v-8.69Z"/>
    <path class="cls-11" d="M69.5,134.86h-6.62v6.8h6.62v-6.8Z"/>
    <path class="cls-1" d="M70.32,137.87h-8.27v.77h8.27v-.77Z"/>
    <path class="cls-1" d="M65.77,134.47v7.56h.83v-7.56h-.83Z"/>
    <path class="cls-1" d="M68.26,132.97h-4.14v1.51h4.14v-1.51Z"/>
    <path class="cls-1" d="M88.05,133.73h-8.27v8.69h8.27v-8.69Z"/>
    <path class="cls-11" d="M87.23,134.86h-6.62v6.8h6.62v-6.8Z"/>
    <path class="cls-1" d="M88.05,137.87h-8.27v.77h8.27v-.77Z"/>
    <path class="cls-1" d="M83.5,134.47v7.56h.83v-7.56h-.83Z"/>
    <path class="cls-1" d="M85.98,132.97h-4.14v1.51h4.14v-1.51Z"/>
    <path class="cls-1" d="M105.78,133.73h-8.27v8.69h8.27v-8.69Z"/>
    <path class="cls-11" d="M104.95,134.86h-6.62v6.8h6.62v-6.8Z"/>
    <path class="cls-1" d="M105.78,137.87h-8.27v.77h8.27v-.77Z"/>
    <path class="cls-1" d="M101.23,134.47v7.56h.83v-7.56h-.83Z"/>
    <path class="cls-1" d="M103.71,132.97h-4.14v1.51h4.14v-1.51Z"/>
    <path class="cls-1" d="M215.11,133.73h-8.27v8.69h8.27v-8.69Z"/>
    <path class="cls-11" d="M214.28,134.86h-6.62v6.8h6.62v-6.8Z"/>
    <path class="cls-1" d="M215.11,137.87h-8.27v.77h8.27v-.77Z"/>
    <path class="cls-1" d="M210.56,134.47v7.56h.83v-7.56h-.83Z"/>
    <path class="cls-1" d="M213.04,132.97h-4.14v1.51h4.14v-1.51Z"/>
    <path class="cls-1" d="M232.84,133.73h-8.27v8.69h8.27v-8.69Z"/>
    <path class="cls-11" d="M232.01,134.86h-6.62v6.8h6.62v-6.8Z"/>
    <path class="cls-1" d="M232.84,137.87h-8.27v.77h8.27v-.77Z"/>
    <path class="cls-1" d="M228.29,134.47v7.56h.83v-7.56h-.83Z"/>
    <path class="cls-1" d="M230.77,132.97h-4.14v1.51h4.14v-1.51Z"/>
    <path class="cls-1" d="M251.75,133.73h-8.27v8.69h8.27v-8.69Z"/>
    <path class="cls-11" d="M250.92,134.86h-6.62v6.8h6.62v-6.8Z"/>
    <path class="cls-1" d="M251.75,137.87h-8.27v.77h8.27v-.77Z"/>
    <path class="cls-1" d="M247.2,134.47v7.56h.83v-7.56h-.83Z"/>
    <path class="cls-1" d="M249.68,132.97h-4.14v1.51h4.14v-1.51Z"/>
    <path class="cls-1" d="M270.66,133.73h-8.27v8.69h8.27v-8.69Z"/>
    <path class="cls-11" d="M269.83,134.86h-6.62v6.8h6.62v-6.8Z"/>
    <path class="cls-1" d="M270.66,137.87h-8.27v.77h8.27v-.77Z"/>
    <path class="cls-1" d="M266.11,134.47v7.56h.83v-7.56h-.83Z"/>
    <path class="cls-1" d="M268.59,132.97h-4.14v1.51h4.14v-1.51Z"/>
    <path class="cls-1" d="M280.7,134.18h-5.91v7.06h5.91v-7.06Z"/>
    <path class="cls-11" d="M280.11,135.09h-4.73v5.53h4.73v-5.53Z"/>
    <path class="cls-1" d="M280.7,137.55h-5.91v.62h5.91v-.62Z"/>
    <path class="cls-1" d="M277.45,134.8v6.15h.59v-6.15h-.59Z"/>
    <path class="cls-1" d="M279.23,133.56h-2.95v1.24h2.95v-1.24Z"/>
    <path class="cls-1" d="M290.75,134.18h-5.91v7.06h5.91v-7.06Z"/>
    <path class="cls-11" d="M290.16,135.09h-4.73v5.53h4.73v-5.53Z"/>
    <path class="cls-1" d="M290.75,137.55h-5.91v.62h5.91v-.62Z"/>
    <path class="cls-1" d="M287.5,134.8v6.15h.59v-6.15h-.59Z"/>
    <path class="cls-1" d="M289.27,133.56h-2.95v1.24h2.95v-1.24Z"/>
    <path class="cls-1" d="M302.57,133.73h-8.27v8.69h8.27v-8.69Z"/>
    <path class="cls-11" d="M301.74,134.86h-6.62v6.8h6.62v-6.8Z"/>
    <path class="cls-1" d="M302.57,137.87h-8.27v.77h8.27v-.77Z"/>
    <path class="cls-1" d="M298.02,134.47v7.56h.83v-7.56h-.83Z"/>
    <path class="cls-1" d="M300.5,132.97h-4.14v1.51h4.14v-1.51Z"/>
    <path class="cls-9" d="M8.27,134.74H2.36v2.36h5.91v-2.36Z"/>
    <path class="cls-9" d="M8.27,138.28H2.36v2.36h5.91v-2.36Z"/>
    <path class="cls-9" d="M8.27,141.83H2.36v2.36h5.91v-2.36Z"/>
    <path class="cls-9" d="M8.27,145.38H2.36v2.36h5.91v-2.36Z"/>
    <path class="cls-9" d="M8.27,148.92H2.36v2.36h5.91v-2.36Z"/>
    <path class="cls-9" d="M8.27,152.47H2.36v2.36h5.91v-2.36Z"/>
    <path class="cls-9" d="M8.27,156.01H2.36v2.36h5.91v-2.36Z"/>
    <path class="cls-9" d="M8.27,159.56H2.36v2.36h5.91v-2.36Z"/>
    <path class="cls-9" d="M8.27,163.1H2.36v2.36h5.91v-2.36Z"/>
    <path class="cls-9" d="M8.27,166.65H2.36v2.36h5.91v-2.36Z"/>
    <path class="cls-9" d="M8.27,170.2H2.36v2.36h5.91v-2.36Z"/>
    <path class="cls-9" d="M8.27,173.15H2.36v2.36h5.91v-2.36Z"/>
    <path class="cls-9" d="M8.27,176.7H2.36v2.36h5.91v-2.36Z"/>
    <path class="cls-9" d="M8.27,180.24H2.36v2.36h5.91v-2.36Z"/>
    <path class="cls-9" d="M8.27,183.79H2.36v2.36h5.91v-2.36Z"/>
    <path class="cls-9" d="M8.27,187.33H2.36v2.36h5.91v-2.36Z"/>
    <path class="cls-9" d="M59.1,135.92h-5.91v2.36h5.91v-2.36Z"/>
    <path class="cls-9" d="M59.1,139.47h-5.91v2.36h5.91v-2.36Z"/>
    <path class="cls-9" d="M59.1,143.01h-5.91v2.36h5.91v-2.36Z"/>
    <path class="cls-9" d="M59.1,146.56h-5.91v2.36h5.91v-2.36Z"/>
    <path class="cls-9" d="M59.1,150.1h-5.91v2.36h5.91v-2.36Z"/>
    <path class="cls-9" d="M59.1,153.65h-5.91v2.36h5.91v-2.36Z"/>
    <path class="cls-9" d="M59.1,157.19h-5.91v2.36h5.91v-2.36Z"/>
    <path class="cls-9" d="M59.1,160.74h-5.91v2.36h5.91v-2.36Z"/>
    <path class="cls-9" d="M59.1,164.29h-5.91v2.36h5.91v-2.36Z"/>
    <path class="cls-9" d="M59.1,167.83h-5.91v2.36h5.91v-2.36Z"/>
    <path class="cls-9" d="M59.1,171.38h-5.91v2.36h5.91v-2.36Z"/>
    <path class="cls-9" d="M59.1,174.33h-5.91v2.36h5.91v-2.36Z"/>
    <path class="cls-9" d="M59.1,177.88h-5.91v2.36h5.91v-2.36Z"/>
    <path class="cls-9" d="M59.1,181.42h-5.91v2.36h5.91v-2.36Z"/>
    <path class="cls-9" d="M59.1,184.97h-5.91v2.36h5.91v-2.36Z"/>
    <path class="cls-9" d="M59.1,188.52h-5.91v2.36h5.91v-2.36Z"/>
    <path class="cls-9" d="M113.46,135.92h-5.91v2.36h5.91v-2.36Z"/>
    <path class="cls-9" d="M113.46,139.47h-5.91v2.36h5.91v-2.36Z"/>
    <path class="cls-9" d="M113.46,143.01h-5.91v2.36h5.91v-2.36Z"/>
    <path class="cls-9" d="M113.46,146.56h-5.91v2.36h5.91v-2.36Z"/>
    <path class="cls-9" d="M113.46,150.1h-5.91v2.36h5.91v-2.36Z"/>
    <path class="cls-9" d="M113.46,153.65h-5.91v2.36h5.91v-2.36Z"/>
    <path class="cls-9" d="M113.46,157.19h-5.91v2.36h5.91v-2.36Z"/>
    <path class="cls-9" d="M113.46,160.74h-5.91v2.36h5.91v-2.36Z"/>
    <path class="cls-9" d="M113.46,164.29h-5.91v2.36h5.91v-2.36Z"/>
    <path class="cls-9" d="M113.46,167.83h-5.91v2.36h5.91v-2.36Z"/>
    <path class="cls-9" d="M113.46,171.38h-5.91v2.36h5.91v-2.36Z"/>
    <path class="cls-9" d="M113.46,174.33h-5.91v2.36h5.91v-2.36Z"/>
    <path class="cls-9" d="M113.46,177.88h-5.91v2.36h5.91v-2.36Z"/>
    <path class="cls-9" d="M113.46,181.42h-5.91v2.36h5.91v-2.36Z"/>
    <path class="cls-9" d="M113.46,184.97h-5.91v2.36h5.91v-2.36Z"/>
    <path class="cls-9" d="M113.46,188.52h-5.91v2.36h5.91v-2.36Z"/>
    <path class="cls-9" d="M150.69,135.92h-5.91v2.36h5.91v-2.36Z"/>
    <path class="cls-9" d="M150.69,139.47h-5.91v2.36h5.91v-2.36Z"/>
    <path class="cls-9" d="M150.69,143.01h-5.91v2.36h5.91v-2.36Z"/>
    <path class="cls-9" d="M150.69,146.56h-5.91v2.36h5.91v-2.36Z"/>
    <path class="cls-9" d="M150.69,150.1h-5.91v2.36h5.91v-2.36Z"/>
    <path class="cls-9" d="M150.69,153.65h-5.91v2.36h5.91v-2.36Z"/>
    <path class="cls-9" d="M150.69,157.19h-5.91v2.36h5.91v-2.36Z"/>
    <path class="cls-9" d="M150.69,160.74h-5.91v2.36h5.91v-2.36Z"/>
    <path class="cls-9" d="M150.69,164.29h-5.91v2.36h5.91v-2.36Z"/>
    <path class="cls-9" d="M150.69,167.83h-5.91v2.36h5.91v-2.36Z"/>
    <path class="cls-9" d="M150.69,171.38h-5.91v2.36h5.91v-2.36Z"/>
    <path class="cls-9" d="M150.69,174.33h-5.91v2.36h5.91v-2.36Z"/>
    <path class="cls-9" d="M150.69,177.88h-5.91v2.36h5.91v-2.36Z"/>
    <path class="cls-9" d="M150.69,181.42h-5.91v2.36h5.91v-2.36Z"/>
    <path class="cls-9" d="M150.69,184.97h-5.91v2.36h5.91v-2.36Z"/>
    <path class="cls-9" d="M150.69,188.52h-5.91v2.36h5.91v-2.36Z"/>
    <path class="cls-9" d="M133.56,135.92h-7.68v2.36h7.68v-2.36Z"/>
    <path class="cls-9" d="M133.56,139.47h-7.68v2.36h7.68v-2.36Z"/>
    <path class="cls-9" d="M133.56,143.01h-7.68v2.36h7.68v-2.36Z"/>
    <path class="cls-9" d="M133.56,146.56h-7.68v2.36h7.68v-2.36Z"/>
    <path class="cls-9" d="M133.56,150.1h-7.68v2.36h7.68v-2.36Z"/>
    <path class="cls-9" d="M133.56,153.65h-7.68v2.36h7.68v-2.36Z"/>
    <path class="cls-9" d="M133.56,157.19h-7.68v2.36h7.68v-2.36Z"/>
    <path class="cls-9" d="M133.56,160.74h-7.68v2.36h7.68v-2.36Z"/>
    <path class="cls-9" d="M133.56,164.29h-7.68v2.36h7.68v-2.36Z"/>
    <path class="cls-9" d="M133.56,167.83h-7.68v2.36h7.68v-2.36Z"/>
    <path class="cls-9" d="M133.56,171.38h-7.68v2.36h7.68v-2.36Z"/>
    <path class="cls-9" d="M133.56,174.33h-7.68v2.36h7.68v-2.36Z"/>
    <path class="cls-9" d="M133.56,177.88h-7.68v2.36h7.68v-2.36Z"/>
    <path class="cls-9" d="M133.56,181.42h-7.68v2.36h7.68v-2.36Z"/>
    <path class="cls-9" d="M133.56,184.97h-7.68v2.36h7.68v-2.36Z"/>
    <path class="cls-9" d="M133.56,188.52h-7.68v2.36h7.68v-2.36Z"/>
    <path class="cls-9" d="M187.92,135.92h-8.86v2.36h8.86v-2.36Z"/>
    <path class="cls-9" d="M187.92,139.47h-8.86v2.36h8.86v-2.36Z"/>
    <path class="cls-9" d="M187.92,143.01h-8.86v2.36h8.86v-2.36Z"/>
    <path class="cls-9" d="M187.92,146.56h-8.86v2.36h8.86v-2.36Z"/>
    <path class="cls-9" d="M187.92,150.1h-8.86v2.36h8.86v-2.36Z"/>
    <path class="cls-9" d="M187.92,153.65h-8.86v2.36h8.86v-2.36Z"/>
    <path class="cls-9" d="M187.92,157.19h-8.86v2.36h8.86v-2.36Z"/>
    <path class="cls-9" d="M187.92,160.74h-8.86v2.36h8.86v-2.36Z"/>
    <path class="cls-9" d="M187.92,164.29h-8.86v2.36h8.86v-2.36Z"/>
    <path class="cls-9" d="M187.92,167.83h-8.86v2.36h8.86v-2.36Z"/>
    <path class="cls-9" d="M187.92,171.38h-8.86v2.36h8.86v-2.36Z"/>
    <path class="cls-9" d="M187.92,174.33h-8.86v2.36h8.86v-2.36Z"/>
    <path class="cls-9" d="M187.92,177.88h-8.86v2.36h8.86v-2.36Z"/>
    <path class="cls-9" d="M187.92,181.42h-8.86v2.36h8.86v-2.36Z"/>
    <path class="cls-9" d="M187.92,184.97h-8.86v2.36h8.86v-2.36Z"/>
    <path class="cls-9" d="M187.92,188.52h-8.86v2.36h8.86v-2.36Z"/>
    <path class="cls-9" d="M169.01,135.92h-5.91v2.36h5.91v-2.36Z"/>
    <path class="cls-9" d="M169.01,139.47h-5.91v2.36h5.91v-2.36Z"/>
    <path class="cls-9" d="M169.01,143.01h-5.91v2.36h5.91v-2.36Z"/>
    <path class="cls-9" d="M169.01,146.56h-5.91v2.36h5.91v-2.36Z"/>
    <path class="cls-9" d="M169.01,150.1h-5.91v2.36h5.91v-2.36Z"/>
    <path class="cls-9" d="M169.01,153.65h-5.91v2.36h5.91v-2.36Z"/>
    <path class="cls-9" d="M169.01,157.19h-5.91v2.36h5.91v-2.36Z"/>
    <path class="cls-9" d="M169.01,160.74h-5.91v2.36h5.91v-2.36Z"/>
    <path class="cls-9" d="M169.01,164.29h-5.91v2.36h5.91v-2.36Z"/>
    <path class="cls-9" d="M169.01,167.83h-5.91v2.36h5.91v-2.36Z"/>
    <path class="cls-9" d="M169.01,171.38h-5.91v2.36h5.91v-2.36Z"/>
    <path class="cls-9" d="M169.01,174.33h-5.91v2.36h5.91v-2.36Z"/>
    <path class="cls-9" d="M169.01,177.88h-5.91v2.36h5.91v-2.36Z"/>
    <path class="cls-9" d="M169.01,181.42h-5.91v2.36h5.91v-2.36Z"/>
    <path class="cls-9" d="M169.01,184.97h-5.91v2.36h5.91v-2.36Z"/>
    <path class="cls-9" d="M169.01,188.52h-5.91v2.36h5.91v-2.36Z"/>
    <path class="cls-9" d="M205.65,135.92h-6.5v2.36h6.5v-2.36Z"/>
    <path class="cls-9" d="M205.65,139.47h-6.5v2.36h6.5v-2.36Z"/>
    <path class="cls-9" d="M205.65,143.01h-6.5v2.36h6.5v-2.36Z"/>
    <path class="cls-9" d="M205.65,146.56h-6.5v2.36h6.5v-2.36Z"/>
    <path class="cls-9" d="M205.65,150.1h-6.5v2.36h6.5v-2.36Z"/>
    <path class="cls-9" d="M205.65,153.65h-6.5v2.36h6.5v-2.36Z"/>
    <path class="cls-9" d="M205.65,157.19h-6.5v2.36h6.5v-2.36Z"/>
    <path class="cls-9" d="M205.65,160.74h-6.5v2.36h6.5v-2.36Z"/>
    <path class="cls-9" d="M205.65,164.29h-6.5v2.36h6.5v-2.36Z"/>
    <path class="cls-9" d="M205.65,167.83h-6.5v2.36h6.5v-2.36Z"/>
    <path class="cls-9" d="M205.65,171.38h-6.5v2.36h6.5v-2.36Z"/>
    <path class="cls-9" d="M205.65,174.33h-6.5v2.36h6.5v-2.36Z"/>
    <path class="cls-9" d="M205.65,177.88h-6.5v2.36h6.5v-2.36Z"/>
    <path class="cls-9" d="M205.65,181.42h-6.5v2.36h6.5v-2.36Z"/>
    <path class="cls-9" d="M205.65,184.97h-6.5v2.36h6.5v-2.36Z"/>
    <path class="cls-9" d="M205.65,188.52h-6.5v2.36h6.5v-2.36Z"/>
    <path class="cls-9" d="M260.02,135.92h-5.91v2.36h5.91v-2.36Z"/>
    <path class="cls-9" d="M260.02,139.47h-5.91v2.36h5.91v-2.36Z"/>
    <path class="cls-9" d="M260.02,143.01h-5.91v2.36h5.91v-2.36Z"/>
    <path class="cls-9" d="M260.02,146.56h-5.91v2.36h5.91v-2.36Z"/>
    <path class="cls-9" d="M260.02,150.1h-5.91v2.36h5.91v-2.36Z"/>
    <path class="cls-9" d="M260.02,153.65h-5.91v2.36h5.91v-2.36Z"/>
    <path class="cls-9" d="M260.02,157.19h-5.91v2.36h5.91v-2.36Z"/>
    <path class="cls-9" d="M260.02,160.74h-5.91v2.36h5.91v-2.36Z"/>
    <path class="cls-9" d="M260.02,164.29h-5.91v2.36h5.91v-2.36Z"/>
    <path class="cls-9" d="M260.02,167.83h-5.91v2.36h5.91v-2.36Z"/>
    <path class="cls-9" d="M260.02,171.38h-5.91v2.36h5.91v-2.36Z"/>
    <path class="cls-9" d="M260.02,174.33h-5.91v2.36h5.91v-2.36Z"/>
    <path class="cls-9" d="M260.02,177.88h-5.91v2.36h5.91v-2.36Z"/>
    <path class="cls-9" d="M260.02,181.42h-5.91v2.36h5.91v-2.36Z"/>
    <path class="cls-9" d="M260.02,184.97h-5.91v2.36h5.91v-2.36Z"/>
    <path class="cls-9" d="M260.02,188.52h-5.91v2.36h5.91v-2.36Z"/>
    <path class="cls-9" d="M311.43,135.92h-6.5v2.36h6.5v-2.36Z"/>
    <path class="cls-9" d="M311.43,139.47h-6.5v2.36h6.5v-2.36Z"/>
    <path class="cls-9" d="M311.43,143.01h-6.5v2.36h6.5v-2.36Z"/>
    <path class="cls-9" d="M311.43,146.56h-6.5v2.36h6.5v-2.36Z"/>
    <path class="cls-9" d="M311.43,150.1h-6.5v2.36h6.5v-2.36Z"/>
    <path class="cls-9" d="M311.43,153.65h-6.5v2.36h6.5v-2.36Z"/>
    <path class="cls-9" d="M311.43,157.19h-6.5v2.36h6.5v-2.36Z"/>
    <path class="cls-9" d="M311.43,160.74h-6.5v2.36h6.5v-2.36Z"/>
    <path class="cls-9" d="M311.43,164.29h-6.5v2.36h6.5v-2.36Z"/>
    <path class="cls-9" d="M311.43,167.83h-6.5v2.36h6.5v-2.36Z"/>
    <path class="cls-9" d="M311.43,171.38h-6.5v2.36h6.5v-2.36Z"/>
    <path class="cls-9" d="M311.43,174.33h-6.5v2.36h6.5v-2.36Z"/>
    <path class="cls-9" d="M311.43,177.88h-6.5v2.36h6.5v-2.36Z"/>
    <path class="cls-9" d="M311.43,181.42h-6.5v2.36h6.5v-2.36Z"/>
    <path class="cls-9" d="M311.43,184.97h-6.5v2.36h6.5v-2.36Z"/>
    <path class="cls-9" d="M311.43,188.52h-6.5v2.36h6.5v-2.36Z"/>
    <path class="cls-9" d="M138.88,145.97c1.95,0,3.55-2.78,3.55-6.21s-1.6-6.21-3.55-6.21-3.55,2.78-3.55,6.21,1.6,6.21,3.55,6.21Z"/>
    <path class="cls-9" d="M173.74,146.56c1.95,0,3.55-2.78,3.55-6.21s-1.6-6.21-3.55-6.21-3.55,2.78-3.55,6.21,1.6,6.21,3.55,6.21Z"/>
    <path class="cls-9" d="M176.7,176.7c0-1.63-1.33-2.95-2.95-2.95s-2.95,1.33-2.95,2.95v13.59c0,1.63,1.33,2.95,2.95,2.95s2.95-1.33,2.95-2.95v-13.59Z"/>
    <path class="cls-9" d="M176.7,176.7c0-1.63-1.33-2.95-2.95-2.95s-2.95,1.33-2.95,2.95v13.59c0,1.63,1.33,2.95,2.95,2.95s2.95-1.33,2.95-2.95v-13.59Z"/>
    <path class="cls-9" d="M176.7,176.7c0-1.63-1.33-2.95-2.95-2.95s-2.95,1.33-2.95,2.95v13.59c0,1.63,1.33,2.95,2.95,2.95s2.95-1.33,2.95-2.95v-13.59Z"/>
    <path class="cls-9" d="M176.7,176.7c0-1.63-1.33-2.95-2.95-2.95s-2.95,1.33-2.95,2.95v13.59c0,1.63,1.33,2.95,2.95,2.95s2.95-1.33,2.95-2.95v-13.59Z"/>
    <path class="cls-9" d="M176.7,176.7c0-1.63-1.33-2.95-2.95-2.95s-2.95,1.33-2.95,2.95v13.59c0,1.63,1.33,2.95,2.95,2.95s2.95-1.33,2.95-2.95v-13.59Z"/>
    <path class="cls-9" d="M141.83,176.7c0-1.63-1.33-2.95-2.95-2.95s-2.95,1.33-2.95,2.95v13.59c0,1.63,1.33,2.95,2.95,2.95s2.95-1.33,2.95-2.95v-13.59Z"/>
    <path class="cls-9" d="M141.83,176.7c0-1.63-1.33-2.95-2.95-2.95s-2.95,1.33-2.95,2.95v13.59c0,1.63,1.33,2.95,2.95,2.95s2.95-1.33,2.95-2.95v-13.59Z"/>
    <path class="cls-9" d="M141.83,176.7c0-1.63-1.33-2.95-2.95-2.95s-2.95,1.33-2.95,2.95v13.59c0,1.63,1.33,2.95,2.95,2.95s2.95-1.33,2.95-2.95v-13.59Z"/>
    <path class="cls-9" d="M141.83,176.7c0-1.63-1.33-2.95-2.95-2.95s-2.95,1.33-2.95,2.95v13.59c0,1.63,1.33,2.95,2.95,2.95s2.95-1.33,2.95-2.95v-13.59Z"/>
    <path class="cls-9" d="M141.83,176.7c0-1.63-1.33-2.95-2.95-2.95s-2.95,1.33-2.95,2.95v13.59c0,1.63,1.33,2.95,2.95,2.95s2.95-1.33,2.95-2.95v-13.59Z"/>
    <g>
      <path class="cls-9" d="M141.83,154.24c0-1.63-1.33-2.95-2.95-2.95s-2.95,1.33-2.95,2.95v13.59c0,1.63,1.33,2.95,2.95,2.95s2.95-1.33,2.95-2.95v-13.59Z"/>
      <path class="cls-9" d="M141.83,154.24c0-1.63-1.33-2.95-2.95-2.95s-2.95,1.33-2.95,2.95v13.59c0,1.63,1.33,2.95,2.95,2.95s2.95-1.33,2.95-2.95v-13.59Z"/>
      <path class="cls-9" d="M141.83,154.24c0-1.63-1.33-2.95-2.95-2.95s-2.95,1.33-2.95,2.95v13.59c0,1.63,1.33,2.95,2.95,2.95s2.95-1.33,2.95-2.95v-13.59Z"/>
      <path class="cls-9" d="M141.83,154.24c0-1.63-1.33-2.95-2.95-2.95s-2.95,1.33-2.95,2.95v13.59c0,1.63,1.33,2.95,2.95,2.95s2.95-1.33,2.95-2.95v-13.59Z"/>
      <path class="cls-9" d="M141.83,154.24c0-1.63-1.33-2.95-2.95-2.95s-2.95,1.33-2.95,2.95v13.59c0,1.63,1.33,2.95,2.95,2.95s2.95-1.33,2.95-2.95v-13.59Z"/>
    </g>
    <g>
      <path class="cls-9" d="M176.7,154.83c0-1.63-1.33-2.95-2.95-2.95s-2.95,1.33-2.95,2.95v13.59c0,1.63,1.33,2.95,2.95,2.95s2.95-1.33,2.95-2.95v-13.59Z"/>
      <path class="cls-9" d="M176.7,154.83c0-1.63-1.33-2.95-2.95-2.95s-2.95,1.33-2.95,2.95v13.59c0,1.63,1.33,2.95,2.95,2.95s2.95-1.33,2.95-2.95v-13.59Z"/>
      <path class="cls-9" d="M176.7,154.83c0-1.63-1.33-2.95-2.95-2.95s-2.95,1.33-2.95,2.95v13.59c0,1.63,1.33,2.95,2.95,2.95s2.95-1.33,2.95-2.95v-13.59Z"/>
      <path class="cls-9" d="M176.7,154.83c0-1.63-1.33-2.95-2.95-2.95s-2.95,1.33-2.95,2.95v13.59c0,1.63,1.33,2.95,2.95,2.95s2.95-1.33,2.95-2.95v-13.59Z"/>
      <path class="cls-9" d="M176.7,154.83c0-1.63-1.33-2.95-2.95-2.95s-2.95,1.33-2.95,2.95v13.59c0,1.63,1.33,2.95,2.95,2.95s2.95-1.33,2.95-2.95v-13.59Z"/>
    </g>
    <path class="cls-2" d="M311.43,190.29H.59v3.55H311.43v-3.55Z"/>
  </g>
  <text class="cls-26" transform="translate(71.79 220.29)"><tspan x="0" y="0">Кунсткамера</tspan></text>
</svg>