<?xml version="1.0" encoding="UTF-8"?>
<svg id="_Слой_1" data-name="Слой 1" xmlns="http://www.w3.org/2000/svg" xmlns:xlink="http://www.w3.org/1999/xlink" viewBox="0 0 234.98 327.69">
  <defs>
    <style>
      .cls-1 {
        fill: none;
      }

      .cls-2 {
        clip-path: url(#clippath);
      }

      .cls-3 {
        fill: #6a513a;
      }

      .cls-4 {
        fill: #f4ec55;
      }

      .cls-5 {
        fill: #e8eb9f;
      }

      .cls-6 {
        fill: #f3bf5f;
      }

      .cls-7 {
        fill: #fff;
      }

      .cls-8 {
        fill: #fefce9;
      }

      .cls-9 {
        fill: #faf6b9;
      }

      .cls-10 {
        fill: #b58b65;
      }

      .cls-11 {
        fill: #735d45;
      }

      .cls-12 {
        fill: #d7ca72;
      }

      .cls-13 {
        fill: #bbb;
      }

      .cls-14 {
        fill: #ccb94a;
      }

      .cls-15 {
        fill: #d9d9d8;
      }

      .cls-16 {
        fill: #221f20;
      }

      .cls-17 {
        fill: #9b9b9b;
      }

      .cls-18 {
        fill: #7a5d4a;
      }
    </style>
    <clipPath id="clippath">
      <rect class="cls-1" width="234.98" height="259.21"/>
    </clipPath>
  </defs>
  <g class="cls-2">
    <g>
      <path class="cls-10" d="M194.76,229.71c11.74,0,21.25-7.55,21.25-16.86s-9.51-16.86-21.25-16.86-21.25,7.55-21.25,16.86,9.51,16.86,21.25,16.86Z"/>
      <path class="cls-3" d="M194.58,229.71c7.95,0,14.4-7.55,14.4-16.86s-6.45-16.86-14.4-16.86-14.4,7.55-14.4,16.86,6.45,16.86,14.4,16.86Z"/>
      <path class="cls-10" d="M13.4,222.68H223.67l11.31,36.53H0l13.4-36.53Z"/>
      <path class="cls-18" d="M9.83,232.17H226.55l1.05,3.16H8.78l1.05-3.16Z"/>
      <path class="cls-18" d="M13.28,246.32c.23-3.03,2.76-5.38,5.81-5.38s5.64,2.41,5.81,5.49l.74,12.78H12.29l.99-12.89Z"/>
      <path class="cls-18" d="M187.5,246.32c.23-3.03,2.76-5.38,5.81-5.38s5.64,2.41,5.81,5.49l.74,12.78h-13.35l.99-12.89Z"/>
      <path class="cls-18" d="M209.27,246.32c.23-3.03,2.76-5.38,5.81-5.38s5.64,2.41,5.81,5.49l.74,12.78h-13.35l.99-12.89Z"/>
      <path class="cls-18" d="M165.72,246.32c.23-3.03,2.76-5.38,5.81-5.38s5.64,2.41,5.81,5.49l.74,12.78h-13.35l.99-12.89Z"/>
      <path class="cls-18" d="M122.17,246.32c.23-3.03,2.76-5.38,5.81-5.38s5.64,2.41,5.81,5.49l.74,12.78h-13.35l.99-12.89Z"/>
      <path class="cls-18" d="M143.94,246.32c.23-3.03,2.76-5.38,5.81-5.38s5.64,2.41,5.81,5.49l.74,12.78h-13.35l.99-12.89Z"/>
      <path class="cls-18" d="M78.61,246.32c.23-3.03,2.76-5.38,5.81-5.38s5.64,2.41,5.81,5.49l.74,12.78h-13.35l.99-12.89Z"/>
      <path class="cls-18" d="M100.39,246.32c.23-3.03,2.76-5.38,5.81-5.38s5.64,2.41,5.81,5.49l.74,12.78h-13.35l.99-12.89Z"/>
      <path class="cls-18" d="M35.06,246.32c.23-3.03,2.76-5.38,5.81-5.38s5.64,2.41,5.81,5.49l.74,12.78h-13.35l.99-12.89Z"/>
      <path class="cls-18" d="M56.84,246.32c.23-3.03,2.76-5.38,5.81-5.38s5.64,2.41,5.81,5.49l.74,12.78h-13.35l.99-12.89Z"/>
      <path class="cls-6" d="M140.14,181.94h-24.59v40.74h24.59v-40.74Z"/>
      <path class="cls-15" d="M128.03,166.49c-6.89,0-12.47,5.98-12.47,13.35h24.94c0-7.37-5.58-13.35-12.47-13.35Z"/>
      <path class="cls-18" d="M118.72,191.25c0-1.26,1.02-2.28,2.28-2.28s2.28,1.02,2.28,2.28v4.74h-4.57v-4.74Z"/>
      <path class="cls-18" d="M125.39,191.25c0-1.26,1.02-2.28,2.28-2.28s2.28,1.02,2.28,2.28v4.74h-4.57v-4.74Z"/>
      <path class="cls-18" d="M132.42,191.25c0-1.26,1.02-2.28,2.28-2.28s2.28,1.02,2.28,2.28v4.74h-4.57v-4.74Z"/>
      <path class="cls-9" d="M119.07,181.94h-3.51v40.74h3.51v-40.74Z"/>
      <path class="cls-9" d="M140.14,181.94h-3.51v40.74h3.51v-40.74Z"/>
      <path class="cls-9" d="M125.74,181.94h-3.51v40.74h3.51v-40.74Z"/>
      <path class="cls-9" d="M133.12,181.94h-3.51v40.74h3.51v-40.74Z"/>
      <path class="cls-13" d="M25.64,216.36H119.3l1.88,6.32H25.64v-6.32Z"/>
      <path class="cls-13" d="M55.85,206.88h60.47l2.75,9.48H55.85v-9.48Z"/>
      <path class="cls-9" d="M55.85,138.74H25.64v77.62h30.21v-77.62Z"/>
      <path class="cls-6" d="M50.58,138.74H31.61v77.62h18.97v-77.62Z"/>
      <path class="cls-12" d="M57.25,203.72H24.59v1.76H57.25v-1.76Z"/>
      <path class="cls-12" d="M57.6,136.98H24.94v1.76H57.6v-1.76Z"/>
      <path class="cls-12" d="M57.25,197.04H24.59v1.05H57.25v-1.05Z"/>
      <path class="cls-12" d="M57.25,160.16H24.59v1.05H57.25v-1.05Z"/>
      <path class="cls-12" d="M57.6,167.89H24.94v1.76H57.6v-1.76Z"/>
      <path class="cls-11" d="M36.88,149.45c0-2.42,1.97-4.39,4.39-4.39s4.39,1.97,4.39,4.39v10.71h-8.78v-10.71Z"/>
      <path class="cls-11" d="M36.88,186.33c0-2.42,1.97-4.39,4.39-4.39s4.39,1.97,4.39,4.39v10.71h-8.78v-10.71Z"/>
      <path class="cls-14" d="M48.47,146.11h-2.81v14.05h2.81v-14.05Z"/>
      <path class="cls-14" d="M36.88,146.11h-2.81v14.05h2.81v-14.05Z"/>
      <path class="cls-14" d="M36.88,182.99h-2.81v14.05h2.81v-14.05Z"/>
      <path class="cls-14" d="M48.47,182.99h-2.81v14.05h2.81v-14.05Z"/>
      <path class="cls-5" d="M25.99,130.66c-.55-3.12,1.85-5.97,5.01-5.97h20.57c3.18,0,5.62,2.82,5.16,5.97l.88,6.32H24.94l1.05-6.32Z"/>
      <path class="cls-5" d="M30.59,101.84c-.39-3.55,2.39-6.65,5.96-6.65h9.45c3.59,0,6.4,3.08,6.07,6.65l.61,7.04H29.86l.74-7.04Z"/>
      <path class="cls-9" d="M51.98,108.88H30.21v15.81h21.78v-15.81Z"/>
      <path class="cls-9" d="M48.12,86.05h-14.05v10.54h14.05v-10.54Z"/>
      <path class="cls-5" d="M41.27,4.92l6.54,81.14h-13.08L41.27,4.92Z"/>
      <path class="cls-5" d="M48.12,84.65h-13.7v2.11h13.7v-2.11Z"/>
      <path class="cls-8" d="M36.18,134c0-2.81,2.28-5.09,5.09-5.09s5.09,2.28,5.09,5.09v2.99h-10.19v-2.99Z"/>
      <path class="cls-18" d="M41.09,134.87c1.16,0,2.11-.94,2.11-2.11s-.94-2.11-2.11-2.11-2.11,.94-2.11,2.11,.94,2.11,2.11,2.11Z"/>
      <path class="cls-18" d="M31.26,113.8c0-1.36,1.1-2.46,2.46-2.46s2.46,1.1,2.46,2.46v10.89h-4.92v-10.89Z"/>
      <path class="cls-18" d="M38.64,113.8c0-1.36,1.1-2.46,2.46-2.46s2.46,1.1,2.46,2.46v10.89h-4.92v-10.89Z"/>
      <path class="cls-18" d="M46.01,113.8c0-1.36,1.1-2.46,2.46-2.46s2.46,1.1,2.46,2.46v10.89h-4.92v-10.89Z"/>
      <path class="cls-18" d="M34.77,90.44c0-.68,.55-1.23,1.23-1.23s1.23,.55,1.23,1.23v6.15h-2.46v-6.15Z"/>
      <path class="cls-18" d="M38.28,90.44c0-.68,.55-1.23,1.23-1.23s1.23,.55,1.23,1.23v6.15h-2.46v-6.15Z"/>
      <path class="cls-18" d="M45.31,90.44c0-.68,.55-1.23,1.23-1.23s1.23,.55,1.23,1.23v6.15h-2.46v-6.15Z"/>
      <path class="cls-18" d="M41.8,90.44c0-.68,.55-1.23,1.23-1.23s1.23,.55,1.23,1.23v6.15h-2.46v-6.15Z"/>
      <path class="cls-4" d="M133.47,158.06c0,1.15-.96,.47-1.4,1.4-.91,1.89-1.76,4.04-4.04,4.04s-2.98-1.8-4.04-3.69c-.52-.93-1.58-1.13-1.58-2.28,0-1.71,.51-3.43,1.58-4.57,1.12-1.19,2.3-2.11,4.04-2.11s3.23,.74,4.21,1.93c.94,1.14,1.23,3.56,1.23,5.27Z"/>
      <path class="cls-9" d="M132.42,160.51h-9.13v7.73h9.13v-7.73Z"/>
      <path class="cls-18" d="M123.99,163.85c0-.49,.39-.88,.88-.88s.88,.39,.88,.88v4.39h-1.76v-4.39Z"/>
      <path class="cls-18" d="M126.44,164.03c0-.58,.47-1.05,1.05-1.05s1.05,.47,1.05,1.05v4.21h-2.11v-4.21Z"/>
      <path class="cls-18" d="M129.61,164.03c0-.58,.47-1.05,1.05-1.05s1.05,.47,1.05,1.05v4.21h-2.11v-4.21Z"/>
      <path class="cls-4" d="M42.32,6.67c0,.58-.47,1.05-1.05,1.05s-1.05-.47-1.05-1.05,.47-1.05,1.05-1.05,1.05,.47,1.05,1.05Z"/>
      <path class="cls-4" d="M40.92,0h.7V5.97h-.7V0Z"/>
      <path class="cls-4" d="M38.64,2.46v-.7h5.27v.7h-5.27Z"/>
      <path class="cls-4" d="M129.08,148.92c0,.58-.47,1.05-1.05,1.05s-1.05-.47-1.05-1.05,.47-1.05,1.05-1.05,1.05,.47,1.05,1.05Z"/>
      <path class="cls-4" d="M127.85,142.25h.35v9.83h-.35v-9.83Z"/>
      <path class="cls-4" d="M125.39,144.36v-.35h5.27v.35h-5.27Z"/>
      <path class="cls-4" d="M194.06,160.51h1.05v9.83h-1.05v-9.83Z"/>
      <path class="cls-4" d="M191.77,162.97v-.7h5.27v.7h-5.27Z"/>
      <path class="cls-4" d="M191.77,166.11l.18-.68,4.75,1.26-.18,.68-4.75-1.26Z"/>
      <path class="cls-9" d="M41.27,7.38l4.41,77.18h-8.82L41.27,7.38Z"/>
      <path class="cls-14" d="M140.85,179.83h-25.64v2.11h25.64v-2.11Z"/>
      <path class="cls-14" d="M133.12,159.81h-10.19v1.05h10.19v-1.05Z"/>
      <path class="cls-6" d="M119.07,177.2c0-.87,.71-1.58,1.58-1.58s1.58,.71,1.58,1.58v2.63h-3.16v-2.63Z"/>
      <path class="cls-6" d="M125.74,177.55c0-1.07,.86-1.93,1.93-1.93s1.93,.86,1.93,1.93v2.28h-3.86v-2.28Z"/>
      <path class="cls-6" d="M133.12,177.37c0-.97,.79-1.76,1.76-1.76s1.76,.79,1.76,1.76v2.46h-3.51v-2.46Z"/>
      <path class="cls-18" d="M121.7,177.73c0,.58-.47,1.05-1.05,1.05s-1.05-.47-1.05-1.05,.47-1.05,1.05-1.05,1.05,.47,1.05,1.05Z"/>
      <path class="cls-18" d="M128.83,177.72c0,.58-.47,1.05-1.05,1.05s-1.05-.47-1.05-1.05,.47-1.05,1.05-1.05,1.05,.47,1.05,1.05Z"/>
      <path class="cls-18" d="M135.93,177.73c0,.58-.47,1.05-1.05,1.05s-1.05-.47-1.05-1.05,.47-1.05,1.05-1.05,1.05,.47,1.05,1.05Z"/>
      <path class="cls-9" d="M216.01,216.36h-42.5v6.32h42.5v-6.32Z"/>
      <path class="cls-10" d="M200.2,195.99h-10.89v20.37h10.89v-20.37Z"/>
      <path class="cls-18" d="M198.45,195.99h-7.38v20.37h7.38v-20.37Z"/>
      <path class="cls-9" d="M194.76,191.07c3.01,0,5.44-2.59,5.44-5.8s-2.44-5.8-5.44-5.8-5.44,2.59-5.44,5.8,2.44,5.8,5.44,5.8Z"/>
      <path class="cls-9" d="M200.2,185.8h-10.89v10.19h10.89v-10.19Z"/>
      <path class="cls-18" d="M200.56,194.94h-11.94v2.46h11.94v-2.46Z"/>
      <path class="cls-18" d="M200.56,185.8h-11.94v2.46h11.94v-2.46Z"/>
      <path class="cls-18" d="M192.83,191.6c0-1.07,.86-1.93,1.93-1.93s1.93,.86,1.93,1.93v3.34h-3.86v-3.34Z"/>
      <path class="cls-9" d="M193.53,173.51h2.46l1.4,7.73h-5.27l1.4-7.73Z"/>
      <path class="cls-9" d="M194.58,177.02c1.94,0,3.51-1.57,3.51-3.51s-1.57-3.51-3.51-3.51-3.51,1.57-3.51,3.51,1.57,3.51,3.51,3.51Z"/>
      <path class="cls-15" d="M178.08,210.74h-24.94v11.94h24.94v-11.94Z"/>
      <path class="cls-7" d="M154.54,210.74h-1.4v11.94h1.4v-11.94Z"/>
      <path class="cls-7" d="M156.3,210.74h-1.4v11.94h1.4v-11.94Z"/>
      <path class="cls-7" d="M176.67,210.74h-1.4v11.94h1.4v-11.94Z"/>
      <path class="cls-7" d="M178.43,210.74h-1.4v11.94h1.4v-11.94Z"/>
      <path class="cls-7" d="M169.65,210.74h-1.4v11.94h1.4v-11.94Z"/>
      <path class="cls-7" d="M171.4,210.74h-1.4v11.94h1.4v-11.94Z"/>
      <path class="cls-7" d="M162.27,210.74h-1.4v11.94h1.4v-11.94Z"/>
      <path class="cls-7" d="M164.03,210.74h-1.4v11.94h1.4v-11.94Z"/>
      <path class="cls-18" d="M160.16,214.25h-3.16v4.57h3.16v-4.57Z"/>
      <path class="cls-18" d="M167.89,214.25h-3.16v4.57h3.16v-4.57Z"/>
      <path class="cls-18" d="M175.27,214.25h-3.16v4.57h3.16v-4.57Z"/>
      <path class="cls-13" d="M178.43,210.04h-25.29v.7h25.29v-.7Z"/>
      <path class="cls-17" d="M168.24,191.77h-3.86v6.32h3.86v-6.32Z"/>
      <path class="cls-15" d="M160.25,200.22c1.12-2.37,3.51-3.88,6.14-3.88,2.89,0,5.47,1.83,6.42,4.57l3.16,9.13h-20.37l4.66-9.82Z"/>
      <path class="cls-15" d="M170,194.58h-7.38v1.4h7.38v-1.4Z"/>
      <path class="cls-15" d="M169.3,192.48h-5.97v1.4h5.97v-1.4Z"/>
      <path class="cls-4" d="M166.49,162.27h-.7v29.5h.7v-29.5Z"/>
      <path class="cls-4" d="M172.59,179.18v.7s-13.84-.05-13.84-.05v-.7s13.84,.05,13.84,.05Z"/>
      <path class="cls-4" d="M170,165.81v.7s-8.08-.03-8.08-.03v-.7s8.08,.03,8.08,.03Z"/>
      <path class="cls-15" d="M158.65,179.83l-.59,.38,7.91,12.5,.59-.38-7.91-12.5Z"/>
      <path class="cls-15" d="M166.3,171.75l-.52,.47,6.72,7.41,.52-.47-6.72-7.41Z"/>
      <path class="cls-15" d="M172.73,179.76l-.64-.28-5.6,12.87,.64,.28,5.6-12.87Z"/>
      <path class="cls-15" d="M166.37,171.88l-.52-.47-7.36,8.11,.52,.47,7.36-8.11Z"/>
    </g>
  </g>
  <g>
    <path class="cls-16" d="M6.12,267.2h15.49v19.38h-2.6v-17.11H8.7v17.11h-2.58v-19.38Z"/>
    <path class="cls-16" d="M37.42,282.07c-.1,.62-.31,1.22-.63,1.81-.33,.59-.75,1.12-1.28,1.58-.53,.47-1.15,.84-1.87,1.13-.72,.29-1.51,.43-2.38,.43-.95,0-1.83-.16-2.63-.47-.8-.31-1.5-.78-2.08-1.41-.58-.63-1.04-1.42-1.38-2.37s-.5-2.06-.5-3.35c0-.86,.09-1.64,.28-2.34,.19-.7,.44-1.32,.76-1.87,.32-.55,.69-1.02,1.11-1.42,.42-.4,.87-.73,1.34-.99,.47-.26,.95-.45,1.44-.58,.49-.13,.97-.19,1.42-.19,.97,0,1.85,.14,2.65,.44,.8,.29,1.49,.73,2.06,1.32,.58,.59,1.02,1.34,1.34,2.23,.32,.89,.48,1.94,.48,3.14v1.21h-10.32c0,.69,.11,1.31,.29,1.87,.18,.56,.45,1.04,.79,1.43,.34,.4,.76,.7,1.25,.92,.49,.21,1.04,.32,1.65,.32s1.15-.09,1.58-.26,.79-.4,1.08-.67,.52-.58,.71-.91,.33-.66,.46-.99h2.36Zm-2.28-3.64c-.02-.69-.12-1.3-.31-1.83-.19-.54-.45-.99-.79-1.35-.34-.37-.75-.64-1.22-.83-.47-.19-1-.28-1.58-.28s-1.06,.11-1.53,.32c-.47,.21-.87,.51-1.23,.9-.35,.38-.63,.83-.84,1.36-.21,.52-.34,1.1-.38,1.72h7.88Z"/>
    <path class="cls-16" d="M44.17,274.57h-4.86v-2.11h12.16v2.11h-4.86v12.01h-2.43v-12.01Z"/>
    <path class="cls-16" d="M53.78,272.46h2.43v1.94h.05c.16-.33,.36-.63,.6-.92,.24-.29,.53-.54,.87-.76,.34-.22,.73-.38,1.17-.51s.95-.18,1.52-.18c.76,0,1.48,.14,2.18,.44,.69,.29,1.31,.72,1.85,1.3s.96,1.31,1.28,2.18c.32,.88,.47,1.89,.47,3.05,0,1.45-.15,2.68-.44,3.7-.29,1.02-.71,1.84-1.25,2.49-.54,.64-1.19,1.11-1.96,1.4s-1.62,.44-2.56,.44c-.47,0-.9-.06-1.31-.19s-.77-.28-1.09-.48c-.32-.2-.6-.42-.82-.66-.23-.24-.4-.48-.51-.71h-.05v7.16h-2.43v-19.68Zm2.37,7.13c0,.76,.07,1.47,.22,2.12,.15,.65,.38,1.21,.69,1.68,.31,.47,.7,.85,1.17,1.11,.47,.27,1.03,.4,1.67,.4s1.25-.13,1.73-.4c.49-.27,.89-.64,1.21-1.11s.55-1.04,.7-1.68c.15-.65,.22-1.35,.22-2.12s-.07-1.53-.22-2.2c-.15-.67-.38-1.24-.7-1.73s-.72-.86-1.21-1.13c-.49-.27-1.07-.4-1.73-.4s-1.2,.13-1.67,.4c-.47,.27-.86,.64-1.17,1.13-.31,.48-.54,1.06-.69,1.73-.15,.67-.22,1.4-.22,2.2Z"/>
    <path class="cls-16" d="M81.21,279.5c0,1.16-.15,2.2-.45,3.13-.3,.93-.73,1.72-1.29,2.37s-1.25,1.15-2.06,1.5c-.81,.35-1.73,.52-2.76,.52s-1.95-.17-2.76-.52c-.81-.35-1.49-.85-2.06-1.5s-.99-1.44-1.29-2.37c-.3-.93-.45-1.97-.45-3.13s.15-2.17,.45-3.1,.73-1.71,1.29-2.36,1.25-1.15,2.06-1.5c.81-.35,1.73-.52,2.76-.52s1.95,.17,2.76,.52c.81,.35,1.5,.85,2.06,1.5s.99,1.44,1.29,2.36,.45,1.96,.45,3.1Zm-2.43,0c0-.78-.09-1.5-.26-2.16-.18-.65-.44-1.22-.79-1.69s-.78-.85-1.3-1.11c-.51-.27-1.11-.4-1.79-.4s-1.27,.13-1.78,.4c-.51,.27-.94,.64-1.29,1.11s-.62,1.04-.79,1.69c-.18,.66-.26,1.37-.26,2.16s.09,1.52,.26,2.18c.18,.66,.44,1.23,.79,1.71s.78,.85,1.29,1.11c.51,.27,1.1,.4,1.78,.4s1.27-.13,1.79-.4c.51-.27,.95-.64,1.3-1.11s.62-1.04,.79-1.71c.18-.66,.26-1.39,.26-2.18Z"/>
    <path class="cls-16" d="M92.96,274.57h-6.59v12.01h-2.43v-14.12h11.46v14.12h-2.44v-12.01Z"/>
    <path class="cls-16" d="M98.93,276.69c.03-.86,.19-1.59,.49-2.18,.3-.59,.7-1.08,1.21-1.44s1.11-.63,1.81-.8c.7-.16,1.46-.24,2.29-.24,.69,0,1.35,.07,2,.21,.65,.14,1.22,.37,1.72,.68,.5,.31,.9,.72,1.21,1.21,.3,.5,.45,1.1,.45,1.81v8.21c0,.23,.06,.42,.18,.59,.12,.16,.32,.24,.59,.24,.12,0,.25-.01,.38-.03,.13-.02,.27-.05,.41-.07v1.67c-.2,.05-.4,.1-.6,.15-.2,.04-.43,.07-.71,.07-.42,0-.78-.04-1.09-.11-.3-.07-.56-.19-.76-.35-.21-.16-.37-.37-.48-.63-.11-.26-.19-.58-.22-.96-.3,.33-.62,.63-.95,.9-.33,.28-.71,.52-1.12,.73-.41,.21-.87,.37-1.38,.49-.51,.12-1.09,.18-1.73,.18-.54,0-1.07-.09-1.59-.26-.51-.18-.98-.44-1.38-.78-.41-.34-.74-.77-.98-1.27-.25-.5-.37-1.09-.37-1.76,0-.73,.12-1.36,.37-1.89,.25-.53,.57-.98,.96-1.33,.4-.36,.85-.63,1.36-.82s1.03-.32,1.56-.38l3.97-.49c.38-.04,.67-.19,.89-.44,.21-.25,.32-.65,.32-1.21,0-.85-.28-1.47-.84-1.84-.56-.37-1.36-.56-2.41-.56s-1.87,.23-2.4,.68c-.53,.45-.83,1.13-.9,2.04h-2.27Zm8.75,2.7c-.19,.14-.43,.26-.72,.35-.29,.09-.6,.17-.94,.23-.34,.06-.71,.12-1.09,.17-.39,.05-.77,.1-1.16,.15-.44,.06-.84,.15-1.21,.26-.37,.12-.69,.26-.96,.45-.27,.18-.48,.41-.63,.67-.15,.26-.22,.57-.22,.92,0,.4,.06,.76,.19,1.07,.13,.31,.3,.57,.53,.78,.22,.21,.49,.37,.81,.47s.66,.16,1.04,.16c.24,0,.51-.03,.82-.09,.31-.06,.62-.14,.95-.26,.33-.11,.64-.26,.96-.44,.31-.18,.59-.4,.84-.65s.44-.54,.59-.87,.22-.69,.22-1.09v-2.27Z"/>
    <path class="cls-16" d="M113.97,272.46h6.01c1.72,0,3.01,.32,3.87,.96,.86,.64,1.29,1.57,1.29,2.79,0,.65-.16,1.2-.47,1.65-.32,.45-.73,.84-1.25,1.19,.75,.28,1.34,.69,1.78,1.21s.66,1.21,.66,2.04c0,.66-.11,1.25-.33,1.78s-.55,.98-1,1.35-1.02,.65-1.71,.85c-.69,.2-1.5,.3-2.45,.3h-6.39v-14.12Zm2.43,5.97h3.67c.82,0,1.46-.16,1.94-.49s.71-.83,.71-1.52c0-.39-.07-.71-.2-.97-.13-.26-.31-.47-.53-.63s-.47-.27-.74-.34c-.28-.07-.56-.1-.85-.1h-3.99v4.03Zm0,6.21h3.69c.64,0,1.18-.05,1.6-.15,.43-.1,.77-.25,1.02-.44s.44-.43,.54-.7c.11-.27,.16-.58,.16-.92s-.05-.65-.16-.93c-.11-.28-.29-.51-.54-.7-.25-.19-.6-.33-1.02-.43-.43-.1-.96-.15-1.6-.15h-3.69v4.43Z"/>
    <path class="cls-16" d="M138.27,274.57h-5.41l-.11,3.39c-.05,1.71-.18,3.14-.4,4.29-.21,1.15-.5,2.07-.86,2.76-.37,.69-.81,1.19-1.33,1.48-.52,.29-1.11,.43-1.78,.43-.25,0-.46-.04-.64-.11-.18-.07-.32-.15-.42-.23v-2.14c.34,.13,.65,.2,.91,.2,.18,0,.36-.03,.53-.09,.17-.06,.33-.18,.49-.36,.15-.17,.3-.42,.43-.74,.13-.32,.25-.74,.35-1.26,.1-.52,.18-1.15,.25-1.88,.07-.74,.11-1.62,.14-2.64l.12-5.21h10.14v14.12h-2.43v-12.01Z"/>
    <path class="cls-16" d="M156.56,279.5c0,1.16-.15,2.2-.45,3.13-.3,.93-.73,1.72-1.29,2.37s-1.25,1.15-2.06,1.5c-.81,.35-1.73,.52-2.76,.52s-1.95-.17-2.76-.52c-.81-.35-1.49-.85-2.06-1.5s-.99-1.44-1.29-2.37c-.3-.93-.45-1.97-.45-3.13s.15-2.17,.45-3.1,.73-1.71,1.29-2.36,1.25-1.15,2.06-1.5c.81-.35,1.73-.52,2.76-.52s1.95,.17,2.76,.52c.81,.35,1.5,.85,2.06,1.5s.99,1.44,1.29,2.36,.45,1.96,.45,3.1Zm-2.43,0c0-.78-.09-1.5-.26-2.16-.18-.65-.44-1.22-.79-1.69s-.78-.85-1.3-1.11c-.51-.27-1.11-.4-1.79-.4s-1.27,.13-1.78,.4c-.51,.27-.94,.64-1.29,1.11s-.62,1.04-.79,1.69c-.18,.66-.26,1.37-.26,2.16s.09,1.52,.26,2.18c.18,.66,.44,1.23,.79,1.71s.78,.85,1.29,1.11c.51,.27,1.1,.4,1.78,.4s1.27-.13,1.79-.4c.51-.27,.95-.64,1.3-1.11s.62-1.04,.79-1.71c.18-.66,.26-1.39,.26-2.18Z"/>
    <path class="cls-16" d="M159.29,272.46h6.01c1.72,0,3.01,.32,3.87,.96,.86,.64,1.29,1.57,1.29,2.79,0,.65-.16,1.2-.47,1.65-.32,.45-.73,.84-1.25,1.19,.75,.28,1.34,.69,1.78,1.21s.66,1.21,.66,2.04c0,.66-.11,1.25-.33,1.78s-.55,.98-1,1.35-1.02,.65-1.71,.85c-.69,.2-1.5,.3-2.45,.3h-6.39v-14.12Zm2.43,5.97h3.67c.82,0,1.46-.16,1.94-.49s.71-.83,.71-1.52c0-.39-.07-.71-.2-.97-.13-.26-.31-.47-.53-.63s-.47-.27-.74-.34c-.28-.07-.56-.1-.85-.1h-3.99v4.03Zm0,6.21h3.69c.64,0,1.18-.05,1.6-.15,.43-.1,.77-.25,1.02-.44s.44-.43,.54-.7c.11-.27,.16-.58,.16-.92s-.05-.65-.16-.93c-.11-.28-.29-.51-.54-.7-.25-.19-.6-.33-1.02-.43-.43-.1-.96-.15-1.6-.15h-3.69v4.43Z"/>
    <path class="cls-16" d="M185.18,281.6c-.04,.34-.1,.72-.2,1.12s-.25,.81-.44,1.21c-.19,.4-.44,.78-.75,1.15-.3,.37-.67,.7-1.11,.98-.43,.29-.95,.51-1.54,.69-.59,.17-1.26,.26-2.02,.26-.41,0-.85-.05-1.31-.15-.46-.1-.9-.27-1.34-.51-.43-.24-.85-.54-1.24-.92-.39-.37-.73-.84-1.03-1.39s-.53-1.2-.71-1.93c-.18-.73-.26-1.58-.26-2.52,0-1.17,.17-2.22,.5-3.16,.33-.94,.78-1.73,1.34-2.38s1.21-1.15,1.95-1.5,1.52-.53,2.34-.53c.74,0,1.39,.08,1.96,.24,.57,.16,1.06,.37,1.48,.63s.78,.57,1.07,.92c.29,.35,.52,.71,.71,1.09,.18,.38,.32,.77,.41,1.17,.09,.4,.15,.77,.18,1.13h-2.27c-.12-.96-.45-1.71-1-2.25-.54-.54-1.3-.82-2.27-.82-.67,0-1.25,.14-1.75,.41-.5,.27-.91,.65-1.24,1.14-.33,.49-.58,1.08-.74,1.77-.16,.69-.24,1.45-.24,2.27,0,.93,.09,1.73,.26,2.41,.18,.67,.43,1.23,.75,1.66,.33,.43,.72,.76,1.19,.96,.47,.21,1,.31,1.6,.31,.42,0,.82-.08,1.2-.23,.38-.15,.72-.38,1.02-.67,.3-.29,.55-.66,.76-1.09s.36-.92,.45-1.46h2.27Z"/>
    <path class="cls-16" d="M187.58,272.46h2.43v6.83l7.13-6.83h3.18l-6.63,6.24,6.74,7.88h-3.12l-5.51-6.41-1.78,1.49v4.92h-2.43v-14.12Z"/>
    <path class="cls-16" d="M202.34,276.69c.03-.86,.19-1.59,.49-2.18,.3-.59,.7-1.08,1.21-1.44s1.11-.63,1.81-.8c.7-.16,1.46-.24,2.29-.24,.69,0,1.35,.07,2,.21,.65,.14,1.22,.37,1.72,.68,.5,.31,.9,.72,1.21,1.21,.3,.5,.45,1.1,.45,1.81v8.21c0,.23,.06,.42,.18,.59,.12,.16,.32,.24,.59,.24,.12,0,.25-.01,.38-.03,.13-.02,.27-.05,.41-.07v1.67c-.2,.05-.4,.1-.6,.15-.2,.04-.43,.07-.71,.07-.42,0-.78-.04-1.09-.11-.3-.07-.56-.19-.76-.35-.21-.16-.37-.37-.48-.63-.11-.26-.19-.58-.22-.96-.3,.33-.62,.63-.95,.9-.33,.28-.71,.52-1.12,.73-.41,.21-.87,.37-1.38,.49-.51,.12-1.09,.18-1.73,.18-.54,0-1.07-.09-1.59-.26-.51-.18-.98-.44-1.38-.78-.41-.34-.74-.77-.98-1.27-.25-.5-.37-1.09-.37-1.76,0-.73,.12-1.36,.37-1.89,.25-.53,.57-.98,.96-1.33,.4-.36,.85-.63,1.36-.82s1.03-.32,1.56-.38l3.97-.49c.38-.04,.67-.19,.89-.44,.21-.25,.32-.65,.32-1.21,0-.85-.28-1.47-.84-1.84-.56-.37-1.36-.56-2.41-.56s-1.87,.23-2.4,.68c-.53,.45-.83,1.13-.9,2.04h-2.27Zm8.75,2.7c-.19,.14-.43,.26-.72,.35-.29,.09-.6,.17-.94,.23-.34,.06-.71,.12-1.09,.17-.39,.05-.77,.1-1.16,.15-.44,.06-.84,.15-1.21,.26-.37,.12-.69,.26-.96,.45-.27,.18-.48,.41-.63,.67-.15,.26-.22,.57-.22,.92,0,.4,.06,.76,.19,1.07,.13,.31,.3,.57,.53,.78,.22,.21,.49,.37,.81,.47s.66,.16,1.04,.16c.24,0,.51-.03,.82-.09,.31-.06,.62-.14,.95-.26,.33-.11,.64-.26,.96-.44,.31-.18,.59-.4,.84-.65s.44-.54,.59-.87,.22-.69,.22-1.09v-2.27Z"/>
    <path class="cls-16" d="M228.87,286.58h-2.44v-5.59h-3.12c-.56,0-1.05,.01-1.47,.03-.42,.02-.77,.1-1.06,.24s-.52,.36-.68,.66c-.16,.3-.27,.73-.31,1.28l-.11,1.52s-.02,.13-.03,.26c0,.13-.03,.29-.05,.47-.03,.18-.06,.37-.11,.57s-.1,.39-.16,.55h-2.68c.06-.08,.12-.16,.18-.24,.06-.08,.11-.2,.17-.35,.06-.15,.11-.34,.16-.58,.05-.24,.09-.54,.14-.91l.16-1.81c.05-.47,.12-.86,.19-1.16s.18-.55,.32-.75c.14-.2,.31-.36,.53-.49,.22-.13,.5-.26,.83-.39-1.51-.54-2.27-1.66-2.27-3.35,0-.42,.05-.81,.16-1.17,.11-.36,.24-.67,.42-.96,.17-.28,.36-.53,.58-.74,.21-.22,.43-.39,.65-.53,.27-.18,.57-.31,.9-.4,.33-.09,.65-.16,.98-.2,.33-.04,.65-.07,.97-.08s.61-.01,.87-.01h6.28v14.12Zm-2.44-11.98h-3.69c-.32,0-.59,0-.82,0-.23,0-.43,.02-.6,.03-.17,.02-.33,.05-.47,.09s-.29,.11-.44,.18c-.31,.18-.54,.44-.71,.78s-.24,.71-.24,1.09,.06,.7,.17,.96c.11,.26,.27,.47,.46,.64,.19,.17,.4,.3,.63,.39,.23,.09,.47,.16,.71,.2,.24,.04,.48,.06,.71,.07s.43,.01,.59,.01h3.69v-4.46Z"/>
    <path class="cls-16" d="M61.5,304.86h2.43v6.83l7.13-6.83h3.18l-6.63,6.24,6.74,7.88h-3.12l-5.51-6.41-1.78,1.49v4.92h-2.43v-14.12Z"/>
    <path class="cls-16" d="M76.16,304.86h2.43v1.94h.05c.16-.33,.36-.63,.6-.92,.24-.29,.53-.54,.87-.76,.34-.22,.73-.38,1.17-.51s.95-.18,1.52-.18c.76,0,1.48,.14,2.18,.44,.69,.29,1.31,.72,1.85,1.3s.96,1.31,1.28,2.18c.32,.88,.47,1.89,.47,3.05,0,1.45-.15,2.68-.44,3.7-.29,1.02-.71,1.84-1.25,2.49-.54,.64-1.19,1.11-1.96,1.4s-1.62,.44-2.56,.44c-.47,0-.9-.06-1.31-.19s-.77-.28-1.09-.48c-.32-.2-.6-.42-.82-.66-.23-.24-.4-.48-.51-.71h-.05v7.16h-2.43v-19.68Zm2.37,7.13c0,.76,.07,1.47,.22,2.12,.15,.65,.38,1.21,.69,1.68,.31,.47,.7,.85,1.17,1.11,.47,.27,1.03,.4,1.67,.4s1.25-.13,1.73-.4c.49-.27,.89-.64,1.21-1.11s.55-1.04,.7-1.68c.15-.65,.22-1.35,.22-2.12s-.07-1.53-.22-2.2c-.15-.67-.38-1.24-.7-1.73s-.72-.86-1.21-1.13c-.49-.27-1.07-.4-1.73-.4s-1.2,.13-1.67,.4c-.47,.27-.86,.64-1.17,1.13-.31,.48-.54,1.06-.69,1.73-.15,.67-.22,1.4-.22,2.2Z"/>
    <path class="cls-16" d="M103.34,314.47c-.1,.62-.31,1.22-.63,1.81-.33,.59-.75,1.12-1.28,1.58-.53,.47-1.15,.84-1.87,1.13-.72,.29-1.51,.43-2.38,.43-.95,0-1.83-.16-2.63-.47-.8-.31-1.5-.78-2.08-1.41-.58-.63-1.04-1.42-1.38-2.37s-.5-2.06-.5-3.35c0-.86,.09-1.64,.28-2.34,.19-.7,.44-1.32,.76-1.87,.32-.55,.69-1.02,1.11-1.42,.42-.4,.87-.73,1.34-.99,.47-.26,.95-.45,1.44-.58,.49-.13,.97-.19,1.42-.19,.97,0,1.85,.14,2.65,.44,.8,.29,1.49,.73,2.06,1.32,.58,.59,1.02,1.34,1.34,2.23,.32,.89,.48,1.94,.48,3.14v1.21h-10.32c0,.69,.11,1.31,.29,1.87,.18,.56,.45,1.04,.79,1.43,.34,.4,.76,.7,1.25,.92,.49,.21,1.04,.32,1.65,.32s1.15-.09,1.58-.26,.79-.4,1.08-.67,.52-.58,.71-.91,.33-.66,.46-.99h2.36Zm-2.28-3.64c-.02-.69-.12-1.3-.31-1.83-.19-.54-.45-.99-.79-1.35-.34-.37-.75-.64-1.22-.83-.47-.19-1-.28-1.58-.28s-1.06,.11-1.53,.32c-.47,.21-.87,.51-1.23,.9-.35,.38-.63,.83-.84,1.36-.21,.52-.34,1.1-.38,1.72h7.88Z"/>
    <path class="cls-16" d="M115.35,306.97h-6.59v12.01h-2.43v-14.12h11.46v14.12h-2.44v-12.01Z"/>
    <path class="cls-16" d="M133.63,311.9c0,1.16-.15,2.2-.45,3.13-.3,.93-.73,1.72-1.29,2.37s-1.25,1.15-2.06,1.5c-.81,.35-1.73,.52-2.76,.52s-1.95-.17-2.76-.52c-.81-.35-1.49-.85-2.06-1.5s-.99-1.44-1.29-2.37c-.3-.93-.45-1.97-.45-3.13s.15-2.17,.45-3.1,.73-1.71,1.29-2.36,1.25-1.15,2.06-1.5c.81-.35,1.73-.52,2.76-.52s1.95,.17,2.76,.52c.81,.35,1.5,.85,2.06,1.5s.99,1.44,1.29,2.36,.45,1.96,.45,3.1Zm-2.43,0c0-.78-.09-1.5-.26-2.16-.18-.65-.44-1.22-.79-1.69s-.78-.85-1.3-1.11c-.51-.27-1.11-.4-1.79-.4s-1.27,.13-1.78,.4c-.51,.27-.94,.64-1.29,1.11s-.62,1.04-.79,1.69c-.18,.66-.26,1.37-.26,2.16s.09,1.52,.26,2.18c.18,.66,.44,1.23,.79,1.71s.78,.85,1.29,1.11c.51,.27,1.1,.4,1.78,.4s1.27-.13,1.79-.4c.51-.27,.95-.64,1.3-1.11s.62-1.04,.79-1.71c.18-.66,.26-1.39,.26-2.18Z"/>
    <path class="cls-16" d="M147.46,314.01c-.04,.34-.1,.72-.2,1.12s-.25,.81-.44,1.21c-.19,.4-.44,.78-.75,1.15-.3,.37-.67,.7-1.11,.98-.43,.29-.95,.51-1.54,.69-.59,.17-1.26,.26-2.02,.26-.41,0-.85-.05-1.31-.15-.46-.1-.9-.27-1.34-.51-.43-.24-.85-.54-1.24-.92-.39-.37-.73-.84-1.03-1.39s-.53-1.2-.71-1.93c-.18-.73-.26-1.58-.26-2.52,0-1.17,.17-2.22,.5-3.16,.33-.94,.78-1.73,1.34-2.38s1.21-1.15,1.95-1.5,1.52-.53,2.34-.53c.74,0,1.39,.08,1.96,.24,.57,.16,1.06,.37,1.48,.63s.78,.57,1.07,.92c.29,.35,.52,.71,.71,1.09,.18,.38,.32,.77,.41,1.17,.09,.4,.15,.77,.18,1.13h-2.27c-.12-.96-.45-1.71-1-2.25-.54-.54-1.3-.82-2.27-.82-.67,0-1.25,.14-1.75,.41-.5,.27-.91,.65-1.24,1.14-.33,.49-.58,1.08-.74,1.77-.16,.69-.24,1.45-.24,2.27,0,.93,.09,1.73,.26,2.41,.18,.67,.43,1.23,.75,1.66,.33,.43,.72,.76,1.19,.96,.47,.21,1,.31,1.6,.31,.42,0,.82-.08,1.2-.23,.38-.15,.72-.38,1.02-.67,.3-.29,.55-.66,.76-1.09s.36-.92,.45-1.46h2.27Z"/>
    <path class="cls-16" d="M153.62,306.97h-4.86v-2.11h12.16v2.11h-4.86v12.01h-2.43v-12.01Z"/>
    <path class="cls-16" d="M163.36,304.86h2.43v5.31h3.92c.77,0,1.46,.1,2.07,.31,.61,.21,1.12,.5,1.54,.88,.42,.38,.75,.84,.97,1.38,.22,.54,.34,1.15,.34,1.83s-.11,1.3-.34,1.84c-.22,.54-.55,1-.97,1.38-.42,.38-.94,.67-1.54,.88s-1.3,.3-2.07,.3h-6.34v-14.12Zm2.43,12.18h3.44c.42,0,.81-.04,1.18-.13,.36-.09,.68-.23,.94-.43,.26-.2,.47-.45,.62-.76,.15-.31,.22-.69,.22-1.14s-.08-.81-.23-1.12-.37-.56-.65-.76c-.28-.2-.61-.34-1-.43-.39-.09-.83-.14-1.31-.14h-3.22v4.92Z"/>
  </g>
</svg>