<?xml version="1.0" encoding="UTF-8"?>
<svg id="_Слой_1" data-name="Слой 1" xmlns="http://www.w3.org/2000/svg" viewBox="0 0 107.69 153.65">
  <defs>
    <style>
      .cls-1 {
        fill: #dc4b33;
        stroke: #f2c658;
        stroke-width: 4.22px;
      }
    </style>
  </defs>
  <path class="cls-1" d="M15.25,92.37l38.76,57.51,37.07-54.45c4.98-7.31,8.8-15.34,11.34-23.81l1.06-3.54c.96-3.19,1.59-6.47,1.89-9.79,1.07-11.77-2.09-23.54-8.9-33.2l-1.11-1.58C86.7,11.25,73.03,3.47,58.07,2.27c-2.7-.22-5.44-.21-8.14,0-14.65,1.19-28.24,8.54-37.17,20.22C4.18,33.72,.57,48.14,2.72,62.1c.55,3.57,1.47,7.11,2.74,10.49l1.06,2.82c2.24,5.97,5.17,11.66,8.74,16.95Z"/>
</svg>